<svg xmlns="http://www.w3.org/2000/svg" viewBox="0 0 105.82 113.33"><defs><style>.cls-1{fill:#bcbec0;}.cls-2{fill:#0b3b74;}.cls-3,.cls-4{fill:#16325c;}.cls-4{font-size:10.09px;font-family:Arial-BoldMT, Arial;font-weight:700;letter-spacing:0.56em;}.cls-5{fill:#313130;}</style></defs><g id="Layer_2" data-name="Layer 2"><g id="Layer_1-2" data-name="Layer 1"><path class="cls-1" d="M75.39,44.22H54.15c-.29-.21-.6-.42-.92-.63-.55-.35-1.14-.7-1.78-1.06a48,48,0,0,1-10.06-6.79c3.57-1.53,8.17-3,11-3h0c5.27,0,6,2.79,10.24,5.52l.45.28c.91.55,2,1.12,3.09,1.67,4.23,2.09,9.18,4,9.18,4"/><path class="cls-2" d="M66.21,16.11V40.26c-1.11-.55-2.18-1.12-3.09-1.67V17.08c0-2-.57-3.35-6.48-6.09s-6.82-5.42-6.82-5.42S48.9,8.24,43,11s-6.48,4.11-6.48,6.09V29.65a29.54,29.54,0,0,1-2.6-7l-.49-1.92V16.11a6,6,0,0,1,2.55-5c2.74-1.8,8.42-4.62,9.88-5.91a12.45,12.45,0,0,0,4-5.15,12.37,12.37,0,0,0,4,5.15c1.46,1.29,7.13,4.11,9.88,5.91a6,6,0,0,1,2.55,5"/><path class="cls-2" d="M42.59,44.22H23.78c4.26-1,9.1-3.73,12.32-5.64a26.23,26.23,0,0,0,6.49,5.64"/><path class="cls-2" d="M53.23,43.59c-.55-.35-1.14-.7-1.78-1.06a48,48,0,0,1-10.06-6.79c3.57-1.53,8.17-3,11-3h0c.16,0,1.81.4,1.81,1.73s-3,1.54-2.48,3.07c.42,1.18,5.19.68,5.83,2.46.27.77-.11,2.58-4.36,3.54"/><path class="cls-3" d="M32.84,22.91s1.2,5.5,3.64,8.71,4,6.2,14.43,11.89,8,12.09,7.17,15.65A11,11,0,0,0,51.69,47.8c-7.92-4-20-8.64-18.85-24.89"/><path class="cls-3" d="M54.1,21.34l-.87-.42,1.69.3-.62-.47,1.72.38-.6-.71A9.85,9.85,0,0,1,57,21.2l-.53-.61,1.66.9-.45-.63,1.11.81-.49-.81L59.7,22l-.38-.71,1.37.91C58.84,19.14,56.36,19,54,19.9l-1.17-.15,1.71-.26-.73-.28,1.77-.09-.77-.53a10.51,10.51,0,0,1,1.72.33l-.67-.44,1.84.42-.6-.48,1.28.48-.69-.65,1.66.72-.55-.58,1.55.51C57.58,16.29,55,17,52.89,18.79l.26-.27-1.27.42,1.47-1-.78,0,1.64-.65L53.32,17a9.54,9.54,0,0,1,1.73-.24l-.77-.2,1.87-.18-.72-.27,1.37.05-.86-.4,1.8.15-.7-.37h1.63c-3.41-1.57-5.88-.15-7.32,2.57-.16.29-.54.85-.72.59s.93-1.26.93-1.26l-.61.3,1-1.19-.79.19a8.37,8.37,0,0,1,1.22-.92l-.68.18L53,15.08l-.67.1,1.06-.54-.82.07L54,14.06h-.69l1.23-.7a4.35,4.35,0,0,0-4.21,3.49,4.34,4.34,0,0,0-4.18-3.33l1.24.7h-.7l1.43.65-.82-.07,1.06.55-.66-.1,1.34.93L48.39,16a9,9,0,0,1,1.21.91l-.78-.19,1,1.19-.61-.3s1,.82.82,1.1-.57-.3-.72-.59C47.83,15.41,45.37,14,42,15.56h1.64l-.71.37,1.8-.15-.86.4,1.37-.05-.72.27,1.87.18-.77.2a9.62,9.62,0,0,1,1.74.24l-.9.25,1.64.65-.77,0,1.42,1-1.23-.49s.11.1.26.27c-2.11-1.76-4.69-2.5-7.45.11l1.55-.51-.54.58,1.65-.72-.69.65,1.29-.48-.6.48,1.83-.42-.67.44a10.45,10.45,0,0,1,1.73-.33l-.77.53,1.76.09-.73.28,1.73.35-1.19.06c-2.37-.92-4.84-.76-6.69,2.29l1.36-.91-.37.71,1.4-1.13-.49.81L43,20.86l-.45.63,1.66-.9-.53.61a9.85,9.85,0,0,1,1.57-.78l-.6.71,1.72-.38-.62.47,2-.22-1.17.34c-2.85,0-5.41,1.15-5.75,5.05L41.59,25l0,.8.76-1.64-.08.94.64-1.21-.13.76,1.09-1.54-.21.78a9.34,9.34,0,0,1,1.07-1.39l-.22.9,1.37-1.11-.35.7,1.86-1-1.16.92c-2.41,1.19-4.08,3.21-2.9,6.75L43.5,28l.3.74.05-1.81.3.9.1-1.37.19.75.38-1.84.12.79a10,10,0,0,1,.43-1.7l.15.92.82-1.57,0,.78,1.25-2L46.93,24a4.93,4.93,0,0,0,0,6.82l-.42-1.52.54.55-.61-1.62.59.69-.41-1.26.44.6-.32-1.78.4.66a9.52,9.52,0,0,1-.24-1.66l.47.76.17-1.69.24.71.2-1.35.26,1,0-1a.43.43,0,0,1,.52-.44h0a.42.42,0,0,1,.23.64,2.06,2.06,0,0,0-.2.5,1.47,1.47,0,0,0,.45,1.7c.24.22.18.58.09.56s-.14.31,0,.32.1.43,0,.42-.16.34,0,.34.23.5,0,.49-.16.36,0,.36.17.43,0,.41-.13.46,0,.44,0,.4-.09.4-.2.37,0,.39.17.46,0,.46-.2.4,0,.46c.06,0,.15.3,0,.33a.15.15,0,0,0-.15.15.15.15,0,0,0,.12.15c.09,0,.15.36,0,.31h-.08c-.21,0-.06.27,0,.33s-.28.23-.26.48c0,0-.31.48.13.48a9.57,9.57,0,0,1,1.12-.14h1.11c.43,0,.3-.37,0-.48v0c0-.09-.09-.1-.16-.15a.13.13,0,0,1-.06-.17c.05-.06.15-.07.15-.15v0a.16.16,0,0,0-.16-.15h-.07s-.06-.24,0-.24.15-.07.15-.16a.15.15,0,0,0-.15-.15h-.05c-.07,0,0-.46.09-.48a.17.17,0,0,0,0-.33c-.13,0-.17-.52,0-.54s.13-.4,0-.4-.19-.35-.05-.34.19-.45,0-.44-.19-.41,0-.41.1-.37,0-.36S51,28,51.15,28s.15-.34,0-.34-.15-.41,0-.42.09-.34,0-.32-.12-.18,0-.37a.84.84,0,0,0,.6-.74,1.84,1.84,0,0,0-.32-1.67.22.22,0,0,1,0-.29h0a.23.23,0,0,1,.4.15v.38l.22-.88h.06l.18,1.21.24-.71.17,1.69.47-.76a9.66,9.66,0,0,1-.24,1.67l.39-.67-.32,1.79.44-.6L53,28.33l.59-.69L53,29.27l.53-.56-.41,1.52a4.82,4.82,0,0,0,.67-5.87l-.59-1.45,1.16,1.67,0-.78.82,1.57.15-.92a9.09,9.09,0,0,1,.43,1.7l.12-.79.38,1.84.2-.75.1,1.37.3-.9,0,1.81.3-.74.19,1.62c1.18-3.54-.49-5.56-2.9-6.75L53.35,22l1.76,1-.35-.7,1.38,1.11-.23-.9A9.34,9.34,0,0,1,57,23.87l-.21-.78,1.09,1.54-.12-.76.63,1.21-.08-.94.76,1.64,0-.8.82,1.41c-.34-3.9-2.9-5-5.75-5.05"/><path class="cls-3" d="M25.11,63.14C24,65.59,16.85,80.53,16.85,80.53L8.07,62.45s-.72-1.6-1.71-1.6H0v1.22s2.5-.45,2.5,2.5v19.1s-.31,2.61-1.25,2.61H5.09v-19l9.38,19h2l9.46-19v19h7.24V85.7s-2.58-.29-2.58-2.72V64.29a2.42,2.42,0,0,1,2.58-2.49v-.95H27.46s-1.2-.17-2.35,2.29"/><path class="cls-3" d="M99.17,61.8v-.95H93.41s-1.2-.17-2.35,2.29-8.25,17.39-8.25,17.39L74,62.45s-.71-1.6-1.7-1.6H66v1.23s2.5-.46,2.5,2.49v19.1s-.3,2.61-1.25,2.61h3.85v-19l9.37,19h2l9.46-19v19h7.24V85.7s-2.58-.3-2.58-2.72V64.29a2.42,2.42,0,0,1,2.58-2.49"/><path class="cls-3" d="M61.94,82.33c-1.4-3-9.29-18.69-9.29-18.69s-1.2-2.79-3.49-2.79H43.64v1.06a4,4,0,0,1,3.74,2c1.3,2.26,6.75,13.49,6.75,13.49l.63,1.31a9.38,9.38,0,0,0-3.9-1.43c-1.55-.13-4.61,0-4.61,0s.94,2.08,4.81,2.91a11,11,0,0,1,6.85,4.19c.9,1.27,2.34,1.94,4.7,1.94h2.6v-.75s-1.86-.21-3.27-3.2"/><path class="cls-3" d="M44.08,75.3s3-6.18,3.47-7A4.57,4.57,0,0,0,48,67.11c-.49-1-.95-1.91-1.37-2.77,0,0-7.76,15.25-9,18.27s-3.3,3-3.37,3v.69h9.15V85.5a2.69,2.69,0,0,1-2.56-1.75c-.51-1.6,1.71-5.32,1.71-5.32s.82,3.14,5.42,4.62,6.67-.44,6.67-.44A28.9,28.9,0,0,1,48,80.13c-3.92-2-3.94-4.83-3.94-4.83"/><text class="cls-4" transform="translate(0.61 98.16)">LOGISTICS</text><path class="cls-5" d="M8,109.58a5.81,5.81,0,0,1-3.77,1.25,4.18,4.18,0,0,1-2.58-.77,2.36,2.36,0,0,1-1-2,4.08,4.08,0,0,1,.73-2.28,5.56,5.56,0,0,1,1.92-1.74,5,5,0,0,1,2.32-.64,2.59,2.59,0,0,1,1.55.45,1.35,1.35,0,0,1,.6,1.15,2.14,2.14,0,0,1-.72,1.6,2.45,2.45,0,0,1-1.71.68,1.64,1.64,0,0,1-.83-.19.61.61,0,0,1-.34-.54.67.67,0,0,1,.28-.51.68.68,0,0,0,.58.3,1.33,1.33,0,0,0,1-.5,1.64,1.64,0,0,0,.45-1.12,1,1,0,0,0-.24-.68,1,1,0,0,0-.68-.26,2.14,2.14,0,0,0-1.31.6A4.67,4.67,0,0,0,3,105.93a3.85,3.85,0,0,0-.47,1.77,2.2,2.2,0,0,0,.78,1.74,2.86,2.86,0,0,0,2,.69,3,3,0,0,0,1.36-.28A4.67,4.67,0,0,0,8,109Zm89.89-3a7.38,7.38,0,0,1,.92-.16,5.31,5.31,0,0,1,.56-.05s0,0,0,0a.25.25,0,0,1,0,.16,1.08,1.08,0,0,0-.1.45,1.4,1.4,0,0,0,.4.73,1.37,1.37,0,0,1,.4.85,2,2,0,0,1-1,1.52,3.41,3.41,0,0,1-2,.71,1.7,1.7,0,0,1-.82-.18c-.24-.12-.36-.26-.36-.4s.12-.22.36-.47.42-.33.53-.33.26.14.36.42a.58.58,0,0,0,.58.42,1.19,1.19,0,0,0,.75-.3.82.82,0,0,0,.35-.62,1.52,1.52,0,0,0-.44-.85,3.18,3.18,0,0,1-.59-.91,15.52,15.52,0,0,1-1.94,2h0a11,11,0,0,1-1.45.94,2.73,2.73,0,0,1-1.15.3,1.18,1.18,0,0,1-.91-.37,1.41,1.41,0,0,1-.35-.76,2.32,2.32,0,0,1-.49.22,2,2,0,0,1-.5.09,1.83,1.83,0,0,1-.95-.28,2.81,2.81,0,0,1-2.16,1.1,1.71,1.71,0,0,1-1.24-.44,1.47,1.47,0,0,1-.43-.74,9.19,9.19,0,0,1-1.38.92,1.87,1.87,0,0,1-.87.26.85.85,0,0,1-.73-.35,1.59,1.59,0,0,1-.28-1,4.11,4.11,0,0,1-1.19,1,2.43,2.43,0,0,1-1.15.35,1.35,1.35,0,0,1-1-.42,1.28,1.28,0,0,1-.43-1,2.85,2.85,0,0,1,1.08-2.12,3.31,3.31,0,0,1,2.3-1,1.41,1.41,0,0,1,.52.07,1.39,1.39,0,0,1,.44.28l.94-3.08a10.63,10.63,0,0,1,1.54-.21c.08,0,.14,0,.14.09s-.11.38-.34,1.06a25.58,25.58,0,0,0-1.3,4.85.41.41,0,0,0,.1.31.32.32,0,0,0,.28.12,2.51,2.51,0,0,0,1.26-.74,2.48,2.48,0,0,1,1.08-1.92,4,4,0,0,1,2.54-.83,2.42,2.42,0,0,1,.82.09.57.57,0,0,1,.32.22,1,1,0,0,1,0,.33,5.66,5.66,0,0,1-.66,2.37,1.23,1.23,0,0,0,.69.24,1.75,1.75,0,0,0,1-.5,6.25,6.25,0,0,1,.31-1l.28-.78-.5,0,.2-.8.63,0,.61-1.58,1.78-.28-.7,1.77.93,0-.21.78-1,0-.44,1.17a3.1,3.1,0,0,0-.22,1,.5.5,0,0,0,.15.38.59.59,0,0,0,.41.15,1.62,1.62,0,0,0,.66-.15,7.17,7.17,0,0,0,1-.7h0a7.6,7.6,0,0,0,2-2.41Zm-7.88.12a1.14,1.14,0,0,0-.3,0,1.57,1.57,0,0,0-1.34.72,2.8,2.8,0,0,0-.48,1.63,1.38,1.38,0,0,0,.21.82.7.7,0,0,0,.6.28,1.53,1.53,0,0,0,1-.67,1.83,1.83,0,0,1-.63-1.32,1.68,1.68,0,0,1,.93-1.42Zm-8.45,3.14a1.54,1.54,0,0,0,1.21-.85,3,3,0,0,0,.56-1.6.67.67,0,0,0-.18-.48.6.6,0,0,0-.47-.18c-.4,0-.8.3-1.17.89a3.06,3.06,0,0,0-.57,1.62.59.59,0,0,0,.17.45.64.64,0,0,0,.45.15ZM75,109.59a8,8,0,0,1-1.5.94,3.59,3.59,0,0,1-1.46.3,2.24,2.24,0,0,1-1.45-.44,1.63,1.63,0,0,1-.45-.64,4.19,4.19,0,0,1-2.34,1.08,1.12,1.12,0,0,1-.75-.23.79.79,0,0,1-.3-.61,4.07,4.07,0,0,1,.62-1.72,2.92,2.92,0,0,0,.33-.78c0-.14-.09-.21-.26-.21a1.72,1.72,0,0,0-.77.28,5.61,5.61,0,0,0-1,.75,9.15,9.15,0,0,0-.24,2.26l-1.47.26c0-.35-.07-.73-.09-1.15a8.05,8.05,0,0,1-1.29.85,2.7,2.7,0,0,1-1.15.3,1.21,1.21,0,0,1-.92-.37,1.36,1.36,0,0,1-.35-1,4.36,4.36,0,0,1,.33-1.41l.3-.78-.53,0,.21-.8.63,0,.63-1.58,1.76-.28-.68,1.77.93,0-.23.78-1,0L62,108.36a2.66,2.66,0,0,0-.23,1,.51.51,0,0,0,.16.38.54.54,0,0,0,.39.15,1.71,1.71,0,0,0,.68-.15,8.08,8.08,0,0,0,.85-.61,7.37,7.37,0,0,1,.51-2.26,12.33,12.33,0,0,1,1.7-2.8l1.5-.43a4.25,4.25,0,0,1,.74-.18.34.34,0,0,1,.29.21,1.3,1.3,0,0,1,.11.54,2.41,2.41,0,0,1-.42,1.22A11.52,11.52,0,0,1,66.94,107c.57-.26,1-.42,1.17-.49a1.74,1.74,0,0,1,.59-.1.77.77,0,0,1,.56.19.66.66,0,0,1,.19.49,3.79,3.79,0,0,1-.47,1.42,3.89,3.89,0,0,0-.47,1.22.21.21,0,0,0,.08.19.25.25,0,0,0,.21.09,2.63,2.63,0,0,0,1.24-.72v-.05a2.64,2.64,0,0,1,1-2,3.15,3.15,0,0,1,2.16-.87,1.78,1.78,0,0,1,1,.24.75.75,0,0,1,.37.64c0,.72-1,1.27-2.9,1.73A1.28,1.28,0,0,0,73,110a2,2,0,0,0,.82-.18A6.37,6.37,0,0,0,75,109Zm-3.43-1c1.11-.25,1.67-.7,1.67-1.36,0-.33-.15-.49-.45-.49a1.11,1.11,0,0,0-.82.51,2.16,2.16,0,0,0-.4,1.34Zm-5.77-1.15c1.57-1.43,2.35-2.47,2.35-3.15,0-.19-.07-.29-.23-.29s-.57.33-1,1a8.82,8.82,0,0,0-1.09,2.43ZM56,109.58a5.57,5.57,0,0,1-2,1,5.52,5.52,0,0,1-1.39,2,2.73,2.73,0,0,1-1.78.71,1.4,1.4,0,0,1-.82-.24.84.84,0,0,1-.32-.66,1.22,1.22,0,0,1,.63-1,7.86,7.86,0,0,1,2.13-.84l.28-1a7.5,7.5,0,0,1-1.08.82,2,2,0,0,1-.94.26,1.18,1.18,0,0,1-.89-.4,1.46,1.46,0,0,1-.3-.61A4.29,4.29,0,0,1,47,110.83a1,1,0,0,1-.72-.25.82.82,0,0,1-.28-.64,4.15,4.15,0,0,1,.6-1.67,2.34,2.34,0,0,0,.29-.78.14.14,0,0,0-.15-.16.6.6,0,0,0-.25.07c-.09.06-.21.11-.33.19l-.37.3-.38.33-.37.33a1,1,0,0,0-.29.49,6.42,6.42,0,0,0-.14.8c0,.17,0,.41,0,.73l-1.45.26a9.9,9.9,0,0,1-.07-1v-.08a4.25,4.25,0,0,1-2.14,1.11.94.94,0,0,1-.72-.33,1.28,1.28,0,0,1-.29-.78,9.5,9.5,0,0,1-1.26.81,2.85,2.85,0,0,1-1.15.3,1.18,1.18,0,0,1-.92-.37,1.28,1.28,0,0,1-.35-.8,6.76,6.76,0,0,1-1.43.87,3.9,3.9,0,0,1-1.47.3,2.18,2.18,0,0,1-1.41-.44,1.38,1.38,0,0,1-.51-.73,7.66,7.66,0,0,1-1.39.87,3.76,3.76,0,0,1-1.48.3,2.15,2.15,0,0,1-1.43-.44,1.38,1.38,0,0,1-.51-.78A4.43,4.43,0,0,1,24,110.83a1,1,0,0,1-.72-.25.81.81,0,0,1-.26-.64,4.19,4.19,0,0,1,.58-1.67,2.62,2.62,0,0,0,.31-.78c0-.1-.05-.16-.17-.16a.68.68,0,0,0-.25.07c-.08.06-.19.11-.31.19l-.37.3c-.12.09-.24.21-.38.33l-.37.33a1,1,0,0,0-.31.49,6.21,6.21,0,0,0-.12.8,7.21,7.21,0,0,0,0,.73l-1.47.26c0-.45-.06-.8-.06-1v-.07a4.24,4.24,0,0,1-2.43,1.1.94.94,0,0,1-.7-.25.76.76,0,0,1-.28-.64,4.36,4.36,0,0,1,.58-1.67,2.62,2.62,0,0,0,.31-.78.14.14,0,0,0-.15-.16.6.6,0,0,0-.25.07c-.1.06-.21.11-.33.19s-.23.18-.36.3-.25.21-.39.33l-.36.33a.93.93,0,0,0-.3.49,5,5,0,0,0-.14.8,7.21,7.21,0,0,0,0,.73l-1.45.26a9.9,9.9,0,0,1-.07-1v-.12a2.52,2.52,0,0,1-.5.24,2,2,0,0,1-.51.09,1.82,1.82,0,0,1-.94-.28,2.82,2.82,0,0,1-2.16,1.1,1.7,1.7,0,0,1-1.24-.44,1.54,1.54,0,0,1-.49-1.2,2.49,2.49,0,0,1,1.08-2,4,4,0,0,1,2.55-.83,2.46,2.46,0,0,1,.82.09c.17.07.28.14.31.22a.78.78,0,0,1,.06.33,5.54,5.54,0,0,1-.67,2.37,1.28,1.28,0,0,0,.7.24,1.72,1.72,0,0,0,1-.52,5.43,5.43,0,0,1,.21-.84,8.6,8.6,0,0,1,.78-1.66l1.61-.23a10.08,10.08,0,0,0-.66,1.65,12.44,12.44,0,0,1,1.7-1.3,2.53,2.53,0,0,1,1.14-.35.77.77,0,0,1,.56.19.61.61,0,0,1,.22.49,4.39,4.39,0,0,1-.57,1.63,3.1,3.1,0,0,0-.39,1c0,.21.11.3.32.3a2.75,2.75,0,0,0,1.43-.86,3.35,3.35,0,0,1,.21-.87,8,8,0,0,1,.78-1.66l1.61-.23a10.32,10.32,0,0,0-.67,1.65,12.4,12.4,0,0,1,1.71-1.3,2.43,2.43,0,0,1,1.14-.35.76.76,0,0,1,.55.19.65.65,0,0,1,.23.49,4.39,4.39,0,0,1-.57,1.63,2.87,2.87,0,0,0-.39,1c0,.21.11.3.32.3s.8-.3,1.48-.91a2.65,2.65,0,0,1,1-1.82,3.16,3.16,0,0,1,2.15-.87,1.8,1.8,0,0,1,1,.24.74.74,0,0,1,.36.64c0,.72-1,1.27-2.89,1.73a1.28,1.28,0,0,0,1.38,1,2,2,0,0,0,.83-.18,7.36,7.36,0,0,0,1.05-.69,2.71,2.71,0,0,1,1-1.83,3.2,3.2,0,0,1,2.22-.92,1.64,1.64,0,0,1,.95.24.78.78,0,0,1,.37.66.29.29,0,0,1-.07.21.84.84,0,0,1-.26.16l-.77.28a.69.69,0,0,1-.21,0c-.05,0-.08,0-.08-.1s0-.13,0-.28a1.23,1.23,0,0,0,.05-.28.68.68,0,0,0-.12-.37.46.46,0,0,0-.33-.12,1.1,1.1,0,0,0-.87.54,2.06,2.06,0,0,0-.4,1.27,1.29,1.29,0,0,0,.36,1,1.4,1.4,0,0,0,1,.37,2.19,2.19,0,0,0,1-.23,6.77,6.77,0,0,0,1-.66,5.65,5.65,0,0,1,.3-1l.28-.78-.51,0,.21-.8.63,0,.63-1.58,1.76-.28-.68,1.77.92,0-.22.78-1,0-.43,1.17a2.77,2.77,0,0,0-.25,1,.51.51,0,0,0,.16.38.59.59,0,0,0,.4.15,1.49,1.49,0,0,0,.66-.15,6.91,6.91,0,0,0,.88-.61,9.05,9.05,0,0,1,.89-2.45l1.67-.26h.07l-.66,1.6a4.68,4.68,0,0,0-.4,1.41.43.43,0,0,0,.08.27.36.36,0,0,0,.25.11,1.13,1.13,0,0,0,.52-.14,5.86,5.86,0,0,0,.72-.54,3.81,3.81,0,0,1,.19-.84,8,8,0,0,1,.78-1.66l1.61-.23A11.37,11.37,0,0,0,45,108a11.77,11.77,0,0,1,1.73-1.3,2.4,2.4,0,0,1,1.12-.35.77.77,0,0,1,.56.19.61.61,0,0,1,.22.49,4.51,4.51,0,0,1-.56,1.63,3.22,3.22,0,0,0-.4,1c0,.21.11.3.33.3a2.77,2.77,0,0,0,1.42-.86,2.69,2.69,0,0,1,1-1.86,3.25,3.25,0,0,1,2.18-.9,1.72,1.72,0,0,1,1.13.42c.19-.07.45-.14.77-.26l.47-.16h.15a7.47,7.47,0,0,0-.4,1.18l-.62,2.58A4.77,4.77,0,0,0,56,109Zm-4.22.17a1.13,1.13,0,0,0,.82-.43,3.26,3.26,0,0,0,.56-1.1,3.6,3.6,0,0,0,.21-.92.48.48,0,0,0-.16-.38.44.44,0,0,0-.38-.16,1.48,1.48,0,0,0-1.23.73A2.56,2.56,0,0,0,51,109a.85.85,0,0,0,.19.57.66.66,0,0,0,.51.21Zm.54,1.3c-1.41.4-2.13.86-2.13,1.38a.44.44,0,0,0,.18.36.65.65,0,0,0,.45.16,1.05,1.05,0,0,0,.84-.47,5.37,5.37,0,0,0,.66-1.43Zm-9.21-6.67c0,.81-.38,1.21-1.17,1.21a1.71,1.71,0,0,1-1-.26,3.1,3.1,0,0,0,.6-1,2.33,2.33,0,0,0,.83.24,1.53,1.53,0,0,0,.7-.19Zm-15,4.26c1.1-.25,1.66-.7,1.66-1.36,0-.33-.14-.49-.45-.49a1.11,1.11,0,0,0-.82.51,2.09,2.09,0,0,0-.39,1.34Zm-16.34-1.93a1.08,1.08,0,0,0-.3,0,1.59,1.59,0,0,0-1.34.72A2.87,2.87,0,0,0,9.61,109a1.38,1.38,0,0,0,.21.82.68.68,0,0,0,.59.28,1.49,1.49,0,0,0,1-.67,1.86,1.86,0,0,1-.62-1.32,1.67,1.67,0,0,1,.92-1.42Z"/></g></g></svg>