<svg xmlns="http://www.w3.org/2000/svg" viewBox="0 0 100.2 46.43"><defs><style>.cls-1{font-size:5.43px;fill:#818181;letter-spacing:0.28em;}.cls-1,.cls-3{font-family:Arial-BoldMT, Arial;font-weight:700;}.cls-2,.cls-3{fill:#16325c;}.cls-3{font-size:9.69px;letter-spacing:0.54em;}</style></defs><g id="Layer_2" data-name="Layer 2"><g id="Layer_1-2" data-name="Layer 1"><text class="cls-1" transform="translate(1.27 44.39)">CONNECTING THE DOTS</text><path class="cls-2" d="M23.79,2.17C22.7,4.49,16,18.65,16,18.65L7.64,1.52S7,0,6,0H0V1.17S2.37.73,2.37,3.53V21.62S2.08,24.1,1.18,24.1H4.83v-18l8.88,18h1.94l9-18v18h6.86v-.56A2.68,2.68,0,0,1,29,21V3.27A2.3,2.3,0,0,1,31.47.9V0H26s-1.14-.16-2.22,2.17"/><path class="cls-2" d="M93.94.9V0H88.48s-1.13-.16-2.22,2.17-7.82,16.48-7.82,16.48L70.12,1.52S69.44,0,68.5,0h-6V1.17s2.37-.44,2.37,2.36V21.62s-.29,2.48-1.18,2.48H67.3v-18l8.88,18h1.94l9-18v18h6.86v-.56A2.68,2.68,0,0,1,91.5,21V3.27A2.3,2.3,0,0,1,93.94.9"/><path class="cls-2" d="M58.68,20.35c-1.33-2.83-8.81-17.7-8.81-17.7S48.74,0,46.57,0H41.34V1a3.74,3.74,0,0,1,3.54,1.86C46.11,5,51.27,15.65,51.27,15.65l.61,1.23a9,9,0,0,0-3.71-1.34c-1.46-.13-4.36,0-4.36,0s.9,2,4.56,2.75a10.44,10.44,0,0,1,6.48,4c.86,1.21,2.22,1.85,4.46,1.85h2.46v-.72s-1.76-.19-3.09-3"/><path class="cls-2" d="M41.76,13.69S44.63,7.84,45.05,7a4,4,0,0,0,.39-1.08c-.46-.94-.9-1.81-1.3-2.62,0,0-7.35,14.44-8.54,17.3s-3.13,2.83-3.19,2.83v.66h8.66v-.74a2.58,2.58,0,0,1-2.43-1.66c-.48-1.52,1.63-5,1.63-5s.78,3,5.13,4.38,6.32-.43,6.32-.43a27.51,27.51,0,0,1-6.24-2.34c-3.71-1.86-3.72-4.58-3.72-4.58"/><text class="cls-3" transform="translate(0.87 36.08)">LOGISTICS</text></g></g></svg>