<svg xmlns="http://www.w3.org/2000/svg" viewBox="0 0 99.17 109.57"><defs><style>.cls-1{fill:#bcbec0;}.cls-2{fill:#0b3b74;}.cls-3,.cls-4{fill:#16325c;}.cls-4{font-size:10.09px;}.cls-4,.cls-8{font-family:Arial-BoldMT, Arial;font-weight:700;}.cls-5{letter-spacing:-0.07em;}.cls-6{letter-spacing:-0.02em;}.cls-7{letter-spacing:-0.02em;}.cls-8{font-size:5.43px;fill:#818181;letter-spacing:0.25em;}.cls-9{letter-spacing:0.21em;}.cls-10{letter-spacing:-0.27em;}.cls-11{letter-spacing:0.56em;}.cls-12{letter-spacing:0.27em;}.cls-13{letter-spacing:0.27em;}.cls-14{letter-spacing:-0.23em;}.cls-15{letter-spacing:0.56em;}.cls-16{letter-spacing:0.25em;}.cls-17{letter-spacing:-0.24em;}.cls-18{letter-spacing:0.28em;}.cls-19{letter-spacing:-0.22em;}.cls-20{letter-spacing:0.23em;}.cls-21{letter-spacing:-0.24em;}</style></defs><g id="Layer_2" data-name="Layer 2"><g id="Layer_1-2" data-name="Layer 1"><path class="cls-1" d="M75.39,44.22H54.15c-.29-.21-.6-.42-.92-.63-.55-.35-1.14-.7-1.78-1.06a48,48,0,0,1-10.06-6.79c3.57-1.53,8.17-3,11-3h0c5.27,0,6,2.79,10.24,5.52l.45.28c.91.55,2,1.12,3.09,1.67,4.23,2.09,9.18,4,9.18,4"/><path class="cls-2" d="M66.21,16.11V40.26c-1.11-.55-2.18-1.12-3.09-1.67V17.08c0-2-.57-3.35-6.48-6.09s-6.82-5.42-6.82-5.42S48.9,8.24,43,11s-6.48,4.11-6.48,6.09V29.65a29.54,29.54,0,0,1-2.6-7l-.49-1.92V16.11a6,6,0,0,1,2.55-5c2.74-1.8,8.42-4.62,9.88-5.91a12.45,12.45,0,0,0,4-5.15,12.37,12.37,0,0,0,4,5.15c1.46,1.29,7.13,4.11,9.88,5.91a6,6,0,0,1,2.55,5"/><path class="cls-2" d="M42.59,44.22H23.78c4.26-1,9.1-3.73,12.32-5.64a26.23,26.23,0,0,0,6.49,5.64"/><path class="cls-2" d="M53.23,43.59c-.55-.35-1.14-.7-1.78-1.06a48,48,0,0,1-10.06-6.79c3.57-1.53,8.17-3,11-3h0c.16,0,1.81.4,1.81,1.73s-3,1.54-2.48,3.07c.42,1.18,5.19.68,5.83,2.46.27.77-.11,2.58-4.36,3.54"/><path class="cls-3" d="M32.84,22.91s1.2,5.5,3.64,8.71,4,6.2,14.43,11.89,8,12.09,7.17,15.65A11,11,0,0,0,51.69,47.8c-7.92-4-20-8.64-18.85-24.89"/><path class="cls-3" d="M54.1,21.34l-.87-.42,1.69.3-.62-.47,1.72.38-.6-.71A9.85,9.85,0,0,1,57,21.2l-.53-.61,1.66.9-.45-.63,1.11.81-.49-.81L59.7,22l-.38-.71,1.37.91C58.84,19.14,56.36,19,54,19.9l-1.17-.15,1.71-.26-.73-.28,1.77-.09-.77-.53a10.51,10.51,0,0,1,1.72.33l-.67-.44,1.84.42-.6-.48,1.28.48-.69-.65,1.66.72-.55-.58,1.55.51C57.58,16.29,55,17,52.89,18.79l.26-.27-1.27.42,1.47-1-.78,0,1.64-.65L53.32,17a9.54,9.54,0,0,1,1.73-.24l-.77-.2,1.87-.18-.72-.27,1.37.05-.86-.4,1.8.15-.7-.37h1.63c-3.41-1.57-5.88-.15-7.32,2.57-.16.29-.54.85-.72.59s.93-1.26.93-1.26l-.61.3,1-1.19-.79.19a8.37,8.37,0,0,1,1.22-.92l-.68.18L53,15.08l-.67.1,1.06-.54-.82.07L54,14.06h-.69l1.23-.7a4.35,4.35,0,0,0-4.21,3.49,4.34,4.34,0,0,0-4.18-3.33l1.24.7h-.7l1.43.65-.82-.07,1.06.55-.66-.1,1.34.93L48.39,16a9,9,0,0,1,1.21.91l-.78-.19,1,1.19-.61-.3s1,.82.82,1.1-.57-.3-.72-.59C47.83,15.41,45.37,14,42,15.56h1.64l-.71.37,1.8-.15-.86.4,1.37-.05-.72.27,1.87.18-.77.2a9.62,9.62,0,0,1,1.74.24l-.9.25,1.64.65-.77,0,1.42,1-1.23-.49s.11.1.26.27c-2.11-1.76-4.69-2.5-7.45.11l1.55-.51-.54.58,1.65-.72-.69.65,1.29-.48-.6.48,1.83-.42-.67.44a10.45,10.45,0,0,1,1.73-.33l-.77.53,1.76.09-.73.28,1.73.35-1.19.06c-2.37-.92-4.84-.76-6.69,2.29l1.36-.91-.37.71,1.4-1.13-.49.81L43,20.86l-.45.63,1.66-.9-.53.61a9.85,9.85,0,0,1,1.57-.78l-.6.71,1.72-.38-.62.47,2-.22-1.17.34c-2.85,0-5.41,1.15-5.75,5.05L41.59,25l0,.8.76-1.64-.08.94.64-1.21-.13.76,1.09-1.54-.21.78a9.34,9.34,0,0,1,1.07-1.39l-.22.9,1.37-1.11-.35.7,1.86-1-1.16.92c-2.41,1.19-4.08,3.21-2.9,6.75L43.5,28l.3.74.05-1.81.3.9.1-1.37.19.75.38-1.84.12.79a10,10,0,0,1,.43-1.7l.15.92.82-1.57,0,.78,1.25-2L46.93,24a4.93,4.93,0,0,0,0,6.82l-.42-1.52.54.55-.61-1.62.59.69-.41-1.26.44.6-.32-1.78.4.66a9.52,9.52,0,0,1-.24-1.66l.47.76.17-1.69.24.71.2-1.35.26,1,0-1a.43.43,0,0,1,.52-.44h0a.42.42,0,0,1,.23.64,2.06,2.06,0,0,0-.2.5,1.47,1.47,0,0,0,.45,1.7c.24.22.18.58.09.56s-.14.31,0,.32.1.43,0,.42-.16.34,0,.34.23.5,0,.49-.16.36,0,.36.17.43,0,.41-.13.46,0,.44,0,.4-.09.4-.2.37,0,.39.17.46,0,.46-.2.4,0,.46c.06,0,.15.3,0,.33a.15.15,0,0,0-.15.15.15.15,0,0,0,.12.15c.09,0,.15.36,0,.31h-.08c-.21,0-.06.27,0,.33s-.28.23-.26.48c0,0-.31.48.13.48a9.57,9.57,0,0,1,1.12-.14h1.11c.43,0,.3-.37,0-.48v0c0-.09-.09-.1-.16-.15a.13.13,0,0,1-.06-.17c.05-.06.15-.07.15-.15v0a.16.16,0,0,0-.16-.15h-.07s-.06-.24,0-.24.15-.07.15-.16a.15.15,0,0,0-.15-.15h-.05c-.07,0,0-.46.09-.48a.17.17,0,0,0,0-.33c-.13,0-.17-.52,0-.54s.13-.4,0-.4-.19-.35-.05-.34.19-.45,0-.44-.19-.41,0-.41.1-.37,0-.36S51,28,51.15,28s.15-.34,0-.34-.15-.41,0-.42.09-.34,0-.32-.12-.18,0-.37a.84.84,0,0,0,.6-.74,1.84,1.84,0,0,0-.32-1.67.22.22,0,0,1,0-.29h0a.23.23,0,0,1,.4.15v.38l.22-.88h.06l.18,1.21.24-.71.17,1.69.47-.76a9.66,9.66,0,0,1-.24,1.67l.39-.67-.32,1.79.44-.6L53,28.33l.59-.69L53,29.27l.53-.56-.41,1.52a4.82,4.82,0,0,0,.67-5.87l-.59-1.45,1.16,1.67,0-.78.82,1.57.15-.92a9.09,9.09,0,0,1,.43,1.7l.12-.79.38,1.84.2-.75.1,1.37.3-.9,0,1.81.3-.74.19,1.62c1.18-3.54-.49-5.56-2.9-6.75L53.35,22l1.76,1-.35-.7,1.38,1.11-.23-.9A9.34,9.34,0,0,1,57,23.87l-.21-.78,1.09,1.54-.12-.76.63,1.21-.08-.94.76,1.64,0-.8.82,1.41c-.34-3.9-2.9-5-5.75-5.05"/><path class="cls-3" d="M25.11,63.14C24,65.59,16.85,80.53,16.85,80.53L8.07,62.45s-.72-1.6-1.71-1.6H0v1.22s2.5-.45,2.5,2.5v19.1s-.31,2.61-1.25,2.61H5.09v-19l9.38,19h2l9.46-19v19h7.24V85.7s-2.58-.29-2.58-2.72V64.29a2.42,2.42,0,0,1,2.58-2.49v-.95H27.46s-1.2-.17-2.35,2.29"/><path class="cls-3" d="M99.17,61.8v-.95H93.41s-1.2-.17-2.35,2.29-8.25,17.39-8.25,17.39L74,62.45s-.71-1.6-1.7-1.6H66v1.23s2.5-.46,2.5,2.49v19.1s-.3,2.61-1.25,2.61h3.85v-19l9.37,19h2l9.46-19v19h7.24V85.7s-2.58-.3-2.58-2.72V64.29a2.42,2.42,0,0,1,2.58-2.49"/><path class="cls-3" d="M61.94,82.33c-1.4-3-9.29-18.69-9.29-18.69s-1.2-2.79-3.49-2.79H43.64v1.06a4,4,0,0,1,3.74,2c1.3,2.26,6.75,13.49,6.75,13.49l.63,1.31a9.38,9.38,0,0,0-3.9-1.43c-1.55-.13-4.61,0-4.61,0s.94,2.08,4.81,2.91a11,11,0,0,1,6.85,4.19c.9,1.27,2.34,1.94,4.7,1.94h2.6v-.75s-1.86-.21-3.27-3.2"/><path class="cls-3" d="M44.08,75.3s3-6.18,3.47-7A4.57,4.57,0,0,0,48,67.11c-.49-1-.95-1.91-1.37-2.77,0,0-7.76,15.25-9,18.27s-3.3,3-3.37,3v.69h9.15V85.5a2.69,2.69,0,0,1-2.56-1.75c-.51-1.6,1.71-5.32,1.71-5.32s.82,3.14,5.42,4.62,6.67-.44,6.67-.44A28.9,28.9,0,0,1,48,80.13c-3.92-2-3.94-4.83-3.94-4.83"/><text class="cls-4" transform="translate(0.26 98.16)">TR<tspan class="cls-5" x="13.45" y="0">A</tspan><tspan x="19.98" y="0">VE</tspan><tspan class="cls-6" x="33.44" y="0">L</tspan><tspan x="39.42" y="0" xml:space="preserve"> &amp; </tspan><tspan class="cls-7" x="52.31" y="0">T</tspan><tspan x="58.29" y="0">OURISM</tspan></text><text class="cls-8" transform="translate(1.26 107.52)">Y<tspan class="cls-9" x="4.96" y="0">O</tspan><tspan class="cls-10" x="10.34" y="0">U</tspan><tspan class="cls-11" x="12.8" y="0"> </tspan><tspan class="cls-12" x="17.34" y="0">DR</tspan><tspan x="28.1" y="0">E</tspan><tspan class="cls-13" x="33.06" y="0">A</tspan><tspan class="cls-14" x="38.44" y="0">M</tspan><tspan class="cls-15" x="41.73" y="0"> </tspan><tspan class="cls-16" x="46.28" y="0">I</tspan><tspan class="cls-17" x="49.15" y="0">T</tspan><tspan class="cls-11" x="51.18" y="0"> </tspan><tspan class="cls-18" x="55.73" y="0">W</tspan><tspan class="cls-19" x="62.36" y="0">E</tspan><tspan class="cls-11" x="64.82" y="0"> </tspan><tspan x="69.36" y="0">P</tspan><tspan class="cls-20" x="74.32" y="0">L</tspan><tspan class="cls-13" x="78.87" y="0">A</tspan><tspan class="cls-10" x="84.25" y="0">N</tspan><tspan class="cls-15" x="86.71" y="0"> </tspan><tspan class="cls-16" x="91.25" y="0">I</tspan><tspan class="cls-21" x="94.13" y="0">T</tspan></text></g></g></svg>