<svg xmlns="http://www.w3.org/2000/svg" width="220" height="111.993" viewBox="0 0 220 111.993"><g transform="translate(0 0.007)"><g transform="translate(0 -0.007)"><g transform="translate(69.124 0)"><path d="M8445.066.052c-.03.044-.082.067-.111.052a20.886,20.886,0,0,0-2.488.17,32.609,32.609,0,0,0-3.405.681c-.43.111-.858.215-1.1.267a.477.477,0,0,0-.245.1.362.362,0,0,1-.251.067c-.119,0-.237.03-.259.074a.3.3,0,0,1-.216.074.45.45,0,0,0-.229.059,2,2,0,0,1-.369.155c-.163.052-.363.118-.445.155s-.466.185-.851.341c-.667.259-2.1.9-2.406,1.081-.082.044-.378.207-.667.355a24.623,24.623,0,0,0-2.369,1.429c-.762.511-2.2,1.555-2.45,1.792-.044.037-.259.222-.481.407a30.114,30.114,0,0,0-2.7,2.606c-.393.407-1.474,1.681-1.807,2.132-.1.133-.252.333-.341.437a21.624,21.624,0,0,0-1.288,1.925.075.075,0,0,1-.066.081c-.037,0-.081.059-.111.126a4.8,4.8,0,0,1-.459.837,30.384,30.384,0,0,0-1.584,3.147c-.037.081-.126.3-.215.5a1.938,1.938,0,0,0-.155.429.615.615,0,0,1-.066.207,22.372,22.372,0,0,0-1.052,3.139c-.037.155-.1.407-.134.555a28.952,28.952,0,0,0-.732,4.538l-.052.7-4.887.044c-2.687.022-4.976.067-5.087.1a1.462,1.462,0,0,0-.8,1.185,2.711,2.711,0,0,0,.229.8.74.74,0,0,1,.066.274.259.259,0,0,0,.074.193.235.235,0,0,1,.073.193.743.743,0,0,0,.067.274c.037.067.259.726.488,1.459s.526,1.651.645,2.036.251.763.288.829a.672.672,0,0,1,.066.244.675.675,0,0,0,.067.244,3.149,3.149,0,0,1,.155.459,3.121,3.121,0,0,0,.156.459.692.692,0,0,1,.066.244.566.566,0,0,0,.074.244c.036.067.288.822.555,1.681s.525,1.614.563,1.681a.672.672,0,0,1,.066.244.675.675,0,0,0,.067.244,3.274,3.274,0,0,1,.155.459,3.146,3.146,0,0,0,.155.459.672.672,0,0,1,.066.244.675.675,0,0,0,.067.244c.036.067.288.822.563,1.681s.525,1.614.563,1.681a.671.671,0,0,1,.066.244.672.672,0,0,0,.066.244,3.125,3.125,0,0,1,.156.459,2.925,2.925,0,0,0,.155.459.692.692,0,0,1,.066.244.672.672,0,0,0,.066.244,8.833,8.833,0,0,1,.3.9c.629,2.029.814,2.332,1.525,2.5.459.111.629.067,1.88-.474a8.55,8.55,0,0,1,.815-.318c.14-.052.362-.133.48-.185s.393-.155.592-.222.438-.148.52-.185c.185-.081,3.153-1.022,3.553-1.125l.481-.133c.511-.17.577-.155.755.089.208.3.2.289.985,1.244.622.748.9,1.059,1.851,2.029.525.54,1.318,1.281,1.881,1.747.222.185.437.37.48.407s.415.326.822.637a32.755,32.755,0,0,0,4,2.584c.289.148.585.311.666.355.341.2,1.77.837,2.592,1.155.488.192.947.385,1.014.422a.745.745,0,0,0,.274.067.234.234,0,0,1,.192.074.314.314,0,0,0,.223.074c.1,0,.2.03.222.074a.383.383,0,0,0,.259.074.367.367,0,0,1,.252.067.477.477,0,0,0,.244.1c.281.059.719.163,1.207.3.363.1.651.163,1.889.422a24.842,24.842,0,0,0,3.22.4,4.638,4.638,0,0,1,.829.081c.163.067,3.258-.015,4.391-.1a29.338,29.338,0,0,0,5-.866c.223-.059.541-.148.7-.193a6.909,6.909,0,0,0,.939-.289.746.746,0,0,1,.274-.067.234.234,0,0,0,.192-.074.26.26,0,0,1,.192-.074.745.745,0,0,0,.274-.067c.066-.037.407-.178.755-.311a23.389,23.389,0,0,0,3.08-1.407.233.233,0,0,1,.178-.067c.074,0,.147-.022.163-.059a2.89,2.89,0,0,1,.5-.3c.267-.141.755-.429,1.1-.652a4.8,4.8,0,0,1,.681-.392.068.068,0,0,0,.074-.059c0-.037.09-.111.208-.17a2.97,2.97,0,0,0,.459-.3l.851-.622c.533-.392,1.4-1.1,2.111-1.7a31.962,31.962,0,0,0,3.619-3.85c.6-.763.563-.726.719-.644a5.81,5.81,0,0,0,.7.237c.918.274,2.547.814,2.68.888a.573.573,0,0,0,.245.074.654.654,0,0,1,.258.074c.082.037.215.1.3.148a.825.825,0,0,0,.26.074.678.678,0,0,1,.244.067,2.6,2.6,0,0,0,.311.133c.525.207.814.326,1.369.563.881.378,1.333.37,1.881-.015.3-.215.341-.318,1.007-2.377.312-.955.6-1.8.637-1.866a.83.83,0,0,0,.067-.311.32.32,0,0,1,.073-.23c.044-.022.074-.126.074-.222a.317.317,0,0,1,.073-.222.232.232,0,0,0,.074-.193.743.743,0,0,1,.067-.274c.036-.067.325-.925.637-1.9s.592-1.843.621-1.925.142-.4.229-.7.193-.622.223-.7c.06-.148,1.215-3.709,1.5-4.627.081-.267.178-.548.207-.629s.163-.5.3-.925.489-1.525.793-2.443a7.169,7.169,0,0,0,.548-2.147c0-.274-.037-.489-.082-.5a.119.119,0,0,1-.081-.1c0-.141-.393-.415-.711-.5-.207-.052-1.747-.081-4.464-.081h-4.139l-.052-.577a28.761,28.761,0,0,0-.822-4.864c-.163-.637-.252-1.007-.3-1.244a.475.475,0,0,0-.1-.244.239.239,0,0,1-.066-.185.761.761,0,0,0-.066-.274c-.037-.067-.148-.392-.252-.718a14.076,14.076,0,0,0-.681-1.777c-.111-.244-.252-.563-.312-.7-.289-.674-1.036-2.117-1.466-2.843a7.793,7.793,0,0,1-.481-.874.068.068,0,0,0-.074-.059.082.082,0,0,1-.074-.081,28.576,28.576,0,0,0-2.946-3.916,30.657,30.657,0,0,0-2.539-2.554c-.652-.57-1.562-1.3-2.1-1.7l-.851-.622a2.971,2.971,0,0,0-.459-.3c-.118-.059-.208-.133-.208-.17a.068.068,0,0,0-.074-.059,4.8,4.8,0,0,1-.681-.392c-.341-.222-.829-.511-1.1-.652a2.3,2.3,0,0,1-.5-.311c-.016-.03-.09-.052-.164-.052a.236.236,0,0,1-.178-.067,11.577,11.577,0,0,0-1.746-.851c-1.066-.474-1.022-.452-1.519-.637-.244-.089-.5-.192-.569-.23a.745.745,0,0,0-.274-.067.26.26,0,0,1-.192-.074.234.234,0,0,0-.192-.074.745.745,0,0,1-.274-.067,2.429,2.429,0,0,0-.459-.155c-.185-.052-.414-.118-.518-.148a29.237,29.237,0,0,0-4.295-.9,34.7,34.7,0,0,0-5.8-.222h0Zm4.768,1.925a27.69,27.69,0,0,1,5.886,1.273,8.992,8.992,0,0,1,1.384.518.748.748,0,0,0,.281.067c.082,0,.148.03.148.074s.052.074.111.074a.673.673,0,0,1,.244.067c.066.037.207.1.312.141.318.126,2.014.962,2.479,1.222.845.474,1.037.592,1.333.785.163.1.355.222.423.267a34.47,34.47,0,0,1,3.094,2.325,43.945,43.945,0,0,1,3.414,3.45,28.4,28.4,0,0,1,4.116,6.508c.14.326.34.777.437.992a2.927,2.927,0,0,1,.178.459.767.767,0,0,0,.074.222c.044.081.11.215.147.3a.655.655,0,0,1,.074.259.566.566,0,0,0,.074.244,26.709,26.709,0,0,1,1.11,3.976c.045.244.118.563.155.711a2.614,2.614,0,0,1,.067.518,2.411,2.411,0,0,0,.066.511,7.241,7.241,0,0,1,.118.851c.022.326.052.674.066.777s.03.5.03.874l.014.681,4.428-.007c2.71,0,4.494.03,4.613.074a.8.8,0,0,1,.392.8c-.074.311-.481,1.6-.556,1.74a.692.692,0,0,0-.066.244.672.672,0,0,1-.066.244c-.037.067-.259.726-.488,1.459s-.452,1.392-.489,1.459a.672.672,0,0,0-.066.244.672.672,0,0,1-.066.244,6.069,6.069,0,0,0-.229.681,6.068,6.068,0,0,1-.229.681.741.741,0,0,0-.066.274.235.235,0,0,1-.074.193.259.259,0,0,0-.074.192.741.741,0,0,1-.066.274c-.06.118-.467,1.355-1.185,3.643-.178.548-.348,1.059-.385,1.125a.672.672,0,0,0-.066.244.676.676,0,0,1-.067.244c-.06.118-.8,2.369-1.288,3.939-.118.385-.244.763-.281.829a.741.741,0,0,0-.066.274.232.232,0,0,1-.074.193.253.253,0,0,0-.074.185c0,.17-.437.518-.659.518a.748.748,0,0,1-.288-.067c-.067-.037-.215-.1-.326-.148s-.281-.111-.37-.148c-.562-.23-1.844-.7-2.576-.933-.882-.289-1.007-.333-1.355-.474a1.2,1.2,0,0,0-.355-.081.741.741,0,0,1-.273-.067,6.364,6.364,0,0,0-.978-.3c-.186-.052-.407-.118-.5-.156a1.156,1.156,0,0,0-.348-.067.316.316,0,0,1-.223-.074c-.1-.155-.259-.059-.488.274a3.135,3.135,0,0,1-.289.392c-.021.022-.125.155-.222.3a3.635,3.635,0,0,1-.222.3,1.733,1.733,0,0,0-.156.2c-.059.089-.3.37-.525.629s-.5.585-.622.726a33.754,33.754,0,0,1-4.05,3.761c-.821.615-2.088,1.5-2.162,1.5a.735.735,0,0,0-.244.141c-.11.074-.318.207-.459.289-1.236.7-1.718.962-2.014,1.1-.451.215-1.014.466-1.207.54-.081.037-.3.126-.48.207-.526.222-1.311.511-2.11.755-.407.133-.808.259-.888.3a2.538,2.538,0,0,1-.371.111c-.118.022-.348.074-.5.111a24.351,24.351,0,0,1-3.058.592,32.183,32.183,0,0,1-8.181,0,29.139,29.139,0,0,1-3.295-.666c-.326-.089-.688-.185-.814-.215-.318-.081-1.807-.592-2.11-.726l-.422-.178c-.1-.037-.251-.1-.355-.141s-.259-.1-.348-.141a31.443,31.443,0,0,1-3.354-1.732,2.875,2.875,0,0,0-.348-.17c-.074-.03-.133-.074-.133-.1s-.06-.074-.126-.089c-.134-.037-1.813-1.236-2.658-1.888a31.7,31.7,0,0,1-4.413-4.39c-.569-.711-1.317-1.7-1.317-1.74a.7.7,0,0,0-.141-.193l-.141-.155-.622.163c-.333.089-.732.193-.873.237-.355.1-.807.207-1.059.259a.476.476,0,0,0-.245.1.247.247,0,0,1-.192.067,3.21,3.21,0,0,0-.607.148c-.244.081-.9.3-1.451.474s-1.088.363-1.184.4-.467.185-.814.311-.7.267-.793.3c-.467.185-.584.237-.7.3-.467.237-.844-.1-1.133-1.007-.318-1.029-.7-2.206-.77-2.369a4.858,4.858,0,0,1-.156-.481,2.413,2.413,0,0,0-.155-.459.76.76,0,0,1-.066-.274c0-.081-.029-.17-.074-.192a.259.259,0,0,1-.073-.193.742.742,0,0,0-.067-.274c-.037-.067-.178-.474-.311-.9-.481-1.562-1.044-3.295-1.11-3.421a.675.675,0,0,1-.067-.244.672.672,0,0,0-.066-.244c-.037-.067-.171-.459-.3-.866-.451-1.473-1.207-3.776-1.273-3.9a.672.672,0,0,1-.066-.244.672.672,0,0,0-.066-.244c-.037-.067-.171-.474-.3-.9s-.266-.844-.295-.925-.2-.585-.363-1.118c-.237-.748-.3-1.007-.244-1.148a.826.826,0,0,1,.5-.466c.089-.03,2.392-.059,5.108-.067l4.953-.015.045-.555c.029-.3.074-.837.1-1.185a26.691,26.691,0,0,1,.793-4.687c.044-.17.1-.422.118-.555a.551.551,0,0,1,.1-.281.3.3,0,0,0,.066-.222.83.83,0,0,1,.067-.311c.036-.067.133-.363.222-.644s.192-.585.222-.666.207-.5.378-.925a33.111,33.111,0,0,1,1.776-3.7,36.382,36.382,0,0,1,3.191-4.464c.519-.6,2.48-2.562,3.14-3.124a36.169,36.169,0,0,1,3.835-2.769c.141-.074.333-.185.429-.244a1.446,1.446,0,0,0,.215-.133c.045-.044,1.236-.666,1.852-.97.644-.311,1.17-.548,1.688-.74.155-.067.407-.17.718-.3.274-.118,2.222-.726,2.776-.874a26.549,26.549,0,0,1,4.035-.718c.289-.03.651-.074.814-.1.415-.081,4.827-.03,5.591.067h0Z" transform="translate(-8405.189 0.007)" fill="#0060bf"/><path d="M13073.954,395.467a4.32,4.32,0,0,0-.777,1.1,11.541,11.541,0,0,0-.688,1.777c-.133.429-.267.844-.3.925a3.794,3.794,0,0,0-.1.37c-.023.118-.074.348-.111.5s-.1.407-.148.555-.089.378-.111.5-.074.341-.111.481a8.248,8.248,0,0,0-.267,1.614,15.515,15.515,0,0,0,3.117.081c3.2.007,3.339-.007,3.154-.348a.987.987,0,0,1-.081-.392,1.678,1.678,0,0,0-.074-.466c-.037-.126-.156-.615-.267-1.081-.2-.881-.215-.925-.474-1.851-.727-2.51-1.555-4-2.244-4a.709.709,0,0,0-.511.237h0Z" transform="translate(-13032.952 -391.98)" fill="#0060bf"/><path d="M12104.841,426.653c-.163.037-.385.081-.5.111a.468.468,0,0,0-.244.1.3.3,0,0,1-.215.067c-.1,0-.2.03-.223.074a.212.212,0,0,1-.163.074,13.43,13.43,0,0,0-2.576,1.333,13.7,13.7,0,0,0-2.325,1.888,19.412,19.412,0,0,0-2.3,2.68c0,.067.141.111,1.223.385a26.073,26.073,0,0,0,5.3.837,2.359,2.359,0,0,0,.141-.533c.126-.689.207-1.1.3-1.481.044-.185.111-.466.148-.629s.133-.563.222-.888.178-.681.2-.8a.475.475,0,0,1,.1-.244.293.293,0,0,0,.066-.215.313.313,0,0,1,.074-.222.232.232,0,0,0,.074-.193.874.874,0,0,1,.074-.289c.044-.081.11-.215.147-.3a.583.583,0,0,0,.074-.222,6.333,6.333,0,0,1,.37-.829,7.472,7.472,0,0,0,.349-.763,2.584,2.584,0,0,0-.312.052h0Z" transform="translate(-12065.934 -423.092)" fill="#0060bf"/><path d="M13730.052,427.991a.733.733,0,0,0,.148.318,1.343,1.343,0,0,1,.185.326,2.883,2.883,0,0,0,.223.5,2.887,2.887,0,0,1,.222.54.528.528,0,0,0,.074.222,14.324,14.324,0,0,1,.519,1.533c.422,1.577.792,3.117.94,3.983.044.237.147.326.267.207a.843.843,0,0,1,.422-.081,5.473,5.473,0,0,0,.747-.067c.223-.044.652-.111.956-.155s.7-.111.888-.155c.741-.155,2.421-.533,2.665-.6.141-.037.349-.089.467-.111.178-.037.289-.17.141-.17-.029,0-.111-.089-.178-.207a19.592,19.592,0,0,0-2-2.31,15.842,15.842,0,0,0-2.125-1.777c-.044,0-.081-.03-.081-.059s-.089-.111-.2-.17a1.564,1.564,0,0,1-.244-.141,18.269,18.269,0,0,0-2.554-1.259,3.366,3.366,0,0,1-.422-.155.834.834,0,0,0-.312-.067.3.3,0,0,1-.222-.067c-.053-.081-.481-.148-.525-.081h0Z" transform="translate(-13686.259 -424.445)" fill="#0060bf"/><path d="M11533.848,521.275c-.021.015-.437.17-.925.333s-.948.333-1.029.37-.3.118-.481.185-.451.178-.592.237c-.689.3-1.236.555-1.348.615s-.763.415-1.5.814c-.2.1-.5.281-.666.385-1.17.733-1.519.977-1.466,1.029a22.134,22.134,0,0,0,2.279.918,7.135,7.135,0,0,1,.771.281c.155.074.192.067.3-.1a24.534,24.534,0,0,1,4.324-4.583,7.885,7.885,0,0,0,.644-.5c0-.044-.267-.037-.3.007h0Z" transform="translate(-11500.169 -516.951)" fill="#0060bf"/><path d="M14373.9,521.376c0,.037.111.133.244.207a22.127,22.127,0,0,1,4.294,4.316c.386.555.556.711.659.607a.4.4,0,0,1,.252-.089.3.3,0,0,0,.215-.074.21.21,0,0,1,.177-.074,5.238,5.238,0,0,0,1.155-.407c.126-.052.422-.163.666-.259.719-.274.719-.289,0-.763a6.984,6.984,0,0,0-.674-.422.822.822,0,0,1-.236-.141,26.786,26.786,0,0,0-2.458-1.347c-.267-.118-.607-.289-.763-.37a2,2,0,0,0-.355-.141,1.82,1.82,0,0,1-.385-.141c-.171-.074-.43-.178-.57-.23s-.326-.118-.407-.155c-.185-.074-1.718-.585-1.776-.585-.022,0-.037.03-.037.067Z" transform="translate(-14324.814 -517.023)" fill="#0060bf"/><path d="M10510.707,1124.275a3.323,3.323,0,0,1-.466.429,33.342,33.342,0,0,0-4.7,5.109,2.236,2.236,0,0,1-.311.392.164.164,0,0,0-.059.133c0,.059-.03.1-.074.1a.08.08,0,0,0-.074.074,3.7,3.7,0,0,1-.355.615c-.2.3-.48.74-.629.992l-.267.466.237.1c.133.059.569.229.977.378s.8.311.866.348a.673.673,0,0,0,.245.067.666.666,0,0,1,.259.074c.081.037.215.1.3.148a.872.872,0,0,0,.289.074.235.235,0,0,1,.192.074.321.321,0,0,0,.229.074.834.834,0,0,1,.311.067c.119.059.637.222,1.532.481.208.059.607.178.9.259.682.2.763.2.763-.03a1.186,1.186,0,0,1,.066-.348c.037-.1.1-.318.156-.5s.118-.4.147-.481.1-.3.148-.481a4.664,4.664,0,0,1,.3-.829.639.639,0,0,0,.066-.237,9.038,9.038,0,0,1,.585-1.54,2.713,2.713,0,0,0,.155-.385c0-.089,1.059-2.31,1.3-2.71a12.771,12.771,0,0,0,.777-1.414c0-.037-.1-.089-.222-.119a.579.579,0,0,1-.267-.1.24.24,0,0,0-.186-.067.739.739,0,0,1-.273-.067,9.447,9.447,0,0,0-.9-.378c-.46-.185-.97-.407-1.288-.563a.975.975,0,0,0-.318-.1.091.091,0,0,1-.1-.074c0-.089-.274-.1-.312-.022h0Z" transform="translate(-10486.512 -1114.976)" fill="#0060bf"/><path d="M15089.085,1125.671c-.06.037-.259.133-.444.215s-.5.207-.688.3-.5.215-.667.274c-.406.155-.65.252-.807.333a.746.746,0,0,1-.273.067.24.24,0,0,0-.186.067.582.582,0,0,1-.267.1c-.244.052-.288.2-.11.348a1.177,1.177,0,0,1,.236.363,1.666,1.666,0,0,0,.17.3c.029.022.348.651.719,1.407.7,1.429.9,1.866,1.14,2.5.126.326.229.578.3.7a.7.7,0,0,1,.066.266.37.37,0,0,0,.061.2,3.368,3.368,0,0,1,.229.629c.1.3.2.622.229.7.074.2.415,1.355.475,1.607s.052.244.733.052c.288-.081.636-.185.754-.215.682-.2,1.2-.348,1.3-.385.06-.022.578-.192,1.147-.378,1.045-.34,1.555-.526,2.539-.911.52-.207.637-.34.467-.518a2.038,2.038,0,0,1-.222-.348c-.089-.148-.229-.4-.312-.555-.162-.281-1.243-1.873-1.324-1.94-.022-.022-.193-.244-.385-.5a29.548,29.548,0,0,0-4.494-4.627c-.178-.141-.215-.148-.378-.052h0Z" transform="translate(-15030.595 -1116.349)" fill="#0060bf"/><path d="M11525.5,1358.729c-.081.118-.289.474-.467.8s-.385.689-.451.814c-.141.244-.444.866-.659,1.347-.074.178-.207.459-.281.629-.37.837-.451,1.036-.7,1.7a5.852,5.852,0,0,0-.267.822.192.192,0,0,1-.074.163.313.313,0,0,0-.074.222c0,.1-.029.2-.074.222a.317.317,0,0,0-.073.222c0,.1-.03.2-.074.222a.373.373,0,0,0-.074.252.548.548,0,0,1-.059.267,2.022,2.022,0,0,0-.164.518,1.864,1.864,0,0,1-.17.533c-.1.133-.008.222.26.266.133.022.4.081.6.118,1.1.252,1.776.385,3.05.6.459.081.74.126,2.185.326,1.7.244,1.9.266,2.739.348.466.044.874.1.9.111a.24.24,0,0,0,.155-.015c.081-.03.126-.215.155-.718.082-1.162.111-1.555.155-2,.022-.229.052-.6.074-.814.141-1.473.252-2.51.333-3.087.037-.266.09-.666.111-.888.059-.5.162-1.207.229-1.54a.636.636,0,0,0,.022-.237c-.652-.052-2.029-.229-2.77-.37-1.1-.2-1.11-.2-2.48-.518-.348-.081-1.31-.341-1.628-.437-.141-.044-.267-.081-.274-.081a1.764,1.764,0,0,0-.155.2Z" transform="translate(-11496.17 -1347.357)" fill="#0060bf"/><path d="M14053.6,1368.66c-.2.059-.5.141-.645.178-1.1.266-1.8.429-2.205.5-1.148.222-2.369.415-3.14.5l-.437.044.052.489c.029.274.081.7.118.94.252,1.629.526,4.361.733,7.182.044.651.044.666.229.651.229-.022,2.229-.237,2.628-.281,1.385-.156,2.606-.348,4.554-.718.658-.118,1.133-.215,1.406-.281.141-.037.459-.1.7-.155.548-.111.6-.155.5-.415-.044-.111-.162-.511-.273-.874s-.229-.785-.273-.926a3.032,3.032,0,0,0-.142-.385.762.762,0,0,1-.066-.281c0-.081-.029-.148-.074-.148s-.073-.1-.073-.222-.03-.222-.074-.222-.074-.067-.074-.148a.744.744,0,0,0-.066-.281c-.037-.067-.1-.229-.155-.348s-.119-.281-.156-.348a.6.6,0,0,1-.066-.207,31.7,31.7,0,0,0-1.532-3.184c-.1-.185-.252-.444-.334-.578-.377-.674-.414-.688-1.133-.481h0Z" transform="translate(-14000.778 -1357.287)" fill="#0060bf"/><path d="M12910.8,1549.04c-.052.311-.111.666-.126.792-.118.622-.377,2.932-.548,4.776-.037.429-.081.911-.1,1.073s-.052.615-.074,1a4.565,4.565,0,0,1-.081.822.164.164,0,0,0,.045.185,71.086,71.086,0,0,0,8.795-.015,2.9,2.9,0,0,0,0-.77c-.037-.385-.1-1.14-.141-1.666-.171-2.014-.37-3.8-.592-5.331-.045-.326-.111-.777-.134-1l-.052-.407-1.147.037c-1.332.044-4.279.03-5.152-.03l-.6-.037-.089.57Z" transform="translate(-12872.809 -1535.735)" fill="#0060bf"/><path d="M10104.844,2300.885a.286.286,0,0,0-.089.178,1.712,1.712,0,0,1-.141.377,15.091,15.091,0,0,0-.667,1.54c-.1.244-.191.511-.229.592s-.134.4-.223.7-.192.622-.223.7a1.971,1.971,0,0,0-.1.333c-.015.1-.066.318-.111.481a26.269,26.269,0,0,0-.836,5.516l-.022.7,4.5.015,4.494.022.015-.911c.008-.5.022-1.021.03-1.162.074-1.007.111-1.407.148-1.666.021-.163.073-.6.11-.962a30.081,30.081,0,0,1,.7-4.05c.021-.03-.111-.089-.281-.133-.437-.111-1.052-.289-1.541-.444-.222-.067-.555-.17-.74-.222s-.4-.118-.48-.148-.481-.163-.889-.289-.808-.267-.889-.3-.267-.1-.407-.156l-.407-.148c-.082-.037-.363-.148-.629-.251s-.6-.237-.748-.3c-.2-.082-.289-.089-.348-.03h0Z" transform="translate(-10088.244 -2281.924)" fill="#0060bf"/><path d="M15597.927,2300.641c-.118.052-.54.215-.926.363s-.771.3-.851.341-.482.163-.889.3-.807.259-.889.3-.281.1-.444.148-.362.111-.444.141-.3.1-.481.148-.466.133-.629.185-.556.155-.874.229c-.555.133-.577.148-.548.326.126.651.215,1.118.282,1.444.043.2.1.57.141.814s.1.711.147,1.037c.134.9.208,1.644.3,3.073.045.711.1,1.51.134,1.777l.052.481,4.472.015,4.472.022-.052-.726a30.11,30.11,0,0,0-.563-4.383c-.073-.415-.377-1.57-.555-2.11-.044-.163-.133-.444-.186-.629a1.629,1.629,0,0,0-.162-.4.477.477,0,0,1-.059-.23.465.465,0,0,0-.061-.229,1.42,1.42,0,0,1-.162-.4,3.492,3.492,0,0,0-.148-.407,2.4,2.4,0,0,1-.148-.333,8.265,8.265,0,0,0-.644-1.355.523.523,0,0,0-.281.067h0Z" transform="translate(-15531.849 -2281.65)" fill="#0060bf"/><path d="M11365.346,2638.088c-.021.082-.348,1.77-.437,2.243-.037.2-.1.652-.141,1a39.9,39.9,0,0,0-.348,4.161l-.052,1.021h5.493a45.516,45.516,0,0,0,5.523-.1c.015-.044.066-1.488.11-3.2s.09-3.206.1-3.324c.015-.208,0-.222-.281-.237-.259-.015-1.118-.111-2.925-.333-.3-.037-.77-.1-1.036-.14s-.63-.089-.814-.111-.519-.074-.741-.118-.569-.1-.776-.141c-.481-.089-1.185-.222-1.555-.3-.163-.037-.5-.1-.74-.148s-.563-.111-.7-.148a2.666,2.666,0,0,0-.674-.133h0Z" transform="translate(-11340.033 -2616.387)" fill="#0060bf"/><path d="M14188.133,2638.4c-.141.037-.341.082-.444.1s-.3.067-.444.1-.459.1-.7.148-.577.111-.74.148-.548.1-.852.148-.7.111-.889.148c-.541.1-2.207.341-2.776.407-.163.015-.777.089-1.37.156s-1.17.118-1.28.118-.223.037-.245.1,0,.977.045,2.051.1,2.562.119,3.317l.029,1.37,5.479.015,5.479.022-.008-.5a43.3,43.3,0,0,0-.362-4.679c-.036-.3-.1-.74-.118-.962a2.568,2.568,0,0,0-.1-.555,2.135,2.135,0,0,1-.1-.481,6.146,6.146,0,0,0-.23-1.185c-.051-.089-.125-.082-.48.015h0Z" transform="translate(-14130.901 -2616.625)" fill="#0060bf"/><path d="M12882.849,2847.752c-.06.3-.207,6.271-.155,6.389s9.328.133,9.4.022c.037-.059-.17-6.611-.207-6.634-.008,0-.829.022-1.829.059-1.532.059-5.183.03-6.737-.044-.429-.022-.429-.022-.474.207h0Z" transform="translate(-12845.86 -2824.112)" fill="#0060bf"/><path d="M9755.178,4195.686a1.971,1.971,0,0,0-.162.429c-.134.526-.675,2.325-.926,3.073-.053.163-.208.644-.341,1.074-.2.666-.274.814-.533,1.051l-.3.281h.822a2.1,2.1,0,0,0,.828-.074c0-.045-.052-.074-.11-.074a.51.51,0,0,1-.267-.156c-.126-.125-.148-.207-.1-.5a4.5,4.5,0,0,1,.178-.755l.133-.407.793-.022a4.1,4.1,0,0,1,.784.022c0,.015.081.326.185.681.223.755.2.94-.11,1.044-.519.185-.215.237,1.354.237,1.4-.007,1.555-.015,1.429-.111a.564.564,0,0,0-.229-.111c-.11,0-.311-.5-.637-1.592-.162-.533-.355-1.147-.43-1.37s-.207-.673-.3-1-.186-.644-.207-.7-.111-.326-.2-.592l-.162-.481-.7-.022c-.5-.015-.726.007-.785.074h0Zm.2,2.036c.193.629.342,1.11.408,1.281.045.1-.045.111-.562.1-.674-.007-.726-.052-.556-.422a5.726,5.726,0,0,0,.281-.888,3.082,3.082,0,0,1,.215-.644,1.934,1.934,0,0,1,.215.57Z" transform="translate(-9741.836 -4161.104)" fill="#0060bf"/><path d="M10855.547,4194.779a.263.263,0,0,0,.191.118.625.625,0,0,1,.312.215c.141.185.147.3.147,2.532,0,2.2-.007,2.354-.147,2.576-.081.133-.178.252-.223.252s-.11.015-.163.022-.1.052-.118.1c-.022.074.393.089,2,.074l2.021-.022.022-.519a5.124,5.124,0,0,1,.089-.777c.074-.259.007-.429-.134-.34a.5.5,0,0,0-.111.251c-.059.289-.659.9-.881.9-.459-.007-.5-.244-.5-2.717,0-2.1.037-2.332.386-2.51.11-.059.2-.133.2-.17a9.7,9.7,0,0,0-1.562-.074c-1.251-.015-1.555.008-1.532.082h0Z" transform="translate(-10835.394 -4160.196)" fill="#0060bf"/><path d="M11727.856,4194.591c0,.044.081.111.178.148a.717.717,0,0,1,.3.252c.125.185.1.674-.119,2.118-.037.266-.1.777-.141,1.147-.163,1.518-.273,1.858-.645,2.036-.133.059-.244.133-.244.163a3.448,3.448,0,0,0,.926.059,7.711,7.711,0,0,0,.926-.029,1.04,1.04,0,0,0-.252-.178c-.37-.222-.459-.578-.355-1.37a18.6,18.6,0,0,0,.236-2.354c.008-.429.016-.459.111-.333a1.156,1.156,0,0,1,.156.407,1.306,1.306,0,0,0,.1.34c.029.037.244.674.48,1.407.7,2.184.645,2.058.866,2.118.126.029.229.022.274-.03a10.827,10.827,0,0,0,.378-1.088c.17-.548.407-1.3.525-1.666s.252-.822.3-1.021.111-.348.141-.348a2.669,2.669,0,0,1,.1.645c.03.363.082.918.126,1.244s.089.866.111,1.2c.044.637.015.711-.385.963-.111.066.178.088,1.4.088a10.053,10.053,0,0,0,1.532-.051c0-.037-.081-.1-.192-.148-.244-.119-.407-.519-.481-1.2-.089-.911-.281-2.584-.37-3.28-.089-.733-.015-.97.341-1.059.1-.022.185-.089.185-.141,0-.074-.244-.1-1.117-.089l-1.111.015-.192.593c-.1.326-.281.874-.4,1.214a3.962,3.962,0,0,0-.215.837c0,.289-.155.237-.274-.1-.044-.141-.229-.7-.4-1.251-.467-1.5-.26-1.325-1.629-1.325a3.841,3.841,0,0,0-1.177.066Z" transform="translate(-11699.869 -4160.023)" fill="#0060bf"/><path d="M13054.148,4194.492c-.066.163-.325,1.014-.666,2.206-.259.9-.659,2.14-.873,2.74-.156.429-.244.578-.407.651-.363.178-.215.237.577.237a2.442,2.442,0,0,0,.777-.059c0-.03-.1-.1-.229-.155-.222-.1-.229-.111-.192-.518a3.607,3.607,0,0,1,.222-1.066c.089-.2.089-.2.845-.2h.755l.192.6a4.128,4.128,0,0,1,.186.778c0,.2-.237.474-.407.474-.06,0-.111.029-.111.074a6.916,6.916,0,0,0,1.555.074c.858,0,1.555-.015,1.555-.029a.947.947,0,0,0-.245-.17c-.191-.119-.273-.245-.406-.659-.525-1.651-.637-1.992-.837-2.7-.126-.429-.312-1.021-.407-1.318s-.207-.673-.252-.836l-.081-.289h-.74c-.7,0-.74.007-.808.163Zm.148,1.555a6.026,6.026,0,0,0,.26.933c.141.415.259.785.259.814a1.8,1.8,0,0,1-.607.037c-.458-.015-.606-.044-.585-.111.016-.052.052-.2.089-.318.156-.555.378-1.34.4-1.429.052-.155.185-.1.185.074Z" transform="translate(-13013.8 -4159.835)" fill="#0060bf"/><path d="M14121.89,4193.488c0,.03.089.1.2.156a1.827,1.827,0,0,1,.481.466l.281.37v2.132c0,1.873-.015,2.162-.126,2.347a.61.61,0,0,1-.3.259c-.1.022-.17.074-.17.111a2.084,2.084,0,0,0,.814.074c.763,0,1.037-.074.637-.178a.65.65,0,0,1-.3-.237c-.111-.17-.126-.415-.118-1.94a8.811,8.811,0,0,1,.074-1.777c.044-.015.081.015.081.067s.593.984,1.317,2.073l1.311,1.992h1.082l-.045-2.65c-.045-2.828-.029-2.932.318-3.087s.162-.229-.578-.237-.984.066-.637.2a.829.829,0,0,1,.341.311c.134.215.148.377.148,1.444a5.082,5.082,0,0,1-.074,1.244c-.037.022-.074.015-.074-.03s-.466-.777-1.036-1.636l-1.044-1.562-1.288.015a6.662,6.662,0,0,0-1.3.074Z" transform="translate(-14074.876 -4158.913)" fill="#0060bf"/><path d="M15168.924,4195.289c-.038.052-.282.881-.416,1.377-.029.118-.17.585-.317,1.037s-.378,1.214-.526,1.7c-.325,1.066-.533,1.511-.763,1.6-.348.133-.147.207.615.229.807.022,1.007-.03.644-.17a.618.618,0,0,1-.259-.163,1.537,1.537,0,0,1,.007-.836c.037-.119.1-.355.156-.533l.1-.311h.7a6.676,6.676,0,0,0,.747-.022,4.675,4.675,0,0,1,.459,1.362.451.451,0,0,1-.332.466.221.221,0,0,0-.171.1c-.022.066.378.088,1.532.088a6.963,6.963,0,0,0,1.563-.074c0-.044-.052-.074-.111-.074a.465.465,0,0,1-.252-.141,21.106,21.106,0,0,1-1.059-3.08c-.088-.289-.281-.918-.437-1.407s-.3-.963-.325-1.052c-.045-.155-.082-.163-.777-.163a2.913,2.913,0,0,0-.771.059h0Zm.176,1.851a5.159,5.159,0,0,0,.223.785c.119.37.223.7.223.74a2.883,2.883,0,0,1-1.186,0c-.059-.037-.059-.082,0-.148a8.3,8.3,0,0,0,.423-1.37c.074-.393.1-.422.215-.267a.548.548,0,0,1,.1.259Z" transform="translate(-15111.13 -4160.729)" fill="#0060bf"/><path d="M16264.5,4195.193c0,.044.066.1.148.126a.776.776,0,0,1,.3.207c.141.148.147.267.147,2.606,0,2.1-.014,2.473-.117,2.614a.361.361,0,0,1-.208.163.308.308,0,0,0-.192.111c-.082.1.089.111,1.436.111,1.48,0,1.793-.052,1.355-.215a.545.545,0,0,1-.26-.281,7.582,7.582,0,0,1-.036-2.295c.11-.037.185.1.458.9.127.37.342.933.489,1.258l.252.592,1.163.022,1.154.022-.244-.3a3.12,3.12,0,0,1-.43-.726,8.725,8.725,0,0,0-.873-1.777c-.275-.355-.289-.393-.141-.393.178,0,.5-.311.644-.622a1.97,1.97,0,0,0,.037-1.333,1.536,1.536,0,0,0-.858-.71A26.6,26.6,0,0,0,16264.5,4195.193Zm2.977.629a1.268,1.268,0,0,1-.029,1.873,1.091,1.091,0,0,1-.318.208c-.141.044-.148.015-.134-1.125.007-.637.015-1.169.015-1.185.021-.081.244.03.467.229Z" transform="translate(-16199.865 -4160.64)" fill="#0060bf"/><path d="M11701.625,5437.977a4.418,4.418,0,0,1-1.007.074c-.5.007-1.147.037-1.451.081s-.763.067-1.028.074-.814.037-1.223.074-1.036.111-1.406.148-.866.1-1.1.119a3.181,3.181,0,0,0-.488.066,3.879,3.879,0,0,1-.541.052c-.562.015-.569.037-.34.563.155.341.281.629.592,1.325a23.836,23.836,0,0,0,1.763,3.206c.126.163.163.17.3.089a.861.861,0,0,1,.333-.089.3.3,0,0,0,.222-.066.552.552,0,0,1,.281-.1c.134-.022.415-.082.615-.125a43.518,43.518,0,0,1,4.368-.822,6.8,6.8,0,0,0,1.044-.133,1.42,1.42,0,0,0-.06-.318c-.1-.489-.236-1.474-.429-3.28-.1-.94-.178-1.1-.437-.933Z" transform="translate(-11665.857 -5393.199)" fill="#0060bf"/><path d="M12957.867,5435.94a7.121,7.121,0,0,1,.111.763c.082.7.186,1.5.3,2.258.045.3.1.718.134.918l.052.363,1.036-.015a4.658,4.658,0,0,0,1.126-.1c.052-.037.118-.06.147-.037s1.066.06,2.288.089l2.236.052.052-.4c.021-.215.074-.578.111-.8s.1-.659.141-.962.118-.822.162-1.147a5.091,5.091,0,0,0,.06-.852l-.03-.259-3.99-.022-3.99-.022.06.17h0Z" transform="translate(-12920.368 -5391.066)" fill="#0060bf"/><path d="M14032.473,5452.6c-.06.651-.156,1.429-.274,2.214-.045.281-.1.726-.126.984a1.478,1.478,0,0,1-.1.5c-.162.1-.029.17.437.237.274.044.778.118,1.126.163.933.126,1.91.3,2.873.519.17.044.466.111.666.155a16.4,16.4,0,0,1,1.739.459.5.5,0,0,0,.229.044c.045-.052.415-.659.555-.9.074-.133.223-.385.326-.57a28.249,28.249,0,0,0,1.533-3.221.189.189,0,0,1,.081-.148c.148-.1.022-.2-.267-.229-.333-.03-2.532-.289-3.369-.4a8,8,0,0,0-.933-.074,5.7,5.7,0,0,1-.777-.066,10.823,10.823,0,0,0-1.14-.111c-.408-.022-1.141-.059-1.637-.089l-.9-.052-.044.585h0Z" transform="translate(-13985.628 -5407.174)" fill="#0060bf"/><path d="M10735.365,5565.532c-.378.067-.57.1-1.74.282-.244.037-.525.082-.629.1-.215.044-.889.178-1.48.281-.223.044-.541.1-.7.141s-.5.1-.74.156-.459.1-.466.111a12.481,12.481,0,0,0,.962,1.3c.052.052.274.318.5.577a28.352,28.352,0,0,0,4,3.776.632.632,0,0,0,.215-.067c.133-.066.593-.273,1.126-.5.185-.082.584-.237.888-.348s.622-.229.7-.267.274-.1.43-.155c.237-.082.392-.289.207-.289-.036,0-.081-.06-.1-.134s-.192-.377-.378-.681c-.318-.525-1.14-2.154-1.406-2.761-.162-.377-.3-.7-.444-1.052-.251-.592-.244-.584-.933-.474Z" transform="translate(-10710.488 -5519.703)" fill="#0060bf"/><path d="M15071.4,5584.216c-.045.1-.111.251-.148.355s-.111.266-.148.37c-.178.429-1.539,3.146-1.592,3.168a.107.107,0,0,0-.059.1,3.466,3.466,0,0,1-.3.563,4.426,4.426,0,0,0-.281.5,2.4,2.4,0,0,0,.355.133c.808.274,2.369.9,2.91,1.17a1.756,1.756,0,0,0,.363.141,4.2,4.2,0,0,0,.725-.519c.022-.022.341-.3.7-.629a26.166,26.166,0,0,0,3.109-3.258c.164-.207.349-.43.415-.5.163-.178.319-.489.274-.533a1.694,1.694,0,0,0-.4-.118c-.2-.037-.51-.111-.7-.148-.637-.141-1.555-.318-2.037-.4a5.6,5.6,0,0,1-.555-.111c-.141-.037-.511-.1-.814-.148s-.7-.119-.889-.148C15071.494,5584.039,15071.479,5584.039,15071.4,5584.216Z" transform="translate(-15014.071 -5538.158)" fill="#0060bf"/><path d="M13076.023,6143.7c-.629.015-1.185.037-1.236.052-.06.03-.06.119-.008.355.037.178.1.481.141.688.111.548.208.985.437,1.866.038.156.089.377.111.5s.074.289.1.37.17.5.3.926a11.55,11.55,0,0,0,.688,1.777,4.32,4.32,0,0,0,.777,1.1.707.707,0,0,0,.512.237c.688,0,1.644-1.732,2.31-4.22.052-.186.118-.437.155-.556s.148-.607.251-1.073.23-.97.268-1.111.088-.4.111-.578l.036-.311h-.866c-.48,0-1.34-.015-1.909-.03s-1.556-.007-2.185.007Z" transform="translate(-13036.339 -6093.163)" fill="#0060bf"/><path d="M12120.346,6165.9a3.159,3.159,0,0,1-.66.111,34.307,34.307,0,0,0-3.8.681l-.593.133c-.807.178-1,.245-1,.333a.14.14,0,0,0,.059.125,4.973,4.973,0,0,1,.489.578,23.129,23.129,0,0,0,2.532,2.591c.326.274.955.741,1.406,1.037a13.426,13.426,0,0,0,2.569,1.333.213.213,0,0,1,.163.074c.021.044.126.074.222.074a.294.294,0,0,1,.215.067.474.474,0,0,0,.245.1c.117.022.348.074.525.111a1.722,1.722,0,0,0,.311.052c0-.007-.163-.348-.37-.763a7.579,7.579,0,0,1-.37-.829.712.712,0,0,0-.089-.245c-.178-.355-.207-.422-.207-.562a.234.234,0,0,0-.074-.192.313.313,0,0,1-.074-.222.294.294,0,0,0-.066-.215.473.473,0,0,1-.1-.245c-.021-.118-.11-.474-.2-.8s-.192-.74-.237-.925-.1-.452-.14-.592-.082-.363-.1-.481-.073-.407-.118-.629-.1-.481-.111-.577a.181.181,0,0,0-.207-.163.419.419,0,0,0-.207.037Z" transform="translate(-12083.785 -6115.151)" fill="#0060bf"/><path d="M13733.211,6167.769c-.014.06-.1.437-.178.844a32.019,32.019,0,0,1-1.266,4.568.512.512,0,0,0-.074.208,5.45,5.45,0,0,1-.414,1,3.3,3.3,0,0,1-.244.437c-.186.274-.148.34.155.266a7.491,7.491,0,0,0,.763-.214,3.819,3.819,0,0,1,.443-.148,18.64,18.64,0,0,0,2.555-1.266,1.618,1.618,0,0,1,.244-.141c.111-.059.2-.133.2-.17s.037-.06.081-.06a5.953,5.953,0,0,0,.837-.622,19.457,19.457,0,0,0,2.71-2.71c.141-.185.334-.415.422-.518.223-.244.215-.355-.029-.407-.119-.022-.326-.074-.467-.111a44.134,44.134,0,0,0-4.664-.9c-.348-.037-.718-.089-.829-.111-.141-.029-.215-.015-.245.052Z" transform="translate(-13687.123 -6116.979)" fill="#0060bf"/><path d="M11554.926,6364.941c-.3.1-1.621.6-2.421.911-.43.17-.444.2-.155.348.133.067.43.251.658.407a29.849,29.849,0,0,0,4.272,2.221c.089.037.237.1.333.133s.281.1.422.155.326.119.407.156.452.163.814.281.726.237.8.267c.3.125.074-.111-.577-.592a25.281,25.281,0,0,1-3.006-2.924c-.178-.223-.341-.422-.363-.444s-.2-.259-.407-.533a3.174,3.174,0,0,0-.407-.5c-.022,0-.185.052-.37.111Z" transform="translate(-11526.273 -6312.486)" fill="#0060bf"/><path d="M14378.545,6373.164a20.124,20.124,0,0,1-2.014,2.392,16.886,16.886,0,0,1-2.621,2.258c-.015.015-.008.044.016.074s.125.007.222-.037.533-.207.978-.348.881-.289.962-.326.237-.1.355-.148.288-.119.407-.163.267-.111.348-.141c.334-.126,2.259-1.088,2.7-1.347a5,5,0,0,1,.5-.282,3.693,3.693,0,0,0,.422-.251c.207-.133.563-.355.777-.5.355-.222.385-.252.267-.341a.535.535,0,0,0-.251-.1.3.3,0,0,1-.186-.066,18.171,18.171,0,0,0-1.777-.681,1.717,1.717,0,0,1-.362-.155.815.815,0,0,0-.341-.06.367.367,0,0,0-.393.215Z" transform="translate(-14324.815 -6320.538)" fill="#0060bf"/></g><g transform="translate(0 74.062)"><path d="M1205.641,9010.008l-.022,3.465-.718.021-.726.022v-4.731l-.607-.029a4.441,4.441,0,0,0-.666,0,23.28,23.28,0,0,0-.059,2.392v2.362h-2.3v.547a3.6,3.6,0,0,1-.044.667c-.044.11.259.118,3.2.1a15.074,15.074,0,0,0,3.243-.118c-.007-.045-.015-1.9-.015-4.124l-.015-4.035h-1.259l-.015,3.458h0Z" transform="translate(-1190.626 -9006.542)" fill="#0060bf"/><path d="M2952.892,9005.7c-.03.029-.052,1.9-.052,4.153v4.094h19.116l.281-.155a1.135,1.135,0,0,0,.377-.333c.118-.222.222-.222.437,0a1.938,1.938,0,0,0,1.636.519c.9,0,1.17-.1,1.54-.511.215-.244.452-.341.452-.186,0,.119.37.444.644.556a6.9,6.9,0,0,0,1.955.11h1.7l-.015-4.131-.022-4.123-.607-.022-.615-.022-.015,3.465-.022,3.465-1,.022a4.6,4.6,0,0,1-1.2-.066.847.847,0,0,1-.5-.829,4.607,4.607,0,0,0-.237-1.311,1.9,1.9,0,0,0-.57-.874,1.177,1.177,0,0,0-.459-.312.235.235,0,0,1-.178-.073,2.346,2.346,0,0,0-.814-.074,1.911,1.911,0,0,0-1.7.63,2.346,2.346,0,0,0-.7,1.629c-.037.369-.074.7-.074.755a.938.938,0,0,1-.192.311l-.193.229h-3.591l-.044-1.021a6.581,6.581,0,0,0-.133-1.288,2.072,2.072,0,0,0-.918-1.1,1.836,1.836,0,0,0-1.066-.185,1.987,1.987,0,0,0-1.14.208,2.4,2.4,0,0,0-1.177,1.177,1.892,1.892,0,0,0-.207,1.073,1.551,1.551,0,0,0,.111.807c.252.334.385.326-4.7.326h-4.812l-.015-3.465-.022-3.457-.592-.022a2.211,2.211,0,0,0-.652.029Zm13.549,4.657c.355.178.429.4.429,1.362v.858l-.622.022c-.57.022-.637.007-.874-.178a1.216,1.216,0,0,1-.541-.978,1.143,1.143,0,0,1,.5-.97,1.011,1.011,0,0,1,1.11-.118Zm8.618-.022a1.364,1.364,0,0,1,.407.385,1.093,1.093,0,0,1,.207.829c0,.5-.007.533-.274.814s-.289.289-.748.289c-.407,0-.5-.029-.674-.186a1.161,1.161,0,0,1-.407-.962,1.176,1.176,0,0,1,.5-1.029.884.884,0,0,1,.992-.141Z" transform="translate(-2928.556 -9005.648)" fill="#0060bf"/><path d="M6601.61,9009.684c0,2.215-.022,4.08-.044,4.146-.037.1.044.118.629.118h.674l-.015-4.131-.022-4.124-.607-.021-.615-.022v4.034Z" transform="translate(-6547.267 -9005.649)" fill="#0060bf"/><path d="M9199.761,9007.846c-.022.037-.044,1.9-.044,4.131l-.008,4.065,6.479.022,6.471.015.236-.223.244-.229.415.207.415.208,2.051.022c1.977.021,2.058.015,2.391-.142a1.415,1.415,0,0,0,.46-.333c.147-.229.2-.222.444.052.377.415.5.438,2.843.438a14.234,14.234,0,0,0,2.176-.074.229.229,0,0,1,.186-.074c.074,0,.148-.022.163-.06a2.444,2.444,0,0,1,.259-.267l.237-.214.2.236c.349.415.533.452,2.37.452h1.658V9007.8l-.607.008-.614.015-.022,3.458-.015,3.465H9227.1c-.94,0-1.066-.015-1.267-.155a1.017,1.017,0,0,1-.392-.659c-.015-.06-.03-1.466-.03-3.124l-.007-3.006-.607.007-.614.015-.037,3.34a17.445,17.445,0,0,1-.141,3.457c-.089.111-.326.126-2.088.126h-1.984l-.266-.259-.26-.267v-2.739l-.666.022-.666.021-.022,1.488a4.522,4.522,0,0,1-.118,1.607c-.09.11-.318.125-1.889.125h-1.791l-.193-.207c-.236-.26-.318-.489-.467-1.333-.243-1.414-.621-1.88-1.665-2.1a3.009,3.009,0,0,0-1.518.163l-.459.11c-.267.053-.281.1-.178.438.037.126.111.37.163.541a.838.838,0,0,0,.133.317,3.881,3.881,0,0,0,.451-.147,1.265,1.265,0,0,1,1.355.081.772.772,0,0,1,.273.362.254.254,0,0,0,.074.186c.045.022.074.223.074.43a1.964,1.964,0,0,0,.244.984.193.193,0,0,1,.052.118c0,.03-2.6.06-5.774.06h-5.775l-.015-3.465-.022-3.458-.606-.022a1.722,1.722,0,0,0-.645.045Z" transform="translate(-9124.051 -9007.779)" fill="#0060bf"/><path d="M13868.537,9006.571c0,.037-.008,1.9-.022,4.153l-.015,4.087h5.537c5.486,0,5.539,0,5.864-.155a1.611,1.611,0,0,0,.474-.333c.074-.1.155-.178.178-.178a1.352,1.352,0,0,1,.289.237c.429.429.437.429,2.3.429,1.911,0,1.963-.007,2.414-.474l.252-.259.171.214a2.025,2.025,0,0,0,.525.378,2.211,2.211,0,0,0,1.133.163c.91-.007,1.214-.111,1.613-.541l.267-.288.252.3c.415.481.548.511,2.466.511h1.7l-.016-4.131-.021-4.124-.607-.015c-.43-.008-.614.015-.614.074s-.007,1.606-.022,3.457l-.015,3.369-1.036.022c-.926.014-1.059,0-1.281-.134-.311-.192-.4-.415-.467-1.147s-.141-1.074-.222-1.074c-.037,0-.066-.066-.066-.147s-.03-.148-.074-.148-.074-.052-.074-.1-.126-.207-.274-.318-.295-.222-.317-.244a2.365,2.365,0,0,0-1.208-.223,2.056,2.056,0,0,0-1.036.186,2.309,2.309,0,0,0-1.31,2.11,1.413,1.413,0,0,1-.326,1.088c-.141.17-.178.17-1.8.17-2.3,0-2.244.053-2.244-1.961v-1.3h-1.332v1.5c0,1.369-.015,1.518-.133,1.636s-.549.118-4.872.1l-4.731-.022-.021-3.465-.015-3.457h-.63a1.9,1.9,0,0,0-.629.052Zm19.686,4.82a1.014,1.014,0,0,1,.3.4.228.228,0,0,0,.074.17c.11.066.089.756-.029.984a.914.914,0,0,1-.926.571,1.621,1.621,0,0,1-.622-.1,1.4,1.4,0,0,1-.393-1.584,1.017,1.017,0,0,1,.984-.719.727.727,0,0,1,.607.282Z" transform="translate(-13754.446 -9006.512)" fill="#0060bf"/><path d="M17185.951,9007.311c-.031.03-.053,1.9-.053,4.153v4.095h1.332v-8.277l-.613-.008a2.863,2.863,0,0,0-.666.037Z" transform="translate(-17044.563 -9007.259)" fill="#0060bf"/><path d="M374.6,9160.416a.519.519,0,0,0-.2.519.575.575,0,0,0,.629.637.633.633,0,0,0,.659-.7c0-.267-.037-.354-.193-.48a.7.7,0,0,0-.9.021h0Z" transform="translate(-371.324 -9158.973)" fill="#0060bf"/><path d="M585.5,9160.539a.791.791,0,0,0-.333.643.672.672,0,0,0,.222.394.66.66,0,1,0,.5-1.111,1.108,1.108,0,0,0-.385.074Z" transform="translate(-580.358 -9159.19)" fill="#0060bf"/><path d="M4360.594,9159.978a.6.6,0,0,0-.208.719.681.681,0,0,0,1.3-.06A.668.668,0,0,0,4360.594,9159.978Z" transform="translate(-4324.479 -9158.542)" fill="#0060bf"/><path d="M4581.509,9160.58a.658.658,0,0,0-.141,1.052.666.666,0,0,0,1.14-.467.752.752,0,0,0-.1-.385A.725.725,0,0,0,4581.509,9160.58Z" transform="translate(-4543.491 -9159.225)" fill="#0060bf"/><path d="M8048.076,9159.975a.562.562,0,0,0,0,.911.612.612,0,0,0,.948.015c.667-.622-.251-1.511-.948-.926Z" transform="translate(-7981.658 -9158.516)" fill="#0060bf"/><path d="M8273.557,9160.26a.524.524,0,0,0-.207.511c0,.289.029.362.215.488a.682.682,0,0,0,1.117-.511A.672.672,0,0,0,8273.557,9160.26Z" transform="translate(-8205.31 -9158.815)" fill="#0060bf"/><path d="M11334.731,9159.165a.545.545,0,0,0,.015.873.638.638,0,0,0,1.133-.429.5.5,0,0,0-.2-.5A.644.644,0,0,0,11334.731,9159.165Z" transform="translate(-11241.305 -9157.669)" fill="#0060bf"/><path d="M11557.979,9160.237a.665.665,0,1,0,.777-.089.667.667,0,0,0-.777.089Z" transform="translate(-11462.709 -9158.794)" fill="#0060bf"/><path d="M15214.493,9159.5c-.155.126-.192.215-.192.489a.525.525,0,0,0,.207.511.654.654,0,0,0,.91-.94.67.67,0,0,0-.925-.06Z" transform="translate(-15089.179 -9158.074)" fill="#0060bf"/><path d="M21551.229,9158.559a.622.622,0,0,0,.037.948.647.647,0,0,0,.9.015.6.6,0,0,0,.172-.777.694.694,0,0,0-1.111-.186Z" transform="translate(-21373.793 -9157.101)" fill="#0060bf"/><path d="M21774.572,9159.764a.606.606,0,0,0-.207.5c-.006.273.021.348.207.5a.677.677,0,0,0,.889,0,.658.658,0,0,0-.443-1.155.743.743,0,0,0-.445.163Z" transform="translate(-21595.293 -9158.335)" fill="#0060bf"/><path d="M21467.422,9399.767a2.049,2.049,0,0,0-1.814,2.1,2.173,2.173,0,0,0,.066.622c.037.066.127.251.193.407a.727.727,0,0,0,.229.325.158.158,0,0,1,.1.141c0,.089-.34.1-2,.1h-2l-.014-.836c-.008-.992-.008-.992-.082-1.059a.415.415,0,0,1-.051-.223,1.892,1.892,0,0,0-1.023-1.3,1.866,1.866,0,0,0-1.051-.177,2.013,2.013,0,0,0-1.562.5,2.884,2.884,0,0,0-.658.955.336.336,0,0,1-.088.192,1.941,1.941,0,0,0-.1.889,2.1,2.1,0,0,0,.178,1.141,2.219,2.219,0,0,0,1.494,1.154c.186.066,1.719.089,5.383.089h5.125v-1.333H21469a2.047,2.047,0,0,1-1.637-.5,1.063,1.063,0,0,1,0-1.7,1.669,1.669,0,0,1,1.072-.252,1.67,1.67,0,0,0,.469.052c.266-.007.295-.029.34-.229a4.493,4.493,0,0,0,.059-.651l.008-.422-.348-.008c-.2,0-.555-.008-.8-.015a5.64,5.64,0,0,0-.742.029h0Zm-6.982,1.5c.326.274.43.622.43,1.451v.74h-1.34l-.363-.37c-.348-.341-.369-.385-.369-.74a1.179,1.179,0,0,1,.494-1.029A.892.892,0,0,1,21460.439,9401.27Z" transform="translate(-21281.107 -9396.494)" fill="#0060bf"/><path d="M17809.176,9405.285l-.68.148c-.326.066-.363.17-.246.644a3.581,3.581,0,0,1,.111.563c0,.155.141.192.355.081a2.356,2.356,0,0,1,.992-.229.7.7,0,0,1,.6.245,1.214,1.214,0,0,1,.334.533c.037.162.133.525.2.814s.148.577.162.644c.039.118-.029.134-.687.134q-3.287.01-3.287,2.657a2.192,2.192,0,0,0,1.26,2.177,4.028,4.028,0,0,0,2.834.111c.236-.074.275-.111.244-.244-.021-.082-.059-.349-.088-.585-.053-.415-.061-.43-.244-.378-1.273.318-2.148.126-2.512-.562a1.181,1.181,0,0,1,.6-1.688c.258-.147.391-.155,1.977-.155h1.7v-.629c0-.6-.008-.637-.223-.837a.793.793,0,0,1-.223-.3.076.076,0,0,0-.074-.081c-.037,0-.074-.074-.074-.171a.438.438,0,0,0-.066-.244,1.373,1.373,0,0,1-.111-.474,2.266,2.266,0,0,0-.2-1.007.24.24,0,0,1-.066-.186,1.38,1.38,0,0,0-.348-.5,2.153,2.153,0,0,0-2.244-.474Z" transform="translate(-17660.584 -9401.894)" fill="#0060bf"/><path d="M23111.279,9403.66a7.5,7.5,0,0,0-1.377.37.791.791,0,0,0,.016.393c.045.185.1.444.119.569.037.237.207.326.348.193a2.863,2.863,0,0,1,1.029-.245c.6-.007.992.489,1.006,1.259a2.088,2.088,0,0,0,.252.934.189.189,0,0,1,.051.117c0,.03-1.361.061-3.035.061h-3.035l-.3-.3c-.287-.288-.295-.311-.295-.785a2.427,2.427,0,0,0-1.221-2.316,3.3,3.3,0,0,0-2.074,0,2.322,2.322,0,0,0-1.221,1.436,5.992,5.992,0,0,0-.143.889c-.064.658-.094.763-.266.91l-.191.164-2.754-.016-2.754-.021-.039-1.074c-.035-1.177-.146-1.54-.57-1.939a1.768,1.768,0,0,0-1.539-.533,2.068,2.068,0,0,0-1.1.17,2.831,2.831,0,0,0-1.3,3.051c.393,1.222,1.133,1.7,2.658,1.7h.682l-.045.186a1.22,1.22,0,0,1-1.016.992,4.942,4.942,0,0,1-1.584-.008c-.125-.022-.148.045-.229.607a4.488,4.488,0,0,0-.061.651,10.167,10.167,0,0,0,1.045.029c1.48,0,2.059-.215,2.666-1a1.153,1.153,0,0,0,.244-.475.293.293,0,0,1,.072-.207c.045-.022.074-.207.074-.415v-.362h2.852a16.645,16.645,0,0,0,3.02-.1,2.316,2.316,0,0,0,.43-.37c.281-.3.363-.334.363-.171,0,.1.141.215.645.5.236.141.4.163,1.072.163a1.95,1.95,0,0,0,1.141-.171,1.991,1.991,0,0,0,.541-.422c.207-.259.3-.3.3-.141a.708.708,0,0,0,.244.3c.488.414.488.414,3.709.414,2.828,0,2.982-.007,3.213-.147.125-.082.236-.178.236-.223,0-.118.244-.081.445.074a.678.678,0,0,0,.311.148.206.206,0,0,1,.17.073,2.189,2.189,0,0,0,.777.074c.83,0,1.207-.141,1.443-.533l.127-.222.236.215a2.3,2.3,0,0,0,1.688.54,2.186,2.186,0,0,0,1.229-.318,2.074,2.074,0,0,0,.889-1.1,5.848,5.848,0,0,0,.008-1.969c-.334-.822-.533-1.066-1.117-1.341a2.079,2.079,0,0,0-.986-.163c-.605,0-1.221.119-1.221.237,0,.037-.045.06-.1.06-.133,0-.6.5-.785.829a2.7,2.7,0,0,0-.311,1.28c-.029.9-.268,1.148-1.1,1.148h-.555l-.186-.274a1.972,1.972,0,0,1-.369-1.036,3.306,3.306,0,0,0-.631-1.77,2.037,2.037,0,0,0-1.85-.57h0Zm-17.486,1.532c.3.3.348.5.348,1.422v.7h-.594c-.842,0-1.271-.267-1.4-.867a1.136,1.136,0,0,1,.34-1.184c.295-.289.355-.318.688-.318A.654.654,0,0,1,23093.793,9405.192Zm10.625.03c.865.865.355,2.272-.785,2.139a.989.989,0,0,1-.756-.429c-.029-.052-.088-.178-.133-.267a1.453,1.453,0,0,1,.459-1.54.826.826,0,0,1,.584-.186.688.688,0,0,1,.631.282Zm14.43-.09a1.344,1.344,0,0,1,.406,1.592.857.857,0,0,1-.777.637,1,1,0,0,1-1.221-.852,1.351,1.351,0,0,1,.154-.977A.934.934,0,0,1,23118.848,9405.133Z" transform="translate(-22900.904 -9400.343)" fill="#0060bf"/><path d="M2198.159,9412.078c-.037.015-.215.066-.385.118s-.318.126-.318.163-.037.059-.074.059c-.229,0-.962.948-.962,1.244a.348.348,0,0,1-.074.207,4.832,4.832,0,0,0-.015,1.637c.037.074.118.229.17.355a2.507,2.507,0,0,0,.422.525,2.715,2.715,0,0,0,1.954.622,1.977,1.977,0,0,1,.674.06c.089.133-.059.488-.311.747a1.713,1.713,0,0,1-1.532.43c-.326-.022-.652-.052-.733-.066-.17-.029-.237.2-.252.844l-.007.43.244.007a11.225,11.225,0,0,0,2.11-.081,2.134,2.134,0,0,0,1.644-1.487,6.883,6.883,0,0,0,.148-2.251c0-1.747-.022-1.984-.259-2.518a2.207,2.207,0,0,0-.881-.866,3.878,3.878,0,0,0-1.562-.178h0Zm.933,1.385c.348.244.422.474.444,1.362l.022.813-.607.022c-.533.015-.629,0-.9-.17a1,1,0,0,1-.511-1.073,1.037,1.037,0,0,1,1.548-.955Z" transform="translate(-2178.206 -9408.71)" fill="#0060bf"/><path d="M6948.464,9413.793a2.7,2.7,0,0,0-1.518,1.258,2.543,2.543,0,0,0,.355,3.006,2.592,2.592,0,0,0,1.984.652c.659,0,.7.007.7.155a1.569,1.569,0,0,1-.474.836,3.762,3.762,0,0,1-2.147.178c-.118-.015-.148.022-.163.215-.007.134-.037.422-.066.651l-.044.407.245.008c2.354.074,3.146-.215,3.694-1.325.178-.341.178-.393.178-2.466,0-2.1,0-2.11-.186-2.473a2.1,2.1,0,0,0-.94-.97,4.573,4.573,0,0,0-1.614-.133h0Zm1.051,1.406c.363.273.466.592.466,1.443v.733h-.607a1.549,1.549,0,0,1-.9-.171,1.178,1.178,0,0,1-.1-1.939A.826.826,0,0,1,6949.515,9415.2Z" transform="translate(-6889.493 -9410.409)" fill="#0060bf"/><path d="M7960.469,9414.039a2.713,2.713,0,0,0-1.17.822c-.074.119-.163.223-.192.223s-.059.066-.059.147-.03.148-.074.148-.074.081-.074.177-.029.208-.074.23a4.36,4.36,0,0,0,.022,1.666,2.083,2.083,0,0,0,1.644,1.4,10.677,10.677,0,0,0,1.577.082h1.273v-1.7a9.318,9.318,0,0,0-.074-1.748.264.264,0,0,1-.074-.2c0-.3-.488-.844-1-1.11A3.591,3.591,0,0,0,7960.469,9414.039Zm1.1,1.348c.362.252.459.541.5,1.414l.037.8h-.622a1.5,1.5,0,0,1-.911-.171,1.227,1.227,0,0,1-.044-2.035A.955.955,0,0,1,7961.572,9415.387Z" transform="translate(-7893.303 -9410.633)" fill="#0060bf"/><path d="M18663.605,9415.184a2.9,2.9,0,0,0-.51.2,2.708,2.708,0,0,0-.822,3.917,2.67,2.67,0,0,0,2.221.8c.623,0,.674.016.629.126a1.72,1.72,0,0,0-.088.3,1.393,1.393,0,0,1-.859.748,4.884,4.884,0,0,1-1.68-.008c-.186-.022-.186-.015-.223.592a1.755,1.755,0,0,0,.029.659,11.187,11.187,0,0,0,2.311-.044,2.265,2.265,0,0,0,1.6-1.407c.164-.392.172-.511.172-2.3,0-2.1-.037-2.333-.52-2.925a1.756,1.756,0,0,0-1.48-.667,6.119,6.119,0,0,0-.777.008Zm1.037,1.385a1.3,1.3,0,0,1,.273.348,3.514,3.514,0,0,1,.23,1.407l-.021.407-.631.021c-.562.016-.666,0-.889-.147a1.173,1.173,0,0,1-.57-.9,1.143,1.143,0,0,1,.475-1.073.88.88,0,0,1,1.133-.06Z" transform="translate(-18508.275 -9411.8)" fill="#0060bf"/><path d="M19314.99,9420.041a2.4,2.4,0,0,0-1.342,2.2c-.074.614-.125.791-.266.969l-.186.216h-2.592c-2.287,0-2.613-.015-2.8-.126-.355-.208-.4-.4-.43-1.821l-.031-1.311h-1.316v2.487c0,2.555-.008,2.658-.312,2.939a1.744,1.744,0,0,1-1.16.089l-.209-.044-.1.6c-.066.407-.066.63-.016.682a2.238,2.238,0,0,0,.66.111,2.11,2.11,0,0,0,2.443-2.118c.029-.355.072-.525.139-.525a.2.2,0,0,1,.143.066.7.7,0,0,0,.273.186,10.235,10.235,0,0,0,2.82.118c2.488,0,2.6-.007,2.865-.155a1.151,1.151,0,0,0,.4-.378l.133-.222.236.215a2.778,2.778,0,0,0,2.451.451c1.066-.289,1.621-1.362,1.443-2.783a2.135,2.135,0,0,0-1.176-1.858,3.281,3.281,0,0,0-2.082.015h0Zm1.525,1.2a1.376,1.376,0,0,1,.51,1.11,1,1,0,0,1-.814,1.126c-.844.133-1.385-.467-1.26-1.407a.987.987,0,0,1,.379-.688c.273-.281.361-.326.629-.326A.872.872,0,0,1,19316.516,9421.24Z" transform="translate(-19145.445 -9416.458)" fill="#0060bf"/><path d="M7.256,9457.393l.015,1.614-2.806.015c-2.362.016-2.821,0-2.939-.089s-.148-.229-.178-1.14l-.037-1.037-.652-.021L0,9456.712l.007,1.37c.007.829.037,1.236.067,1.036l.052-.333.007.325a1.272,1.272,0,0,0,.518.955c.452.3.637.318,4.368.3l3.576-.022v-4.517l-.674-.022-.674-.021.007,1.613h0Z" transform="translate(0 -9452.077)" fill="#0060bf"/><path d="M8604.854,9459.166a18.4,18.4,0,0,1-.081,2.643c-.186.355-.348.438-.852.43a2.019,2.019,0,0,1-.607-.074c-.11-.059-.133,0-.214.57a1.933,1.933,0,0,0-.03.7,2.251,2.251,0,0,0,.63.1,2.07,2.07,0,0,0,2.406-1.65,23.841,23.841,0,0,0,.081-2.762v-2.45h-1.333v2.487Z" transform="translate(-8532.298 -9452.97)" fill="#0060bf"/><path d="M13276.118,9456.753v2.3c.007,2.407-.038,2.747-.349,3.043-.162.148-.259.178-.666.171a4.018,4.018,0,0,1-.614-.052c-.171-.052-.208.059-.237.74l-.021.518.222.045a3.685,3.685,0,0,0,1.4-.021,2.2,2.2,0,0,0,1.117-.785c.378-.57.408-.822.408-3.517v-2.5h-.63a1.93,1.93,0,0,0-.629.052Z" transform="translate(-13165.063 -9452.992)" fill="#0060bf"/><path d="M18105.4,10096.078a.52.52,0,0,0-.141.488.652.652,0,0,0,1.3,0c.037-.444-.186-.666-.652-.666a.569.569,0,0,0-.51.178Z" transform="translate(-17956.355 -10086.935)" fill="#0060bf"/><path d="M10556.9,10114.068a.719.719,0,0,0-.015.94.668.668,0,0,0,.792.111c.3-.142.393-.341.325-.726-.065-.355-.243-.5-.636-.5a.552.552,0,0,0-.467.178Z" transform="translate(-10469.899 -10104.776)" fill="#0060bf"/><path d="M25546.766,10113.931c-.141.118-.178.215-.178.488,0,.289.029.37.215.519a.68.68,0,0,0,.9-1.014.8.8,0,0,0-.941.007Z" transform="translate(-25336.494 -10104.661)" fill="#0060bf"/><path d="M13091.729,10711.979a1.286,1.286,0,0,0-.792.629,3.1,3.1,0,0,0-.267,1.48l-.015.852-.459.022-.467.022v1.021l.467.021.459.022.015,1.962.008,1.963h1.059l.015-1.963.015-1.962.54-.022.533-.021v-1.021l-.533-.022-.54-.022-.022-.444c-.059-1.052.237-1.562.881-1.5l.348.037.038-.488a1.332,1.332,0,0,0-.022-.548,2.27,2.27,0,0,0-1.259-.015Z" transform="translate(-12982.081 -10697.867)" fill="#0060bf"/><path d="M5140.46,10729.205v4l.541-.022.533-.022v-7.922l-.533-.022-.541-.021Z" transform="translate(-5098.185 -10711.059)" fill="#0060bf"/><path d="M16605.031,10727.258c0,.029,0,.844.006,1.8a16.52,16.52,0,0,1-.029,1.7,2.1,2.1,0,0,0-1.584-.74,2.169,2.169,0,0,0-2.131,1.873,2.921,2.921,0,0,0,1.035,3.124,2.129,2.129,0,0,0,2.457-.223c.193-.259.252-.229.252.111v.3l.541-.022.533-.022v-7.922l-.533-.021a1.315,1.315,0,0,0-.547.037Zm-.615,4.131a1.613,1.613,0,0,1,.459,1.947,1.2,1.2,0,0,1-.555.666,1.38,1.38,0,0,1-1.2.052,1.681,1.681,0,0,1-.756-1.7,1.509,1.509,0,0,1,.963-1.162A1.45,1.45,0,0,1,16604.416,10731.389Z" transform="translate(-16464.666 -10713.058)" fill="#0060bf"/><path d="M20463.184,10768.795a4.087,4.087,0,0,0-1.385.4,4.187,4.187,0,0,0-1.17,1.126,6.765,6.765,0,0,0-.379.829,3.477,3.477,0,0,0-.2,1.51,3.672,3.672,0,0,0,.467,2.214,3.358,3.358,0,0,0,2.828,1.74,2.975,2.975,0,0,0,2.361-.889l.4-.407-.223-.163c-.117-.089-.348-.273-.5-.414l-.281-.252-.326.34a2.283,2.283,0,0,1-.6.459,2.5,2.5,0,0,1-1.273.045c-.066-.037-.223-.111-.342-.163-.266-.126-.783-.6-.783-.718,0-.052-.023-.089-.059-.089-.053,0-.09-.081-.32-.667a3.472,3.472,0,0,1-.1-1.072,2.287,2.287,0,0,1,.178-1.186,1.306,1.306,0,0,1,.238-.393.162.162,0,0,0,.059-.125c0-.126.488-.549.887-.763a1.572,1.572,0,0,1,.844-.163,1.272,1.272,0,0,1,.867.207,3.058,3.058,0,0,1,.43.333c.141.178.191.163.682-.214s.48-.363.006-.814a3.038,3.038,0,0,0-1.014-.586,5.366,5.366,0,0,0-1.295-.125Z" transform="translate(-20291.787 -10754.291)" fill="#0060bf"/><path d="M9415.59,10771.937a2.886,2.886,0,0,0-1.377.784,3.887,3.887,0,0,0-1.029,1.755,5.99,5.99,0,0,0-.1,1.333,3.475,3.475,0,0,0,.178,1.443,3.4,3.4,0,0,0,1.606,1.977,4.673,4.673,0,0,0,4.132-.126l.37-.192.021-1.9.015-1.9h-2.592v1.185h1.407v1.77l-.236.1c-.134.06-.341.141-.452.193a3.4,3.4,0,0,1-1.784-.074,2.716,2.716,0,0,1-1.422-2.9,2.517,2.517,0,0,1,1.378-2.184,1.677,1.677,0,0,1,.9-.163,2.388,2.388,0,0,1,1.592.563.151.151,0,0,0,.111.1,3.574,3.574,0,0,0,.874-.947c0-.163-.651-.563-1.207-.733a3.514,3.514,0,0,0-1.347-.163,6.334,6.334,0,0,0-1.037.081h0Z" transform="translate(-9335.667 -10757.328)" fill="#0060bf"/><path d="M19321.318,10772.021a1.563,1.563,0,0,0-1.053,1.043,2.5,2.5,0,0,0-.029,1.208c.037.065.141.28.229.474a1.873,1.873,0,0,0,.313.474c.125.118.125.133.016.267a.448.448,0,0,1-.215.133,2.313,2.313,0,0,0-.971,2.747,2,2,0,0,0,1.059,1.11,1.859,1.859,0,0,0,1.088.229,2.111,2.111,0,0,0,1.645-.636l.385-.342.281.355a3.252,3.252,0,0,0,.363.4,5.537,5.537,0,0,0,1.443.021c0-.044-.859-1.1-1.162-1.443-.23-.244-.215-.34.088-.792a3.535,3.535,0,0,0,.26-.43c0-.021.17-.288.369-.592a4.115,4.115,0,0,0,.371-.607,2.972,2.972,0,0,0-1.355.066,4.219,4.219,0,0,0-.48.814c-.141.326-.23.349-.43.111-.941-1.11-.889-1.029-.734-1.118a3.758,3.758,0,0,0,1.039-1.133,2.138,2.138,0,0,0-.039-1.547,1.6,1.6,0,0,0-1.68-.911,3.144,3.144,0,0,0-.8.1Zm1.109,1.073c.311.186.533.577.422.755a.51.51,0,0,0-.088.245,2.07,2.07,0,0,1-.8.71.507.507,0,0,1-.266-.2c-.541-.688-.488-1.266.141-1.54C19322.125,10772.939,19322.16,10772.939,19322.428,10773.095Zm-.244,3.731c.266.333.563.688.645.785a.653.653,0,0,1,.156.236c0,.1-.475.5-.742.637a.9.9,0,0,1-.887,0,1.047,1.047,0,0,1-.594-1.028c0-.4.016-.437.379-.83a1.729,1.729,0,0,1,.465-.414,3.122,3.122,0,0,1,.578.614Z" transform="translate(-19160.621 -10757.398)" fill="#0060bf"/><path d="M3700.494,10783.477a.673.673,0,0,0-.444.725.606.606,0,0,0,.474.7.7.7,0,0,0,.8-.281.9.9,0,0,0-.1-.94.834.834,0,0,0-.733-.207Z" transform="translate(-3669.621 -10768.832)" fill="#0060bf"/><path d="M17342.029,10782.5a.783.783,0,0,0-.393,1.029.8.8,0,0,0,.777.437,1.015,1.015,0,0,0,.406-.273.735.735,0,0,0-.791-1.192Z" transform="translate(-17198.953 -10767.859)" fill="#0060bf"/><path d="M25154.148,10781.112a.735.735,0,0,0,.066,1.333.615.615,0,0,0,.74-.118.747.747,0,0,0-.127-1.214.574.574,0,0,0-.68,0Z" transform="translate(-24946.891 -10766.401)" fill="#0060bf"/><path d="M117.03,10792.81v3.739h1.036v-3.044c0-3.146.03-3.458.274-2.62a3.337,3.337,0,0,0,.178.5.746.746,0,0,1,.067.274.26.26,0,0,0,.074.192c.044.022.074.126.074.223a.313.313,0,0,0,.074.222c.044.021.074.141.074.26a.385.385,0,0,0,.074.259c.044.021.074.126.074.222a.311.311,0,0,0,.074.222c.044.022.074.126.074.223a.314.314,0,0,0,.074.223c.044.021.074.118.074.214a.461.461,0,0,0,.044.215,11.949,11.949,0,0,1,.429,1.215l.385,1.169.407.022c.459.022.481,0,.659-.651a2.459,2.459,0,0,1,.156-.459.746.746,0,0,0,.067-.274.26.26,0,0,1,.074-.192c.044-.022.074-.126.074-.222a.314.314,0,0,1,.074-.223c.044-.021.074-.125.074-.222a.31.31,0,0,1,.074-.222.238.238,0,0,0,.074-.193.741.741,0,0,1,.067-.273c.037-.066.259-.726.489-1.459.452-1.436.5-1.533.6-1.569a29.366,29.366,0,0,1,.044,2.977l-.022,3h1.118l.015-3.739.022-3.739h-.9c-.97,0-.97,0-1.088.481-.022.081-.163.481-.311.889s-.348.991-.452,1.295a6.148,6.148,0,0,1-.252.681.634.634,0,0,0-.074.274c0,.081-.03.171-.074.192a.314.314,0,0,0-.074.223c0,.1-.03.2-.074.222a.314.314,0,0,0-.074.223.311.311,0,0,1-.074.222c-.044.022-.074.134-.074.23,0,.3-.163.169-.3-.216a1.938,1.938,0,0,0-.17-.4.362.362,0,0,1-.052-.215c0-.1-.03-.192-.074-.215a.29.29,0,0,1-.074-.215.5.5,0,0,0-.059-.236,1.449,1.449,0,0,1-.155-.4c-.052-.185-.126-.4-.156-.48s-.1-.267-.148-.408-.118-.325-.148-.406-.1-.3-.155-.481a1.48,1.48,0,0,0-.155-.4.5.5,0,0,1-.059-.236c0-.1-.03-.192-.074-.215a.321.321,0,0,1-.074-.229v-.178H117.03v3.739h0Z" transform="translate(-116.068 -10774.403)" fill="#0060bf"/><path d="M4225.041,10789.272a2.022,2.022,0,0,1-.111.317c-.059.134-.666,1.688-.814,2.073-.089.244-.237.585-.3.719a.64.64,0,0,0-.067.207,1.6,1.6,0,0,1-.148.385,1.646,1.646,0,0,0-.148.407.648.648,0,0,1-.067.229,5.081,5.081,0,0,0-.3.718,1.367,1.367,0,0,1-.111.281c-.059.134-.178.422-.259.645s-.2.5-.251.629a5.057,5.057,0,0,0-.267.674,3.387,3.387,0,0,0,.681.016l.681-.022.259-.777a4.211,4.211,0,0,1,.34-.829,20.772,20.772,0,0,1,2.88-.016.209.209,0,0,1,.119.186.842.842,0,0,0,.074.289c.045.082.111.215.148.3a.663.663,0,0,1,.074.259.665.665,0,0,0,.066.244,1.878,1.878,0,0,1,.111.252c.037.111.133.134.711.134a1.765,1.765,0,0,0,.667-.066,5.142,5.142,0,0,0-.289-.785c-.037-.081-.141-.348-.229-.592s-.229-.585-.3-.755a1.709,1.709,0,0,1-.141-.393.6.6,0,0,0-.066-.208,6.865,6.865,0,0,1-.3-.755,9.036,9.036,0,0,0-.362-.9,2.31,2.31,0,0,1-.156-.407c0-.029-.119-.355-.267-.726s-.3-.732-.326-.814c-.089-.244-.237-.585-.3-.718a.675.675,0,0,1-.066-.244c0-.09-.111-.111-.548-.111-.511,0-.555.015-.6.163Zm.7,1.739c0,.111.667,2.11.852,2.555.052.126-.029.133-1,.133-.814,0-1.044-.021-1.014-.1.015-.045.141-.408.266-.793s.326-.939.429-1.222.193-.562.215-.614a.129.129,0,0,1,.252.037Z" transform="translate(-4187.467 -10774.442)" fill="#0060bf"/><path d="M5743.63,10792.761v3.739h1.118l-.022-3c-.015-1.65,0-3,.037-3,.074,0,.229.371.422,1.037a6.062,6.062,0,0,0,.229.682.738.738,0,0,1,.066.273.264.264,0,0,0,.074.193c.044.021.074.11.074.191a.743.743,0,0,0,.066.274c.037.066.3.844.585,1.718l.511,1.592.407.021c.355.023.407,0,.481-.147.044-.1.326-.919.622-1.836,1.236-3.806,1.273-3.924,1.385-3.924.029,0,.044,1.333.029,2.962l-.022,2.969.563-.023.555-.021.022-3.725.015-3.717h-1.777l-.089.2a1.022,1.022,0,0,0-.1.3.548.548,0,0,1-.074.23,3.573,3.573,0,0,0-.178.458c-.237.726-.57,1.674-.637,1.792a.574.574,0,0,0-.074.244.667.667,0,0,1-.067.244,4.83,4.83,0,0,0-.311.83,1.447,1.447,0,0,1-.156.4.543.543,0,0,0-.059.252c0,.37-.186.089-.444-.674a6.815,6.815,0,0,0-.318-.837.4.4,0,0,1-.052-.222c0-.1-.03-.193-.074-.215a.314.314,0,0,1-.074-.223c0-.1-.03-.2-.074-.222a.316.316,0,0,1-.074-.223c0-.1-.03-.2-.074-.222a.313.313,0,0,1-.074-.222c0-.1-.029-.2-.074-.223a.292.292,0,0,1-.074-.215.506.506,0,0,0-.059-.237,3.253,3.253,0,0,1-.244-.636l-.178-.578h-1.814v3.739h0Z" transform="translate(-5696.395 -10774.355)" fill="#0060bf"/><path d="M14935.3,10789.672v.592h1c.748,0,1,.023,1,.09,0,.051.008,1.458.022,3.131l.015,3.036.57.022.577.021.016-3.131.021-3.132,1.059-.022,1.052-.022v-1.177h-5.331Z" transform="translate(-14812.472 -10774.413)" fill="#0060bf"/><path d="M22583.895,10906.807v.733l-.451.021-.453.022-.014.5-.008.5h.926v1.5c0,1.592.051,1.888.355,2.243a1.2,1.2,0,0,0,.369.267,3.832,3.832,0,0,0,1.408.037l.236-.06v-.511c0-.281-.021-.511-.061-.511a2.162,2.162,0,0,0-.295.066.641.641,0,0,1-.5-.037c-.363-.147-.422-.422-.393-1.807l.021-1.146.615-.022.607-.022v-1.021l-.607-.022-.615-.022-.021-.726-.023-.718h-1.1v.74Z" transform="translate(-22397.246 -10890.438)" fill="#0060bf"/><path d="M24661.6,10906.809v.74h-.941l.008.519.008.511.445.022.443.021.037,1.629c.043,1.844.088,2.007.613,2.28a2.79,2.79,0,0,0,1.48.1l.275-.059v-.511c0-.289-.023-.519-.061-.519a2.162,2.162,0,0,0-.295.066.7.7,0,0,1-.785-.252c-.1-.147-.119-.422-.119-1.48v-1.295h1.26v-1.037h-1.26v-1.48h-1.109v.74Z" transform="translate(-24457.852 -10890.439)" fill="#0060bf"/><path d="M1149.486,11068.961a2.749,2.749,0,0,0-.874.5,2.247,2.247,0,0,0-.555.74,2.218,2.218,0,0,0-.237,1.341,2.032,2.032,0,0,0,.222,1.28,2.387,2.387,0,0,0,1.362,1.214,3.1,3.1,0,0,0,1.725-.021,2.8,2.8,0,0,0,1.318-1.244c.17-.333.185-.452.185-1.259-.007-.822-.022-.926-.2-1.273a4.585,4.585,0,0,0-.392-.606,2.2,2.2,0,0,0-1.007-.607.234.234,0,0,1-.178-.074,3.162,3.162,0,0,0-1.37.015Zm1.481,1.3c1.081.867.577,2.755-.74,2.755a1.17,1.17,0,0,1-1.177-.763,1.746,1.746,0,0,1,.015-1.488,1.544,1.544,0,0,1,.822-.726,1.365,1.365,0,0,1,1.081.223Z" transform="translate(-1138.38 -11051.91)" fill="#0060bf"/><path d="M1874.4,11068.876a1.383,1.383,0,0,0-.444.362.975.975,0,0,1-.259.26c-.037,0-.059-.134-.059-.3v-.3h-1.111v5.034h1.111v-1.48c0-1.355.015-1.51.156-1.813a1.184,1.184,0,0,1,1.229-.688l.415.021-.007-.518c0-.289-.007-.563-.007-.615-.007-.126-.718-.1-1.022.03h0Z" transform="translate(-1857.13 -11051.796)" fill="#0060bf"/><path d="M2283.853,11067.935a2.329,2.329,0,0,0-1.532,1.362,2.36,2.36,0,0,0-.17,1.214,2.109,2.109,0,0,0,.215,1.281,2.272,2.272,0,0,0,1.8,1.311,2.423,2.423,0,0,0,2.754-1.74,5.584,5.584,0,0,0-.03-1.851,2.649,2.649,0,0,0-1.185-1.4,2.728,2.728,0,0,0-1.851-.178Zm1.444,1.3a1.626,1.626,0,0,1,.2,2.316,1.061,1.061,0,0,1-.94.438,1.134,1.134,0,0,1-.874-.334,1.755,1.755,0,0,1-.467-1.429.8.8,0,0,0,.082-.311,2.086,2.086,0,0,1,.9-.911,1.455,1.455,0,0,1,1.1.23Z" transform="translate(-2263.382 -11050.885)" fill="#0060bf"/><path d="M2986.818,11069.273a2.555,2.555,0,0,0-1.377,1.155,2.624,2.624,0,0,0-.281,1.443,2.068,2.068,0,0,0,.207,1.163,2.228,2.228,0,0,0,1.007,1.133,2.553,2.553,0,0,0,2.947-.415,1.959,1.959,0,0,0,.526-.829,3.023,3.023,0,0,0-.082-2.406,2.382,2.382,0,0,0-1.488-1.267,3.253,3.253,0,0,0-1.458.022h0Zm1.2,1.11a1.625,1.625,0,0,1,.082,2.836,1.377,1.377,0,0,1-1.155-.066c-.318-.223-.57-.511-.57-.667a.206.206,0,0,0-.074-.17c-.133-.082-.082-.836.081-1.192a1.273,1.273,0,0,1,1.636-.739h0Z" transform="translate(-2960.61 -11052.208)" fill="#0060bf"/><path d="M6755.712,11069.523a1.876,1.876,0,0,0-.881.489l-.215.222.252.3c.259.3.392.362.474.229a1.937,1.937,0,0,1,.467-.266,1.15,1.15,0,0,1,1.266.065,1.052,1.052,0,0,1,.444.822,3.81,3.81,0,0,1-.622.073,4.415,4.415,0,0,0-1.415.2.242.242,0,0,1-.185.066,1.36,1.36,0,0,0-.5.348,1.279,1.279,0,0,0-.452.77,1.14,1.14,0,0,0,.038.8,1.761,1.761,0,0,0,2.813.6c.274-.288.333-.28.311.052l-.015.281.511.022.5.022-.03-1.947c-.029-1.77-.052-1.977-.192-2.288a1.591,1.591,0,0,0-.948-.851,3.736,3.736,0,0,0-1.621-.008Zm1.666,3.169a.954.954,0,0,1-.355.858c-.4.349-1.288.26-1.48-.148-.282-.592.311-1.065,1.377-1.081l.459-.007v.377h0Z" transform="translate(-6698.741 -11052.466)" fill="#0060bf"/><path d="M7410.973,11069.027a1.217,1.217,0,0,0-.429.362c-.259.334-.348.326-.318-.021l.021-.274-.577-.021-.57-.022.015,2.5.022,2.5.578.021.57.022v-1.4c0-.77.022-1.555.044-1.739a1,1,0,0,1,1.288-.866c.289.118.459.4.555.925.007.037.022.748.022,1.569l.015,1.5h1.037v-2c0-1.88-.008-2.021-.156-2.331a1.457,1.457,0,0,0-1.466-.845A1.969,1.969,0,0,0,7410.973,11069.027Z" transform="translate(-7348.167 -11051.947)" fill="#0060bf"/><path d="M8049.649,11069.646c-.622.215-1.073.511-1.073.711a1.082,1.082,0,0,0,.267.378l.273.288.267-.207a1.472,1.472,0,0,1,1.273-.3,1.093,1.093,0,0,1,.733.814c0,.237-.008.244-.94.252a.679.679,0,0,0-.289.059.639.639,0,0,1-.34.06,1.2,1.2,0,0,0-.415.066c-.984.489-1.125.682-1.125,1.585,0,.6.007.629.259.918a1.646,1.646,0,0,0,1.385.556,1.357,1.357,0,0,0,1.207-.519c.119-.267.259-.2.259.133v.3l.5-.022.5-.021.015-1.74c.015-1.644-.015-2.007-.208-2.385a.635.635,0,0,1-.066-.236c0-.178-.555-.6-.918-.7A3.8,3.8,0,0,0,8049.649,11069.646Zm1.681,2.88a1.592,1.592,0,0,1-.3,1.044c-.548.57-1.644.363-1.658-.326-.008-.288.3-.584.74-.71.4-.111,1.177-.118,1.214-.008Z" transform="translate(-7982.091 -11052.588)" fill="#0060bf"/><path d="M8702.762,11070.577a1.559,1.559,0,0,0-.437.407c-.185.3-.311.23-.252-.141l.045-.288h-1.147l.015,2.5.021,2.5h1.052l-.015-1.369c-.008-1.451.037-1.711.348-2.125a1.107,1.107,0,0,1,1.1-.445l.407.045-.022-.607-.021-.606-.408-.015a1.063,1.063,0,0,0-.687.148h0Z" transform="translate(-8629.413 -11053.446)" fill="#0060bf"/><path d="M10336.781,11070.588a2.542,2.542,0,0,0-.5.422l-.237.273.015-.334.022-.332-.578-.022-.569-.022.015,2.5.021,2.5.541.022.533.021v-1.377c0-1.613.052-1.865.5-2.316l.318-.326.5.029.5.022v-1.185l-.408-.015a1.127,1.127,0,0,0-.666.134Z" transform="translate(-10249.937 -11053.471)" fill="#0060bf"/><path d="M10747,11069.422a2.557,2.557,0,0,0-1.48,1.295,2.184,2.184,0,0,0-.215,1.252,2.8,2.8,0,0,0,.1,1.036c.051.118.141.3.185.393a2.5,2.5,0,0,0,4.561-1.933,2.428,2.428,0,0,0-1.725-2.051,3.422,3.422,0,0,0-1.422.008Zm1.451,1.273a1.552,1.552,0,0,1,.585,1.332,1.077,1.077,0,0,1-.074.525.237.237,0,0,0-.074.178c0,.134-.355.5-.644.652a1.369,1.369,0,0,1-1.147-.067,1.63,1.63,0,0,1-.193-2.532,1.657,1.657,0,0,1,.459-.3,1.751,1.751,0,0,1,1.089.208Z" transform="translate(-10656.936 -11052.371)" fill="#0060bf"/><path d="M12137.387,11070.919a1.609,1.609,0,0,0-.7.57.075.075,0,0,1-.118.036c-.06-.036-.074-.14-.045-.311l.045-.252h-1.126v3.7c0,2.036.023,3.709.06,3.724a3.043,3.043,0,0,0,.548,0l.5-.029.015-1.474.022-1.474.222.192a1.8,1.8,0,0,0,1.34.5c1.147-.008,1.947-.807,2.17-2.176a3.545,3.545,0,0,0-.289-1.918,2.591,2.591,0,0,0-1-1,2.959,2.959,0,0,0-1.644-.082h0Zm1.215,1.273a1.569,1.569,0,0,1,.577,1.6c-.045.333-.1.437-.452.776-.385.386-.4.393-.821.393a1.166,1.166,0,0,1-1.11-.6,1.768,1.768,0,0,1-.1-1.621,1.338,1.338,0,0,1,.852-.763,1.44,1.44,0,0,1,1.052.215Z" transform="translate(-12035.638 -11053.854)" fill="#0060bf"/><path d="M13533.827,11071.324l-.422.186a2.417,2.417,0,0,0-.992.94,3.1,3.1,0,0,0-.022,2.828,2.434,2.434,0,0,0,2.524,1.222,2.328,2.328,0,0,0,1.837-1.385,2.425,2.425,0,0,0,.192-1.251,3.131,3.131,0,0,0-.074-.94.3.3,0,0,1-.082-.186,2.127,2.127,0,0,0-.273-.5,2.48,2.48,0,0,0-1.17-.88A4.084,4.084,0,0,0,13533.827,11071.324Zm1.414,1.267a1.747,1.747,0,0,1,.585,1.776,1.966,1.966,0,0,1-.7.882,1.466,1.466,0,0,1-1.1.06,1.806,1.806,0,0,1-.7-.719,2.524,2.524,0,0,1-.044-1.34,1.115,1.115,0,0,0,.17-.259,1.386,1.386,0,0,1,.7-.585,1.594,1.594,0,0,1,1.081.185Z" transform="translate(-13420.773 -11054.282)" fill="#0060bf"/><path d="M14261.9,11070.561c-.3.178-.408.282-.475.452-.09.237-.2.141-.2-.163v-.3h-1.185l.015,2.5.022,2.5.578.022.569.022v-1.518c0-1.577.03-1.747.333-2.1a1.05,1.05,0,0,1,.992-.37l.414.021v-1.185l-.406-.015a1.058,1.058,0,0,0-.658.133Z" transform="translate(-14142.767 -11053.444)" fill="#0060bf"/><path d="M15558.252,11068.271a1.162,1.162,0,0,0-.406.363c-.164.281-.23.259-.23-.09v-.295h-1.184v5.033h1.184v-1.555c0-1.613.015-1.687.334-2.058a1.048,1.048,0,0,1,.97-.37c.222.008.4,0,.4-.037v-1.162l-.385.007A1.526,1.526,0,0,0,15558.252,11068.271Z" transform="translate(-15428.496 -11051.14)" fill="#0060bf"/><path d="M15977.338,11070.754a2.145,2.145,0,0,0-1.006.548l-.148.192.311.311.311.319.268-.208a1.487,1.487,0,0,1,1.251-.311.98.98,0,0,1,.755.859c0,.17-.029.185-.385.2a5.659,5.659,0,0,0-1.614.223c-.681.288-.77.362-.984.762a1.559,1.559,0,0,0-.155.777,1.3,1.3,0,0,0,.414,1.089,1.94,1.94,0,0,0,2.459-.06.994.994,0,0,1,.222-.215c.022,0,.044.134.044.3v.3h1.037v-1.629a6.971,6.971,0,0,0-.244-2.591c-.141-.318-.422-.667-.541-.667-.052,0-.1-.029-.1-.06,0-.2-1.318-.3-1.889-.133Zm1.622,3.2a.956.956,0,0,1-1.081,1.021c-.541.007-.8-.2-.8-.63a.457.457,0,0,1,.222-.452,1.749,1.749,0,0,1,1.185-.332l.48.015-.007.377h0Z" transform="translate(-15844.554 -11053.689)" fill="#0060bf"/><path d="M17656.814,11068.2a1.512,1.512,0,0,0-.475.407c-.311.385-.393.377-.326-.038l.045-.332h-1.117l.014,2.494.016,2.5.576.022.57.021v-1.621c0-1.732.023-1.881.387-2.221a.986.986,0,0,1,.939-.148,1.282,1.282,0,0,1,.334.3c.146.192.154.333.191,1.925l.037,1.718h1.08l-.006-1.925c-.008-2.014-.029-2.229-.35-2.673a1.8,1.8,0,0,0-1.916-.437Z" transform="translate(-17509.748 -11051.126)" fill="#0060bf"/><path d="M18295.918,11069.345c-.312.089-1.082.733-1.082.911,0,.059-.029.1-.074.1s-.074.052-.074.111a.675.675,0,0,1-.066.244,3.167,3.167,0,0,0-.148,1.852,2.3,2.3,0,0,0,1.984,1.909,1.975,1.975,0,0,0,1.414-.414,1.155,1.155,0,0,1,.3-.223c.178,0-.037,1.133-.273,1.452a1.575,1.575,0,0,1-1.164.547,2.312,2.312,0,0,1-1.34-.555c-.111-.111-.215-.186-.23-.171a6.637,6.637,0,0,0-.629,1.044c0,.171.676.533,1.3.711a4.825,4.825,0,0,0,1.725,0,2.264,2.264,0,0,0,1.607-1.658c.029-.126.066-1.48.08-3.021l.023-2.791h-1.037v.3c0,.215-.029.3-.111.3a.113.113,0,0,1-.111-.1c0-.134-.451-.489-.613-.489a.214.214,0,0,1-.164-.074,2.958,2.958,0,0,0-1.324.022Zm1.377,1.1a1.359,1.359,0,0,1,.947,1.391,1.373,1.373,0,0,1-.453,1.148c-.414.348-1.086.541-1.213.341a.209.209,0,0,0-.178-.074c-.141,0-.592-.459-.748-.755a2.32,2.32,0,0,1,.008-1.311,1.476,1.476,0,0,1,.7-.682A1.153,1.153,0,0,1,18297.295,11070.441Z" transform="translate(-18143.949 -11052.287)" fill="#0060bf"/><path d="M21257.23,11069.036c-.08.03-.258.1-.4.155a2.434,2.434,0,0,0-.6.438,2.389,2.389,0,0,0-.658,1.059,5.2,5.2,0,0,0,0,1.807,2.4,2.4,0,0,0,1.221,1.5,2.74,2.74,0,0,0,2.2.036c.326-.133.939-.673.939-.821,0-.06.023-.1.059-.1.053,0,.148-.208.3-.674a4.157,4.157,0,0,0,.008-1.629,2.373,2.373,0,0,0-2.443-1.836A2.259,2.259,0,0,0,21257.23,11069.036Zm1.445,1.325a1.607,1.607,0,0,1,.563,1.54,1.344,1.344,0,0,1-1.318,1.207,1.218,1.218,0,0,1-.621-.141,1.615,1.615,0,0,1-.682-1.733,1.789,1.789,0,0,1,.9-1.088,1.373,1.373,0,0,1,1.162.215Z" transform="translate(-21080.691 -11052.001)" fill="#0060bf"/><path d="M21985.93,11067.253a1.133,1.133,0,0,0-.422.415c-.1.26-.223.155-.223-.2v-.288h-1.035v5.034h1.1l.029-1.687c.021-1.645.029-1.688.2-1.918a.934.934,0,0,1,1.318-.273c.3.3.318.443.318,2.184v1.7h1.191l-.029-1.91c-.014-1.044-.051-2.007-.088-2.125a1.6,1.6,0,0,0-2.355-.925h0Z" transform="translate(-21803.451 -11050.069)" fill="#0060bf"/><path d="M23093.363,11070.627a1.294,1.294,0,0,0-.371.311c-.082.148-.191.252-.273.252-.023,0-.029-.133-.008-.3l.045-.3h-1.207v5.034h1.186v-1.555c0-1.54,0-1.562.184-1.858a1.073,1.073,0,0,1,1.1-.57l.436.022v-1.185l-.393-.015a1.12,1.12,0,0,0-.7.155Z" transform="translate(-22901.645 -11053.487)" fill="#0060bf"/><path d="M23507.113,11070.067a2.573,2.573,0,0,0-.924.488l-.246.215.283.312a1.455,1.455,0,0,0,.348.3,1,1,0,0,0,.3-.177,1.5,1.5,0,0,1,1.236-.267,1.036,1.036,0,0,1,.711.747l.045.26-.939.089a2.754,2.754,0,0,0-1.756.563c-.119.1-.207.207-.207.259s-.021.082-.059.082c-.082,0-.236.547-.236.844a1.555,1.555,0,0,0,.9,1.34,1.94,1.94,0,0,0,2.051-.37c.207-.229.266-.192.236.155l-.021.252h.977v-1.991a12.529,12.529,0,0,0-.074-2.044.219.219,0,0,1-.074-.163c0-.215-.369-.614-.725-.777a3.508,3.508,0,0,0-1.83-.118Zm1.668,3.146a1.009,1.009,0,0,1-1.119,1.088c-.377.008-.459-.021-.637-.192a.544.544,0,0,1,.037-.873,1.909,1.909,0,0,1,1.258-.363l.461-.007Z" transform="translate(-23312.361 -11053.016)" fill="#0060bf"/><path d="M24146.719,11068.949a2.094,2.094,0,0,0-.963.658,2.708,2.708,0,0,0-.51.926,5.24,5.24,0,0,0,.014,1.9,3.078,3.078,0,0,0,.756,1.141,2.537,2.537,0,0,0,1.961.475c.555-.1,1.186-.445,1.186-.652a2.138,2.138,0,0,0-.342-.488l-.34-.4-.266.223a1.154,1.154,0,0,1-1.666-.311,1.765,1.765,0,0,1-.275-1.363,1.346,1.346,0,0,1,1.223-1.1.806.806,0,0,1,.688.23l.3.236.34-.385a1.732,1.732,0,0,0,.342-.475c0-.141-.607-.613-.785-.613a.292.292,0,0,1-.215-.074,2.807,2.807,0,0,0-1.443.066Z" transform="translate(-23946.598 -11051.847)" fill="#0060bf"/><path d="M25478.988,11069.1a1.8,1.8,0,0,0-.408.363,1.066,1.066,0,0,1-.252.252c-.037,0-.059-.134-.059-.3v-.3h-1.037v5.042l.533-.022.525-.021-.014-1.311c-.023-1.569.059-2.044.414-2.407a.849.849,0,0,1,1.029-.207c.436.23.541.748.547,2.576v1.393l.541-.022.533-.021.021-1.666c.023-1.874-.035-2.348-.369-2.851a1.45,1.45,0,0,0-1.334-.622,2.058,2.058,0,0,0-.672.118Z" transform="translate(-25267.709 -11052.009)" fill="#0060bf"/><path d="M26109.623,11069.4a2.562,2.562,0,0,0-1.5,2.458,2.962,2.962,0,0,0,.756,2.08,2.218,2.218,0,0,0,2.367.4,1.158,1.158,0,0,0,.4-.274.166.166,0,0,1,.146-.1c.1,0,.111.089.082.5a2.569,2.569,0,0,1-.162.74,1.535,1.535,0,0,1-1.984.511,3.837,3.837,0,0,1-.629-.393c-.23-.186-.246-.186-.3-.059a.377.377,0,0,1-.1.177c-.021.022-.148.193-.281.385l-.23.349.311.252a2.306,2.306,0,0,0,.461.3,4.426,4.426,0,0,0,1.508.266,2.233,2.233,0,0,0,2.363-1.555,12.873,12.873,0,0,0,.236-3.62v-2.377h-1.125l.045.26c.08.407-.008.43-.348.089a1.838,1.838,0,0,0-.623-.408,2.882,2.882,0,0,0-1.4.016h0Zm1.754,1.229a1.838,1.838,0,0,1,.6,1.259,2.1,2.1,0,0,1-.4,1.11,2.127,2.127,0,0,1-.986.444,1.545,1.545,0,0,1-.363-2.983,1.88,1.88,0,0,1,1.148.17Z" transform="translate(-25893.406 -11052.333)" fill="#0060bf"/><path d="M3593.057,11088.97a15.987,15.987,0,0,1-.1,3.132c-.148.348-.289.444-.578.414-.229-.021-.244-.007-.3.274a3.894,3.894,0,0,0-.052.57l-.007.281h.541c.629,0,.933-.118,1.185-.467.333-.466.348-.593.348-3.924v-3.161h-1.037v2.88Z" transform="translate(-3562.479 -11068.98)" fill="#0060bf"/><path d="M11467.529,11088.06c.029,1.925.029,1.955.229,2.354a1.318,1.318,0,0,0,1.052.807c.651.127,1.436-.133,1.555-.5a.3.3,0,0,1,.154-.185c.1-.038.111.014.09.273l-.022.311.54.022.533.022v-5.042h-1.11v1.577c0,1.739-.03,1.873-.451,2.235a.857.857,0,0,1-1.074.015c-.3-.333-.325-.525-.325-2.2v-1.629h-1.2l.029,1.939Z" transform="translate(-11373.191 -11069.011)" fill="#0060bf"/><path d="M17356.9,11088.617v2.517h1.186v-5.034h-1.186Z" transform="translate(-17214.158 -11068.99)" fill="#0060bf"/><path d="M25171.2,11087.735v2.518h1.109v-2.443c0-1.348.008-2.466.023-2.5a1.549,1.549,0,0,0-.557-.073l-.576-.022v2.524Z" transform="translate(-24964.191 -11068.108)" fill="#0060bf"/><path d="M45.01,12319.833v.333l109.819-.015,109.811-.022v-.592l-109.811-.022L45.01,12319.5Z" transform="translate(-44.64 -12292.247)" fill="#0060bf"/><path d="M10265.22,13022.762c-.526.185-.556.2-.556.266,0,.037-.044.067-.088.067s-.178.1-.282.236-.222.274-.273.319a3.383,3.383,0,0,0-.312,2.235,2.339,2.339,0,0,0,1.155,1.421c.111.053.267.126.333.163a6.391,6.391,0,0,0,1.881.008c.074-.037.236-.118.355-.171a2.6,2.6,0,0,0,1.229-2.213,2.413,2.413,0,0,0-1.673-2.354,4.3,4.3,0,0,0-1.77.022Zm1.644.776c.341.186.763.645.763.822a.238.238,0,0,0,.073.178,2.114,2.114,0,0,1,0,1.11.216.216,0,0,0-.073.163c0,.185-.348.6-.667.8a1.952,1.952,0,0,1-1.524.081,1.856,1.856,0,0,1-.519-2.776,2.454,2.454,0,0,1,.407-.318,1.686,1.686,0,0,1,1.54-.059h0Z" transform="translate(-10179.227 -12989.622)" fill="#0060bf"/><path d="M18108.332,13023.179a2.808,2.808,0,0,0-1.014.644,2.08,2.08,0,0,1-.2.244.389.389,0,0,0-.111.223c0,.066-.029.118-.066.118-.164,0-.281,1.377-.156,1.814a2.32,2.32,0,0,0,1.311,1.592,2.522,2.522,0,0,0,1.162.163,3.337,3.337,0,0,0,1.66-.289l.234-.1v-2.437h-1.775v.74h.438a.937.937,0,0,1,.488.082,1.758,1.758,0,0,1,.053.526c.006.629-.127.717-.986.725-.7,0-.939-.081-1.266-.422a1.639,1.639,0,0,1-.5-1.273,1.584,1.584,0,0,1,1.629-1.71c.438,0,1.111.229,1.111.377s.154.06.406-.214a1.4,1.4,0,0,0,.26-.334c0-.155-.363-.362-.852-.488a5.168,5.168,0,0,0-1.82.022h0Z" transform="translate(-17957.824 -12990.047)" fill="#0060bf"/><path d="M19583.98,13021.205a2.064,2.064,0,0,0-1.191.978,2.635,2.635,0,0,0,.9,3.546c.111.053.258.119.326.156a6.411,6.411,0,0,0,1.879.007c.074-.036.238-.118.363-.171a2.565,2.565,0,0,0,.992-1.065,3.874,3.874,0,0,0,.008-2.295,2.354,2.354,0,0,0-1.223-1.118,3.3,3.3,0,0,0-2.051-.037Zm1.7.755a1.291,1.291,0,0,1,.645.585,1.606,1.606,0,0,1,.26,1.289,1.52,1.52,0,0,1-.467.917,1.255,1.255,0,0,1-1.156.46,1.243,1.243,0,0,1-1.059-.37,1.481,1.481,0,0,1-.531-1.074,1.746,1.746,0,0,1,.82-1.791,1.774,1.774,0,0,1,1.488-.016Z" transform="translate(-19421.412 -12988.037)" fill="#0060bf"/><path d="M5384.811,13036.133c-.022.045-.022,1.111-.015,2.369l.022,2.3.333-.015c.185-.008.363-.016.393-.016a15.97,15.97,0,0,0,.044-1.873,14.359,14.359,0,0,1,.06-1.888c.066-.022.155.185.311.682.052.163.126.37.163.459s.1.243.133.333.141.37.222.614.259.726.4,1.073c.237.622.245.622.511.63.245.015.282-.015.377-.252.148-.355.385-1.007.5-1.377a2.837,2.837,0,0,1,.141-.37,2.252,2.252,0,0,0,.148-.408,1.992,1.992,0,0,1,.148-.406,5.774,5.774,0,0,0,.267-.837.071.071,0,0,1,.1-.052,10.6,10.6,0,0,1,.074,1.873v1.836l.34-.015a1.526,1.526,0,0,0,.371-.045c.059-.059.066-4.649.015-4.656s-.318-.008-.629-.008l-.578-.007-.17.437c-.1.236-.208.5-.245.563a.661.661,0,0,0-.066.208,1.617,1.617,0,0,1-.148.385,1.637,1.637,0,0,0-.148.406.633.633,0,0,1-.074.245c-.037.081-.1.215-.148.3a.785.785,0,0,0-.074.252.68.68,0,0,1-.141.273c-.111.141-.148.156-.178.066a6,6,0,0,0-.43-1.2.67.67,0,0,1-.066-.244.685.685,0,0,0-.066-.244c-.037-.066-.1-.229-.156-.348s-.119-.281-.155-.349a.642.642,0,0,1-.067-.236.9.9,0,0,0-.1-.3c-.1-.2-.126-.207-.748-.215a1.643,1.643,0,0,0-.673.066h0Z" transform="translate(-5340.507 -13002.92)" fill="#0060bf"/><path d="M6301.792,13036.9c-.044.045-.037,4.494.008,4.613.029.073.355.1,1.606.081a15.8,15.8,0,0,0,1.6-.06,1.072,1.072,0,0,0,.044-.348l.007-.318-1.207-.022-1.207-.015.022-.651.022-.644,1.074-.008,1.073-.008.022-.385.022-.378h-2.229v-1.1l1.163-.022,1.162-.022.008-.355c0-.191-.03-.348-.074-.348-.562-.029-3.095-.029-3.117-.008Z" transform="translate(-6249.937 -13003.732)" fill="#0060bf"/><path d="M6977.087,13035.861c-.052.06-.029,4.672.03,4.68.533.037.681.029.681-.037.007-.045,0-.852,0-1.792s.015-1.762.044-1.828c.066-.171.178-.082.178.141,0,.17.022.244.207.6a.749.749,0,0,1,.089.281.754.754,0,0,0,.089.281c.178.348.208.422.208.533a.577.577,0,0,0,.074.244c.037.067.178.422.3.792s.267.7.3.74a.5.5,0,0,0,.3.074c.192,0,.267-.044.333-.186a5.272,5.272,0,0,0,.333-.851,2.013,2.013,0,0,1,.155-.37.463.463,0,0,0,.059-.237c0-.1.037-.17.074-.17s.074-.081.074-.178a.321.321,0,0,1,.074-.229c.044-.022.074-.119.074-.215a.448.448,0,0,1,.059-.229,2.045,2.045,0,0,0,.155-.37,2,2,0,0,1,.363-.777,18.481,18.481,0,0,1,.03,1.888,13.987,13.987,0,0,0,.037,1.9c.03,0,.208.007.393.015l.333.015v-4.724l-.622.008a2.024,2.024,0,0,0-.674.066,1.535,1.535,0,0,0-.141.318c-.052.141-.126.333-.163.422s-.1.244-.133.333-.1.289-.155.43a10.191,10.191,0,0,1-.452,1.125.744.744,0,0,0-.067.274c0,.267-.148.244-.266-.044s-.156-.4-.311-.764c-.037-.1-.111-.3-.163-.443-.163-.481-.459-1.222-.614-1.548-.082-.163-.133-.178-.667-.185a3.3,3.3,0,0,0-.614.021Z" transform="translate(-6919.68 -13002.693)" fill="#0060bf"/><path d="M7894.657,13036.664c-.067.074-.03,4.656.044,4.686.037.008.615,0,1.273-.021,1.162-.037,1.222-.045,1.518-.244a1.024,1.024,0,0,0,.563-1.052.855.855,0,0,0-.222-.747.75.75,0,0,0-.422-.3c-.1-.015-.192-.044-.192-.066a3.249,3.249,0,0,1,.333-.362c.311-.3.333-.341.333-.718a1.1,1.1,0,0,0-.577-1.029c-.208-.111-.437-.141-1.429-.155-.659-.008-1.207,0-1.222.015h0Zm2.08.792a.533.533,0,0,1,.082.933c-.119.1-.3.126-.762.133h-.615v-1.184h.526A1.986,1.986,0,0,1,7896.737,13037.456Zm.133,1.888a.765.765,0,0,1,.422.585c0,.452-.5.74-1.3.74h-.556v-1.406h.637A2.856,2.856,0,0,1,7896.87,13039.344Z" transform="translate(-7829.697 -13003.496)" fill="#0060bf"/><path d="M8587.848,13036.678c-.066.073-.029,4.656.045,4.686.037.008.763.008,1.606-.015l1.532-.036.008-.334v-.333l-1.207-.022-1.207-.015.022-.651.022-.645,1.036-.014,1.037-.008.022-.378.021-.378h-2.154v-1.11h2.3l-.022-.378-.022-.369-1.5-.016c-.829-.007-1.524,0-1.54.016Z" transform="translate(-8517.188 -13003.509)" fill="#0060bf"/><path d="M9246.912,13037.136c-.022.044-.022,1.11-.015,2.369l.021,2.295.334-.015c.185-.008.354-.015.385-.015a4.521,4.521,0,0,0,.073-.992l.022-.978.259-.022a.82.82,0,0,1,.341.037,14.9,14.9,0,0,1,.911,1.592l.178.355h.385a2.314,2.314,0,0,1,.511.045c.178.066.141-.1-.1-.452a2.731,2.731,0,0,1-.223-.363c0-.014-.17-.311-.377-.644-.363-.6-.386-.726-.089-.733.133,0,.533-.362.651-.6a1.722,1.722,0,0,0,.111-.681.846.846,0,0,0-.252-.763,1.334,1.334,0,0,0-.54-.385A10.629,10.629,0,0,0,9246.912,13037.136Zm2.332.829a.66.66,0,0,1,.045.829,1.626,1.626,0,0,1-1.148.289l-.407-.022-.022-.548c-.029-.792-.051-.771.711-.733.541.022.689.06.822.186Z" transform="translate(-9170.847 -13003.923)" fill="#0060bf"/><path d="M11136.229,13036.671c-.015.015-.029,1.073-.029,2.347v2.311l.378.029a1.777,1.777,0,0,0,.406-.008,8.774,8.774,0,0,0,.03-.984v-.947h2.147v-.733l-1.052-.022-1.059-.021-.022-.607-.022-.607,1.133-.021,1.133-.022.022-.355c.015-.192-.008-.349-.037-.349s-.719-.007-1.525-.021-1.488,0-1.5.015Z" transform="translate(-11044.616 -13003.503)" fill="#0060bf"/><path d="M12082.93,13033.924a3.711,3.711,0,0,0-.393.814c-.045.1-.1.244-.141.312a.67.67,0,0,0-.066.244c0,.06-.03.11-.074.11s-.074.053-.074.111a.665.665,0,0,1-.066.244c-.082.141-.437.934-.637,1.385-.215.5-.422.955-.489,1.089-.14.273-.081.355.26.355a1.91,1.91,0,0,1,.437.037c.074.029.155-.111.3-.519l.208-.556h2.095l.1.237c.06.133.126.311.163.393s.081.207.1.273c.029.1.126.134.407.134a2.17,2.17,0,0,1,.481.044c.2.074.178.008-.341-1.154-.081-.186-.178-.4-.207-.481s-.126-.3-.215-.5a2.581,2.581,0,0,1-.155-.392c0-.015-.082-.208-.178-.422s-.244-.562-.334-.763c-.488-1.125-.429-1.052-.8-1.044a1.419,1.419,0,0,0-.385.044Zm.518,1.348a5.286,5.286,0,0,0,.2.614c.052.118.118.274.155.334a1.619,1.619,0,0,1,.118.354l.052.237h-.711c-.467,0-.71-.029-.71-.081a1.439,1.439,0,0,1,.118-.349c.141-.318.185-.429.4-1a1.063,1.063,0,0,1,.229-.422c.029,0,.1.141.148.311Z" transform="translate(-11981.566 -13000.748)" fill="#0060bf"/><path d="M12891.7,13037.59v2.369l1.422-.015,1.429-.016.022-.369.021-.37-1.021-.023-1.021-.021v-1.947c0-1.066-.015-1.939-.037-1.947s-.215-.015-.422-.022l-.393-.007v2.369Z" transform="translate(-12785.679 -13002.082)" fill="#0060bf"/><path d="M13845.9,13037.578l.022,2.361.318-.007c.17,0,.348-.007.392-.007a7.385,7.385,0,0,0,.053-1.9c-.008-1.037-.008-1.888.015-1.888.081,0,.222.3.407.858a7.5,7.5,0,0,0,.414,1.081.707.707,0,0,1,.067.267.428.428,0,0,0,.059.207,1.617,1.617,0,0,1,.155.362,5.425,5.425,0,0,0,.334.853c.066.14.141.185.333.185.3,0,.273.037.858-1.555.148-.407.3-.807.333-.889a6.87,6.87,0,0,0,.37-1.17c0-.066.03-.126.074-.126a9.863,9.863,0,0,1,.089,1.866l.022,1.873.333-.016c.185-.007.355-.014.393-.014s.044-1.059.037-2.354l-.022-2.34h-.585c-.629,0-.629,0-.837.54-.044.1-.11.268-.155.371s-.118.3-.163.443c-.118.326-.178.489-.474,1.215-.244.607-.414.8-.414.459a.848.848,0,0,0-.067-.326,6.625,6.625,0,0,1-.3-.755c-.1-.267-.134-.385-.312-.814-.06-.141-.185-.459-.281-.7l-.171-.444h-1.31l.015,2.361Z" transform="translate(-13732.02 -13002.078)" fill="#0060bf"/><path d="M14713.359,13034.278c-.045.1-.142.326-.208.489-.229.51-.452,1.028-.569,1.295-.061.141-.179.408-.26.592s-.178.4-.207.482c-.09.229-.3.718-.415.954a.961.961,0,0,0-.1.319.091.091,0,0,1-.08.1c-.045,0-.066.066-.053.155.022.134.082.155.415.171.437.015.489-.037.674-.586.163-.488.147-.48,1.267-.48h1.021l.163.422c.229.577.289.637.74.637s.5-.037.393-.267c-.186-.393-.414-.918-.467-1.052-.066-.162-.252-.584-.555-1.258-.111-.245-.23-.512-.26-.593-.1-.267-.311-.733-.414-.955a1.039,1.039,0,0,1-.1-.3c0-.162-.23-.288-.57-.3-.3-.007-.341.008-.407.186h0Zm.6,1.244a4.328,4.328,0,0,0,.163.466c.023.06.082.193.126.3s.111.281.155.393a1.182,1.182,0,0,1,.082.273,3.368,3.368,0,0,1-1.406,0,1.2,1.2,0,0,1,.08-.273c.178-.423.275-.659.438-1.082a1.279,1.279,0,0,1,.215-.422c.029,0,.1.156.148.349h0Z" transform="translate(-14590.473 -13000.962)" fill="#0060bf"/><path d="M15520.431,13035.874c-.015.015-.03,1.073-.03,2.347v2.311l.393.029a3.326,3.326,0,0,0,.407.015c.015-.008.03-.785.037-1.74.015-1.3.036-1.725.11-1.747a.058.058,0,0,1,.09.052,3.915,3.915,0,0,0,.369.629,5.187,5.187,0,0,1,.371.593,4.29,4.29,0,0,0,.333.511,3.081,3.081,0,0,1,.333.556c0,.044.029.081.059.081s.142.141.23.318a3.572,3.572,0,0,0,.332.533c.156.192.208.207.66.215a1.5,1.5,0,0,0,.5-.03c0-.021,0-1.088.007-2.369v-2.324l-.332.008a3.823,3.823,0,0,0-.393.014,10.858,10.858,0,0,0-.037,1.674,6.975,6.975,0,0,1-.052,1.666,25.083,25.083,0,0,1-1.784-2.673.066.066,0,0,0-.059-.067c-.037,0-.111-.088-.171-.207-.192-.37-.274-.407-.821-.414a2.752,2.752,0,0,0-.549.021h0Z" transform="translate(-15392.762 -13002.705)" fill="#0060bf"/><path d="M16274.048,13035.219a.146.146,0,0,0-.081.134,1.081,1.081,0,0,1-.133.341c-.074.133-.208.43-.3.651s-.245.57-.333.777-.207.489-.268.629a1.454,1.454,0,0,1-.162.333.38.38,0,0,0-.06.2c0,.074-.029.134-.073.134s-.074.051-.074.111a.675.675,0,0,1-.066.244c-.037.066-.127.259-.193.422s-.17.385-.222.5a.647.647,0,0,0-.074.222,2.9,2.9,0,0,0,.474,0c.5-.029.5-.044.756-.777l.1-.274h1.059c.947,0,1.066.016,1.1.127.029.074.111.273.186.443a2.544,2.544,0,0,1,.141.385,2.478,2.478,0,0,0,.977.1c.029-.015.029-.089-.008-.155-.066-.134-.354-.764-.459-1.015-.111-.267-.414-.955-.584-1.333-.09-.207-.193-.437-.223-.518-.089-.223-.451-1.074-.629-1.474-.089-.192-.141-.222-.43-.229a2.558,2.558,0,0,0-.414.021h0Zm.5,1.311a1.732,1.732,0,0,0,.1.334,9.513,9.513,0,0,1,.429,1.184c0,.045-.3.074-.71.074-.778,0-.764.008-.549-.48a7.948,7.948,0,0,0,.445-1.2c0-.163.251-.081.281.089Z" transform="translate(-16138.184 -13002.059)" fill="#0060bf"/><path d="M17088.182,13037.13c-.021.045-.021,1.11-.016,2.37l.023,2.295.332-.016c.186-.007.355-.015.385-.015a4.4,4.4,0,0,0,.074-.991c.023-.963.023-.978.2-1,.236-.037.51.045.539.155.016.044.238.481.5.955l.482.866.465.022a1.146,1.146,0,0,0,.512-.037c.016-.03-.037-.148-.119-.267a1.049,1.049,0,0,1-.154-.252c0-.021-.2-.355-.445-.74s-.443-.726-.443-.74a.747.747,0,0,1,.287-.148,1.614,1.614,0,0,0,.52-.4c.207-.252.23-.326.23-.8,0-.5-.016-.548-.252-.821a1.346,1.346,0,0,0-.541-.386,10.679,10.679,0,0,0-2.584-.052Zm2.324.815a.7.7,0,0,1,.037.865,1.726,1.726,0,0,1-1.133.268l-.406-.023-.023-.547c-.029-.793-.051-.771.711-.733.5.022.682.06.814.171Z" transform="translate(-16947.631 -13003.917)" fill="#0060bf"/><path d="M18932.43,13035.854c-.016.015-.029,1.074-.029,2.348v2.31l.393.029a1.769,1.769,0,0,0,.443.008,5.342,5.342,0,0,0,.053-1.029v-.992h.281c.266,0,.3.022.5.385.117.215.273.512.355.652s.221.392.3.555c.215.415.281.444.777.422.385-.021.43-.044.4-.17-.023-.074-.066-.141-.1-.141s-.068-.052-.068-.111-.029-.111-.066-.111-.082-.059-.109-.133a6.357,6.357,0,0,0-.541-.963c-.133-.215-.244-.4-.244-.414a.93.93,0,0,1,.281-.141c.332-.134.68-.467.68-.652a1,1,0,0,1,.082-.317.687.687,0,0,0-.014-.541,1.2,1.2,0,0,0-.822-.888,14.723,14.723,0,0,0-2.547-.1Zm2.383.94a.459.459,0,0,1,.008.7,1.317,1.317,0,0,1-1.1.363h-.436v-1.348l.674.029c.643.03.688.045.85.252Z" transform="translate(-18776.701 -13002.686)" fill="#0060bf"/><path d="M20454.363,13033.5c-.023.045-.023.866-.008,1.814.023,1.813.029,1.844.393,2.272a2.875,2.875,0,0,0,.459.385c.281.2.363.215.984.223a1.656,1.656,0,0,0,1.77-.918c.148-.26.156-.393.156-2.08v-1.8l-.387.008-.391.007-.016,1.614a5.577,5.577,0,0,1-.141,1.866,1.079,1.079,0,0,1-1.57.362c-.43-.333-.465-.511-.459-2.272l.016-1.562-.385-.008C20454.547,13033.414,20454.385,13033.451,20454.363,13033.5Z" transform="translate(-20286.127 -13000.275)" fill="#0060bf"/><path d="M21210.029,13036.664c-.014.015-.029,1.073-.029,2.347v2.31l.355.029a1.408,1.408,0,0,0,.406.008,4.768,4.768,0,0,0,.053-.992v-.955h.451a5.848,5.848,0,0,0,.941-.089,1.263,1.263,0,0,0,1.088-1.628,1.085,1.085,0,0,0-.645-.866c-.289-.148-.443-.163-1.459-.178-.621-.008-1.148,0-1.162.015Zm2.08.784a.556.556,0,0,1,.326.733c-.127.355-.422.488-1.074.488h-.547v-1.332h.525a2.18,2.18,0,0,1,.77.111h0Z" transform="translate(-21035.57 -13003.496)" fill="#0060bf"/></g></g></g></svg>