<?xml version="1.0" standalone="no"?>
<!DOCTYPE svg PUBLIC "-//W3C//DTD SVG 20010904//EN"
 "http://www.w3.org/TR/2001/REC-SVG-20010904/DTD/svg10.dtd">
<svg version="1.0" xmlns="http://www.w3.org/2000/svg"
 width="512.000000pt" height="512.000000pt" viewBox="0 0 512.000000 512.000000"
 preserveAspectRatio="xMidYMid meet">

<g transform="translate(0.000000,512.000000) scale(0.100000,-0.100000)"
fill="#000000" stroke="none">
<path d="M2330 5108 c-737 -69 -1393 -526 -1715 -1193 -119 -246 -175 -463
-210 -806 -6 -55 -8 -58 -58 -92 -116 -77 -241 -233 -287 -355 -45 -119 -55
-173 -55 -302 0 -129 10 -183 55 -302 66 -177 261 -372 438 -438 134 -50 155
-53 435 -58 l267 -4 0 801 0 801 -195 0 -195 0 6 43 c84 583 434 1077 939
1326 246 121 457 175 735 188 378 16 746 -87 1065 -298 152 -101 363 -312 463
-462 152 -231 246 -478 286 -754 l6 -43 -195 0 -195 0 0 -800 0 -800 200 0
200 0 0 -113 c0 -206 -50 -337 -180 -467 -86 -87 -162 -131 -276 -160 -70 -18
-110 -20 -408 -19 l-331 0 -34 72 c-47 100 -158 210 -261 261 -179 87 -379 85
-553 -6 -81 -42 -203 -164 -245 -245 -70 -133 -88 -286 -52 -427 29 -113 73
-190 160 -276 150 -151 340 -208 545 -165 169 35 335 163 406 311 l34 72 375
4 c340 4 382 7 455 26 238 62 456 212 585 401 61 90 126 233 151 331 17 69 22
124 26 297 l5 212 52 34 c220 147 360 432 343 701 -16 250 -146 482 -344 613
-50 34 -52 37 -58 92 -16 161 -39 306 -65 408 -268 1036 -1227 1694 -2320
1591z m-1530 -2749 l0 -402 -52 7 c-71 9 -167 55 -222 107 -29 26 -60 70 -84
117 -35 72 -37 81 -37 171 0 87 3 102 32 163 17 37 50 87 72 111 63 68 178
123 264 126 l27 1 0 -401z m3687 361 c87 -40 146 -98 191 -188 35 -72 37 -81
37 -172 0 -91 -2 -100 -37 -172 -24 -47 -55 -91 -84 -117 -55 -52 -151 -98
-221 -107 l-53 -7 0 403 0 403 53 -7 c28 -4 80 -20 114 -36z m-1817 -1954 c59
-39 85 -89 85 -166 0 -78 -26 -127 -88 -168 -56 -37 -153 -39 -210 -3 -76 47
-111 140 -88 229 14 51 75 117 123 131 53 16 135 6 178 -23z"/>
<path d="M1560 2760 l0 -800 257 0 258 0 242 -242 243 -243 243 243 242 242
258 0 257 0 0 800 0 800 -1000 0 -1000 0 0 -800z m1600 0 l0 -400 -142 0 -143
0 -157 -157 -158 -158 -158 158 -157 157 -143 0 -142 0 0 400 0 400 600 0 600
0 0 -400z"/>
</g>
</svg>
