<?xml version="1.0" standalone="no"?>
<!DOCTYPE svg PUBLIC "-//W3C//DTD SVG 20010904//EN"
 "http://www.w3.org/TR/2001/REC-SVG-20010904/DTD/svg10.dtd">
<svg version="1.0" xmlns="http://www.w3.org/2000/svg"
 width="512.000000pt" height="512.000000pt" viewBox="0 0 512.000000 512.000000"
 preserveAspectRatio="xMidYMid meet">

<g transform="translate(0.000000,512.000000) scale(0.100000,-0.100000)"
fill="#000000" stroke="none">
<path d="M710 4436 l0 -336 -355 0 -355 0 0 -1875 0 -1875 2560 0 2560 0 0
1875 0 1875 -1281 0 -1282 0 -81 68 c-324 269 -692 450 -1101 541 -131 29
-306 49 -497 57 l-168 6 0 -336z m410 13 c441 -54 867 -249 1218 -557 l72 -64
0 -1495 0 -1495 -62 46 c-156 113 -370 235 -538 304 -206 86 -485 159 -670
177 -36 3 -80 8 -97 11 l-33 5 0 1539 c0 1242 2 1540 13 1540 7 0 51 -5 97
-11z m-410 -2009 l0 -1360 144 0 c347 0 674 -78 990 -237 90 -45 240 -136 286
-173 l25 -20 -927 0 -928 0 0 1575 0 1575 205 0 205 0 0 -1360z m4110 -215 l0
-1575 -1055 0 -1055 0 0 1575 0 1575 1055 0 1055 0 0 -1575z"/>
<path d="M3097 3253 c-4 -3 -7 -71 -7 -150 l0 -143 680 0 680 0 0 150 0 150
-673 0 c-371 0 -677 -3 -680 -7z"/>
<path d="M3097 2673 c-4 -3 -7 -71 -7 -150 l0 -143 680 0 680 0 0 150 0 150
-673 0 c-371 0 -677 -3 -680 -7z"/>
<path d="M3090 1950 l0 -150 680 0 680 0 0 150 0 150 -680 0 -680 0 0 -150z"/>
<path d="M3090 1370 l0 -150 680 0 680 0 0 150 0 150 -680 0 -680 0 0 -150z"/>
</g>
</svg>
