<?xml version="1.0" standalone="no"?>
<!DOCTYPE svg PUBLIC "-//W3C//DTD SVG 20010904//EN"
 "http://www.w3.org/TR/2001/REC-SVG-20010904/DTD/svg10.dtd">
<svg version="1.0" xmlns="http://www.w3.org/2000/svg"
 width="512.000000pt" height="512.000000pt" viewBox="0 0 512.000000 512.000000"
 preserveAspectRatio="xMidYMid meet">

<g transform="translate(0.000000,512.000000) scale(0.100000,-0.100000)"
fill="#000000" stroke="none">
<path d="M493 5106 c-103 -33 -185 -106 -232 -205 l-26 -56 0 -2285 0 -2285
27 -57 c37 -79 98 -142 177 -181 l66 -32 1370 0 1370 0 55 26 c118 57 191 156
210 285 5 38 10 250 10 470 l0 402 68 41 c37 22 86 55 109 73 42 31 43 31 63
13 26 -24 25 -31 -10 -71 -33 -38 -45 -87 -35 -141 6 -33 46 -78 298 -331 346
-347 360 -357 512 -357 78 1 98 4 150 30 150 72 235 235 205 389 -23 116 -43
142 -349 448 -248 249 -292 288 -328 298 -55 14 -111 0 -157 -40 l-33 -29 -24
25 c-16 17 -20 29 -14 38 147 194 255 431 302 663 27 134 25 453 -5 585 -90
408 -315 738 -654 965 l-98 65 0 442 c0 242 -5 472 -10 510 -19 129 -92 228
-210 285 l-55 26 -1355 2 c-1102 1 -1363 -1 -1397 -11z m460 -491 c58 -172 62
-181 111 -230 88 -89 52 -85 817 -85 l667 0 63 33 c93 48 117 85 185 292 l59
175 151 0 c84 0 159 -3 168 -6 14 -5 16 -51 16 -405 0 -219 -3 -399 -6 -399
-3 0 -52 10 -107 22 -149 32 -446 32 -597 -1 -547 -118 -972 -494 -1144 -1012
-55 -166 -67 -237 -73 -434 -6 -207 12 -346 67 -515 214 -665 880 -1110 1571
-1049 94 8 219 29 272 45 16 5 17 -16 17 -354 0 -319 -2 -361 -16 -366 -9 -3
-598 -6 -1309 -6 -1269 0 -1294 0 -1305 19 -14 28 -14 4415 0 4442 10 18 21
19 172 17 l161 -3 60 -180z m1535 95 l-30 -90 -585 2 -586 3 -23 67 c-12 36
-25 76 -29 87 l-6 21 645 0 645 0 -31 -90z m458 -1001 c117 -16 238 -54 359
-113 740 -359 907 -1346 325 -1926 -436 -435 -1122 -474 -1602 -92 -178 142
-322 349 -393 567 -78 240 -74 539 11 777 148 414 526 724 961 787 85 12 250
13 339 0z m1616 -2953 c-24 -52 -46 -37 -262 179 l-204 204 29 31 29 31 210
-210 c202 -202 209 -211 198 -235z"/>
<path d="M1617 806 c-48 -17 -71 -38 -91 -81 -35 -73 -6 -164 64 -204 36 -20
52 -21 284 -21 270 0 281 2 329 60 58 68 38 183 -41 232 -35 22 -47 23 -272
25 -181 2 -244 0 -273 -11z"/>
</g>
</svg>
