<?xml version="1.0" standalone="no"?>
<!DOCTYPE svg PUBLIC "-//W3C//DTD SVG 20010904//EN"
 "http://www.w3.org/TR/2001/REC-SVG-20010904/DTD/svg10.dtd">
<svg version="1.0" xmlns="http://www.w3.org/2000/svg"
 width="512.000000pt" height="512.000000pt" viewBox="0 0 512.000000 512.000000"
 preserveAspectRatio="xMidYMid meet">

<g transform="translate(0.000000,512.000000) scale(0.100000,-0.100000)"
fill="#000000" stroke="none">
<path d="M1197 5105 c-338 -64 -617 -324 -708 -660 -32 -116 -32 -326 -1 -443
44 -165 123 -301 243 -421 l70 -70 -48 -25 c-252 -128 -466 -393 -547 -677
-41 -145 -46 -215 -46 -706 0 -460 0 -466 22 -504 14 -25 37 -46 63 -59 40
-19 62 -20 643 -20 l602 0 -21 -42 c-29 -57 -67 -168 -86 -253 -13 -57 -17
-164 -20 -587 -4 -508 -4 -517 16 -557 14 -27 35 -48 61 -61 39 -20 57 -20
1120 -20 1063 0 1081 0 1120 20 26 13 47 34 61 61 20 40 20 49 16 557 -4 558
-6 576 -62 732 -15 41 -36 92 -46 113 l-19 37 605 0 c587 0 607 1 645 20 26
13 47 34 60 60 19 38 20 58 20 504 0 490 -5 560 -46 705 -81 284 -295 549
-547 677 l-48 25 70 70 c120 120 199 256 243 421 31 117 31 327 -1 443 -85
312 -334 561 -646 646 -115 32 -335 32 -450 0 -312 -85 -561 -334 -646 -646
-32 -116 -32 -326 -1 -443 44 -164 123 -301 242 -420 l70 -70 -55 -31 -55 -31
-67 40 c-133 80 -311 130 -463 130 -152 0 -330 -50 -463 -130 l-67 -40 -55 31
-55 31 70 70 c119 119 198 256 242 420 31 117 31 327 -1 443 -85 312 -338 565
-646 645 -106 28 -283 35 -388 15z m288 -300 c270 -57 475 -309 475 -585 0
-324 -276 -600 -600 -600 -276 0 -528 205 -585 475 -43 204 16 397 164 546
149 149 342 207 546 164z m2400 0 c270 -57 475 -309 475 -585 0 -324 -276
-600 -600 -600 -276 0 -528 205 -585 475 -43 204 16 397 164 546 149 149 342
207 546 164z m-2325 -1495 c74 -12 208 -54 235 -74 17 -12 17 -16 -13 -67
-204 -358 -144 -794 149 -1088 l70 -70 -43 -22 c-54 -27 -140 -85 -196 -133
l-44 -36 -629 0 -629 0 0 378 c0 329 3 389 19 468 65 313 318 569 631 635 98
20 344 25 450 9z m1125 -5 c270 -57 475 -309 475 -585 0 -324 -276 -600 -600
-600 -276 0 -528 205 -585 475 -43 204 16 397 164 546 149 149 342 207 546
164z m1321 -4 c316 -65 570 -319 635 -635 16 -79 19 -139 19 -468 l0 -378
-629 0 -629 0 -44 36 c-56 48 -142 106 -196 133 l-43 22 70 70 c293 294 353
730 149 1088 -30 51 -30 55 -13 67 25 19 160 62 225 73 104 17 357 12 456 -8z
m-1200 -1500 c316 -65 570 -319 635 -635 16 -80 19 -139 19 -478 l0 -388 -900
0 -900 0 0 388 c0 339 3 398 19 478 65 313 318 569 631 635 121 25 373 25 496
0z"/>
</g>
</svg>
