<?xml version="1.0" encoding="UTF-8"?>
<!DOCTYPE svg PUBLIC "-//W3C//DTD SVG 1.1//EN" "http://www.w3.org/Graphics/SVG/1.1/DTD/svg11.dtd">
<!-- Creator: CorelDRAW 2021 (64-Bit) -->
<svg xmlns="http://www.w3.org/2000/svg" xml:space="preserve" width="5.04099in" height="1.17254in" version="1.1" style="shape-rendering:geometricPrecision; text-rendering:geometricPrecision; image-rendering:optimizeQuality; fill-rule:evenodd; clip-rule:evenodd"
viewBox="0 0 4984.67 1159.43"
 xmlns:xlink="http://www.w3.org/1999/xlink"
 xmlns:xodm="http://www.corel.com/coreldraw/odm/2003">
 <defs>
  <style type="text/css">
   <![CDATA[
    .fil0 {fill:#393185}
    .fil4 {fill:#FEFEFE;fill-rule:nonzero}
    .fil1 {fill:#434242;fill-rule:nonzero}
    .fil3 {fill:#00A0E3;fill-rule:nonzero}
    .fil2 {fill:#393185;fill-rule:nonzero}
   ]]>
  </style>
 </defs>
 <g id="Layer_x0020_1">
  <metadata id="CorelCorpID_0Corel-Layer"/>
  <g id="_1873496474656">
   <path class="fil0" d="M2885.02 191.79c-21.12,2.09 -39.41,6.29 -54.92,14.7 -8.46,4.2 -12.67,8.06 -19.73,13.31 -35.2,27.67 -56.32,75.3 -50.68,121.54 2.81,19.62 8.44,36.07 16.88,51.13 12.69,21.37 29.59,39.24 52.12,50.78 40.85,21.72 101.41,22.42 142.25,1.07 18.3,-9.11 28.17,-18.22 39.44,-30.49 21.11,-22.42 36.6,-62.34 32.37,-105.06 -8.44,-74.63 -76.05,-125.06 -157.75,-116.99zm8.46 63.74c40.83,-4.54 76.04,25.57 80.27,61.65 7.04,72.5 -81.68,99.82 -119.71,62 -7.04,-6.3 -11.27,-10.51 -16.91,-19.25 -23.94,-38.9 0,-98.79 56.34,-104.39z"/>
   <path class="fil0" d="M2051.26 310.53l-132.39 0 0 50.44 54.92 0c-9.85,65.84 -121.12,57.08 -122.52,-33.64 0,-31.18 15.5,-64.79 45.07,-75.29 15.5,-5.62 36.63,-4.22 49.3,2.8 19.71,10.86 22.54,24.51 28.16,31.86l63.39 -25.21c-5.64,-14.71 -22.54,-36.79 -33.8,-44.48 -2.83,-2.44 -5.64,-4.54 -8.46,-7.01 -7.04,-3.85 -14.07,-7.69 -21.13,-10.51 -32.38,-12.61 -78.86,-11.89 -109.85,0.35 -30.98,12.27 -52.11,32.58 -66.19,59.54 -16.9,29.78 -19.73,70.4 -11.26,105.78 16.9,61.65 77.45,104.03 157.74,91.75 78.86,-11.89 107.03,-74.93 107.03,-146.39z"/>
   <path class="fil0" d="M3352.62 310.88l-132.41 -0.35 0 50.09 54.94 0.35c-5.63,40.27 -45.07,48.68 -74.65,39.22 -63.37,-19.27 -61.97,-128.55 -2.82,-148.15 16.92,-5.97 35.22,-4.57 49.3,2.8 7.04,3.84 12.67,7.71 16.9,13.65 5.64,5.62 7.04,13.31 11.27,18.2l63.38 -25.21c-2.81,-7 -7.04,-14.36 -11.27,-19.96 -5.63,-8.06 -7.04,-11.21 -14.08,-17.18 -9.86,-8.39 -4.23,-5.59 -16.9,-14.36 -56.34,-36.78 -159.15,-25.57 -197.18,49.74 -47.88,93.17 14.1,217.85 146.47,197.19 39.44,-5.94 64.78,-24.85 80.28,-46.57 19.71,-26.61 26.77,-59.54 26.77,-99.47z"/>
   <path class="fil0" d="M1287.91 450.27l70.41 0.35 18.32 -43.44 91.55 0 16.9 43.44 71.83 0c-5.65,-17.51 -40.85,-104.38 -49.29,-126.43l-45.07 -119.1c-1.41,-4.56 -1.41,-4.91 -4.23,-6.31l-71.84 0 -98.58 251.49zm133.81 -172.32l15.49 39.92c2.81,9.81 11.25,29.78 12.67,38.87l-54.93 0 26.77 -78.79z"/>
   <path class="fil0" d="M4339.91 376.72l-28.17 52.88c16.9,7.02 21.14,16.13 54.93,24.17 64.78,15.43 140.83,-11.55 135.19,-92.45 -5.63,-72.85 -98.58,-58.15 -109.85,-86.86 -5.63,-17.87 16.9,-32.93 46.47,-24.17 12.67,3.85 15.5,8.05 25.36,13.31l26.75 -50.11c0,-0.33 -1.41,-0.68 -2.81,-1.74l-9.86 -4.89c-15.5,-6.32 -28.17,-10.16 -45.07,-12.61 -101.41,-14.36 -125.34,72.15 -105.61,115.25 21.11,43.06 81.68,32.21 99.98,56.73 18.3,23.46 -21.14,57.8 -74.64,19.27 -4.23,-3.14 -7.04,-6.31 -12.67,-8.76z"/>
   <path class="fil0" d="M2231.54 275.85c0,21.7 5.63,39.23 18.3,50.44 26.76,23.11 77.47,20.67 88.74,42.37 12.67,21.37 -16.9,48.69 -63.38,24.87 -14.09,-7.35 -18.32,-13.66 -25.36,-16.8l-28.17 52.88c11.27,5.27 14.1,10.51 36.63,18.57 61.97,22.77 153.51,9.46 153.51,-82.31 0,-71.11 -85.92,-63.75 -105.64,-85.82 -12.67,-13.31 0,-32.58 25.35,-32.58 18.32,0 31,9.11 42.26,16.47 2.81,-3.15 11.27,-20.32 14.08,-24.17 4.23,-8.41 8.46,-17.53 12.67,-26.28l-2.81 -2.1c-7.04,-4.2 -23.94,-9.79 -30.98,-12.26 -19.72,-5.94 -32.4,-6.3 -52.12,-6.3 -46.47,0 -83.08,36.77 -83.08,83.01z"/>
   <path class="fil0" d="M3552.61 377.07l0 0.7 -1.42 1.05c0,0.35 0,0.7 -1.4,0.7 0,1.05 0,2.11 -1.41,3.17 -1.4,2.8 -2.8,4.55 -2.8,6.65 -2.83,4.9 -5.66,8.41 -7.05,12.96 -4.22,7.37 -12.67,20.32 -14.08,27.31l23.94 13.66c8.44,4.21 16.9,7.71 28.17,10.16 61.97,15.42 142.25,-7.34 136.62,-91.41 -4.23,-72.5 -95.78,-58.84 -108.45,-86.86 -8.46,-17.52 18.31,-40.64 59.15,-18.92 5.64,2.8 7.05,5.97 12.68,7.71 1.42,-5.61 9.86,-18.92 12.69,-25.22 2.81,-6.31 11.27,-20.32 12.67,-26.61 -7.04,-2.12 -16.9,-7.71 -26.76,-10.86 -49.28,-16.83 -114.08,-12.27 -135.22,42.03 -8.44,19.27 -9.84,46.93 0,65.85 18.32,42.02 81.7,33.96 98.6,56.03 7.04,9.11 5.63,20.67 -1.4,28.36 -7.05,7.01 -18.32,9.81 -30.99,9.11 -25.35,-1.75 -38.03,-15.06 -53.52,-25.57z"/>
   <path class="fil0" d="M4693.54 329.6c-9.05,9.78 -47.48,26.94 -38.44,77.81 2.26,12.46 6.78,20.88 12.43,27.95 12.45,14.83 31.66,21.91 54.27,21.56 15.83,0 29.4,-4.71 42.97,-13.8 3.39,-3.03 6.77,-7.08 10.16,-9.1 3.4,2.02 14.7,14.49 27.13,22.57l19.24 -45.47c-4.54,-2.02 -15.83,-11.12 -19.24,-15.51 1.13,-5.04 11.31,-22.57 13.58,-40.74l-35.04 -13.83c-2.26,3.72 -5.66,17.53 -6.8,21.57l-22.6 -27.96c1.13,-0.67 1.13,-1.01 2.26,-1.69 6.79,-5.72 14.7,-10.44 20.34,-18.85 27.14,-37.05 6.8,-77.49 -33.91,-83.2 -42.96,-6.06 -75.75,28.63 -64.44,69.05 4.52,13.14 12.45,20.22 18.09,29.65zm26 84.21c-23.74,0 -30.52,-40.09 -6.79,-55.24 3.39,2.02 32.8,36.05 36.19,40.76 -5.66,8.09 -16.97,14.48 -29.4,14.48zm10.16 -105.08c-4.52,-3.03 -13.56,-14.5 -14.7,-23.58 -1.13,-12.81 6.79,-19.89 16.96,-18.88 11.31,1.01 28.28,22.24 -2.26,42.45z"/>
   <polygon class="fil0" points="1594.94,450.27 1742.82,450.27 1741.42,396.69 1662.54,395.99 1662.54,351.15 1737.19,351.15 1737.19,296.15 1662.54,296.15 1662.54,253.43 1742.82,253.08 1741.42,199.13 1594.94,198.78 "/>
   <path class="fil0" d="M4272.3 443.26l0 -76.7c-8.44,5.27 -12.67,15.77 -33.8,23.12 -43.67,15.05 -94.35,-11.21 -94.35,-65.13 1.41,-53.26 52.1,-78.12 95.76,-63.07 18.31,6.66 19.73,12.98 30.99,22.77l1.41 -78.45c-26.75,-7.36 -42.24,-14.36 -73.24,-12.26 -25.34,2.09 -47.88,11.2 -63.37,22.07 -80.28,52.53 -81.68,166.37 0,219.96 57.74,37.82 130.98,16.81 136.61,7.69z"/>
   <polygon class="fil0" points="3739.93,253.08 3794.85,253.44 3794.85,450.62 3861.05,450.62 3861.05,253.44 3917.39,253.44 3917.39,198.78 3739.93,198.78 "/>
   <polygon class="fil0" points="2579.41,450.62 2721.66,450.62 2727.29,450.27 2727.29,396.69 2647.02,395.99 2647.02,199.14 2579.41,198.44 "/>
   <polygon class="fil0" points="3404.73,450.27 3408.96,450.97 3472.34,450.62 3472.34,198.78 3404.73,198.78 "/>
   <polygon class="fil0" points="3956.83,450.62 4018.78,450.62 4023.01,450.62 4023.01,198.79 4018.78,198.44 3956.83,198.79 "/>
   <polygon class="fil0" points="2103.37,450.27 2107.6,450.97 2169.56,450.62 2169.56,198.78 2103.37,198.78 "/>
   <g>
    <path class="fil0" d="M3758.22 801.38c5.54,0 48.48,1.4 52.65,-1.75l16.63 -139.74c4.15,1.74 45.72,136.59 47.1,141.49l22.17 0 23.56 -71.1c5.54,-17.51 16.63,-57.8 24.93,-71.46l13.86 141.86 52.65 0.7 -30.49 -251.49 -52.65 -0.68 -42.94 132.73 -1.39 -3.49c-5.53,-12.61 -38.8,-127.86 -38.8,-129.24l-52.64 0 -34.64 252.17z"/>
    <path class="fil0" d="M2135.73 550.24l0 251.14 54.04 0 0 -152.72c4.15,5.26 8.31,12.63 12.47,18.92l72.05 115.6c4.17,8.39 6.94,18.2 15.24,18.2l48.5 0 0 -252.17 -52.65 0 0 152.35c-4.15,-3.5 -19.4,-29.76 -23.55,-37.13l-72.05 -115.22 -54.04 1.03z"/>
    <path class="fil0" d="M1411.07 801.38l52.65 0 0 -153.07 2.77 4.56c1.38,1.4 2.77,3.15 2.77,4.55l18.01 29.43c9.71,12.96 16.63,24.87 24.95,38.17 8.3,12.96 16.62,25.92 23.54,38.53 4.15,5.61 20.78,35.73 24.93,37.82l51.27 0 0 -252.17 -52.65 0 0 152.35c-8.3,-8.76 -83.12,-136.95 -95.6,-152.02l-52.65 -0.33 0 252.17z"/>
    <path class="fil0" d="M3082.07 801.03l52.65 -0.35 0 -151.3c4.15,2.8 4.15,5.24 6.92,9.44l83.14 133.81c2.76,3.15 4.14,8.74 8.3,8.74l49.89 -0.7 0 -250.79c-8.31,-1.74 -41.56,-1.05 -52.65,-0.35l0 151.67c-4.16,-3.5 -20.78,-31.19 -24.94,-37.82 -19.4,-34.33 -44.35,-71.46 -65.13,-105.43 -1.39,-2.1 -1.39,-2.45 -2.76,-4.55 -2.77,-3.87 -1.39,-2.81 -4.17,-4.2l-51.25 0 0 251.82z"/>
    <path class="fil0" d="M4133.72 542.55c-72.05,9.8 -102.54,85.46 -97,149.2 6.94,67.26 52.65,128.2 127.47,117.7 63.75,-9.12 102.53,-76.7 95.62,-149.92 -5.55,-66.54 -51.27,-127.14 -126.08,-116.97zm8.3 63.39c36.03,-4.54 60.96,29.41 63.74,63.04 1.39,35.38 -16.63,73.55 -51.27,77.05 -77.6,8.42 -85.9,-130.63 -12.47,-140.09z"/>
    <path class="fil0" d="M2921.34 542.55c-18.01,2.79 -31.87,8.74 -44.35,17.15 -9.69,7.01 -22.17,20.67 -29.09,32.23 -16.62,26.96 -26.33,63.04 -22.18,100.17 5.56,67.26 52.65,128.2 127.49,117.34 62.34,-9.12 101.13,-76 94.21,-149.2 -5.54,-66.56 -51.27,-128.2 -126.09,-117.69zm8.31 63.74c36.03,-5.96 60.98,27.67 63.74,60.59 4.15,38.17 -16.63,73.21 -47.12,78.8 -38.79,6.66 -62.34,-27.66 -66.51,-60.58 -4.15,-38.89 18.02,-73.55 49.89,-78.82z"/>
    <path class="fil0" d="M4653.3 800.68l54.04 0.35 0 -94.22 48.5 94.22 65.11 0.35c-6.92,-16.46 -51.27,-83.01 -60.96,-102.62 4.15,-3.15 11.07,-4.21 18.01,-9.46 5.54,-3.85 8.3,-8.77 12.48,-14.71 22.16,-36.08 13.86,-106.13 -29.1,-121.54 -16.63,-5.61 -34.64,-3.85 -51.27,-3.85 -12.47,0 -45.71,-1.42 -56.8,0.68l0 250.78zm54.04 -201.41c24.94,0 40.18,4.22 40.18,30.83 0,28.01 -18.02,31.88 -40.18,31.88l0 -62.71z"/>
    <path class="fil0" d="M1945.9 550.25l0 251.13 52.65 0 0 -94.92 49.89 94.57 65.11 -0.35 -62.34 -101.92c0,0 1.39,-0.7 1.39,-0.35l0 -0.7c2.77,-1.39 0,0 2.77,-1.06 12.47,-5.6 19.4,-8.75 27.72,-22.4 20.78,-34.68 15.24,-102.29 -29.1,-120.49 -18.02,-7.71 -83.14,-4.54 -108.08,-4.54l0 1.03zm52.65 49.03c12.48,0 22.16,-0.7 30.49,5.97 16.62,14.01 11.07,41.69 0,50.78 -6.94,5.96 -19.4,5.96 -30.49,5.96l0 -62.71z"/>
    <path class="fil0" d="M3306.52 801.38l54.04 0c5.56,-1.75 11.09,-42.02 18.01,-43.77l67.9 0c4.15,1.06 13.86,38.18 15.25,43.77l56.8 0 -76.2 -252.17 -58.2 0 -77.59 252.17zm105.3 -172.67c2.77,4.9 22.17,72.5 22.17,78.79l-42.95 -0.35 20.78 -78.44z"/>
    <path class="fil0" d="M2361.57 800.68l55.41 0.7 13.86 -43.77 72.05 0 12.48 43.42 56.8 0.35 -76.2 -251.84 -56.81 -0.33 -77.6 251.47zm105.3 -170.93c4.15,5.25 20.8,74.25 20.8,77.75l-42.96 -0.35 22.16 -77.4z"/>
    <path class="fil0" d="M4356.78 801.03c48.5,0.35 40.18,4.57 47.12,-14.01l37.41 -111.03c6.92,-21.02 38.79,-111.75 42.95,-126.78 -67.88,0 -55.42,-5.26 -62.34,17.51 -2.77,6.3 -4.15,11.9 -6.93,18.9l-36.04 112.45c-1.38,3.15 0,1.39 -1.38,2.8l-47.09 -151.32 -58.2 -0.33 84.52 251.82z"/>
    <path class="fil0" d="M4856.97 727.13l-22.16 51.83c6.93,8.76 29.1,21.02 42.94,25.22 56.83,16.48 110.87,-15.06 106.69,-92.46 -1.38,-21.37 -9.69,-38.17 -20.78,-47.28 -27.71,-21.72 -58.19,-19.97 -65.11,-38.17 -4.17,-10.51 2.77,-19.62 8.31,-23.82 20.78,-14.71 44.35,9.46 49.88,11.91l19.4 -50.11c-18.01,-17.85 -73.43,-31.86 -102.54,-8.74 -23.54,18.9 -40.18,62.69 -26.32,103.32 13.86,43.09 65.11,34.33 78.97,57.45 18.01,30.84 -26.32,53.93 -59.57,19.62 -4.15,-3.87 -5.54,-5.61 -9.71,-8.76z"/>
    <polygon class="fil0" points="4505.03,801.38 4621.43,801.38 4621.43,746.75 4559.09,746.75 4559.09,701.92 4617.27,701.56 4617.27,646.93 4559.09,646.93 4559.09,604.54 4621.43,604.19 4621.43,549.21 4505.03,549.21 "/>
    <path class="fil0" d="M1797.65 801.03l114.99 -0.35 0 -53.58 -62.34 -0.35 0 -45.19c12.47,0 51.26,1.4 59.58,-0.7l0 -53.58 -59.58 -0.35 0 -42.74 62.34 -0.35 0 -53.95 -114.99 -0.68 0 251.82z"/>
    <polygon class="fil0" points="2576.33,603.49 2619.29,604.19 2619.29,801.38 2671.95,801.38 2671.95,604.19 2710.74,604.19 2716.27,603.84 2716.27,549.54 2576.33,549.21 "/>
    <polygon class="fil0" points="1635.52,603.49 1678.48,604.19 1678.48,801.38 1731.14,801.38 1731.14,604.19 1769.93,604.19 1774.08,603.84 1774.08,549.54 1635.52,549.21 "/>
    <polygon class="fil0" points="3540.68,800.68 3546.23,801.38 3657.08,801.38 3657.08,751.3 3657.08,746.75 3594.71,746.75 3594.71,549.54 3540.68,549.21 "/>
    <polygon class="fil0" points="2738.44,801.38 2791.09,801.38 2791.09,549.21 2738.44,549.21 "/>
    <polygon class="fil0" points="1315.47,550.24 1315.47,801.38 1368.13,801.38 1368.13,549.22 1315.47,549.22 "/>
   </g>
   <path class="fil1" d="M2204.72 1075.32c-23.22,18.74 -51.23,28.1 -84.03,28.1 -23.48,0 -42.73,-5.73 -57.78,-17.21 -15.01,-11.49 -22.53,-26.2 -22.53,-44.21 0,-17.93 5.42,-35 16.31,-51.16 10.88,-16.16 25.07,-29.09 42.68,-38.77 17.57,-9.69 34.82,-14.53 51.78,-14.53 14.19,0 25.78,3.32 34.71,9.95 8.97,6.65 13.44,15.26 13.44,25.9 0,13.82 -5.42,25.77 -16.25,35.88 -10.8,10.12 -23.49,15.2 -37.98,15.2 -7.63,0 -13.89,-1.54 -18.8,-4.61 -4.88,-3.06 -7.33,-7 -7.33,-11.79 0,-4.14 2.11,-7.98 6.31,-11.49 3.17,4.52 7.49,6.8 12.94,6.8 7.82,0 15.1,-3.83 21.84,-11.44 6.7,-7.63 10.08,-15.98 10.08,-25.03 0,-6.33 -1.91,-11.37 -5.68,-15.13 -3.75,-3.71 -8.77,-5.58 -15.03,-5.58 -9.1,0 -18.82,4.41 -29.15,13.28 -10.34,8.83 -18.97,20.19 -25.88,34.1 -6.88,13.86 -10.35,27.05 -10.35,39.59 0,15.93 5.83,29.02 17.41,39.21 11.6,10.23 26.34,15.34 44.25,15.34 11.38,0 21.61,-2.07 30.69,-6.16 9.14,-4.14 18.57,-10.59 28.35,-19.37l0 13.13zm2006.52 -67.03c6.78,-1.37 13.61,-2.49 20.47,-3.36 6.83,-0.89 10.94,-1.32 12.33,-1.32 0.97,0 1.46,0.32 1.46,0.9 0,1.17 -0.41,2.34 -1.21,3.56 -1.59,3.51 -2.4,6.86 -2.4,10.04 0.09,3.97 3.06,9.37 8.92,16.23 5.88,6.88 8.83,13.24 8.83,19.14 0,11.64 -7.17,22.89 -21.56,33.71 -14.35,10.8 -29.26,16.23 -44.67,16.23 -6.66,0 -12.72,-1.35 -18.25,-4.09 -5.47,-2.74 -8.22,-5.66 -8.22,-8.79 0,-1.83 2.7,-5.31 8.17,-10.38 5.42,-5.13 9.33,-7.67 11.69,-7.67 3.11,0 5.92,3.12 8.39,9.39 2.45,6.24 6.66,9.37 12.64,9.37 6.02,0 11.64,-2.15 16.86,-6.48 5.27,-4.34 7.88,-8.99 7.88,-14 0.11,-4.79 -3.21,-11.2 -9.88,-19.17 -6.72,-8 -11.14,-14.7 -13.3,-20.11 -11.39,14.24 -25.79,28.85 -43.24,43.82l-0.39 0 0 0.23c-12.33,9.52 -23.02,16.55 -31.99,21.07 -9.03,4.54 -17.61,6.8 -25.74,6.8 -8.44,0 -15.25,-2.78 -20.47,-8.32 -4.33,-4.56 -6.87,-10.31 -7.63,-17.25 -3.78,2.33 -7.48,4.04 -11.06,5.14 -4.72,1.46 -8.42,2.15 -11.14,2.15 -7.02,0 -14.05,-2.15 -20.96,-6.41 -14.1,16.45 -30.31,24.69 -48.51,24.69 -11.4,0 -20.57,-3.31 -27.65,-9.99 -4.82,-4.54 -7.98,-10.09 -9.51,-16.63 -13.31,10.2 -23.49,17.16 -30.64,20.84 -7.36,3.87 -13.88,5.78 -19.61,5.78 -6.91,0 -12.44,-2.66 -16.49,-7.91 -4.07,-5.28 -6.18,-13.01 -6.28,-23.16 -8.02,10.15 -16.76,17.88 -26.18,23.16 -9.43,5.26 -18.02,7.91 -25.63,7.91 -8.33,0 -15.66,-3.07 -22.04,-9.25 -6.36,-6.17 -9.53,-13.4 -9.53,-21.63 0,-17.11 7.97,-32.93 23.88,-47.54 15.91,-14.56 33.02,-21.86 51.32,-21.86 5.07,0 9.08,0.59 11.94,1.76 2.92,1.17 6.08,3.2 9.5,6.01l21.01 -68.93c17.11,-2.95 28.6,-4.44 34.57,-4.44 1.95,0 2.92,0.62 2.92,1.84 0,0.82 -2.41,8.74 -7.28,23.75 -19.48,59.98 -29.21,96.22 -29.21,108.76 0,2.95 0.81,5.31 2.36,7.1 1.55,1.76 3.61,2.65 6.12,2.65 5.87,0 15.28,-5.61 28.24,-16.86 0.63,-16.58 8.55,-30.82 23.79,-42.83 15.86,-12.54 34.82,-18.79 56.9,-18.79 8.33,0 14.38,0.7 18.26,2.14 3.92,1.42 6.26,3.09 7.17,5.01 0.84,1.95 1.31,4.38 1.31,7.3 0,14.42 -5.02,32.09 -15,53.03 4.96,3.59 10.22,5.4 15.69,5.4 5.89,0 13.34,-3.7 22.25,-11.08 1.08,-6.54 3.34,-14.27 6.78,-23.22l6.38 -17.48 -11.49 0.47 4.72 -18.05 14 -0.47 13.83 -35.66 39.43 -6.28 -15.28 39.79 20.66 -0.9 -4.87 17.57 -22.74 1.41 -9.83 25.9c-3.36,8.9 -5.08,16.02 -5.08,21.36 0,3.59 1.16,6.57 3.47,8.83 2.27,2.31 5.27,3.43 8.88,3.43 5.03,0 9.95,-1.23 14.86,-3.71 4.91,-2.49 12.08,-7.65 21.61,-15.5l0 0.04c22.36,-18.95 37.52,-37.01 45.49,-54.18zm-176.26 2.82c-1.5,-0.46 -3.61,-0.7 -6.31,-0.7 -12.74,0 -22.73,5.23 -29.95,15.73 -7.17,10.47 -10.78,22.73 -10.78,36.75 0,7.77 1.56,13.82 4.72,18.12 3.11,4.34 7.47,6.48 13.08,6.48 6.94,0 14.49,-4.99 22.63,-15.03 -9.27,-9.1 -13.94,-18.9 -13.94,-29.41 0,-12.34 6.87,-22.99 20.56,-31.94zm-188.43 70.52c9.58,0 18.52,-6.36 26.84,-19.13 8.33,-12.73 12.5,-24.68 12.5,-35.8 0,-4.52 -1.3,-8.16 -3.92,-10.85 -2.61,-2.71 -5.97,-4.02 -10.19,-4.02 -9.08,0 -17.91,6.68 -26.44,19.98 -8.47,13.33 -12.74,25.4 -12.74,36.14 0,4.21 1.25,7.56 3.77,10.04 2.45,2.45 5.86,3.66 10.17,3.66zm-145.67 -6.08c-12.45,9.52 -23.58,16.55 -33.51,21.07 -9.88,4.54 -20.82,6.8 -32.76,6.8 -13.3,0 -24.02,-3.31 -32.21,-9.95 -4.85,-3.97 -8.27,-8.66 -10.25,-14.08 -21.01,16.03 -38.46,24.04 -52.38,24.04 -6.66,0 -12.19,-1.76 -16.55,-5.31 -4.38,-3.54 -6.52,-8.03 -6.52,-13.43 0,-9.13 4.51,-22.02 13.53,-38.66 4.78,-8.98 7.19,-14.85 7.19,-17.58 0,-3.12 -1.92,-4.69 -5.72,-4.69 -3.91,0 -9.58,2.09 -17.05,6.21 -7.44,4.2 -15.26,9.85 -23.48,17 -3.47,14.01 -5.17,30.84 -5.17,50.53l-32.71 5.93c-1.23,-7.85 -1.89,-16.37 -1.91,-25.59 -11.08,8.37 -20.77,14.63 -29.01,18.79 -9.03,4.54 -17.61,6.8 -25.74,6.8 -8.42,0 -15.25,-2.78 -20.46,-8.32 -5.27,-5.55 -7.88,-12.84 -7.88,-21.91 0,-7.96 2.52,-18.41 7.53,-31.47l6.38 -17.48 -11.5 0.47 4.72 -18.05 14 -0.47 13.85 -35.66 39.43 -6.28 -15.3 39.79 20.66 -0.9 -4.86 17.57 -22.74 1.41 -9.83 25.9c-3.36,8.9 -5.06,16.02 -5.06,21.36 0,3.59 1.14,6.57 3.45,8.83 2.27,2.31 5.27,3.43 8.88,3.43 5.02,0 9.94,-1.23 14.86,-3.71 4.47,-2.26 10.79,-6.73 19.06,-13.42 1.24,-17.96 5.11,-34.87 11.62,-50.79 8.02,-19.64 20.68,-40.44 37.93,-62.43 12.85,-4.06 23.99,-7.35 33.51,-9.92 9.58,-2.54 15,-3.82 16.41,-3.82 2.5,0 4.64,1.6 6.41,4.79 1.76,3.26 2.65,7.26 2.65,12.07 0,8.14 -3.15,17.1 -9.53,26.96 -6.36,9.8 -16.41,21.71 -29.99,35.62 13.08,-5.86 21.82,-9.53 26.13,-11.06 4.36,-1.52 8.77,-2.3 13.36,-2.3 5,0 9.07,1.4 12.19,4.17 3.05,2.81 4.61,6.48 4.61,11.09 0,6.88 -3.5,17.5 -10.63,31.91 -7.12,14.37 -10.64,23.39 -10.64,27.13 0,1.72 0.65,3.21 1.95,4.53 1.3,1.33 2.86,2 4.61,2 5.38,0 14.62,-5.4 27.75,-16.17l-0.01 -1.06c0,-16.21 7.22,-30.86 21.61,-43.98 14.4,-13.08 30.35,-19.64 47.92,-19.64 9.08,0 16.41,1.83 21.88,5.49 5.45,3.64 8.22,8.45 8.22,14.43 0,15.76 -21.47,28.57 -64.47,38.42 3.91,15 14.16,22.5 30.66,22.5 6.42,0 12.6,-1.37 18.46,-4.06 5.83,-2.71 14.69,-8.68 26.49,-17.97l0 13.13zm-76.75 -21.33c24.88,-5.48 37.32,-15.58 37.32,-30.3 0,-7.32 -3.41,-10.94 -10.19,-10.94 -6.42,0 -12.55,3.83 -18.41,11.44 -5.81,7.66 -8.72,17.58 -8.72,29.8zm-128.87 -25.81c34.96,-31.71 52.43,-55.11 52.43,-70.19 0,-4.55 -1.61,-6.86 -4.86,-6.86 -5.36,0 -13.05,7.53 -23.02,22.56 -10.05,15.08 -18.21,33.25 -24.54,54.49zm-219.49 46.91c-12.46,10.15 -27.29,17.65 -44.61,22.44 -8.12,19.77 -18.45,34.95 -30.94,45.65 -12.5,10.67 -25.74,16.02 -39.73,16.02 -7.67,0 -13.86,-1.87 -18.52,-5.63 -4.72,-3.71 -7.06,-8.63 -7.06,-14.71 0,-8.17 4.65,-15.52 14.03,-21.99 9.34,-6.48 25.24,-12.73 47.65,-18.76l6.33 -22.56c-9.39,8.23 -17.5,14.24 -24.38,18.12 -6.86,3.85 -13.75,5.78 -20.72,5.78 -8.13,0 -14.74,-2.98 -19.96,-8.93 -3.29,-3.8 -5.54,-8.31 -6.74,-13.56 -21.76,17.49 -40.5,26.23 -56.18,26.23 -6.52,0 -11.83,-1.79 -15.85,-5.38 -4.01,-3.59 -6.02,-8.43 -6.02,-14.44 0,-8.21 4.32,-20.74 12.94,-37.65 4.63,-9.1 6.93,-14.88 6.93,-17.33 0,-2.47 -1.25,-3.68 -3.71,-3.68 -1.36,0 -3.17,0.54 -5.42,1.61 -2.06,1.09 -4.47,2.57 -7.23,4.49 -2.46,1.75 -5.16,3.9 -8.22,6.4 -2.61,2.15 -5.47,4.61 -8.55,7.35l-8.23 7.46c-3.61,3.48 -5.86,7.1 -6.77,10.92 -1.45,6.48 -2.42,12.46 -2.9,17.88 -0.31,4.06 -0.47,9.53 -0.47,16.42l-32.41 5.96c-1.05,-10.3 -1.61,-17.95 -1.61,-23 0,-0.69 0.01,-1.38 0.02,-2.06 -21.17,16.7 -37.1,25.06 -47.92,25.06 -6.26,0 -11.53,-2.49 -15.84,-7.48 -4.1,-4.74 -6.25,-10.59 -6.47,-17.6 -10.8,8.11 -20.26,14.21 -28.33,18.28 -9.05,4.54 -17.63,6.8 -25.74,6.8 -8.44,0 -15.26,-2.78 -20.47,-8.32 -4.42,-4.65 -6.97,-10.54 -7.68,-17.67 -11.57,8.64 -22.23,15.05 -31.97,19.24 -10.44,4.49 -21.33,6.75 -32.66,6.75 -12.74,0 -23.28,-3.24 -31.55,-9.72 -5.91,-4.59 -9.69,-10.1 -11.38,-16.49 -11.55,8.68 -21.97,15.15 -31.3,19.41 -9.88,4.54 -20.83,6.8 -32.76,6.8 -13.3,0 -24.02,-3.31 -32.21,-9.95 -5.8,-4.75 -9.57,-10.54 -11.26,-17.37 -22.33,18.23 -41.53,27.33 -57.52,27.33 -6.53,0 -11.85,-1.79 -15.85,-5.38 -4.03,-3.59 -6.02,-8.43 -6.02,-14.44 0,-8.21 4.3,-20.74 12.94,-37.65 4.61,-9.1 6.91,-14.88 6.91,-17.33 0,-2.47 -1.25,-3.68 -3.7,-3.68 -1.35,0 -3.16,0.54 -5.42,1.61 -2.06,1.09 -4.47,2.57 -7.24,4.49 -2.45,1.75 -5.16,3.9 -8.22,6.4 -2.61,2.15 -5.47,4.61 -8.53,7.35l-8.23 7.46c-3.61,3.48 -5.88,7.1 -6.77,10.92 -1.46,6.48 -2.41,12.46 -2.91,17.88 -0.3,4.06 -0.45,9.53 -0.45,16.42l-32.41 5.96c-1.05,-10.3 -1.61,-17.95 -1.61,-23l0.01 -1.61c-20.89,16.41 -38.95,24.6 -54.13,24.6 -6.52,0 -11.83,-1.79 -15.85,-5.38 -4.01,-3.59 -6.02,-8.43 -6.02,-14.44 0,-8.21 4.32,-20.74 12.96,-37.65 4.61,-9.1 6.91,-14.88 6.91,-17.33 0,-2.47 -1.25,-3.68 -3.72,-3.68 -1.35,0 -3.14,0.54 -5.41,1.61 -2.06,1.09 -4.47,2.57 -7.23,4.49 -2.45,1.75 -5.16,3.9 -8.22,6.4 -2.61,2.15 -5.47,4.61 -8.53,7.35l-8.24 7.46c-3.61,3.48 -5.86,7.1 -6.77,10.92 -1.45,6.48 -2.39,12.46 -2.91,17.88 -0.29,4.06 -0.45,9.53 -0.45,16.42l-32.41 5.96c-1.05,-10.3 -1.61,-17.95 -1.61,-23 0,-0.9 0.01,-1.8 0.03,-2.69 -3.85,2.4 -7.62,4.14 -11.27,5.27 -4.72,1.45 -8.44,2.15 -11.13,2.15 -7.02,0 -14.05,-2.15 -20.97,-6.41 -14.1,16.44 -30.29,24.68 -48.51,24.68 -11.38,0 -20.57,-3.31 -27.65,-9.98 -7.07,-6.68 -10.58,-15.52 -10.58,-26.52 0,-17.5 7.92,-32.47 23.83,-44.99 15.85,-12.54 34.82,-18.79 56.89,-18.79 8.33,0 14.39,0.7 18.27,2.14 3.9,1.42 6.25,3.09 7.17,5.01 0.86,1.95 1.3,4.38 1.3,7.3 0,14.41 -5.02,32.1 -15,53.03 4.97,3.6 10.23,5.4 15.69,5.4 6.07,0 13.78,-3.93 23.05,-11.75 0.91,-6.44 2.38,-12.67 4.4,-18.71 3.67,-10.97 9.53,-23.31 17.66,-37.02l35.82 -5.4c-7.52,15.61 -12.49,27.99 -14.86,37.06 16.05,-13.94 28.85,-23.63 38.29,-28.97 9.48,-5.4 17.86,-8.09 25.22,-8.09 4.97,0 9.13,1.49 12.5,4.41 3.32,2.92 4.96,6.59 4.96,11 0,7.31 -4.22,19.42 -12.69,36.34 -5.83,11.59 -8.73,19.12 -8.73,22.61 0,4.64 2.4,6.95 7.23,6.95 6.7,0 17.27,-6.42 31.68,-19.25 0.9,-6.77 2.42,-13.32 4.54,-19.65 3.66,-10.97 9.52,-23.31 17.64,-37.02l35.84 -5.4c-7.54,15.61 -12.49,27.99 -14.86,37.06 16.05,-13.94 28.84,-23.63 38.27,-28.97 9.5,-5.4 17.86,-8.09 25.24,-8.09 4.96,0 9.13,1.49 12.5,4.41 3.3,2.92 4.96,6.59 4.96,11 0,7.31 -4.22,19.42 -12.69,36.34 -5.83,11.59 -8.74,19.12 -8.74,22.61 0,4.64 2.41,6.95 7.24,6.95 6.93,0 17.98,-6.87 33.16,-20.59 0.94,-14.88 8.13,-28.4 21.52,-40.62 14.41,-13.08 30.35,-19.64 47.9,-19.64 9.08,0 16.41,1.83 21.88,5.49 5.46,3.64 8.22,8.45 8.22,14.43 0,15.76 -21.47,28.57 -64.45,38.42 3.91,15 14.14,22.5 30.65,22.5 6.42,0 12.59,-1.37 18.46,-4.06 5.3,-2.47 13.15,-7.66 23.43,-15.6 1.22,-14.66 8.79,-28.31 22.65,-40.91 15.21,-13.82 31.71,-20.74 49.43,-20.74 8.67,0 15.8,1.88 21.27,5.67 5.47,3.79 8.22,8.67 8.22,14.73 0,2.1 -0.5,3.7 -1.55,4.79 -1,1.05 -2.95,2.11 -5.78,3.2l-17.05 6.28c-2.05,0.75 -3.56,1.14 -4.56,1.14 -1.35,0 -2.06,-0.74 -2.06,-2.3 0,-0.59 0.3,-2.58 0.9,-5.97 0.61,-3.4 0.91,-5.47 0.91,-6.26 0,-3.36 -0.91,-6.05 -2.72,-8.12 -1.8,-2.07 -4.25,-3.09 -7.27,-3.09 -7.17,0 -13.69,4.14 -19.66,12.42 -5.91,8.28 -8.89,17.74 -8.89,28.3 0,9.14 2.83,16.42 8.39,21.88 5.56,5.43 13.05,8.17 22.38,8.17 7.92,0 15.39,-1.76 22.41,-5.31 6.51,-3.29 13.9,-8.24 22.11,-14.82 1.14,-6.3 3.34,-13.67 6.59,-22.13l6.37 -17.48 -11.48 0.47 4.7 -18.05 14.02 -0.47 13.83 -35.66 39.43 -6.28 -15.3 39.79 20.68 -0.9 -4.88 17.57 -22.72 1.41 -9.83 25.9c-3.36,8.9 -5.07,16.02 -5.07,21.36 0,3.59 1.16,6.57 3.47,8.83 2.25,2.31 5.27,3.43 8.88,3.43 5.02,0 9.92,-1.23 14.84,-3.71 4.49,-2.27 10.84,-6.75 19.14,-13.47 2.55,-14.64 9.18,-32.91 19.88,-54.79l37.37 -6.05 1.77 0 -14.7 35.77c-6.07,14.8 -9.08,25.35 -9.08,31.68 0,2.54 0.7,4.56 2.11,6.13 1.44,1.56 3.21,2.34 5.38,2.34 3.84,0 7.67,-1.05 11.53,-3.2 3.47,-1.92 8.78,-5.88 15.87,-11.83 0.91,-6.51 2.39,-12.82 4.43,-18.93 3.67,-10.97 9.53,-23.31 17.66,-37.02l35.82 -5.4c-7.53,15.61 -12.5,27.99 -14.86,37.06 16.05,-13.94 28.85,-23.63 38.29,-28.97 9.48,-5.4 17.86,-8.09 25.22,-8.09 4.97,0 9.13,1.49 12.5,4.41 3.31,2.92 4.96,6.59 4.96,11 0,7.31 -4.22,19.42 -12.69,36.34 -5.83,11.59 -8.72,19.12 -8.72,22.61 0,4.64 2.39,6.95 7.22,6.95 6.71,0 17.31,-6.45 31.77,-19.32 0.72,-14.72 8.32,-28.58 22.82,-41.53 15.25,-13.63 31.46,-20.46 48.65,-20.46 9.49,0 17.9,3.13 25.29,9.37 4.41,-1.25 10.19,-3.13 17.19,-5.63l10.49 -3.75 3.36 0c-3.86,9.06 -6.83,17.88 -8.88,26.47l-13.89 57.64c13.19,-3.91 26.68,-12.26 40.59,-25.07l0 13.13zm-94.57 3.75c6.92,0 13.08,-3.21 18.5,-9.64 5.38,-6.41 9.6,-14.58 12.55,-24.46 3.02,-9.83 4.47,-16.7 4.47,-20.54 0,-3.59 -1.11,-6.56 -3.41,-8.84 -2.3,-2.36 -5.17,-3.52 -8.63,-3.52 -10.39,0 -19.41,5.46 -27.19,16.4 -7.72,10.94 -11.58,22.08 -11.58,33.39 0,5.26 1.4,9.49 4.17,12.57 2.81,3.09 6.52,4.65 11.13,4.65zm12.33 29.37c-31.65,8.81 -47.51,19.05 -47.51,30.66 0,3.42 1.3,6.24 3.97,8.38 2.66,2.18 6.02,3.29 10.13,3.29 7.08,0 13.19,-3.47 18.41,-10.44 5.17,-6.95 10.19,-17.57 15,-31.9zm-205.57 -149.57c0,18.27 -8.69,27.4 -25.99,27.4 -8.42,0 -15.6,-1.99 -21.58,-5.93 5.68,-6.72 10.08,-14.24 13.25,-22.65 7.72,3.75 13.94,5.61 18.6,5.61 5.28,0 10.55,-1.49 15.71,-4.44zm-335.04 95.36c24.88,-5.48 37.34,-15.58 37.34,-30.3 0,-7.32 -3.41,-10.94 -10.19,-10.94 -6.43,0 -12.54,3.83 -18.41,11.44 -5.83,7.66 -8.74,17.58 -8.74,29.8zm-364.72 -43.12c-1.5,-0.46 -3.59,-0.7 -6.31,-0.7 -12.75,0 -22.72,5.22 -29.96,15.73 -7.17,10.47 -10.78,22.73 -10.78,36.75 0,7.77 1.55,13.83 4.72,18.12 3.11,4.34 7.47,6.48 13.08,6.48 6.92,0 14.49,-4.99 22.63,-15.03 -9.28,-9.1 -13.94,-18.9 -13.94,-29.4 0,-12.34 6.86,-22.99 20.56,-31.95z"/>
   <polygon class="fil1" points="1315.47,909.28 4984.56,909.28 4984.56,890.42 1315.47,890.42 "/>
   <g>
    <polygon class="fil2" points="547.89,388.85 709.07,550.03 550.03,709.07 388.85,547.89 "/>
    <polygon class="fil3" points="541.96,1091.99 377.78,927.81 191.45,741.48 355.63,577.31 541.96,763.64 730.42,575.18 894.59,739.35 706.13,927.81 541.96,1091.99 "/>
    <polygon class="fil3" points="1091.98,541.96 921.87,712.07 757.7,547.9 927.81,377.79 "/>
    <polygon class="fil3" points="900.53,350.5 730.42,520.61 544.09,334.28 164.17,714.2 -0,550.03 379.92,170.11 550.03,0 550.03,0 714.2,164.17 "/>
    <path class="fil4" d="M481.89 571.85l-20.77 0 -2.85 14.58 -18.65 0 22.2 -88.25 19.89 0 22.17 88.25 -19.09 0 -2.9 -14.58zm-3.83 -19.08l-6.52 -31.73 -6.47 31.73 12.99 0zm29.43 -54.59l18.25 0 0 66.51 28.46 0 0 21.74 -46.71 0 0 -88.25zm53.51 0l18.27 0 0 88.25 -18.27 0 0 -88.25zm28.96 0l23.97 0 9.28 53.68 9.2 -53.68 23.91 0 0 88.25 -14.89 0 0 -67.31 -11.54 67.31 -13.51 0 -11.49 -67.31 0 67.31 -14.93 0 0 -88.25z"/>
   </g>
  </g>
 </g>
</svg>
