<?xml version="1.0" encoding="UTF-8"?>
<!DOCTYPE svg PUBLIC "-//W3C//DTD SVG 1.1//EN" "http://www.w3.org/Graphics/SVG/1.1/DTD/svg11.dtd">
<!-- Creator: CorelDRAW 2021 (64-Bit) -->
<svg xmlns="http://www.w3.org/2000/svg" xml:space="preserve" width="4.32717in" height="1.1108in" version="1.1" style="shape-rendering:geometricPrecision; text-rendering:geometricPrecision; image-rendering:optimizeQuality; fill-rule:evenodd; clip-rule:evenodd"
viewBox="0 0 4326.01 1110.5"
 xmlns:xlink="http://www.w3.org/1999/xlink"
 xmlns:xodm="http://www.corel.com/coreldraw/odm/2003">
 <defs>
  <style type="text/css">
   <![CDATA[
    .fil2 {fill:#FEFEFE;fill-rule:nonzero}
    .fil4 {fill:#898989;fill-rule:nonzero}
    .fil1 {fill:#00A0E3;fill-rule:nonzero}
    .fil0 {fill:#393185;fill-rule:nonzero}
    .fil3 {fill:#393185;fill-rule:nonzero}
   ]]>
  </style>
 </defs>
 <g id="Layer_x0020_1">
  <metadata id="CorelCorpID_0Corel-Layer"/>
  <g id="_2777821466608">
   <g>
    <polygon class="fil0" points="553.86,393.08 716.8,556.02 556.01,716.8 393.08,553.86 "/>
    <polygon class="fil1" points="547.86,1103.88 381.9,937.91 193.54,749.56 359.5,583.6 547.86,771.95 738.37,581.44 904.33,747.4 713.82,937.91 547.86,1103.87 "/>
    <polygon class="fil1" points="1103.87,547.86 931.91,719.82 765.95,553.86 937.91,381.9 "/>
    <polygon class="fil1" points="910.34,354.32 738.37,526.28 550.01,337.92 165.96,721.98 -0,556.02 384.05,171.96 556.01,0 556.02,0 721.98,165.96 "/>
    <path class="fil2" d="M487.13 578.07l-21 0 -2.89 14.73 -18.85 0 22.44 -89.21 20.1 0 22.42 89.21 -19.3 0 -2.93 -14.73zm-3.87 -19.29l-6.59 -32.08 -6.54 32.08 13.13 0zm29.76 -55.19l18.44 0 0 67.24 28.77 0 0 21.97 -47.22 0 0 -89.21zm54.08 0l18.47 0 0 89.21 -18.47 0 0 -89.21zm29.28 0l24.23 0 9.38 54.27 9.31 -54.27 24.16 0 0 89.21 -15.04 0 0 -68.05 -11.67 68.05 -13.65 0 -11.62 -68.05 0 68.05 -15.09 0 0 -89.21z"/>
   </g>
   <path class="fil3" d="M1451.71 192.78l76.2 0 101.11 277.91 -74.41 0 -17.44 -48.28 -96.13 0 -18.51 48.28 -74.06 0 103.25 -277.91zm8.55 174.34l58.04 0 -28.48 -88.46 -0.71 0 -28.84 88.46z"/>
   <polygon id="_1" class="fil3" points="1682.2,470.69 1682.2,192.78 1751.98,192.78 1751.98,409.51 1835.66,409.51 1835.66,470.69 "/>
   <polygon id="_2" class="fil3" points="1889.91,470.69 1889.91,192.78 1959.69,192.78 1959.69,470.69 "/>
   <polygon id="_3" class="fil3" points="2066.29,192.78 2135,192.78 2189.48,341.32 2247.16,192.78 2316.59,192.78 2357.18,470.69 2287.39,470.69 2267.81,310.73 2267.09,310.73 2202.65,470.69 2174.88,470.69 2113.29,310.73 2112.57,310.73 2090.14,470.69 2020.71,470.69 "/>
   <path id="_4" class="fil3" d="M2619.35 192.78l76.2 0 101.11 277.91 -74.41 0 -17.44 -48.28 -96.13 0 -18.52 48.28 -74.05 0 103.25 -277.91zm8.55 174.34l58.04 0 -28.48 -88.46 -0.71 0 -28.84 88.46z"/>
   <polygon id="_5" class="fil3" points="2849.85,470.69 2849.85,192.78 2919.63,192.78 2919.63,409.51 3003.31,409.51 3003.31,470.69 "/>
   <polygon id="_6" class="fil3" points="3053.64,380.02 3053.64,324.74 3155.47,324.74 3155.47,380.02 "/>
   <path id="_7" class="fil3" d="M3307.63 192.78l76.2 0 101.11 277.91 -74.41 0 -17.44 -48.28 -96.13 0 -18.51 48.28 -74.06 0 103.25 -277.91zm8.55 174.34l58.04 0 -28.48 -88.46 -0.71 0 -28.84 88.46z"/>
   <path id="_8" class="fil3" d="M3538.12 470.69l0 -277.91 105.39 0c13.53,0 25.93,1.78 37.21,5.35 11.27,3.56 21.01,8.85 29.19,15.85 8.19,7 14.54,15.85 19.05,26.54 4.51,10.69 6.77,23.29 6.77,37.78 0,10.07 -1.37,19.53 -4.1,28.38 -2.73,8.85 -6.64,16.71 -11.75,23.59 -5.1,6.88 -11.28,12.59 -18.51,17.14 -7.24,4.55 -15.37,7.68 -24.39,9.4l84.39 113.89 -86.87 0 -65.87 -106.89 -0.72 0 0 106.89 -69.78 0zm69.78 -153.33l6.05 0c17.09,0 29.56,-2.83 37.39,-8.48 7.83,-5.65 11.75,-14.37 11.75,-26.17 0,-11.8 -3.86,-20.52 -11.57,-26.17 -7.71,-5.65 -20.23,-8.48 -37.56,-8.48l-6.05 0 0 69.29z"/>
   <path id="_9" class="fil3" d="M3890.74 192.78l76.2 0 101.11 277.91 -74.41 0 -17.44 -48.28 -96.13 0 -18.52 48.28 -74.05 0 103.25 -277.91zm8.55 174.34l58.04 0 -28.49 -88.46 -0.71 0 -28.84 88.46z"/>
   <path id="_10" class="fil3" d="M4121.24 470.69l0 -277.91 100.76 0c25.87,0 45.46,5.9 58.75,17.69 13.3,11.8 19.94,29.98 19.94,54.55 0,27.52 -9.85,46.44 -29.56,56.76l0 0.74c18.52,2.46 32.29,9.71 41.3,21.75 9.02,12.04 13.53,28.38 13.53,49.02 0,12.53 -2.26,23.59 -6.77,33.17 -4.51,9.58 -10.91,17.69 -19.22,24.32 -8.31,6.64 -18.4,11.61 -30.26,14.93 -11.87,3.32 -25.16,4.98 -39.88,4.98l-108.6 0zm78.69 -55.29c6.41,0 12.94,-0.18 19.58,-0.55 6.65,-0.37 12.64,-1.48 17.98,-3.32 5.35,-1.84 9.67,-4.79 13,-8.84 3.32,-4.05 4.99,-9.65 4.99,-16.77 0,-7.62 -1.6,-13.45 -4.81,-17.51 -3.21,-4.05 -7.12,-7 -11.75,-8.85 -4.63,-1.84 -9.44,-2.95 -14.42,-3.31 -4.99,-0.37 -9.38,-0.55 -13.17,-0.55l-20.3 0 0 59.71 8.9 0zm-1.42 -113.52c14,0 23.86,-2.21 29.55,-6.64 5.7,-4.42 8.54,-11.18 8.54,-20.27 0,-9.09 -2.79,-15.85 -8.37,-20.27 -5.58,-4.42 -15.72,-6.64 -30.44,-6.64l-6.77 0 0 53.81 7.48 0z"/>
   <polygon class="fil3" points="1348.45,545.88 1503.89,545.88 1503.89,604.35 1455.47,604.35 1455.47,811.45 1396.88,811.45 1396.88,604.35 1348.45,604.35 "/>
   <path id="_1_0" class="fil3" d="M1519.29 676.9c0,-20.43 3.29,-39.15 9.86,-56.18 6.58,-17.02 15.54,-31.76 26.9,-44.2 11.36,-12.45 24.61,-22.13 39.76,-29.06 15.15,-6.93 31.18,-10.39 48.12,-10.39 15.94,0 31.44,3.29 46.48,9.86 15.05,6.57 28.35,15.85 39.91,27.82 11.56,11.98 20.82,26.36 27.8,43.15 6.97,16.79 10.46,35.4 10.46,55.83 0,23.25 -3.44,43.97 -10.31,62.16 -6.87,18.2 -15.99,33.52 -27.35,45.96 -11.36,12.45 -24.41,21.95 -39.16,28.53 -14.75,6.57 -30.09,9.86 -46.03,9.86 -20.33,0 -38.36,-4.05 -54.11,-12.15 -15.74,-8.1 -28.99,-18.85 -39.75,-32.23 -10.76,-13.39 -18.88,-28.7 -24.36,-45.96 -5.48,-17.26 -8.22,-34.93 -8.22,-53.01zm60.98 -2.82c0,11.27 1.64,21.78 4.93,31.52 3.29,9.75 7.82,18.14 13.6,25.19 5.78,7.04 12.56,12.56 20.33,16.55 7.77,3.99 16.04,5.99 24.81,5.99 8.97,0 17.34,-2.05 25.11,-6.16 7.77,-4.11 14.5,-9.75 20.18,-16.91 5.68,-7.16 10.17,-15.55 13.45,-25.18 3.29,-9.63 4.94,-19.96 4.94,-31 0,-9.39 -1.74,-18.31 -5.23,-26.76 -3.49,-8.45 -8.12,-15.91 -13.9,-22.37 -5.78,-6.45 -12.56,-11.56 -20.33,-15.32 -7.77,-3.76 -15.94,-5.64 -24.51,-5.64 -8.17,0 -16.09,1.88 -23.76,5.64 -7.68,3.75 -14.45,8.8 -20.33,15.14 -5.88,6.34 -10.56,13.74 -14.05,22.19 -3.49,8.45 -5.23,17.5 -5.23,27.12z"/>
   <path id="_2_1" class="fil3" d="M1809.09 545.88l58.59 0 0 142.29c0,8.45 0.35,16.85 1.05,25.18 0.7,8.34 2.39,15.79 5.08,22.37 2.69,6.57 6.68,11.91 11.95,16.02 5.28,4.11 12.51,6.16 21.68,6.16 8.97,0 16.09,-2 21.37,-5.99 5.28,-3.99 9.27,-9.22 11.96,-15.67 2.69,-6.46 4.43,-13.85 5.23,-22.19 0.8,-8.34 1.2,-16.85 1.2,-25.54l0 -142.64 58.59 0 0 152.51c0,15.5 -0.7,28.59 -2.09,39.27 -1.4,10.68 -3.99,20.49 -7.77,29.41 -6.58,15.5 -17.39,27.94 -32.43,37.33 -15.05,9.4 -33.73,14.09 -56.05,14.09 -5.98,0 -12.26,-0.41 -18.83,-1.23 -6.57,-0.82 -13.15,-2.35 -19.73,-4.58 -6.57,-2.23 -12.95,-5.28 -19.13,-9.16 -6.18,-3.88 -11.86,-8.75 -17.03,-14.62 -4.39,-5.17 -8.12,-10.69 -11.21,-16.55 -3.09,-5.87 -5.53,-12.45 -7.33,-19.72 -1.79,-7.28 -3.09,-15.32 -3.88,-24.13 -0.8,-8.8 -1.19,-18.84 -1.19,-30.11l0 -152.51z"/>
   <path id="_3_2" class="fil3" d="M2057.34 811.45l0 -265.57 88.48 0c11.36,0 21.77,1.7 31.24,5.1 9.47,3.4 17.64,8.45 24.51,15.15 6.87,6.69 12.21,15.15 15.99,25.36 3.79,10.21 5.68,22.25 5.68,36.1 0,9.63 -1.15,18.67 -3.44,27.12 -2.29,8.45 -5.58,15.96 -9.86,22.54 -4.29,6.57 -9.47,12.03 -15.55,16.38 -6.08,4.35 -12.9,7.34 -20.47,8.98l70.84 108.83 -72.94 0 -55.3 -102.14 -0.6 0 0 102.14 -58.59 0zm58.59 -146.52l5.09 0c14.35,0 24.81,-2.7 31.39,-8.1 6.57,-5.4 9.86,-13.74 9.86,-25.01 0,-11.27 -3.24,-19.6 -9.72,-25.01 -6.47,-5.4 -16.98,-8.1 -31.53,-8.1l-5.09 0 0 66.22z"/>
   <path id="_4_3" class="fil3" d="M2264.95 788.2l25.11 -55.65c9.56,9.86 18.48,16.9 26.75,21.13 8.27,4.23 16.59,6.34 24.96,6.34 8.37,0 15.25,-2.4 20.63,-7.22 5.38,-4.81 8.07,-11.33 8.07,-19.55 0,-4.93 -1.24,-9.04 -3.74,-12.33 -2.49,-3.29 -5.58,-6.05 -9.27,-8.28 -3.68,-2.23 -7.57,-4.11 -11.65,-5.64 -4.09,-1.52 -7.72,-2.87 -10.91,-4.05 -7.37,-2.82 -14.75,-5.63 -22.12,-8.45 -7.37,-2.82 -13.9,-6.75 -19.58,-11.8 -5.68,-5.05 -10.31,-11.86 -13.9,-20.43 -3.59,-8.57 -5.38,-20.02 -5.38,-34.34 0,-13.62 1.94,-25.89 5.83,-36.81 3.88,-10.92 9.27,-20.25 16.14,-28 6.88,-7.75 15.05,-13.74 24.51,-17.96 9.47,-4.23 19.78,-6.34 30.94,-6.34 11.36,0 23.32,1.94 35.87,5.81 12.56,3.88 24.21,9.22 34.97,16.03l-23.32 53.54c-5.58,-5.4 -11.71,-9.69 -18.38,-12.85 -6.68,-3.17 -13.5,-4.75 -20.48,-4.75 -6.58,0 -12.41,2.05 -17.49,6.16 -5.08,4.11 -7.62,9.45 -7.62,16.02 0,6.1 2.39,11.21 7.18,15.32 4.78,4.11 12.65,8.04 23.61,11.8 8.57,2.81 16.79,6.05 24.66,9.68 7.87,3.64 14.84,8.28 20.92,13.91 6.08,5.64 10.96,12.68 14.65,21.13 3.69,8.45 5.53,18.9 5.53,31.35 0,16.44 -1.99,30.64 -5.97,42.61 -3.99,11.98 -9.77,21.6 -17.34,28.88 -9.56,8.92 -19.78,15.32 -30.64,19.2 -10.86,3.88 -22.07,5.81 -33.63,5.81 -13.95,0 -27.7,-2.64 -41.25,-7.93 -13.55,-5.28 -26.11,-12.74 -37.66,-22.36z"/>
   <path id="_5_4" class="fil3" d="M2568.5 742.42c0,-9.86 1.19,-18.67 3.59,-26.42 2.39,-7.75 5.88,-14.61 10.46,-20.6 4.59,-5.99 10.21,-11.39 16.89,-16.2 6.68,-4.81 14.3,-9.33 22.87,-13.56l-11.06 -17.96c-2.99,-4.93 -5.38,-10.45 -7.18,-16.55 -1.79,-6.1 -2.69,-12.56 -2.69,-19.37 0,-11.03 1.85,-21.01 5.53,-29.94 3.69,-8.92 8.72,-16.55 15.09,-22.89 6.38,-6.34 13.8,-11.27 22.27,-14.8 8.47,-3.52 17.49,-5.28 27.06,-5.28 9.36,0 18.28,1.7 26.75,5.1 8.47,3.4 15.94,8.22 22.42,14.44 6.48,6.22 11.66,13.8 15.54,22.72 3.89,8.92 5.83,18.9 5.83,29.94 0,13.39 -3.19,25.19 -9.56,35.4 -6.38,10.21 -17.14,19.66 -32.28,28.35l28.39 35.22c5.38,-5.64 10.56,-11.5 15.55,-17.61 4.98,-6.1 9.66,-12.8 14.05,-20.08l33.18 37.34 -31.09 39.09 50.52 62.7 -73.24 0 -19.43 -24.65c-13.15,10.57 -26.25,18.49 -39.3,23.77 -13.05,5.29 -25.66,7.93 -37.81,7.93 -10.16,0 -19.68,-1.76 -28.55,-5.29 -8.87,-3.52 -16.54,-8.63 -23.02,-15.32 -6.47,-6.69 -11.56,-14.74 -15.24,-24.13 -3.69,-9.39 -5.53,-19.84 -5.53,-31.35zm86.39 14.09c5.38,0 10.71,-1 15.99,-2.99 5.28,-2 10.32,-4.64 15.09,-7.93l-35.57 -45.08c-6.97,5.16 -12.25,10.27 -15.84,15.32 -3.59,5.05 -5.38,10.51 -5.38,16.38 0,7.04 2.49,12.85 7.47,17.43 4.99,4.58 11.06,6.87 18.24,6.87zm2.09 -148.98c0,4.46 1.24,9.27 3.74,14.44 2.49,5.16 7.12,12.09 13.9,20.78 13.95,-9.39 20.92,-20.19 20.92,-32.4 0,-7.04 -1.85,-12.91 -5.53,-17.61 -3.69,-4.7 -8.52,-7.05 -14.5,-7.05 -5.18,0 -9.56,2.05 -13.15,6.16 -3.59,4.11 -5.38,9.34 -5.38,15.68z"/>
   <polygon id="_6_5" class="fil3" points="2929.44,545.88 3084.88,545.88 3084.88,604.35 3036.46,604.35 3036.46,811.45 2977.87,811.45 2977.87,604.35 2929.44,604.35 "/>
   <path id="_7_6" class="fil3" d="M3120.61 811.45l0 -265.57 88.48 0c11.36,0 21.77,1.7 31.24,5.1 9.47,3.4 17.64,8.45 24.51,15.15 6.87,6.69 12.21,15.15 15.99,25.36 3.79,10.21 5.68,22.25 5.68,36.1 0,9.63 -1.15,18.67 -3.44,27.12 -2.29,8.45 -5.59,15.96 -9.87,22.54 -4.28,6.57 -9.47,12.03 -15.54,16.38 -6.08,4.35 -12.9,7.34 -20.47,8.98l70.84 108.83 -72.94 0 -55.3 -102.14 -0.6 0 0 102.14 -58.59 0zm58.59 -146.52l5.09 0c14.35,0 24.81,-2.7 31.39,-8.1 6.57,-5.4 9.86,-13.74 9.86,-25.01 0,-11.27 -3.24,-19.6 -9.72,-25.01 -6.47,-5.4 -16.98,-8.1 -31.53,-8.1l-5.09 0 0 66.22z"/>
   <path id="_8_7" class="fil3" d="M3404.73 545.88l63.97 0 84.89 265.57 -62.48 0 -14.64 -46.14 -80.71 0 -15.54 46.14 -62.18 0 86.69 -265.57zm7.18 166.59l48.72 0 -23.91 -84.53 -0.6 0 -24.21 84.53z"/>
   <polygon id="_9_8" class="fil3" points="3562.71,545.88 3626.38,545.88 3680.79,707.19 3735.49,545.88 3799.16,545.88 3702.91,811.45 3657.47,811.45 "/>
   <polygon id="_10_9" class="fil3" points="3956.54,545.88 3956.54,604.35 3886.89,604.35 3886.89,648.72 3952.95,648.72 3952.95,707.19 3886.89,707.19 3886.89,752.98 3956.54,752.98 3956.54,811.45 3828.3,811.45 3828.3,545.88 "/>
   <polygon id="_11" class="fil3" points="4007.21,811.45 4007.21,545.88 4065.79,545.88 4065.79,752.98 4136.04,752.98 4136.04,811.45 "/>
   <path id="_12" class="fil3" d="M4159.51 788.2l25.11 -55.65c9.56,9.86 18.48,16.9 26.75,21.13 8.27,4.23 16.59,6.34 24.96,6.34 8.37,0 15.25,-2.4 20.63,-7.22 5.38,-4.81 8.07,-11.33 8.07,-19.55 0,-4.93 -1.24,-9.04 -3.74,-12.33 -2.49,-3.29 -5.58,-6.05 -9.27,-8.28 -3.68,-2.23 -7.57,-4.11 -11.65,-5.64 -4.09,-1.52 -7.72,-2.87 -10.91,-4.05 -7.37,-2.82 -14.74,-5.63 -22.12,-8.45 -7.37,-2.82 -13.9,-6.75 -19.58,-11.8 -5.68,-5.05 -10.31,-11.86 -13.9,-20.43 -3.59,-8.57 -5.38,-20.02 -5.38,-34.34 0,-13.62 1.94,-25.89 5.83,-36.81 3.88,-10.92 9.27,-20.25 16.14,-28 6.88,-7.75 15.05,-13.74 24.51,-17.96 9.47,-4.23 19.78,-6.34 30.94,-6.34 11.36,0 23.32,1.94 35.87,5.81 12.56,3.88 24.21,9.22 34.97,16.03l-23.32 53.54c-5.58,-5.4 -11.71,-9.69 -18.38,-12.85 -6.68,-3.17 -13.5,-4.75 -20.48,-4.75 -6.58,0 -12.41,2.05 -17.49,6.16 -5.08,4.11 -7.62,9.45 -7.62,16.02 0,6.1 2.39,11.21 7.18,15.32 4.78,4.11 12.65,8.04 23.61,11.8 8.57,2.81 16.79,6.05 24.66,9.68 7.87,3.64 14.84,8.28 20.92,13.91 6.08,5.64 10.96,12.68 14.65,21.13 3.69,8.45 5.53,18.9 5.53,31.35 0,16.44 -1.99,30.64 -5.97,42.61 -3.99,11.98 -9.77,21.6 -17.34,28.88 -9.56,8.92 -19.78,15.32 -30.64,19.2 -10.86,3.88 -22.07,5.81 -33.63,5.81 -13.95,0 -27.7,-2.64 -41.25,-7.93 -13.55,-5.28 -26.11,-12.74 -37.66,-22.36z"/>
   <polygon class="fil4" points="1348.45,918.22 4326,918.22 4326,897.86 1348.45,897.86 "/>
   <polygon class="fil4" points="1382.68,1108.82 1382.68,1069.97 1348.45,1016.5 1370.55,1016.5 1392.63,1053.06 1414.12,1016.5 1435.8,1016.5 1401.58,1070.1 1401.58,1108.82 "/>
   <path id="_1_10" class="fil4" d="M1502.14 1063.22c0,-9.41 1.43,-17.32 4.28,-23.73 2.11,-4.71 5.02,-8.94 8.69,-12.68 3.67,-3.74 7.69,-6.51 12.06,-8.34 5.82,-2.43 12.54,-3.66 20.14,-3.66 13.78,0 24.77,4.24 33.05,12.68 8.26,8.47 12.39,20.22 12.39,35.28 0,14.94 -4.11,26.63 -12.3,35.05 -8.19,8.45 -19.16,12.66 -32.87,12.66 -13.89,0 -24.95,-4.19 -33.14,-12.6 -8.19,-8.38 -12.3,-19.94 -12.3,-34.68zm19.42 -0.63c0,10.47 2.45,18.4 7.34,23.81 4.88,5.39 11.1,8.1 18.62,8.1 7.54,0 13.71,-2.69 18.55,-8.04 4.83,-5.37 7.23,-13.41 7.23,-24.13 0,-10.6 -2.34,-18.5 -7.06,-23.7 -4.7,-5.22 -10.93,-7.82 -18.73,-7.82 -7.78,0 -14.06,2.64 -18.82,7.91 -4.76,5.29 -7.15,13.24 -7.15,23.87z"/>
   <path id="_2_11" class="fil4" d="M1668.38 1016.5l18.9 0 0 50.03c0,7.95 0.24,13.09 0.7,15.43 0.8,3.78 2.7,6.84 5.69,9.11 3.02,2.3 7.13,3.44 12.34,3.44 5.28,0 9.28,-1.07 11.97,-3.25 2.7,-2.17 4.3,-4.81 4.85,-7.97 0.54,-3.16 0.83,-8.38 0.83,-15.69l0 -51.1 18.9 0 0 48.55c0,11.09 -0.5,18.93 -1.52,23.51 -1.02,4.57 -2.89,8.44 -5.63,11.6 -2.71,3.16 -6.36,5.65 -10.93,7.52 -4.59,1.87 -10.54,2.81 -17.91,2.81 -8.89,0 -15.62,-1.01 -20.2,-3.05 -4.59,-2.04 -8.21,-4.69 -10.89,-7.95 -2.67,-3.27 -4.41,-6.66 -5.26,-10.25 -1.24,-5.29 -1.85,-13.11 -1.85,-23.44l0 -49.3z"/>
   <path id="_3_12" class="fil4" d="M1900.9 1016.5l34.38 0c7.76,0 13.67,0.58 17.73,1.76 5.45,1.59 10.14,4.43 14.04,8.51 3.91,4.06 6.87,9.05 8.91,14.96 2.02,5.89 3.04,13.17 3.04,21.81 0,7.61 -0.96,14.14 -2.87,19.64 -2.33,6.72 -5.65,12.16 -9.97,16.31 -3.26,3.16 -7.68,5.6 -13.21,7.37 -4.15,1.31 -9.69,1.96 -16.65,1.96l-35.4 0 0 -92.32zm18.9 15.6l0 61.11 14.02 0c5.24,0 9.01,-0.3 11.34,-0.88 3.06,-0.75 5.59,-2.04 7.58,-3.85 2.02,-1.8 3.65,-4.77 4.91,-8.9 1.28,-4.12 1.91,-9.78 1.91,-16.91 0,-7.14 -0.63,-12.59 -1.91,-16.42 -1.26,-3.83 -3.04,-6.79 -5.33,-8.94 -2.28,-2.13 -5.17,-3.59 -8.69,-4.34 -2.61,-0.58 -7.76,-0.88 -15.41,-0.88l-8.43 0z"/>
   <path id="_4_13" class="fil4" d="M2055.97 1108.82l0 -92.32 39.7 0c9.97,0 17.24,0.84 21.75,2.5 4.54,1.65 8.15,4.6 10.87,8.83 2.72,4.25 4.09,9.09 4.09,14.55 0,6.94 -2.05,12.65 -6.15,17.17 -4.11,4.51 -10.23,7.35 -18.4,8.53 4.07,2.35 7.41,4.92 10.04,7.74 2.66,2.81 6.22,7.82 10.69,15l11.38 18.01 -22.53 0 -13.52 -20.16c-4.85,-7.16 -8.17,-11.67 -9.97,-13.54 -1.78,-1.85 -3.67,-3.14 -5.67,-3.83 -2.02,-0.68 -5.19,-1.03 -9.54,-1.03l-3.83 0 0 38.55 -18.9 0zm18.9 -53.25l13.95 0c9.04,0 14.67,-0.39 16.93,-1.14 2.24,-0.76 4.02,-2.07 5.28,-3.91 1.28,-1.85 1.92,-4.17 1.92,-6.94 0,-3.11 -0.85,-5.61 -2.52,-7.54 -1.67,-1.91 -4.04,-3.12 -7.08,-3.61 -1.54,-0.22 -6.12,-0.32 -13.76,-0.32l-14.71 0 0 23.47z"/>
   <polygon id="_5_14" class="fil4" points="2211.05,1108.82 2211.05,1016.5 2280.15,1016.5 2280.15,1032.11 2229.95,1032.11 2229.95,1052.61 2276.63,1052.61 2276.63,1068.21 2229.95,1068.21 2229.95,1093.22 2281.97,1093.22 2281.97,1108.82 "/>
   <path id="_6_15" class="fil4" d="M2443.02 1108.82l-20.36 0 -8.06 -21.02 -37.44 0 -7.76 21.02 -19.99 0 36.25 -92.32 19.97 0 37.4 92.32zm-34.55 -36.62l-12.97 -34.17 -12.61 34.17 25.58 0z"/>
   <polygon id="_7_16" class="fil4" points="2513.74,1108.82 2513.74,1016.5 2542.06,1016.5 2558.79,1079.47 2575.32,1016.5 2603.7,1016.5 2603.7,1108.82 2586.23,1108.82 2586.17,1036.14 2567.76,1108.82 2549.59,1108.82 2531.28,1036.14 2531.21,1108.82 "/>
   <polygon id="_8_17" class="fil4" points="2760.32,1108.82 2760.32,1016.5 2779.23,1016.5 2779.23,1108.82 "/>
   <polygon id="_9_18" class="fil4" points="2879.1,1108.82 2879.1,1032.11 2851.47,1032.11 2851.47,1016.5 2925.52,1016.5 2925.52,1032.11 2898.01,1032.11 2898.01,1108.82 "/>
   <polygon id="_10_19" class="fil4" points="3088.95,1108.82 3066.99,1016.5 3086.42,1016.5 3100.31,1079.92 3117.34,1016.5 3139.81,1016.5 3156.1,1080.99 3170.32,1016.5 3189.28,1016.5 3166.8,1108.82 3146.61,1108.82 3128.21,1039.8 3109.67,1108.82 "/>
   <polygon id="_11_20" class="fil4" points="3260.09,1108.82 3260.09,1016.5 3329.19,1016.5 3329.19,1032.11 3279,1032.11 3279,1052.61 3325.67,1052.61 3325.67,1068.21 3279,1068.21 3279,1093.22 3331.02,1093.22 3331.02,1108.82 "/>
   <path id="_12_21" class="fil4" d="M3485.42 1108.82l0 -92.32 30.23 0c11.45,0 18.9,0.45 22.38,1.38 5.35,1.4 9.82,4.4 13.43,9.04 3.61,4.64 5.41,10.64 5.41,17.99 0,5.67 -1.04,10.42 -3.11,14.29 -2.09,3.87 -4.72,6.9 -7.91,9.11 -3.2,2.19 -6.45,3.65 -9.76,4.36 -4.5,0.88 -10.99,1.33 -19.51,1.33l-12.26 0 0 34.81 -18.9 0zm18.9 -76.72l0 26.3 10.28 0c7.41,0 12.34,-0.5 14.84,-1.46 2.5,-0.96 4.45,-2.47 5.86,-4.55 1.41,-2.06 2.13,-4.45 2.13,-7.2 0,-3.37 -1,-6.15 -2.98,-8.34 -2,-2.19 -4.5,-3.57 -7.56,-4.13 -2.24,-0.41 -6.74,-0.62 -13.52,-0.62l-9.06 0z"/>
   <polygon id="_13" class="fil4" points="3633.83,1108.82 3633.83,1017.28 3652.73,1017.28 3652.73,1093.22 3699.53,1093.22 3699.53,1108.82 "/>
   <path id="_14" class="fil4" d="M3857.96 1108.82l-20.36 0 -8.06 -21.02 -37.44 0 -7.76 21.02 -19.99 0 36.25 -92.32 19.97 0 37.4 92.32zm-34.55 -36.62l-12.97 -34.17 -12.6 34.17 25.58 0z"/>
   <polygon id="_15" class="fil4" points="3928.94,1108.82 3928.94,1016.5 3947.23,1016.5 3985.65,1078.37 3985.65,1016.5 4003.12,1016.5 4003.12,1108.82 3984.24,1108.82 3946.41,1048.14 3946.41,1108.82 "/>
   <polygon id="_16" class="fil4" points="4160.81,1108.82 4160.81,1016.5 4179.71,1016.5 4179.71,1108.82 "/>
   <polygon id="_17" class="fil4" points="4279.59,1108.82 4279.59,1032.11 4251.96,1032.11 4251.96,1016.5 4326,1016.5 4326,1032.11 4298.5,1032.11 4298.5,1108.82 "/>
  </g>
 </g>
</svg>
