<svg xmlns="http://www.w3.org/2000/svg" width="44.945" height="44.985" viewBox="0 0 44.945 44.985"><path d="M263.467-507.655a3.445,3.445,0,0,0-2.073,1.832l-.232.5-.027,5.988c-.018,4.218,0,6.131.072,6.452a3.469,3.469,0,0,0,2.136,2.306,7.744,7.744,0,0,0,1.4.2l1,.054.036,1.93c.027,1.7.045,1.966.188,2.19a1.155,1.155,0,0,0,1.037.456c.125-.036,1.8-1.081,3.709-2.333l3.476-2.27h2.735c3,0,3.762-.072,4.442-.4a3.742,3.742,0,0,0,1.537-1.635l.241-.509v-12.422l-.232-.492a3.373,3.373,0,0,0-1.582-1.627l-.6-.295-8.445-.018C265.469-507.771,263.771-507.744,263.467-507.655Zm4.379,7.409a1.36,1.36,0,0,1,.6,1.206,1.481,1.481,0,0,1-.652,1.215c-.206.152-.411.2-1.072.214-.742.027-.849.009-1.126-.179a1.487,1.487,0,0,1-.715-1.582,1.378,1.378,0,0,1,.8-.974,1.721,1.721,0,0,1,1.117-.179C267.426-500.5,267.56-500.461,267.846-500.246Zm5.282-.116a1.447,1.447,0,0,1,.089,2.565,3.032,3.032,0,0,1-2.064.063,1.469,1.469,0,0,1-.8-1.6,1.822,1.822,0,0,1,.9-1.081A2.973,2.973,0,0,1,273.128-500.363Zm5.594.018a1.43,1.43,0,0,1,.036,2.538,2.711,2.711,0,0,1-2.082.036,1.5,1.5,0,0,1-.777-1.564,1.853,1.853,0,0,1,.9-1.081A2.957,2.957,0,0,1,278.722-500.345Z" transform="translate(-238.201 507.758)" fill="#fff"/><path d="M8.993-465.728a11.237,11.237,0,0,0-2.181,2.35c-.286.411-.688.929-.876,1.153a7.243,7.243,0,0,0-1.189,2.458,7.693,7.693,0,0,0-.161,2.19,10.07,10.07,0,0,0,.25,2.717c1.93,9.214,11.493,20.805,22.083,26.784a28.493,28.493,0,0,0,8.043,3.137,13.537,13.537,0,0,0,4.808,0,6.567,6.567,0,0,0,2.377-1.162c.295-.232.876-.67,1.3-.983,1.7-1.251,2.377-2.055,2.377-2.833,0-2.949-4.513-8.472-8.848-10.84-1.519-.831-3.056-1.135-3.807-.751a11.127,11.127,0,0,0-3.3,3.5,9.391,9.391,0,0,1-.76,1.028,3.729,3.729,0,0,1-2.949.214c-3.4-.938-7.73-5.023-9.223-8.722a5.508,5.508,0,0,1-.5-2.547c.045-1,.206-1.233,1.421-2.073a10.986,10.986,0,0,0,3.485-3.262c1.3-2.5-4.039-9.509-9.053-11.9C10.664-466.031,9.69-466.165,8.993-465.728Z" transform="translate(-4.586 469.71)" fill="#fff"/></svg>