<svg xmlns="http://www.w3.org/2000/svg" width="43.538" height="43.538" viewBox="0 0 43.538 43.538"><path d="M32.338-490.685l-.315.315v3.9l-3.817.028-3.826.028-.695.333a4.637,4.637,0,0,0-2.52,2.946,9.662,9.662,0,0,0-.157,2.344L21-479.05H64.538v-1.677c0-1.955-.13-2.668-.611-3.483a4.458,4.458,0,0,0-1.973-1.816l-.778-.389-3.835-.028-3.826-.028v-3.9l-.315-.315L52.885-491h-2.7l-.3.269-.306.269-.028,2-.028,2H36.007v-1.806c0-2.714-.019-2.733-2.019-2.733H32.653Z" transform="translate(-21 491)" fill="#fff"/><path d="M21-325.328c0,10.922.019,12.746.139,13.2a4.57,4.57,0,0,0,3.353,3.353c.463.12,2.862.139,18.277.139,19.444,0,18.212.037,19.351-.537a4.947,4.947,0,0,0,1.862-1.871c.584-1.158.556-.38.556-14.284V-338H21ZM33.876-329.8v2.825H28.225v-2.76c0-1.519.028-2.8.065-2.825s1.306-.065,2.825-.065h2.76Zm11.672,0v2.825H39.99v-5.651h5.558Zm11.746.018.019,2.807H51.662v-5.651l2.807.019,2.8.028ZM33.876-317.991v2.779H28.225v-5.558h5.651Zm11.672,0v2.779H39.99v-5.558h5.558Zm11.764,0v2.779H51.662v-5.558h5.651Z" transform="translate(-21 352.173)" fill="#fff"/></svg>