<svg xmlns="http://www.w3.org/2000/svg" width="24.998" height="25" viewBox="0 0 24.998 25"><g transform="translate(-2 -2)"><g transform="translate(2 2)"><path d="M26.037,2H20.678A2.63,2.63,0,0,0,18,4.678v5.359a2.63,2.63,0,0,0,2.678,2.678h5.359a2.63,2.63,0,0,0,2.676-2.678V4.678A2.63,2.63,0,0,0,26.037,2Z" transform="translate(-3.716 -2)" fill="#00a0e3"/><path d="M4.678,12.714h5.359a2.63,2.63,0,0,0,2.676-2.676V4.678A2.63,2.63,0,0,0,10.037,2H4.678A2.63,2.63,0,0,0,2,4.678v5.359a2.63,2.63,0,0,0,2.678,2.676Z" transform="translate(-2 -2)" fill="#00a0e3"/><path d="M26.037,18H20.678A2.63,2.63,0,0,0,18,20.678v5.359a2.63,2.63,0,0,0,2.678,2.678h5.359a2.63,2.63,0,0,0,2.676-2.678V20.678A2.63,2.63,0,0,0,26.037,18Z" transform="translate(-3.716 -3.716)" fill="#00a0e3"/><path d="M4.678,28.714h5.359a2.63,2.63,0,0,0,2.676-2.676V20.678A2.63,2.63,0,0,0,10.037,18H4.678A2.63,2.63,0,0,0,2,20.678v5.359a2.63,2.63,0,0,0,2.678,2.676Z" transform="translate(-2 -3.716)" fill="#00a0e3"/></g></g></svg>