<svg xmlns="http://www.w3.org/2000/svg" width="29.372" height="23.077" viewBox="0 0 29.372 23.077"><g transform="translate(0 -54.82)"><g transform="translate(0 54.82)"><path d="M2.819,61.933q.557.393,3.36,2.336t4.294,2.991q.164.115.7.5t.885.623q.352.238.852.533a4.945,4.945,0,0,0,.943.442,2.6,2.6,0,0,0,.82.147H14.7a2.6,2.6,0,0,0,.82-.147,4.95,4.95,0,0,0,.942-.442q.5-.3.852-.533t.885-.623q.533-.386.7-.5,1.508-1.049,7.671-5.327a7.786,7.786,0,0,0,2-2.016,4.328,4.328,0,0,0,.8-2.475,2.645,2.645,0,0,0-2.623-2.623H2.622a2.341,2.341,0,0,0-1.942.852A3.308,3.308,0,0,0,0,57.8,3.829,3.829,0,0,0,.9,60.04,8.136,8.136,0,0,0,2.819,61.933Z" transform="translate(0 -54.82)" fill="#00a0e3"/><path d="M27.733,185.863q-5.376,3.638-8.162,5.655-.934.688-1.516,1.073a9.357,9.357,0,0,1-1.549.787,4.717,4.717,0,0,1-1.8.4h-.033a4.718,4.718,0,0,1-1.8-.4,9.361,9.361,0,0,1-1.549-.787q-.582-.385-1.516-1.073-2.213-1.623-8.146-5.655A8.682,8.682,0,0,1,0,184.437v13.014A2.525,2.525,0,0,0,.77,199.3a2.525,2.525,0,0,0,1.852.771H26.75a2.63,2.63,0,0,0,2.622-2.623V184.437A9.039,9.039,0,0,1,27.733,185.863Z" transform="translate(0 -176.996)" fill="#00a0e3"/></g></g></svg>