<svg xmlns="http://www.w3.org/2000/svg" width="41" height="43" viewBox="0 0 40.833 43.292"><g transform="translate(-167.25)"><path d="M22,39.143a7.609,7.609,0,0,1-.959-.063,31.122,31.122,0,0,1-4.708-15.651h25.6c.034-.474.071-.947.071-1.429A20,20,0,1,0,22,42ZM39.07,20.571H30.519A34.75,34.75,0,0,0,26.586,5.5,17.16,17.16,0,0,1,39.07,20.571ZM22.959,4.92a31.122,31.122,0,0,1,4.708,15.652H16.333A31.122,31.122,0,0,1,21.041,4.92a7.37,7.37,0,0,1,1.918,0ZM17.414,5.5a34.754,34.754,0,0,0-3.933,15.073H4.93A17.161,17.161,0,0,1,17.414,5.5ZM4.93,23.429h8.552A34.754,34.754,0,0,0,17.414,38.5,17.161,17.161,0,0,1,4.93,23.429Z" transform="translate(165.25 -2)" fill="#1d86ef"/><path d="M28.208,27.75,35.5,30.667V27.75L28.208,24.1V20.458a1.458,1.458,0,1,0-2.917,0V24.1L18,27.75v2.917l7.292-2.917v5.1l-2.917,2.187V36.5l4.375-1.458L31.125,36.5V35.042l-2.917-2.187Z" transform="translate(172.583 6.792)" fill="#1d86ef" fill-rule="evenodd"/></g></svg>