<svg xmlns="http://www.w3.org/2000/svg" width="10.829" height="21.437" viewBox="0 0 10.829 21.437"><path d="M77.049,11.418H79.4v9.674a.346.346,0,0,0,.346.346h3.984a.346.346,0,0,0,.346-.346V11.463h2.7a.346.346,0,0,0,.343-.306L87.53,7.6a.346.346,0,0,0-.343-.385H84.075V4.977c0-.673.362-1.014,1.077-1.014h2.034a.346.346,0,0,0,.346-.346V.348A.346.346,0,0,0,87.186,0h-2.8c-.02,0-.064,0-.128,0a5.373,5.373,0,0,0-3.513,1.324A3.684,3.684,0,0,0,79.516,4.6V7.21H77.049a.346.346,0,0,0-.346.346v3.516A.346.346,0,0,0,77.049,11.418Z" transform="translate(-76.703)" fill="#fff"/></svg>