<svg xmlns="http://www.w3.org/2000/svg" width="23.832" height="23.936" viewBox="0 0 23.832 23.936"><path d="M20.359,3.479A11.867,11.867,0,0,0,1.683,17.791L0,23.938l6.29-1.649a11.86,11.86,0,0,0,5.67,1.444h0a11.866,11.866,0,0,0,8.4-20.254m-8.393,18.25h0a9.851,9.851,0,0,1-5.022-1.375l-.358-.213-3.733.979,1-3.638-.235-.373a9.863,9.863,0,1,1,8.354,4.62m5.41-7.384c-.3-.148-1.754-.865-2.026-.964s-.469-.148-.667.148-.766.964-.939,1.162-.346.223-.642.074a8.1,8.1,0,0,1-2.384-1.471,8.933,8.933,0,0,1-1.649-2.053c-.173-.3-.018-.457.13-.6s.3-.346.445-.519a2.022,2.022,0,0,0,.3-.494A.546.546,0,0,0,9.914,9.1C9.84,8.955,9.247,7.5,9,6.9c-.241-.578-.485-.5-.667-.509s-.371-.01-.568-.01a1.089,1.089,0,0,0-.791.371A3.324,3.324,0,0,0,5.936,9.227a5.764,5.764,0,0,0,1.211,3.066,13.214,13.214,0,0,0,5.065,4.475,17.077,17.077,0,0,0,1.69.624,4.067,4.067,0,0,0,1.867.117,3.053,3.053,0,0,0,2-1.409,2.477,2.477,0,0,0,.173-1.409c-.074-.124-.272-.2-.568-.346" transform="translate(0 -0.002)" fill="#fff" fill-rule="evenodd"/></svg>