<svg xmlns="http://www.w3.org/2000/svg" width="37.075" height="44.985" viewBox="0 0 37.075 44.985"><path d="M104.243-511.615a4.457,4.457,0,0,0-3.49,3.745l-.053.519h11.745c11.454,0,11.745,0,12.3.176a4.9,4.9,0,0,1,2.743,2.312c.519,1.073.492.035.492,17.634v16.122l.686-.053a4.414,4.414,0,0,0,4.158-3.877c.053-.448.079-6.725.062-16.887l-.026-16.175-.185-.545a4.637,4.637,0,0,0-2.9-2.857l-.519-.2-12.263-.018C106.906-511.73,104.638-511.712,104.243-511.615Z" transform="translate(-95.813 511.723)" fill="#fff"/><path d="M46.111-428.859a2.411,2.411,0,0,0-.51.369c-.536.51-.5-.519-.483,18.531l.026,17.415.264.422a1.788,1.788,0,0,0,.651.633l.387.2H59.728c12.729,0,13.3-.009,13.635-.167a1.645,1.645,0,0,0,.879-.905c.114-.29.132-2.233.132-17.845v-17.511l-.185-.387a1.644,1.644,0,0,0-.589-.642L73.2-429H59.789C47.816-429,46.348-428.982,46.111-428.859Zm21.458,9.45a1.4,1.4,0,0,1,.747,1.644,1.717,1.717,0,0,1-1.081,1.029c-.158.026-3.516.044-7.463.026l-7.173-.026-.325-.255a1.455,1.455,0,0,1,.255-2.479c.211-.1,1.661-.114,7.463-.123C67.1-419.594,67.2-419.594,67.569-419.409Zm-.114,5.74a1.821,1.821,0,0,1,.554.422,1.333,1.333,0,0,1-.132,1.943,1.634,1.634,0,0,1-.642.369c-.158.026-3.525.044-7.472.026-7.094-.026-7.182-.026-7.419-.211a1.37,1.37,0,0,1-.624-1.029,1.372,1.372,0,0,1,.809-1.5c.229-.123,1.108-.141,7.455-.141C65.82-413.792,67.226-413.766,67.455-413.669Zm-.053,5.776a1.734,1.734,0,0,1,.914.985,1.4,1.4,0,0,1-.747,1.635c-.378.185-.431.185-7.683.167s-7.305-.026-7.551-.211a2.169,2.169,0,0,1-.448-.484,1,1,0,0,1-.176-.809,1.244,1.244,0,0,1,.774-1.187l.387-.193h7.138C64.835-407.99,67.235-407.964,67.4-407.893Z" transform="translate(-45.11 436.272)" fill="#fff"/></svg>