<svg xmlns="http://www.w3.org/2000/svg" width="17.526" height="26.314" viewBox="0 0 17.526 26.314"><g transform="translate(-85.56 511.657)"><path d="M93.631-511.644a8.722,8.722,0,0,0-5.5,2.566,8.745,8.745,0,0,0-2.391,7.951,8.874,8.874,0,0,0,.622,1.893c.113.242,1.851,3.42,3.867,7.066,3.831,6.943,3.759,6.825,4.1,6.825s.267.118,4.1-6.825c2.011-3.651,3.754-6.83,3.862-7.066a8.828,8.828,0,0,0,.267-6.665,8.584,8.584,0,0,0-2.037-3.178,8.63,8.63,0,0,0-4.783-2.474A13.272,13.272,0,0,0,93.631-511.644Zm1.131,4.392a4.29,4.29,0,0,1,2.762,1.378,4.14,4.14,0,0,1,1.157,3.168,3.716,3.716,0,0,1-.422,1.713,4.407,4.407,0,0,1-2.726,2.309,3.219,3.219,0,0,1-1.209.139,3.219,3.219,0,0,1-1.209-.139,4.42,4.42,0,0,1-2.191-1.461,5.356,5.356,0,0,1-.843-1.63,5.566,5.566,0,0,1-.057-1.959,4.413,4.413,0,0,1,3.785-3.513c.211-.026.411-.046.437-.051S94.511-507.277,94.763-507.251Z" transform="translate(0 0)" fill="#ffffff"/></g></svg>