<svg width="40" height="25" viewBox="0 0 40 25" fill="none" xmlns="http://www.w3.org/2000/svg">
<g clip-path="url(#clip0_501_990)">
<path d="M0 25H40V0H0V25Z" fill="#005430"/>
<path d="M30.0001 9.93017C29.9973 9.49101 29.8155 8.30806 29.7694 7.91121C29.7234 7.51436 29.677 7.15433 29.6882 7.07003C29.6991 6.98867 29.8327 7.18314 29.9033 7.19886C29.9398 7.192 29.9235 7.06918 29.8572 6.9643C29.8122 6.89307 29.6591 6.62675 29.5662 6.47069C29.5225 6.39683 29.5128 6.35399 29.4917 6.34491C29.4708 6.33584 29.3017 6.65566 29.3202 6.69111C29.3663 6.75611 29.398 6.78713 29.4052 6.90194C29.4125 7.01674 29.4758 7.8364 29.5565 8.45768C29.6172 8.92639 29.7505 9.93619 29.7553 10.564C29.7566 10.7688 29.7324 10.964 29.7033 11.0456C29.6287 11.1737 29.512 11.2892 29.0777 11.5275C28.5894 11.7954 27.938 12.0184 27.658 12.1676C27.4839 12.2606 27.5416 12.2731 27.6932 12.2323C27.8444 12.1916 28.6262 12.0611 29.006 11.9106C29.3625 11.769 29.594 11.5321 29.7696 11.1866C29.9866 10.7593 30.0031 10.3968 30.0001 9.93017Z" fill="white"/>
<path d="M28.4883 6.59423C28.5261 6.58051 28.8386 6.56542 28.9227 6.58167C28.8674 6.65575 28.4927 6.81972 28.4911 6.84979C28.5014 6.87005 28.7499 6.81233 28.8283 6.78026C28.8796 6.75135 28.9138 6.70661 28.9518 6.66946C29.0414 6.57281 29.1477 6.39354 29.1209 6.37106C29.0774 6.33476 28.6515 6.35734 28.5953 6.36484C28.5577 6.3699 28.4623 6.53029 28.4447 6.57144C28.4276 6.61259 28.4506 6.60795 28.4883 6.59423Z" fill="white"/>
<path d="M29.1268 9.1972C29.1919 8.99038 29.208 8.73946 29.1193 8.47535C29.0283 8.20343 28.8021 8.03767 28.639 7.95273L28.6099 8.21451C28.6099 8.21451 28.8386 8.32109 28.995 8.58942C29.0941 8.75962 29.1354 9.0003 29.0571 9.26863C29.0441 9.33521 29.0949 9.29849 29.1268 9.1972Z" fill="white"/>
<path d="M26.7067 10.51C26.7654 10.3237 26.7798 10.0978 26.7002 9.86C26.6181 9.61509 26.4144 9.46578 26.2675 9.3896L26.2412 9.62522C26.2412 9.62522 26.4472 9.72124 26.588 9.96266C26.6774 10.1158 26.7144 10.3328 26.6442 10.5743C26.6325 10.6341 26.6781 10.6011 26.7067 10.51Z" fill="white"/>
<path d="M18.305 6.94548C18.3993 7.10703 18.4383 7.33579 18.3642 7.59061C18.3518 7.65382 18.3997 7.6191 18.4303 7.52287C18.4919 7.32661 18.5072 7.08814 18.423 6.83711C18.3364 6.5787 18.1216 6.42138 17.9666 6.34087L17.9392 6.58946C17.9392 6.58946 18.1565 6.69066 18.305 6.94548Z" fill="white"/>
<path d="M12.6333 7.0292C12.7124 7.20309 12.7178 7.43786 12.59 7.6852C12.5651 7.74735 12.6256 7.71791 12.6764 7.62495C12.7801 7.43491 12.8383 7.19707 12.7857 6.93434C12.7318 6.66421 12.5153 6.48008 12.3533 6.38037L12.2798 6.62718C12.2798 6.62718 12.5085 6.75506 12.6333 7.0292Z" fill="white"/>
<path d="M14.2012 10.916C14.3018 10.741 14.3437 10.6233 14.3883 10.416C14.4274 10.2337 14.43 10.0231 14.4158 9.80866C14.7168 9.69365 15.0754 9.50277 15.1959 9.48873C15.1135 9.75401 15.3102 10.0403 15.7076 10.0029C15.738 10.3029 15.7641 10.5664 15.7799 10.7227C15.8123 11.043 15.8074 11.4467 15.8064 11.5169C15.8051 11.5874 15.8595 11.5741 15.9154 11.4171C15.9899 11.2069 16.0129 10.658 15.9859 10.295C15.9794 10.2042 15.9685 10.0817 15.9552 9.94214C16.2128 9.8304 16.2556 9.61472 16.3519 9.52282C16.4389 9.80824 16.9173 9.84697 17.065 9.78587C17.248 9.71 17.3081 9.57357 17.3552 9.25691C17.4024 8.94036 17.2648 8.8129 17.2157 8.77839C17.2108 8.8167 17.091 9.18875 17.091 9.18875C17.091 9.18875 17.2046 9.30123 17.2103 9.35652C17.1178 9.43503 16.9226 9.43988 16.7588 9.38987C16.5948 9.33985 16.5445 9.24784 16.5543 9.18611C16.5638 9.12417 16.6255 9.06783 16.6276 8.99238C16.6294 8.91694 16.5908 8.93878 16.5252 9.00557C16.4596 9.07247 16.4172 9.13261 16.3264 9.27622C16.2521 9.39366 16.1316 9.53696 15.919 9.5779C15.884 9.23307 15.8439 8.86618 15.8172 8.63573C15.8032 8.51407 15.6633 7.4627 15.6533 7.34505C15.6447 7.24259 15.6285 7.12177 15.6311 7.06501C15.6338 7.01984 15.664 7.03778 15.7108 7.08505C15.7576 7.13222 15.8396 7.21452 15.8537 7.20809C15.9014 7.18614 15.8526 7.04949 15.7901 6.92709C15.7278 6.80438 15.515 6.32026 15.4703 6.30032C15.4473 6.29019 15.3037 6.58817 15.2951 6.64684C15.3174 6.68356 15.3756 6.74128 15.3777 6.90546C15.3784 6.95126 15.4098 7.38303 15.4534 7.79128C15.4915 8.15183 15.542 8.49392 15.5469 8.5337C15.5816 8.80889 15.6237 9.19677 15.6638 9.57811C15.4331 9.53696 15.3717 9.3943 15.3768 9.31294C15.3827 9.22114 15.4269 9.11753 15.4057 9.0941C15.3612 9.06909 15.0968 9.20764 14.7281 9.35652C14.6244 9.39831 14.5075 9.44315 14.3842 9.48567C14.3521 9.22579 14.3097 8.97866 14.2926 8.78968L14.2906 8.76869C14.5331 8.75402 14.7316 8.63922 14.822 8.5299C14.9348 8.39326 15.0137 8.11205 15.0214 7.89659C15.029 7.68091 14.8434 7.28659 14.7992 7.16124C14.7546 7.03578 14.7316 6.94883 14.7277 6.90546C14.7237 6.8621 14.828 6.95569 14.8937 6.97405C14.9381 6.98239 14.9228 6.89217 14.8685 6.83023C14.8145 6.7685 14.5228 6.3535 14.5024 6.38263C14.4899 6.39972 14.373 6.70498 14.3653 6.75172C14.4113 6.78021 14.4651 6.85872 14.4689 6.93395C14.4728 7.00919 14.5371 7.33998 14.6083 7.52379C14.6798 7.7076 14.8319 8.06024 14.8416 8.15721C14.7328 8.22907 14.4854 8.35073 14.2405 8.34345C14.1987 8.02183 14.1456 7.6483 14.1172 7.38377C14.1063 7.28153 14.1055 7.17242 14.1072 7.11544C14.1086 7.07028 14.1433 7.07651 14.191 7.12293C14.239 7.16936 14.3125 7.23689 14.3276 7.23204C14.3605 7.2218 14.332 7.11935 14.2668 6.99769C14.2017 6.87602 13.9429 6.36142 13.8975 6.34221C13.8745 6.3324 13.7586 6.62141 13.7513 6.6804C13.7744 6.7169 13.8337 6.77336 13.8395 6.93754C13.8442 7.06828 13.9121 7.70898 13.9703 8.27328C13.728 8.15584 13.6454 7.98796 13.6154 7.70613C13.5945 7.50965 13.5924 7.14773 13.5177 6.845C13.4755 6.67385 13.3868 6.49996 13.2816 6.40763C13.2565 6.46451 13.1445 6.81366 13.1445 6.81366C13.1811 6.9139 13.2946 7.25145 13.2908 7.54395C13.287 7.83644 13.2624 8.12239 12.9128 8.31939C12.5634 8.5165 12.0393 8.4381 11.9099 8.13062C11.7805 7.82294 12.0682 7.0515 12.0644 6.86938C12.0605 6.68725 12.0258 6.66214 11.9446 6.69221C11.8635 6.72229 11.6976 6.89787 11.5547 7.1835C11.4117 7.46935 11.3482 7.82336 11.267 8.06404C11.186 8.30473 11.0564 8.54858 10.8558 8.53507C10.6552 8.52178 10.5472 8.34968 10.4855 8.10076C10.4236 7.85164 10.4615 7.52358 10.4783 7.43949C10.5201 7.22887 10.4231 7.27203 10.3637 7.60272C10.327 7.80669 10.2904 8.13242 10.4198 8.47334C10.549 8.81427 10.7692 8.94142 10.9622 8.89784C11.1552 8.85447 11.3249 8.42998 11.3848 8.23931C11.4446 8.04895 11.7121 7.20344 11.8635 7.16187C11.8847 7.25715 11.7458 7.56431 11.7014 7.9236C11.657 8.28288 11.7604 8.76552 12.2469 8.84898C12.7333 8.93255 13.0633 8.63679 13.183 8.43145C13.3028 8.2258 13.3587 8.01023 13.3722 7.90165C13.3878 8.17726 13.5884 8.60767 13.9781 8.73038L14.0182 8.74125C14.0422 8.96685 14.0813 9.26135 14.1172 9.57062C14.0414 9.59256 13.9648 9.6124 13.8886 9.62949C13.8789 9.59984 13.8681 9.57083 13.8551 9.54413C13.7362 9.30429 13.5393 9.08323 13.2665 9.09853C12.9879 9.11404 12.684 9.46267 12.6973 9.71729C12.7061 9.88854 12.8066 10.0291 13.1723 10.0651C13.3393 10.0816 13.5167 10.0642 13.6999 10.0268C13.7257 10.0976 13.742 10.1679 13.7439 10.2321C13.628 10.3591 12.669 11.0372 11.951 11.1024C11.233 11.1675 11.014 10.8147 11.0068 10.4604C11.0015 10.191 11.1744 9.92199 11.2959 9.73586C11.4697 9.61662 11.6124 9.46753 11.7025 9.35251C11.7269 9.36665 11.7502 9.37974 11.7723 9.39187C11.8582 9.43861 11.8924 9.50847 11.8924 9.50847C11.9082 9.48567 11.982 9.36116 11.9531 9.30028C11.9398 9.2853 11.875 9.24784 11.7969 9.20342C11.8788 9.01201 11.8778 8.82092 11.7716 8.77839C11.6529 8.73102 11.4979 8.8627 11.4311 8.943C11.3964 8.98478 11.3831 9.03216 11.3829 9.07194C11.3824 9.12312 11.4081 9.16933 11.4716 9.21049C11.5349 9.251 11.5937 9.28772 11.649 9.32086C11.4921 9.47533 11.1213 9.70167 10.8944 9.83462C10.886 9.8151 10.8527 9.83568 10.8081 9.88506L10.7466 9.92062C10.5656 10.0244 10.1314 10.2525 10.0461 10.3083C9.96064 10.3642 10.0142 10.3541 10.0461 10.3416C10.1064 10.3111 10.1855 10.2742 10.2744 10.2335C10.4002 10.1758 10.5467 10.1104 10.6898 10.0449C10.6475 10.1122 10.6037 10.191 10.5648 10.2768C10.394 10.6549 10.1179 11.4385 10.7152 11.9099C11.2866 12.3612 12.2688 12.1896 13.0833 11.7205C13.898 11.2514 14.0739 11.0865 14.2012 10.916ZM11.5454 9.0521C11.5172 9.03258 11.5133 9.00652 11.5363 8.98837C11.5656 8.96495 11.6031 8.94279 11.6457 8.9353C11.7361 8.91958 11.7721 9.01686 11.7358 9.16838C11.6671 9.12903 11.5965 9.08766 11.5454 9.0521ZM13.4138 9.69122C12.9991 9.69302 12.98 9.62243 12.9877 9.57726C12.9954 9.53231 13.1246 9.40896 13.2884 9.49032C13.3577 9.52482 13.4357 9.597 13.5079 9.68763C13.476 9.68985 13.4446 9.69101 13.4138 9.69122ZM12.1435 11.736C11.3599 11.9365 10.5955 11.6259 10.5492 11.0108C10.5138 10.5412 10.6965 10.1873 10.8144 9.98783C10.9267 9.93571 11.0329 9.88506 11.1207 9.83969C10.9155 10.1494 10.7955 10.5642 10.8757 10.9155C10.9666 11.3135 11.3359 11.5549 11.9613 11.477C12.5804 11.4001 13.4176 10.848 13.655 10.6398C13.7273 10.5647 13.775 10.497 13.84 10.3589C13.8668 10.3023 13.9044 10.2275 13.9184 10.1429C13.9276 10.0879 13.9324 10.029 13.9335 9.96905C14.0062 9.94868 14.0792 9.92589 14.1528 9.90141C14.1777 10.1534 14.1961 10.4018 14.1972 10.6166C13.8114 11.0408 12.9271 11.5355 12.1435 11.736Z" fill="white"/>
<path d="M25.8502 10.1232C25.8236 9.7117 25.7596 8.96686 25.7238 8.589C25.6922 8.25272 25.6299 7.79182 25.5844 7.3861C25.573 7.28396 25.5718 7.18615 25.573 7.12928C25.5743 7.08432 25.6223 7.10163 25.6702 7.14785C25.7182 7.19406 25.7932 7.2521 25.8073 7.24503C25.8542 7.22224 25.7981 7.10954 25.7322 6.9883C25.6663 6.86685 25.4052 6.36449 25.3598 6.34539C25.3367 6.33568 25.2143 6.63662 25.2073 6.6956C25.2306 6.7319 25.2904 6.78814 25.2969 6.95232C25.3034 7.11661 25.3919 7.87191 25.4559 8.48274C25.5002 8.90735 25.5574 9.60017 25.599 10.1226C25.597 10.1234 25.6383 10.6193 25.6428 10.675C25.6684 10.9957 25.6551 11.3993 25.6526 11.4694C25.6498 11.5398 25.7047 11.5275 25.7636 11.3714C25.8236 11.2119 25.8578 10.8559 25.8625 10.5345L25.8502 10.1232Z" fill="white"/>
<path d="M23.6249 8.68257C23.5446 8.70557 23.4185 8.62591 23.4281 8.45888C23.4369 8.30799 23.5058 8.1667 23.5323 8.07754C23.5688 7.9545 23.5691 7.8359 23.5381 7.90312C23.4685 8.05337 23.3389 8.34386 23.3121 8.54097C23.2852 8.73807 23.3533 8.86512 23.446 8.90848C23.5614 8.96283 23.6445 8.87662 23.7008 8.74958C23.7548 8.62791 23.7446 8.48589 23.7071 8.51934C23.6757 8.55426 23.664 8.67128 23.6249 8.68257Z" fill="white"/>
<path d="M22.4701 9.28983C22.5128 9.18368 22.5227 9.07964 22.49 9.13673C22.4161 9.26461 22.2777 9.51174 22.2371 9.68341C22.1967 9.85509 22.2458 9.97126 22.3237 10.0153C22.4208 10.0703 22.5008 9.99975 22.5613 9.8916C22.6192 9.78809 22.6221 9.66241 22.5865 9.68964C22.5558 9.71834 22.5355 9.82037 22.5005 9.82787C22.4275 9.84295 22.3236 9.76487 22.3461 9.61841C22.3665 9.48652 22.4392 9.36654 22.4701 9.28983Z" fill="white"/>
<path d="M19.1067 11.5291C19.1779 11.4207 19.2134 11.3084 19.1639 11.3651C19.0537 11.492 18.8449 11.7381 18.7606 11.9187C18.6766 12.0992 18.7034 12.2348 18.7783 12.2965C18.8717 12.3736 18.9757 12.3102 19.0667 12.2027C19.154 12.0996 19.1866 11.9629 19.1409 11.9862C19.1009 12.0125 19.0551 12.1204 19.0148 12.1224C18.9319 12.1262 18.8362 12.0227 18.8949 11.8668C18.948 11.726 19.0552 11.6076 19.1067 11.5291Z" fill="white"/>
<path d="M25.0034 8.36664C24.9217 8.38584 24.801 8.30006 24.8212 8.13366C24.8396 7.98351 24.9176 7.84581 24.9496 7.75823C24.9942 7.63699 25.0018 7.5187 24.9667 7.58412C24.8878 7.731 24.7397 8.01463 24.7002 8.21026C24.6606 8.40578 24.7204 8.53589 24.8102 8.58369C24.9222 8.6432 25.0104 8.56132 25.0749 8.43702C25.1366 8.31821 25.1356 8.17597 25.0958 8.20762C25.0623 8.24118 25.0432 8.35735 25.0034 8.36664Z" fill="white"/>
<path d="M24.9784 10.4079C25.0902 10.4674 25.1788 10.3855 25.2431 10.2612C25.3047 10.1424 25.3038 10.0002 25.2643 10.0318C25.2306 10.0652 25.2114 10.1816 25.1716 10.1909C25.0899 10.21 24.9689 10.1243 24.9894 9.95787C25.0078 9.80772 25.0857 9.66992 25.1178 9.58244C25.1623 9.46121 25.1699 9.34271 25.1349 9.40834C25.0557 9.55522 24.908 9.83885 24.8684 10.0343C24.8288 10.23 24.8886 10.3601 24.9784 10.4079Z" fill="white"/>
<path d="M26.4067 7.80024C26.4605 7.65357 26.4698 7.51038 26.4272 7.58962C26.3315 7.76732 26.1525 8.11046 26.1046 8.34734C26.0568 8.58402 26.1293 8.74134 26.238 8.79927C26.3732 8.87124 26.4802 8.77216 26.5583 8.6219C26.6326 8.47808 26.6315 8.30577 26.5836 8.34428C26.543 8.3847 26.5198 8.52525 26.4716 8.53654C26.373 8.55975 26.2265 8.45603 26.2512 8.2547C26.2735 8.073 26.3679 7.90639 26.4067 7.80024Z" fill="white"/>
<path d="M14.9922 10.3372C15.0802 10.1585 15.1121 9.97954 15.0473 10.0748C14.9023 10.2881 14.6293 10.701 14.536 10.9935C14.4426 11.2861 14.5118 11.4916 14.6402 11.5759C14.8004 11.6806 14.9488 11.567 15.0678 11.3865C15.1816 11.2134 15.2042 10.9965 15.1386 11.0399C15.082 11.0863 15.0331 11.2608 14.971 11.27C14.8434 11.2888 14.6739 11.143 14.7331 10.8924C14.7867 10.6662 14.9286 10.4666 14.9922 10.3372Z" fill="white"/>
<path d="M27.3166 12.1094C27.3841 12.0576 27.9706 11.7614 28.0786 11.7012C28.0786 11.7012 28.189 11.5324 28.1559 11.5145C28.1226 11.4965 27.9085 11.6791 27.7753 11.6841C27.642 11.6892 27.4595 11.5974 27.4537 11.5222C27.471 11.4654 27.6313 11.3801 27.6893 11.3767C27.7472 11.3735 27.7378 11.4972 27.7572 11.5123C27.7766 11.5271 27.8536 11.4269 27.8633 11.3851C27.8728 11.3434 27.8649 11.1689 27.7589 11.1939C27.591 11.2337 27.3378 11.5255 27.309 11.6173C27.2799 11.7094 27.4363 11.7894 27.5505 11.833C27.5407 11.8364 27.4555 11.8748 27.4016 11.9248C27.4016 11.9248 27.3437 11.9857 27.3166 12.1094Z" fill="white"/>
<path d="M25.3166 12.4763C25.3841 12.4245 25.9706 12.1285 26.0786 12.0682C26.0786 12.0682 26.1892 11.8994 26.1559 11.8814C26.1226 11.8635 25.9085 12.046 25.7753 12.0511C25.642 12.0561 25.4595 11.9643 25.4537 11.8891C25.471 11.8323 25.6313 11.7471 25.6893 11.7438C25.7472 11.7404 25.7378 11.864 25.7572 11.879C25.7766 11.8941 25.8536 11.7938 25.8633 11.752C25.8728 11.7104 25.8647 11.5358 25.7589 11.5609C25.591 11.6008 25.3378 11.8925 25.309 11.9845C25.2799 12.0763 25.4363 12.1564 25.5502 12.2C25.5407 12.2033 25.4555 12.2416 25.4016 12.2918C25.4016 12.2918 25.3437 12.3527 25.3166 12.4763Z" fill="white"/>
<path d="M20.8118 7.16751C20.8644 7.22481 21.2089 7.63517 21.4788 7.89316C21.7486 8.15136 22.2111 8.5692 22.5508 8.85558C22.6166 8.91108 22.6863 8.97122 22.7573 9.0338C22.843 9.65065 22.9421 10.4356 22.9837 10.7602C23.0247 11.0798 23.0308 11.4834 23.0317 11.5537C23.0324 11.624 23.0865 11.6097 23.1378 11.4517C23.2067 11.2397 23.2147 10.6908 23.1781 10.3283C23.1555 10.1044 23.102 9.68494 23.0503 9.29822C23.2509 9.48404 23.4405 9.66838 23.5682 9.80639C23.803 10.0597 24.0006 10.2508 24.121 10.5232C24.2062 10.7158 24.1976 10.8692 24.2325 10.8994C24.2627 10.9256 24.296 10.6951 24.2588 10.4715C24.1984 10.1084 24.1156 9.95443 23.6185 9.43603C23.4288 9.23787 23.2055 9.03074 22.9872 8.83711C22.9788 8.77739 22.9712 8.7221 22.9642 8.67303C22.947 8.55179 22.7785 7.50359 22.7652 7.38615C22.7539 7.2839 22.734 7.1635 22.7356 7.10663C22.7368 7.06136 22.7675 7.07898 22.8157 7.1252C22.8637 7.17131 22.9477 7.25203 22.9619 7.24496C23.0089 7.22217 22.9566 7.08679 22.8907 6.96534C22.8251 6.8441 22.599 6.36442 22.5536 6.34543C22.5306 6.33572 22.3951 6.63655 22.3882 6.69543C22.4117 6.73173 22.4713 6.78829 22.4778 6.95226C22.4796 6.99805 22.5229 7.4292 22.5774 7.83628C22.6256 8.19599 22.6852 8.53713 22.6914 8.57659L22.6917 8.57965C22.4666 8.38719 22.2683 8.22374 22.148 8.12107C21.8668 7.88144 21.2457 7.31281 21.2207 7.22766C21.2151 7.20075 21.2633 7.21732 21.352 7.23061C21.4409 7.24401 21.5201 7.2724 21.5058 7.23146C21.4994 7.21215 21.4653 7.16445 21.3804 7.11528C21.2955 7.06601 21.0778 6.93833 20.9159 6.84801C20.7536 6.75779 20.6733 6.68213 20.6398 6.70377C20.6232 6.71442 20.638 7.02348 20.6477 7.062C20.6882 7.06527 20.7595 7.11001 20.8118 7.16751Z" fill="white"/>
<path d="M21.2551 6.61177C21.3217 6.59805 21.6372 6.60555 21.7518 6.62813C21.7038 6.65936 21.381 6.81225 21.3172 6.84866C21.2538 6.88517 21.2377 6.90627 21.2696 6.90268C21.3621 6.87862 21.5707 6.84866 21.6706 6.7998C21.7648 6.75844 21.9254 6.55669 21.9878 6.48146C22.0499 6.40622 22.0499 6.36866 22.0341 6.34851C21.9703 6.31601 21.5591 6.2834 21.3608 6.32951C21.3059 6.36444 21.1985 6.55047 21.1827 6.58919C21.1669 6.62813 21.1885 6.62549 21.2551 6.61177Z" fill="white"/>
<path d="M23.01 6.58748C23.0639 6.5764 23.3182 6.58241 23.4103 6.60056C23.3717 6.62578 23.1117 6.74902 23.0603 6.77857C23.0088 6.8078 22.996 6.82489 23.0217 6.82194C23.0964 6.80273 23.2645 6.77857 23.3449 6.739C23.4208 6.70566 23.5502 6.54305 23.6005 6.48259C23.6505 6.42181 23.6505 6.39164 23.6377 6.37549C23.5866 6.34901 23.2551 6.32284 23.0953 6.36009C23.0509 6.38815 22.9646 6.53809 22.9519 6.56933C22.9388 6.60056 22.9565 6.59856 23.01 6.58748Z" fill="white"/>
<path d="M24.4367 6.57039C24.4903 6.55931 24.7446 6.56532 24.8367 6.58347C24.7984 6.60869 24.5382 6.73193 24.4867 6.76127C24.4355 6.79071 24.4227 6.8078 24.4484 6.80485C24.523 6.78564 24.7042 6.76127 24.7846 6.72191C24.8606 6.68857 24.9506 6.52596 25.0008 6.46529C25.0511 6.40472 25.0511 6.37434 25.0381 6.3584C24.987 6.33192 24.6815 6.30575 24.5219 6.34279C24.4776 6.37106 24.3911 6.521 24.3783 6.55224C24.3655 6.58347 24.3829 6.58147 24.4367 6.57039Z" fill="white"/>
<path d="M23.5467 7.2218C23.4622 7.34653 23.5681 7.44719 23.6067 7.54796C23.5546 7.59259 23.4745 7.55186 23.4477 7.51271C23.3908 7.43242 23.4099 7.26876 23.3428 7.24354C23.3256 7.28775 23.3144 7.33682 23.3144 7.33682C23.3144 7.33682 23.3654 7.44877 23.3526 7.52284C23.3445 7.56758 23.3024 7.61981 23.2467 7.62087C23.0985 7.62425 23.1715 7.41849 23.1143 7.30189C23.1026 7.33038 23.0942 7.36098 23.0806 7.38768C23.091 7.41807 23.0968 7.46069 23.0985 7.48528C23.1019 7.53413 23.0977 7.58679 23.1066 7.62847C23.1189 7.68745 23.1539 7.7266 23.2072 7.7304C23.318 7.73863 23.3685 7.65453 23.3852 7.58552C23.4043 7.6559 23.5507 7.73346 23.6228 7.64704C23.7182 7.53308 23.6419 7.43548 23.593 7.32827C23.5577 7.24903 23.5679 7.19701 23.5467 7.2218Z" fill="white"/>
<path d="M19.385 6.89085C19.3927 6.94213 19.4208 6.97717 19.4667 6.98244C19.5614 6.99373 19.6093 6.92314 19.6272 6.86447C19.6398 6.92578 19.7622 6.99795 19.8288 6.92641C19.9168 6.83176 19.8559 6.74482 19.8191 6.65059C19.7928 6.58074 19.8041 6.53642 19.7846 6.557C19.7055 6.66104 19.7918 6.7521 19.8199 6.84042C19.7727 6.87671 19.7059 6.83862 19.6847 6.80412C19.6397 6.73268 19.6642 6.59245 19.608 6.56808C19.591 6.60564 19.5789 6.64732 19.5789 6.64732C19.5789 6.64732 19.617 6.74577 19.6022 6.80897C19.593 6.84727 19.5542 6.89064 19.506 6.88948C19.3783 6.88684 19.4516 6.71232 19.408 6.60986C19.3967 6.63381 19.3878 6.66009 19.3745 6.68225C19.3822 6.70905 19.385 6.74577 19.385 6.76719C19.386 6.80939 19.3796 6.85434 19.385 6.89085Z" fill="white"/>
<path d="M22.4068 11.7234C22.421 11.7022 22.4524 11.6439 22.4445 11.6041C22.4366 11.5644 22.3846 11.3984 22.2837 11.3568C22.1834 11.3152 22.1074 11.4024 22.0594 11.5236L22.026 11.5229C22.0181 11.5408 22.0081 11.5676 22.0002 11.6161C21.989 11.686 21.9678 11.7311 21.8399 11.84C21.7323 11.9311 21.3836 12.1501 21.1577 12.253C20.9315 12.3561 20.7687 12.445 20.7087 12.472C20.6489 12.4986 20.6663 12.5085 20.7261 12.4917C20.7858 12.4751 21.086 12.3844 21.2056 12.3382C21.325 12.2917 21.4711 12.2152 21.6472 12.1081C21.8429 11.9891 21.9599 11.87 21.9992 11.7645C22.0272 11.6893 22.0344 11.6592 22.0344 11.6592C22.0344 11.6592 22.1079 11.6999 22.2327 11.7266C22.357 11.7534 22.3923 11.7448 22.4068 11.7234ZM22.2381 11.4875C22.2935 11.5073 22.3272 11.5638 22.3372 11.5981C22.2736 11.5995 22.1566 11.5692 22.1068 11.5481C22.1368 11.4938 22.1889 11.4702 22.2381 11.4875Z" fill="white"/>
<path d="M21.0818 11.8402C20.9082 11.8177 20.4708 11.7553 20.3638 11.5173C20.4536 11.3944 20.8674 11.2389 21.3857 11.0934C21.9041 10.9482 22.4457 10.7597 22.5913 10.6688C22.6232 10.6587 22.6849 10.6617 22.6849 10.6617C22.711 10.5913 22.8411 10.3442 22.8493 10.2925C22.7044 10.3002 21.8114 10.3617 21.4148 10.3817C21.018 10.4017 20.2537 10.3969 19.999 10.3942C20.1552 10.2889 20.5259 10.0834 21.0557 9.90801C21.1244 9.88522 21.1879 9.86464 21.2472 9.84607C21.2913 9.91972 21.324 9.99253 21.3308 10.0559C21.3645 10.0234 21.3899 9.91572 21.3813 9.80513C21.6902 9.7127 21.8493 9.6821 21.918 9.66469C21.9613 9.61204 22.0381 9.3991 22.0496 9.24431C22.0034 9.16549 21.8589 9.06736 21.7304 8.98305C21.5532 8.86709 21.3622 8.766 21.1716 8.81021C20.911 8.87015 20.8587 9.31902 20.9195 9.41419C20.9388 9.44426 20.9847 9.49755 21.0389 9.56329C20.8485 9.63346 20.6493 9.71597 20.4738 9.80271C20.0828 9.9958 19.6462 10.207 19.5189 10.4102L19.4824 10.4268C19.4722 10.446 19.3916 10.7604 19.3799 10.7943C19.4612 10.7916 20.0684 10.7927 20.4913 10.7803C20.914 10.7677 21.2836 10.7551 21.4283 10.7551C21.214 10.8027 20.6521 10.9984 20.4906 11.1135C20.3291 11.229 20.2275 11.4045 20.2249 11.7053C20.0743 11.65 19.7944 11.5237 19.5559 11.2213C19.29 10.8843 19.3451 10.5376 19.2387 10.0827C19.0841 9.42263 18.7539 8.86529 18.5483 8.69478C18.479 8.92776 18.4701 9.10334 18.4701 9.10334C18.4701 9.10334 18.7277 9.63726 18.8581 9.97808C18.9885 10.319 19.0999 10.6549 19.0944 10.7301C18.987 10.9508 18.3514 11.4132 17.8218 11.6839C17.3195 11.9405 16.877 11.9681 16.7202 11.7854C16.6894 11.7497 16.6684 11.7075 16.6566 11.6597C16.7248 11.6298 16.7932 11.5998 16.8633 11.5697C17.315 11.3768 18.1171 10.9708 18.3051 10.7577C18.5079 10.4995 18.5051 10.136 18.3861 9.92796C18.2677 9.71998 18.0819 9.47919 18.0674 9.39404C18.0561 9.35384 18.1881 9.41039 18.266 9.41419C18.3037 9.41155 18.2849 9.36397 18.2039 9.28873C18.1391 9.2288 17.8887 9.03433 17.793 8.95846C17.7691 8.93915 17.7512 8.94696 17.7463 8.96733C17.7277 9.04499 17.6896 9.21128 17.6748 9.29338L17.6851 9.33474C17.7126 9.35004 17.7442 9.36724 17.7596 9.41018C17.7812 9.47107 17.8571 9.64095 17.9814 9.85536C18.1059 10.0697 18.2858 10.3062 18.3035 10.4257C18.1572 10.6006 17.4193 10.9732 16.7006 11.2803C16.745 11.1511 16.8151 11.0051 16.9081 10.8429C16.9346 10.8155 16.9587 10.7816 16.9811 10.7434C17.0528 10.6206 17.0597 10.4704 17.0162 10.5022C16.979 10.5358 16.9522 10.6577 16.9096 10.6659C16.8223 10.6827 16.6998 10.5872 16.7306 10.4126C16.7585 10.2551 16.8484 10.1128 16.8872 10.0218C16.941 9.89577 16.9557 9.77126 16.915 9.839C16.8233 9.99032 16.6513 10.2834 16.5984 10.4883C16.5458 10.6927 16.6017 10.8326 16.6939 10.8867C16.7283 10.9073 16.7613 10.9137 16.7927 10.9097C16.7297 11.0222 16.6518 11.1602 16.5949 11.3248C16.3059 11.446 16.0247 11.5544 15.7919 11.6325C14.9552 11.9133 14.359 12.0787 13.9419 12.2015L13.9256 12.2084C13.9563 12.1154 13.9521 12.0361 13.9193 12.0599C13.882 12.0938 13.8553 12.2157 13.8127 12.2237C13.7255 12.2405 13.603 12.1451 13.6337 11.9703C13.6617 11.8128 13.7515 11.6708 13.7903 11.5796C13.8439 11.4537 13.8588 11.329 13.8181 11.3969C13.7263 11.5482 13.5544 11.8413 13.5016 12.046C13.4489 12.2506 13.5047 12.3904 13.5968 12.4446C13.7115 12.5122 13.8092 12.4293 13.8842 12.3012L13.9105 12.2486C13.9365 12.2486 13.9805 12.2429 14.0461 12.2292C14.2372 12.1889 14.715 12.1239 15.3721 12.0436C15.8585 11.9843 16.1944 11.859 16.5191 11.7196C16.5176 11.7533 16.5172 11.7876 16.5188 11.8229C16.5365 12.2409 16.8286 12.3589 17.2282 12.2807C17.6136 12.2048 18.1511 11.8735 18.4732 11.65C18.8091 11.417 19.0029 11.2088 19.0523 11.1362C19.1419 10.9582 19.1665 10.7615 19.1726 10.6688C19.2019 10.9244 19.2256 11.278 19.4835 11.5814C19.7209 11.8606 20.2073 12.2502 21.1223 12.2608C21.1253 12.1588 21.0818 11.8402 21.0818 11.8402ZM21.0213 9.25043C21.1522 9.11262 21.4317 9.20274 21.6415 9.37747C21.534 9.40111 21.388 9.44321 21.227 9.49713C21.1313 9.38897 21.0245 9.28472 21.0213 9.25043Z" fill="white"/>
<path d="M15.8773 7.36106C15.9367 7.33563 16.1185 7.25902 16.3144 7.15203C16.5099 7.04577 16.6936 6.91704 16.7834 6.83147C16.8179 6.79865 16.8485 6.77301 16.8681 6.74251C16.9268 6.76531 16.9672 6.78894 16.9924 6.79823C17.0303 6.81195 17.0808 6.83168 17.1137 6.73059C17.1464 6.62961 17.103 6.5644 17.0389 6.48653C16.9848 6.42121 16.8988 6.32308 16.8291 6.29871C16.7699 6.27792 16.7418 6.4018 16.7508 6.39874H16.7903L16.798 6.40222C16.7166 6.44074 16.6535 6.5606 16.6472 6.6027C16.6407 6.6485 16.65 6.68226 16.7668 6.71044L16.8138 6.72342C16.7163 6.83168 16.5346 6.94363 16.4108 7.02298C16.2351 7.13588 15.9858 7.27696 15.9148 7.31769C15.8438 7.35821 15.8498 7.37098 15.8773 7.36106ZM16.933 6.56567L16.9393 6.51154C17.0215 6.59933 17.0825 6.70379 17.0764 6.71856C17.0387 6.72141 16.9917 6.6887 16.9095 6.65578C16.9187 6.62961 16.9263 6.6007 16.933 6.56567ZM16.6971 6.56577C16.6966 6.54931 16.7283 6.50352 16.7952 6.47851C16.862 6.45329 16.8916 6.52367 16.8975 6.60935L16.8776 6.64365L16.8174 6.62412C16.7536 6.60661 16.7105 6.59669 16.6971 6.56577Z" fill="white"/>
<path d="M20.2584 9.01365C20.3548 8.95393 20.6198 8.77455 20.7702 8.65701C20.8748 8.57534 20.9976 8.45505 21.081 8.35333C21.1333 8.38509 21.1822 8.41326 21.2266 8.43774C21.3123 8.4847 21.3467 8.55434 21.3467 8.55434C21.3626 8.53155 21.4363 8.40682 21.4075 8.34615C21.3902 8.32631 21.2848 8.2686 21.177 8.20676C21.2317 8.09175 21.3069 7.89285 21.1992 7.82321C21.107 7.76412 20.9516 7.86193 20.8796 7.98887C20.8202 8.09397 20.8126 8.18313 20.9259 8.25615C20.9578 8.27672 20.9883 8.29614 21.0183 8.3146C20.904 8.43183 20.6934 8.6053 20.5435 8.72338C20.3574 8.86941 20.1814 9.0126 20.1507 9.04679L20.1418 9.06008C20.1011 8.95393 20.1122 8.8884 20.082 8.92365C19.9516 9.11537 20.115 9.27069 20.1744 9.4258C20.0941 9.49418 19.971 9.4314 19.9297 9.37157C19.8418 9.24769 19.8712 8.99614 19.7683 8.9572C19.7418 9.02516 19.7245 9.10081 19.7245 9.10081C19.7245 9.10081 19.8028 9.27312 19.7829 9.38687C19.7706 9.45567 19.7056 9.53617 19.6203 9.53755C19.3919 9.54303 19.5045 9.22627 19.4164 9.04689C19.3985 9.09089 19.3857 9.13795 19.3643 9.17868C19.3804 9.22585 19.3893 9.29127 19.3916 9.32915C19.3975 9.40438 19.3909 9.4851 19.4044 9.54968C19.4233 9.64043 19.4771 9.70078 19.5593 9.70637C19.7296 9.71935 19.8074 9.58957 19.8332 9.48373C19.8625 9.59199 20.0881 9.71102 20.199 9.57828C20.3459 9.4028 20.2283 9.25254 20.1532 9.08752L20.1443 9.0661C20.1548 9.06958 20.1941 9.05343 20.2584 9.01365ZM20.9246 8.02559C20.981 7.92735 21.1 7.91902 21.1356 7.97051C21.164 8.01145 21.1663 8.09133 21.1237 8.17564C21.0188 8.11391 20.9252 8.05345 20.9246 8.02559Z" fill="white"/>
<path d="M16.5406 8.38895C16.34 8.37566 16.232 8.20335 16.1703 7.95443C16.1084 7.70552 16.1463 7.37725 16.1631 7.29316C16.1799 7.20917 16.0853 7.25253 16.0485 7.4565C16.012 7.66025 15.9753 7.98609 16.1047 8.32723C16.2338 8.66794 16.454 8.79509 16.647 8.75151C16.8399 8.70814 17.0098 8.28365 17.0697 8.09319C17.1294 7.90262 17.3969 7.12549 17.5483 7.08371C17.5695 7.17899 17.4306 7.41798 17.3862 7.77727C17.342 8.13656 17.4189 8.6078 17.9054 8.69137C18.3918 8.77504 18.7219 8.47917 18.8415 8.27352C18.9613 8.06818 19.0172 7.85229 19.0307 7.74382C19.0463 8.01954 19.2469 8.45005 19.6366 8.57276C20.0131 8.69137 20.3008 8.58279 20.4279 8.42905C20.5407 8.29251 20.6327 8.01131 20.6406 7.79563C20.6482 7.58016 20.4496 7.18585 20.4051 7.06028C20.3606 6.93503 20.3376 6.84809 20.3337 6.80472C20.3299 6.76135 20.4342 6.85494 20.4998 6.8733C20.5443 6.88164 20.5287 6.79142 20.4746 6.72948C20.4207 6.66776 20.1288 6.25276 20.1083 6.28167C20.0958 6.29897 19.9789 6.60424 19.9713 6.65098C20.0175 6.67947 20.0711 6.75797 20.0751 6.83321C20.0788 6.90844 20.1561 7.23924 20.2275 7.42305C20.299 7.60686 20.4379 7.9595 20.4476 8.05647C20.3087 8.14827 19.9958 8.26508 19.6987 8.14669C19.4015 8.02787 19.3067 7.85577 19.274 7.5483C19.253 7.35182 19.2509 6.9899 19.1762 6.68728C19.1341 6.51623 19.0453 6.34234 18.9399 6.25001C18.9151 6.30668 18.8031 6.65604 18.8031 6.65604C18.8396 6.75629 18.9532 7.09383 18.9495 7.38633C18.9455 7.67861 18.9209 7.96467 18.5713 8.16177C18.2219 8.35888 17.7241 8.28038 17.5947 7.97279C17.4653 7.66532 17.753 6.97355 17.7492 6.79142C17.7453 6.6093 17.7104 6.58408 17.6294 6.61426C17.5483 6.64433 17.3822 6.81991 17.2395 7.10555C17.0966 7.39139 17.0331 7.67703 16.9518 7.91771C16.8709 8.1584 16.7412 8.40225 16.5406 8.38895Z" fill="white"/>
<path d="M10.7153 7.32288C10.9622 7.3061 11.1709 7.13063 11.2248 7.08399C11.2788 7.03703 11.3079 6.96708 11.2692 6.99367C10.9836 7.23266 10.6015 7.23942 10.5801 7.19921C10.5898 7.15912 10.6904 7.09391 10.8371 7.00211C10.9262 6.94629 11.0055 6.89395 11.065 6.81977L11.0811 6.82241C11.1899 6.84478 11.3154 6.88931 11.3537 6.85364C11.4162 6.79593 11.4244 6.70138 11.3568 6.59945C11.2995 6.51293 11.1661 6.43242 11.0502 6.37428C10.9346 6.31646 10.9122 6.40878 10.8973 6.44171C10.8831 6.47241 10.8889 6.49858 10.9134 6.49921C10.8761 6.5468 10.8496 6.60811 10.8399 6.65875C10.8335 6.69146 10.8386 6.71827 10.8529 6.74032C10.857 6.74654 10.8785 6.77113 10.919 6.78569L10.9693 6.80036C10.8827 6.87528 10.783 6.93394 10.7307 6.96359C10.6362 7.01709 10.5242 7.11068 10.4895 7.20744C10.4547 7.30452 10.4682 7.33966 10.7153 7.32288ZM11.1518 6.64018L11.1612 6.5908V6.55915C11.2395 6.61254 11.3647 6.71362 11.357 6.77419C11.3075 6.76364 11.213 6.74496 11.1233 6.72333C11.1347 6.69811 11.1441 6.67047 11.1518 6.64018ZM10.9197 6.65559C10.8621 6.61254 10.9183 6.56959 10.9693 6.54195C11.0351 6.50628 11.0737 6.53572 11.1074 6.62931C11.0956 6.65612 11.0791 6.68218 11.0596 6.70719C11.0083 6.69231 10.9362 6.66846 10.9197 6.65559Z" fill="white"/>
<path d="M11.4561 9.93686C11.3852 9.99457 11.3577 10.1824 11.3721 10.1937C11.3865 10.205 11.6083 10.2751 11.643 10.2903L11.6588 10.2338C11.7645 10.3227 11.8816 10.7665 11.9077 10.7678C11.9337 10.769 11.9715 10.7176 11.9962 10.5997C12.0189 10.4904 12.0417 10.3268 12.0654 10.1937C12.0876 10.0718 12.122 10.0021 12.2002 9.98814C12.2785 9.97442 12.3364 10.0684 12.3566 10.1324C12.3566 10.1324 12.4115 10.0095 12.4232 9.93306C12.4102 9.89285 12.2885 9.74133 12.1886 9.79145C12.0887 9.84168 12.0261 10.0543 12.0059 10.1872C11.9856 10.32 11.97 10.4846 11.9454 10.511C11.9196 10.3976 11.8369 10.1948 11.7371 10.0809C11.6249 9.95321 11.4936 9.90636 11.4561 9.93686Z" fill="white"/>
<path d="M10.5098 9.70977C10.6024 9.68592 10.811 9.65596 10.9108 9.6071C11.0049 9.56574 11.1655 9.36399 11.2278 9.28876C11.29 9.21352 11.2901 9.17575 11.2743 9.1558C11.2106 9.12309 10.7993 9.0907 10.6009 9.13681C10.5461 9.17153 10.4388 9.35755 10.423 9.39649C10.4069 9.43521 10.4289 9.43279 10.4953 9.41907C10.5619 9.40514 10.8776 9.41263 10.9918 9.43521C10.9442 9.46666 10.6213 9.61955 10.5575 9.65596C10.494 9.69225 10.4779 9.71357 10.5098 9.70977Z" fill="white"/>
<path d="M29.6351 10.787C29.6256 10.5615 29.5078 10.2153 29.0598 9.6841C28.9052 9.50071 28.6877 9.26204 28.4582 9.01755C28.4519 8.93419 28.4455 8.85801 28.4398 8.79259C28.4097 8.45609 28.3078 7.7696 28.264 7.36378C28.2533 7.26143 28.2525 7.15253 28.254 7.09566C28.2556 7.0505 28.2903 7.05651 28.338 7.10294C28.3858 7.14926 28.4593 7.2169 28.4746 7.21226C28.5073 7.20171 28.4789 7.09925 28.4138 6.9778C28.3488 6.85614 28.103 6.36411 28.0578 6.34501C28.0345 6.3353 27.9187 6.62421 27.9115 6.6833C27.9345 6.7196 27.9939 6.77605 27.9996 6.94034C28.0057 7.10452 28.1114 8.07423 28.1721 8.68528L28.1754 8.71936C27.8323 8.36028 27.5093 8.03287 27.3763 7.90012C27.3533 7.87712 27.328 7.85095 27.3007 7.82289C27.2791 7.65944 27.2591 7.5037 27.2453 7.37507C27.2341 7.27293 27.2334 7.16383 27.2353 7.10695C27.2364 7.0619 27.2714 7.06802 27.3191 7.11444C27.3671 7.16077 27.4404 7.2284 27.4557 7.22355C27.4883 7.21321 27.46 7.11075 27.3947 6.98909C27.3298 6.86743 27.0736 6.36411 27.0282 6.34501C27.0051 6.3353 26.8839 6.64721 26.8767 6.70588C26.9 6.74239 26.9592 6.79884 26.9651 6.96313C26.9674 7.03288 26.9868 7.24433 27.0126 7.51119C26.7852 7.25784 26.5625 6.99257 26.5467 6.93865C26.5411 6.91206 26.5892 6.92842 26.6782 6.94192C26.7668 6.95522 26.8499 6.98023 26.8357 6.93907C26.829 6.91998 26.7951 6.87228 26.7103 6.8229C26.6253 6.77362 26.4077 6.64595 26.2457 6.55584C26.0835 6.46562 26.0031 6.38975 25.9697 6.41138C25.9531 6.42204 25.9678 6.73131 25.9773 6.76961C26.0181 6.77309 26.0935 6.80148 26.1414 6.86162C26.1899 6.92177 26.5001 7.32949 26.7454 7.6052C26.816 7.68455 26.9265 7.80759 27.0559 7.94961C27.0812 8.20359 27.1078 8.46601 27.1297 8.68528C27.1795 9.18543 27.3584 10.5045 27.3601 10.9332C27.228 11.0494 26.9579 11.2115 26.68 11.2148C26.4021 11.2181 26.2496 11.1495 26.1376 10.9558C26.1031 10.8958 26.0709 10.8354 26.039 10.7807C25.9633 10.6509 25.7944 10.5779 25.6315 10.6137L25.6066 10.6199L25.5623 10.6399C25.452 10.694 25.338 10.7848 25.2264 10.9255C25.0336 11.1697 24.9104 11.4345 24.7677 11.6639C24.6191 11.9028 24.505 12.0631 24.2443 12.0248C24.0607 11.9978 23.9213 11.8502 23.8354 11.6686C24.0768 11.512 24.2521 11.3077 24.3803 11.0246C24.5472 10.6567 24.6067 10.2419 24.5918 9.77548C24.5776 9.33653 24.3642 8.30383 24.3078 7.90804C24.2516 7.51203 24.1707 7.18704 24.1801 7.10252C24.1889 7.02095 24.3274 7.213 24.3984 7.22735C24.4347 7.21975 24.4152 7.09724 24.3463 6.99373C24.2995 6.92335 24.1515 6.60321 24.0546 6.44884C24.0091 6.37582 23.9981 6.33351 23.9769 6.32486C23.956 6.31589 23.7947 6.63888 23.8142 6.67401C23.8619 6.73796 23.8945 6.76845 23.9045 6.88304C23.9147 6.99764 24.0253 7.83882 24.1219 8.45831C24.1947 8.92575 24.3555 9.77485 24.3762 10.4025C24.3831 10.6073 24.3519 10.7543 24.3249 10.8364C24.2555 10.9621 24.1424 11.1018 23.745 11.367C23.6837 10.9923 23.7504 10.6879 23.6922 10.6597C23.6266 10.6664 23.6161 10.841 23.6087 11.0565C23.605 11.156 23.6097 11.2938 23.6296 11.4418C23.1416 11.7476 22.4969 12.0261 22.1941 12.1747C22.0165 12.2621 22.0805 12.2825 22.2309 12.2389C22.3812 12.1951 23.2074 11.992 23.6485 11.7745L23.696 11.7498C23.7184 11.8227 23.7455 11.8933 23.7789 11.9584C23.9273 12.2475 24.1393 12.4192 24.3691 12.4024C24.5623 12.3885 24.7024 12.1947 24.8246 11.9635C24.9482 11.7294 25.1569 11.285 25.3617 11.1197C25.4403 11.0559 25.5217 11.0055 25.6008 10.9752C25.6008 10.9752 25.7407 10.9314 25.8693 11.0102C25.9155 11.0387 25.9499 11.0793 25.9717 11.1246C26.0225 11.2288 26.0825 11.3613 26.2052 11.4723C26.4214 11.6675 26.7691 11.6272 27.0299 11.5137C27.2903 11.4 27.4232 11.2228 27.4811 11.0121C27.58 10.6518 27.5642 10.2826 27.5453 9.95465C27.5235 9.58038 27.4597 9.19788 27.4234 8.79259C27.4117 8.66228 27.389 8.481 27.3628 8.28442C27.6167 8.55918 27.8804 8.83807 28.0404 8.99054C28.0955 9.04319 28.1537 9.10165 28.2135 9.16338C28.2612 9.77685 28.3071 10.5445 28.3313 10.8666C28.3553 11.1876 28.3399 11.5911 28.3371 11.6613C28.3341 11.7315 28.3758 11.7194 28.4355 11.5637C28.5157 11.3547 28.5659 10.8065 28.5484 10.443C28.5379 10.227 28.5149 9.8332 28.4901 9.46072C28.6872 9.68031 28.8743 9.902 28.996 10.0516C29.2125 10.3173 29.4113 10.6332 29.4808 10.8303C29.5502 11.0277 29.5578 11.0861 29.5714 11.1212C29.5849 11.1564 29.6446 11.0125 29.6351 10.787Z" fill="white"/>
<path d="M25.9801 18.2921C25.9606 18.2397 25.9007 18.2013 25.8291 18.2013C25.7575 18.2013 25.6978 18.2397 25.6781 18.2921H25.0001C24.9933 18.2216 25 18.1508 25.0213 18.0818L26.4209 18.081L26.4599 18.1425C26.4951 18.1981 26.5396 18.2482 26.5911 18.2921L25.9801 18.2921ZM26.9067 17.6824H25.2247C25.354 17.5949 25.4218 17.4673 25.4036 17.3382C25.392 17.2568 25.306 17.196 25.2011 17.1877H25.1485C25.0209 17.1994 24.9284 17.2856 24.9419 17.3803L24.947 17.4167L24.9532 17.4727C24.9601 17.5429 24.9535 17.6136 24.9323 17.6824H12.4995C12.6841 17.9342 13.0207 18.0886 13.3842 18.0884L24.7294 18.0818C24.5996 18.1694 24.5316 18.2973 24.5499 18.4266C24.5633 18.5213 24.6774 18.5887 24.805 18.577C24.9324 18.5654 25.0249 18.4792 25.0116 18.3844L25.0065 18.3481H25.6732C25.6849 18.4091 25.7499 18.4559 25.8291 18.4559C25.9083 18.4559 25.9733 18.4091 25.9851 18.3481H26.6633V18.3466C26.805 18.4408 26.9849 18.495 27.1753 18.495C27.3544 18.495 27.4995 18.3783 27.4995 18.2343V18.159C27.4995 17.8958 27.2342 17.6823 26.9067 17.6823" fill="white"/>
</g>
<defs>
<clipPath id="clip0_501_990">
<rect width="40" height="25" fill="white"/>
</clipPath>
</defs>
</svg>
