<svg xmlns="http://www.w3.org/2000/svg" width="41.333" height="33.146" viewBox="0 0 41.333 33.146"><path d="M34.781,30.377a4.045,4.045,0,0,1-8.07,0m8.07,0a4.045,4.045,0,0,0-8.07,0m8.07,0h6.053m-14.123,0H24.693m-10.088,0a3.908,3.908,0,0,1-4.035,3.768,3.908,3.908,0,0,1-4.035-3.768m8.07,0a3.908,3.908,0,0,0-4.035-3.768,3.908,3.908,0,0,0-4.035,3.768m8.07,0H24.693m-18.158,0A3.908,3.908,0,0,1,2.5,26.609V10.029c0-2.11,0-3.166.44-3.972A3.912,3.912,0,0,1,4.7,4.411C5.566,4,6.7,4,8.956,4h9.281c2.26,0,3.39,0,4.253.411a3.912,3.912,0,0,1,1.763,1.647c.44.806.44,1.861.44,3.972V30.377m0,0V11.536h8.07l6.053,7.536m0,0v11.3m0-11.3H24.693" transform="translate(-1 -2.5)" fill="none" stroke="#393185" stroke-linecap="round" stroke-linejoin="round" stroke-width="3"/></svg>