<svg xmlns="http://www.w3.org/2000/svg" width="302" height="85" viewBox="0 0 302 85"><g transform="translate(-447.971 -3211.409)"><g transform="translate(447.971 3211.409)" fill="#fff" stroke="#d1cece" stroke-width="1"><rect width="302" height="85" rx="8" stroke="none"/><rect x="0.5" y="0.5" width="301" height="84" rx="7.5" fill="none"/></g><path d="M0,0H198a8,8,0,0,1,8,8V77a8,8,0,0,1-8,8H0a0,0,0,0,1,0,0V0A0,0,0,0,1,0,0Z" transform="translate(543.971 3211.409)" fill="#00a0e3"/><g transform="translate(466.199 3224.964)"><path d="M158.645,112.744a25.08,25.08,0,0,0-.618-5.983H130.55v10.861h16.128a14.3,14.3,0,0,1-5.983,9.495l-.055.364,8.688,6.73.6.06c5.528-5.105,8.715-12.617,8.715-21.526" transform="translate(-101.285 -82.828)" fill="#4285f4"/><path d="M40.069,179.847c7.9,0,14.535-2.6,19.38-7.089L50.214,165.6a17.321,17.321,0,0,1-10.145,2.927A17.618,17.618,0,0,1,23.42,156.37l-.343.029-9.034,6.991-.118.328a29.244,29.244,0,0,0,26.144,16.129" transform="translate(-10.803 -121.317)" fill="#34a853"/><path d="M12.617,90.379a18.017,18.017,0,0,1-.975-5.788,18.932,18.932,0,0,1,.943-5.788l-.016-.388-9.147-7.1-.3.142a29.2,29.2,0,0,0,0,26.274l9.495-7.349" transform="translate(0 -55.326)" fill="#fbbc05"/><path d="M40.069,11.316a16.22,16.22,0,0,1,11.316,4.357l8.259-8.064A28.118,28.118,0,0,0,40.069,0,29.244,29.244,0,0,0,13.925,16.128l9.462,7.349A17.69,17.69,0,0,1,40.069,11.316" transform="translate(-10.803 0)" fill="#eb4335"/></g><text transform="translate(646.971 3251.409)" fill="#fff" font-size="17" font-family="SegoeUI, Segoe UI"><tspan x="-79.123" y="0">Click here to leave us</tspan><tspan x="-76.712" y="19">a review on </tspan><tspan y="19" font-family="SegoeUI-Bold, Segoe UI" font-weight="700">Google!</tspan></text></g></svg>