<svg xmlns="http://www.w3.org/2000/svg" width="24.201" height="23.133" viewBox="0 0 24.201 23.133"><path d="M5.994,34.913V19.3H.807V34.912H5.994ZM3.4,17.174a2.705,2.705,0,1,0,.034-5.394,2.7,2.7,0,1,0-.068,5.394H3.4ZM8.865,34.913s.068-14.144,0-15.608h5.188v2.264h-.034a5.167,5.167,0,0,1,4.709-2.63c3.414,0,5.973,2.231,5.973,7.025v8.95H19.514v-8.35c0-2.1-.751-3.53-2.628-3.53a2.839,2.839,0,0,0-2.662,1.9,3.541,3.541,0,0,0-.171,1.265v8.716Z" transform="translate(-0.5 -11.78)" fill="#fff" fill-rule="evenodd"/></svg>