<svg xmlns="http://www.w3.org/2000/svg" width="47.536" height="47.505" viewBox="0 0 47.536 47.505"><path d="M21.678-511.481A23.908,23.908,0,0,0,3.762-500.362,23.792,23.792,0,0,0,6.31-471.839a23.969,23.969,0,0,0,14.717,7.689,36.8,36.8,0,0,0,5.9-.009,23.759,23.759,0,0,0,14.615-7.624,24.069,24.069,0,0,0,6.043-13.072,36.235,36.235,0,0,0,0-5.857,24,24,0,0,0-3.812-10.217,21.889,21.889,0,0,0-2.929-3.579,23.562,23.562,0,0,0-13.592-6.852A36.082,36.082,0,0,0,21.678-511.481Zm3.9,8.409c.372.139.456.428.511,1.776.046,1.051.084,1.3.223,1.46.121.139.465.242,1.255.391a13.253,13.253,0,0,1,3.17.967c.734.372.753.558.251,2.3-.734,2.538-.762,2.566-1.878,2.073-1.581-.707-2.557-1.469-4.109-1.4-4.327-.062-3.139,4.505.39,4.794a26.5,26.5,0,0,1,3.775,1.841,7.742,7.742,0,0,1,2.994,4.212c.158.567.2.089.2.916a5.909,5.909,0,0,1-.753,3.161,5.176,5.176,0,0,1-1.32,1.766,6.947,6.947,0,0,1-2.752,1.822c-1.144.428-1.367.539-1.488.735a7.017,7.017,0,0,0-.167,1.729c-.046,1.627-.1,1.85-.5,2.027a13.308,13.308,0,0,1-3.217,0c-.409-.186-.474-.418-.521-1.962a6.446,6.446,0,0,0-.158-1.562,8.137,8.137,0,0,0-1.488-.381,14.338,14.338,0,0,1-3.542-1.1c-.734-.363-.911-.586-.893-1.069a22.679,22.679,0,0,1,1-3.561c.242-.363.456-.344,1.413.093,1.785.818,3.567,1.8,5.119,1.8a3.772,3.772,0,0,0,3.211-1.3c.874-1.209.27-2.33-1.311-3.269-.344-.2-1.385-.679-2.324-1.069-3.04-1.255-4.091-1.878-5.271-3.133-1.794-1.652-1.636-4.57-1.3-5.584.716-2.12,2.064-3.4,4.667-4.435a4.535,4.535,0,0,0,1.023-.53c.139-.158.177-.4.214-1.692a9.81,9.81,0,0,1,.13-1.618.68.68,0,0,1,.279-.2A14.963,14.963,0,0,1,25.573-503.073Z" transform="translate(-0.171 511.541)" fill="#393185"/></svg>