<svg xmlns="http://www.w3.org/2000/svg" width="46.667" height="46.667" viewBox="0 0 46.667 46.667"><path d="M45.384,19.523,43.193,17.33a3.684,3.684,0,0,1-1.073-2.584v-3.1A6.1,6.1,0,0,0,36.028,5.55H32.921a3.684,3.684,0,0,1-2.584-1.076L28.144,2.283a6.1,6.1,0,0,0-8.621,0L17.33,4.474a3.684,3.684,0,0,1-2.584,1.073h-3.1A6.1,6.1,0,0,0,5.55,11.641v3.1A3.684,3.684,0,0,1,4.474,17.33L2.283,19.523a6.1,6.1,0,0,0,0,8.621l2.191,2.193a3.684,3.684,0,0,1,1.073,2.584v3.1a6.1,6.1,0,0,0,6.094,6.094h3.1a3.684,3.684,0,0,1,2.584,1.073l2.193,2.191a6.1,6.1,0,0,0,8.621,0l2.193-2.191a3.684,3.684,0,0,1,2.584-1.073h3.1a6.1,6.1,0,0,0,6.094-6.091V32.921a3.684,3.684,0,0,1,1.073-2.584l2.191-2.193a6.1,6.1,0,0,0,0-8.621Z" transform="translate(-0.5 -0.5)" fill="#393185"/><path d="M12.368,21.737a2.456,2.456,0,0,1-1.736-.719L5.72,16.105a2.456,2.456,0,1,1,3.473-3.473L12.68,16.12,25.742,7.413A2.456,2.456,0,1,1,28.468,11.5L13.732,21.325A2.456,2.456,0,0,1,12.368,21.737Z" transform="translate(6.053 8.965)" fill="#fff"/></svg>