<svg xmlns="http://www.w3.org/2000/svg" width="43.511" height="50.412" viewBox="0 0 43.511 50.412"><path d="M92.608-468.237c-2.605,2.1-6.169,3.446-10.787,4.085a48.1,48.1,0,0,1-7.211.367c-1.859-.083-1.859-.083-2.143.213a1.557,1.557,0,0,0-.379.734c-.118.651.036,12.623.189,14.375.77,8.727,3.327,15.832,7.614,21.136a29.525,29.525,0,0,0,6.9,6.015c2.712,1.646,6.039,2.913,7.33,2.771a19.064,19.064,0,0,0,4.736-1.681,25.517,25.517,0,0,0,7.247-5.281c4.677-4.76,7.685-11.391,8.857-19.467.509-3.6.58-4.961.592-11.817v-6.5l-.332-.284c-.343-.284-.343-.3-2.191-.213a37.785,37.785,0,0,1-12.4-1.551A16.309,16.309,0,0,1,95-468.32C93.946-469.161,93.745-469.161,92.608-468.237Zm4.476,14.032.3.284v6.643h6.643l.284.3.3.284v5.944l-.3.284-.284.3H97.38v6.643l-.3.284-.284.3H90.856l-.284-.3-.3-.284v-6.643H83.632l-.284-.3-.3-.284V-446.7l.3-.284.284-.3h6.643v-6.643l.3-.284.284-.3H96.8Z" transform="translate(-72.045 468.941)" fill="#393185"/></svg>