<svg xmlns="http://www.w3.org/2000/svg" width="37.838" height="50.412" viewBox="0 0 37.838 50.412"><path d="M81.239-511.511A14.785,14.785,0,0,0,68.43-499.342a20.3,20.3,0,0,0-.2,3.9v2.749H66.557a5.513,5.513,0,0,0-1.971.148c-.631.325-.591-.581-.591,14.071,0,8.553.039,13.529.1,13.864a4.253,4.253,0,0,0,3.34,3.35c.729.138,30.24.138,30.949,0a4.253,4.253,0,0,0,3.35-3.34c.059-.335.1-5.35.1-13.874,0-14.652.039-13.745-.591-14.071a5.513,5.513,0,0,0-1.971-.148H97.6v-2.749a20.3,20.3,0,0,0-.2-3.9,14.818,14.818,0,0,0-8.09-10.789,18.115,18.115,0,0,0-3.784-1.232A20.362,20.362,0,0,0,81.239-511.511Zm3.991,6.552a8.357,8.357,0,0,1,5.222,4.414c.729,1.537.769,1.714.808,4.966l.049,2.887H74.519l.049-2.887c.039-3.252.079-3.429.808-4.966a8.474,8.474,0,0,1,6.227-4.661A10.181,10.181,0,0,1,85.23-504.959ZM84.1-484.1a4.258,4.258,0,0,1,2.956,4.661,4.516,4.516,0,0,1-1.163,2.306l-.493.473.345,3.074c.374,3.35.374,3.468-.158,3.823-.227.158-.512.177-2.67.177s-2.444-.02-2.67-.177c-.532-.355-.532-.473-.158-3.823l.345-3.074-.493-.473a4.237,4.237,0,0,1-1.163-3.508A4.216,4.216,0,0,1,84.1-484.1Z" transform="translate(-63.995 511.567)" fill="#393185"/></svg>