<svg xmlns="http://www.w3.org/2000/svg" width="56.275" height="64" viewBox="0 0 56.275 64"><path d="M70.441-511.565a11.392,11.392,0,0,0-8.641,8.2,13.339,13.339,0,0,0,0,5.627,11.356,11.356,0,0,0,9.954,8.391l.938.088.025,4.177.038,4.177,5-4.2,5-4.189H88.9l4.99,4.189,5,4.189.038-4.177.025-4.164.938-.088a11.339,11.339,0,0,0,9.954-8.391,13.339,13.339,0,0,0,0-5.627,11.432,11.432,0,0,0-8.079-8.091l-1-.288-14.631-.025C72.442-511.79,71.442-511.778,70.441-511.565ZM80.2-500.548v2.876H74.444v-5.752H80.2Zm8.5,0v2.876H82.947v-5.752H88.7Zm8.5,0v2.876H91.451v-5.752H97.2Z" transform="translate(-57.686 511.775)" fill="#393185"/><path d="M42.505-239.655a7.64,7.64,0,0,0-5.878,7.3,7.64,7.64,0,0,0,5.878,7.3c.763.175.613.175-2.776.188-2.163.013-3.852.075-4.252.15a5.706,5.706,0,0,0-4.339,4.339c-.088.425-.138,2.451-.138,5.59v4.94H57.262v-4.94c0-3.2-.05-5.165-.138-5.59a5.706,5.706,0,0,0-4.339-4.339c-.388-.075-2.138-.138-4.252-.15-3.389-.013-3.539-.013-2.776-.188a7.616,7.616,0,0,0,5.69-5.74,7.283,7.283,0,0,0-2.051-6.828A7.329,7.329,0,0,0,42.505-239.655Z" transform="translate(-31 273.842)" fill="#393185"/><path d="M282.505-239.655a7.64,7.64,0,0,0-5.878,7.3,7.64,7.64,0,0,0,5.878,7.3c.763.175.613.175-2.776.188-2.163.013-3.852.075-4.252.15a5.705,5.705,0,0,0-4.339,4.339c-.088.425-.138,2.451-.138,5.59v4.94h26.262v-4.94c0-3.2-.05-5.165-.138-5.59a5.706,5.706,0,0,0-4.339-4.339c-.388-.075-2.138-.138-4.252-.15-3.389-.013-3.539-.013-2.776-.188a7.616,7.616,0,0,0,5.69-5.74,7.283,7.283,0,0,0-2.051-6.828A7.329,7.329,0,0,0,282.505-239.655Z" transform="translate(-240.987 273.842)" fill="#393185"/></svg>