<svg xmlns="http://www.w3.org/2000/svg" width="51.852" height="46.667" viewBox="0 0 51.852 46.667"><path d="M16.852,23.334A11.667,11.667,0,1,0,5.185,11.667,11.667,11.667,0,0,0,16.852,23.334Zm3.889,2.593H12.963A12.979,12.979,0,0,0,0,38.889v5.185a2.593,2.593,0,0,0,2.593,2.593H31.111A2.593,2.593,0,0,0,33.7,44.075V38.889A12.979,12.979,0,0,0,20.741,25.926ZM49.26,18.148H44.075V12.963a2.593,2.593,0,0,0-5.185,0v5.185H33.7a2.593,2.593,0,0,0,0,5.185h5.185v5.185a2.593,2.593,0,1,0,5.185,0V23.334H49.26a2.593,2.593,0,0,0,0-5.185Z" fill="#393185"/></svg>