<svg xmlns="http://www.w3.org/2000/svg" width="46.24" height="41.045" viewBox="0 0 46.24 41.045"><g transform="translate(-179 -1029.007)"><path d="M42.5,11.77,25.9,3.193a1.559,1.559,0,0,0-1.5,0L7.808,11.77a1.559,1.559,0,0,0,0,2.732l15.786,8.133V39.348l-4.735-2.6-1.5,2.732L24.4,43.351a1.557,1.557,0,0,0,1.5,0L42.5,34.775a1.559,1.559,0,0,0,.808-1.366V13.136A1.559,1.559,0,0,0,42.5,11.77ZM25.153,6.34l13.358,6.8-13.358,6.8L11.8,13.136ZM40.188,32.486,26.713,39.348V22.635l13.475-6.861Z" transform="translate(181.683 1026.257)" fill="#393185"/><path d="M25.153,2.75a1.814,1.814,0,0,1,.869.222l16.6,8.58a1.808,1.808,0,0,1,.935,1.584V33.409a1.809,1.809,0,0,1-.937,1.585l-.006,0L26.023,43.572a1.807,1.807,0,0,1-1.741,0l-7.265-4,1.744-3.17,4.583,2.52V22.787L7.687,14.721a1.809,1.809,0,0,1,0-3.17l.006,0L24.284,2.973A1.814,1.814,0,0,1,25.153,2.75Zm17.228,9.24-16.6-8.578a1.309,1.309,0,0,0-1.262,0l-.006,0L7.926,11.991a1.309,1.309,0,0,0,0,2.291l15.918,8.2V39.77l-4.886-2.686L17.7,39.378l6.827,3.754a1.307,1.307,0,0,0,1.262,0l.006,0,16.591-8.575a1.309,1.309,0,0,0,.676-1.146V13.136A1.309,1.309,0,0,0,42.381,11.99ZM25.153,6.059l13.909,7.077L25.153,20.213,11.244,13.136ZM37.96,13.136,25.153,6.62,12.347,13.136l12.807,6.516Zm2.478,2.23V32.64L26.463,39.756V22.482Zm-.5,16.968V16.181L26.963,22.788V38.94Z" transform="translate(181.683 1026.257)" fill="#393185"/><rect width="15" height="3" transform="translate(194 1050) rotate(180)" fill="#393185"/><rect width="17" height="3" transform="translate(196 1062) rotate(180)" fill="#393185"/><rect width="15" height="3" transform="translate(199 1056) rotate(180)" fill="#393185"/></g></svg>