<svg xmlns="http://www.w3.org/2000/svg" width="19.97" height="29.983" viewBox="0 0 19.97 29.983"><g transform="translate(-85.56 511.657)"><path d="M94.757-511.642a9.938,9.938,0,0,0-6.27,2.924,9.965,9.965,0,0,0-2.725,9.06,10.11,10.11,0,0,0,.709,2.156c.129.275,2.11,3.9,4.407,8.052,4.366,7.911,4.284,7.776,4.67,7.776s.3.135,4.676-7.776c2.291-4.161,4.278-7.782,4.4-8.052a10.059,10.059,0,0,0,.3-7.595,9.78,9.78,0,0,0-2.321-3.621,9.834,9.834,0,0,0-5.45-2.819A15.14,15.14,0,0,0,94.757-511.642Zm1.289,5a4.888,4.888,0,0,1,3.147,1.57,4.717,4.717,0,0,1,1.319,3.61,4.234,4.234,0,0,1-.481,1.951,5.022,5.022,0,0,1-3.106,2.631,3.668,3.668,0,0,1-1.377.158,3.668,3.668,0,0,1-1.377-.158,5.037,5.037,0,0,1-2.5-1.664,6.1,6.1,0,0,1-.961-1.858,6.342,6.342,0,0,1-.064-2.233,5.028,5.028,0,0,1,4.313-4c.24-.029.469-.053.5-.059S95.759-506.667,96.046-506.637Z" transform="translate(0 0)" fill="#00a0e3"/></g></svg>