<svg xmlns="http://www.w3.org/2000/svg" width="26.182" height="32" viewBox="0 0 26.182 32"><path d="M29.182,5.364a1.455,1.455,0,0,0-1.455-1.455H23.364V2.455A1.455,1.455,0,0,0,21.909,1H10.273A1.455,1.455,0,0,0,8.818,2.455V3.909H4.455A1.455,1.455,0,0,0,3,5.364V31.545A1.455,1.455,0,0,0,4.455,33H27.727a1.455,1.455,0,0,0,1.455-1.455ZM11.727,3.909h8.727V6.818H11.727ZM26.273,30.091H5.909V6.818H8.818V8.273a1.455,1.455,0,0,0,1.455,1.455H21.909a1.455,1.455,0,0,0,1.455-1.455V6.818h2.909Zm-2.727-4.364a1.455,1.455,0,0,1-1.455,1.455H10.273a1.455,1.455,0,1,1,0-2.909H22.091A1.455,1.455,0,0,1,23.545,25.727Zm-.182-5.818a1.455,1.455,0,0,1-1.455,1.455H10.273a1.455,1.455,0,0,1,0-2.909H21.909A1.455,1.455,0,0,1,23.364,19.909Zm0-5.818a1.455,1.455,0,0,1-1.455,1.455H10.273a1.455,1.455,0,1,1,0-2.909H21.909A1.455,1.455,0,0,1,23.364,14.091Z" transform="translate(-3 -1)" fill="#fff"/></svg>