<svg xmlns="http://www.w3.org/2000/svg" width="58.798" height="47.746" viewBox="0 0 58.798 47.746"><g transform="translate(0 -22.328)"><g transform="translate(0 22.328)"><path d="M52.565,52.712H46.548v-2.17c0-3.6-3.29-6.511-7.35-6.511H34.3V40.3l5.984-2.68c4.85-2.171,5.137-8.248.514-10.779l-7.659-4.191c-.033-.018-.066-.034-.1-.05l-.031-.016a2.688,2.688,0,0,0-1.865-.166l-.035.009q-.094.027-.185.06l-.076.03-.109.047-.078.036c-.052.026-.1.053-.152.082l-.065.039q-.065.04-.126.084l-.033.023c-.057.042-.111.086-.163.132l-.007.006a2.068,2.068,0,0,0-.663,1.088c0,.008,0,.016,0,.024q-.017.077-.027.156c0,.026-.007.051-.009.077s-.005.078-.007.118c0,.022,0,.044,0,.067V44.032H24.5a2.655,2.655,0,0,0-1.53.476l-11.578,8.2H2.45a2.288,2.288,0,0,0-2.437,2.4A18.6,18.6,0,0,0,.469,57.4a22.25,22.25,0,0,0,1.877,4.92c2.526,4.757,6.6,7.757,12.4,7.757H46.548a2.263,2.263,0,0,0,2.408-2.568c0-.007-.011-.063-.023-.16a4.6,4.6,0,0,1,.189-2.043c.409-1.145,1.3-1.739,3.442-1.739,3.467,0,6.233-2.3,6.233-5.425S56.032,52.712,52.565,52.712ZM34.3,28.392l3.921,2.145a1.756,1.756,0,0,1-.148,3.214L34.3,35.44Zm-8.941,19.98H39.2a2.321,2.321,0,0,1,2.45,2.17v2.17H19.234ZM52.565,59.223c-4.316,0-7.071,1.847-8.114,4.771a7.82,7.82,0,0,0-.4,1.739H14.741c-3.612,0-6.166-1.883-7.962-5.264a17.923,17.923,0,0,1-1.365-3.417h47.15c.828,0,1.333.419,1.333,1.085S53.394,59.223,52.565,59.223Z" transform="translate(0 -22.328)" fill="#fff"/></g></g></svg>