<svg xmlns="http://www.w3.org/2000/svg" width="54.969" height="52.725" viewBox="0 0 54.969 52.725"><path d="M339.392-429.73a6.078,6.078,0,0,0-4.111,4.7,6.042,6.042,0,0,0,2.224,5.71,5.546,5.546,0,0,0,3.374,1.2,5.659,5.659,0,0,0,3.636-.975,6.008,6.008,0,0,0,2.537-5.873,6.051,6.051,0,0,0-4.123-4.748A6.661,6.661,0,0,0,339.392-429.73Z" transform="translate(-297.818 429.963)" fill="#fff"/><path d="M176.235-343.695a3.656,3.656,0,0,0-2.024,1.449c-.2.312-2.174,4.6-4.361,9.534l-4,8.959H154.681c-7.51,0-11.458.05-12.058.137A3.7,3.7,0,0,0,139.262-321c-.275.8-.275.937-.325,9.959l-.037,9.159h7.36l.05-2.287c.037-2.249.037-2.287.425-3.1a5.263,5.263,0,0,1,3.311-2.874c.7-.212,1.2-.237,6.023-.237,5.548,0,5.935.037,7.035.6a5.464,5.464,0,0,1,2.249,2.324,8.445,8.445,0,0,1,.675,4.1v1.474h6.56l1.287-5.91c.712-3.236,2.611-11.845,4.223-19.118s2.924-13.432,2.924-13.67a3.291,3.291,0,0,0-2.624-3.086A3.546,3.546,0,0,0,176.235-343.695Z" transform="translate(-126.052 354.611)" fill="#fff"/><path d="M179.953-330.755a8.743,8.743,0,0,0-2.487.812c-2.536,1.262-5.7,4.723-8.184,8.934l-.825,1.412h-4.811c-4.573,0-4.836.013-5.373.262a2.6,2.6,0,0,0-1.674,2.549,2.641,2.641,0,0,0,1.549,2.511c.412.225.962.237,11.058.275l10.633.025,2.674-5.748c1.474-3.174,2.786-6.048,2.9-6.41.575-1.762-.012-3.011-1.824-3.9a7.946,7.946,0,0,0-2.949-.787C180.466-330.818,180.166-330.78,179.953-330.755Z" transform="translate(-141.541 343.208)" fill="#fff"/><path d="M41.978-157.94c-3.036,4.048-5.61,7.572-5.71,7.822a3.591,3.591,0,0,0,.062,2.474,3.3,3.3,0,0,0,4.848,1.449,43.835,43.835,0,0,0,3.4-4.223l2.986-3.973-.025-5.448L47.5-165.3Z" transform="translate(-36.078 198.37)" fill="#fff"/></svg>