<svg xmlns="http://www.w3.org/2000/svg" width="23.085" height="24.073" viewBox="0 0 23.085 24.073"><path d="M21.131,23.245h-5.57a.833.833,0,0,1-.833-.833V16.564a1.933,1.933,0,0,0-.7-1.46,2.816,2.816,0,0,0-1.76-.658,2.751,2.751,0,0,0-1.954.751,2.126,2.126,0,0,0-.683,1.516v5.7a.833.833,0,0,1-.833.833H3.222a2.09,2.09,0,0,1-2.088-2.088V8.963A3.965,3.965,0,0,1,2.77,5.76L10.443.792A3,3,0,0,1,13.91.8L21.6,5.831a3.965,3.965,0,0,1,1.622,3.193V21.156a2.09,2.09,0,0,1-2.088,2.09Zm-4.737-1.666h4.737a.421.421,0,0,0,.421-.421V9.026a2.3,2.3,0,0,0-.939-1.847L12.921,2.148a1.349,1.349,0,0,0-1.5,0L3.747,7.11A2.294,2.294,0,0,0,2.8,8.963V21.158a.422.422,0,0,0,.421.421H7.958V16.713A3.777,3.777,0,0,1,9.147,14a4.35,4.35,0,0,1,3.163-1.22,4.479,4.479,0,0,1,2.8,1.067,3.576,3.576,0,0,1,1.278,2.718Z" transform="translate(-0.634 0.327)" fill="#fff" stroke="#fff" stroke-width="1"/></svg>