<svg xmlns="http://www.w3.org/2000/svg" width="355.848" height="82.77" viewBox="0 0 355.848 82.77"><path d="M2767.8,190.995a10.255,10.255,0,0,0-3.921,1.049,8.177,8.177,0,0,0-1.409.95,9.8,9.8,0,0,0-3.618,8.677,10.261,10.261,0,0,0,1.205,3.65,9.248,9.248,0,0,0,3.721,3.625,11.757,11.757,0,0,0,10.155.076,8.765,8.765,0,0,0,2.816-2.177,9.87,9.87,0,0,0,2.311-7.5c-.6-5.328-5.429-8.928-11.261-8.352Zm.6,4.55a5.2,5.2,0,0,1,5.73,4.4c.5,5.176-5.831,7.126-8.546,4.426a5.9,5.9,0,0,1-1.207-1.374,5.024,5.024,0,0,1,4.022-7.452Z" transform="translate(-2561.838 -177.303)" fill="#393185" fill-rule="evenodd"/><path d="M1801.106,198.922h-9.451v3.6h3.921c-.7,4.7-8.646,4.075-8.746-2.4,0-2.226,1.106-4.625,3.217-5.375a4.707,4.707,0,0,1,3.52.2,5.113,5.113,0,0,1,2.01,2.274l4.525-1.8a8.623,8.623,0,0,0-2.413-3.175c-.2-.174-.4-.324-.6-.5a14.267,14.267,0,0,0-1.509-.75,11.885,11.885,0,0,0-7.842.025,8.78,8.78,0,0,0-4.725,4.25,10.77,10.77,0,0,0-.8,7.551c1.207,4.4,5.529,7.427,11.261,6.55,5.63-.849,7.641-5.349,7.641-10.451Z" transform="translate(-1654.67 -176.754)" fill="#393185" fill-rule="evenodd"/><path d="M3102.262,198.321l-9.452-.025v3.576l3.922.025c-.4,2.875-3.218,3.475-5.329,2.8-4.524-1.376-4.424-9.177-.2-10.576a4.481,4.481,0,0,1,3.52.2,3.348,3.348,0,0,1,1.207.974c.4.4.5.95.8,1.3l4.524-1.8a6.521,6.521,0,0,0-.8-1.425,4.888,4.888,0,0,0-1.005-1.226,7.608,7.608,0,0,0-1.207-1.025c-4.022-2.626-11.361-1.825-14.076,3.551-3.418,6.651,1.007,15.552,10.456,14.077a8.252,8.252,0,0,0,5.731-3.325,11.491,11.491,0,0,0,1.911-7.1Z" transform="translate(-2862.924 -176.127)" fill="#393185" fill-rule="evenodd"/><path d="M1287.91,216.733l5.026.025,1.308-3.1h6.536l1.206,3.1h5.128c-.4-1.25-2.916-7.452-3.519-9.026l-3.218-8.5c-.1-.326-.1-.351-.3-.45h-5.129Zm9.552-12.3,1.106,2.85c.2.7.8,2.126.9,2.775h-3.921Z" transform="translate(-1195.968 -184.589)" fill="#393185" fill-rule="evenodd"/><path d="M4313.751,205.8l-2.011,3.775c1.207.5,1.509,1.152,3.921,1.725,4.625,1.1,10.054-.825,9.651-6.6-.4-5.2-7.038-4.151-7.842-6.2-.4-1.276,1.206-2.351,3.317-1.725a7.667,7.667,0,0,1,1.811.95l1.909-3.577c0-.024-.1-.049-.2-.124l-.7-.349a12.751,12.751,0,0,0-3.217-.9c-7.24-1.025-8.948,5.151-7.54,8.228,1.507,3.074,5.831,2.3,7.138,4.05,1.306,1.675-1.51,4.126-5.329,1.376a4.124,4.124,0,0,0-.9-.625Z" transform="translate(-4003.932 -178.907)" fill="#393185" fill-rule="evenodd"/><path d="M2222.375,198.757a4.606,4.606,0,0,0,1.306,3.6c1.91,1.65,5.53,1.476,6.335,3.025.9,1.526-1.207,3.476-4.524,1.775-1.006-.525-1.308-.975-1.811-1.2l-2.011,3.775a14.81,14.81,0,0,0,2.615,1.326c4.424,1.626,10.959.675,10.959-5.876,0-5.076-6.134-4.551-7.542-6.127-.9-.95,0-2.326,1.81-2.326a5.3,5.3,0,0,1,3.017,1.176c.2-.225.8-1.451,1.005-1.725.3-.6.6-1.251.9-1.876l-.2-.15a16.47,16.47,0,0,0-2.212-.875,11.2,11.2,0,0,0-3.721-.45,5.884,5.884,0,0,0-5.931,5.926Z" transform="translate(-2063.068 -179.064)" fill="#393185" fill-rule="evenodd"/><path d="M3526.46,205.771v.05l-.1.075c0,.025,0,.05-.1.05a.237.237,0,0,1-.1.226,1.211,1.211,0,0,0-.2.475,4.707,4.707,0,0,0-.5.925,9.657,9.657,0,0,0-1.005,1.95l1.709.975a8.174,8.174,0,0,0,2.011.725c4.424,1.1,10.155-.524,9.753-6.526-.3-5.176-6.838-4.2-7.742-6.2-.6-1.251,1.307-2.9,4.223-1.351.4.2.5.426.905.55a19.982,19.982,0,0,1,.906-1.8,16.293,16.293,0,0,0,.9-1.9c-.5-.151-1.206-.55-1.91-.775-3.518-1.2-8.144-.876-9.653,3a5.891,5.891,0,0,0,0,4.7c1.308,3,5.833,2.424,7.039,4a1.548,1.548,0,0,1-.1,2.025,2.871,2.871,0,0,1-2.212.65c-1.81-.125-2.715-1.075-3.821-1.825Z" transform="translate(-3272.845 -178.852)" fill="#393185" fill-rule="evenodd"/><path d="M4656.575,237.314c-.646.7-3.389,1.923-2.744,5.555a4.249,4.249,0,0,0,.887,2,4.772,4.772,0,0,0,3.874,1.539,5.311,5.311,0,0,0,3.068-.985,5.922,5.922,0,0,1,.725-.65,25.105,25.105,0,0,0,1.937,1.611l1.374-3.246a5.715,5.715,0,0,1-1.374-1.107,13.634,13.634,0,0,0,.969-2.908l-2.5-.987a10.513,10.513,0,0,0-.485,1.54l-1.613-2c.081-.048.081-.072.161-.121a6.666,6.666,0,0,0,1.452-1.346c1.938-2.645.485-5.532-2.421-5.94a3.928,3.928,0,0,0-4.6,4.929,9.961,9.961,0,0,0,1.291,2.117Zm1.856,6.012c-1.695,0-2.179-2.862-.485-3.943.242.144,2.342,2.574,2.583,2.91A2.623,2.623,0,0,1,4658.431,243.325Zm.725-7.5a3.085,3.085,0,0,1-1.049-1.683c-.081-.914.484-1.42,1.21-1.348.807.072,2.019,1.588-.162,3.03Z" transform="translate(-4321.511 -213.784)" fill="#393185" fill-rule="evenodd"/><path d="M1594.94,216.733H1605.5l-.1-3.825-5.631-.05v-3.2h5.329v-3.926h-5.329v-3.05l5.731-.025-.1-3.851-10.457-.025Z" transform="translate(-1481.08 -184.589)" fill="#393185" fill-rule="evenodd"/><path d="M4089.051,211.016V205.54a7.077,7.077,0,0,1-2.413,1.651,4.925,4.925,0,0,1-6.736-4.65c.1-3.8,3.719-5.577,6.836-4.5,1.307.475,1.409.927,2.212,1.626l.1-5.6a13.205,13.205,0,0,0-5.229-.875,9.4,9.4,0,0,0-4.524,1.576,9.276,9.276,0,0,0,0,15.7c4.122,2.7,9.35,1.2,9.752.549Z" transform="translate(-3784.058 -179.372)" fill="#393185" fill-rule="evenodd"/><path d="M3739.93,202.656l3.92.026v14.076h4.726V202.682h4.022v-3.9H3739.93Z" transform="translate(-3472.942 -184.589)" fill="#393185" fill-rule="evenodd"/><path d="M2579.41,216.443h10.155l.4-.025v-3.825l-5.73-.05V198.49l-4.827-.05Z" transform="translate(-2395.27 -184.274)" fill="#393185" fill-rule="evenodd"/><path d="M3404.73,216.733l.3.05,4.524-.025V198.78h-4.826Z" transform="translate(-3161.672 -184.589)" fill="#393185" fill-rule="evenodd"/><path d="M3956.83,216.443h4.725V198.465l-.3-.025-4.422.025Z" transform="translate(-3674.358 -184.274)" fill="#393185" fill-rule="evenodd"/><path d="M2103.37,216.733l.3.05,4.423-.025V198.78h-4.725Z" transform="translate(-1953.214 -184.589)" fill="#393185" fill-rule="evenodd"/><g transform="translate(93.909 38.648)"><path d="M3758.22,567.212a20.709,20.709,0,0,0,3.759-.125l1.187-9.976c.3.124,3.264,9.751,3.363,10.1h1.583l1.682-5.076a35.152,35.152,0,0,1,1.78-5.1l.989,10.127,3.759.05-2.177-17.953-3.759-.049-3.066,9.475-.1-.249c-.4-.9-2.77-9.128-2.77-9.226h-3.758Z" transform="translate(-3583.835 -548.651)" fill="#393185" fill-rule="evenodd"/><path d="M2135.73,549.284v17.928h3.858v-10.9c.3.375.593.9.89,1.351l5.144,8.252c.3.6.5,1.3,1.088,1.3h3.462v-18h-3.759v10.876a22.186,22.186,0,0,1-1.681-2.651l-5.143-8.225-3.858.074Z" transform="translate(-2077.173 -548.651)" fill="#393185" fill-rule="evenodd"/><path d="M1411.061,567.2h3.759V556.275l.2.326a.584.584,0,0,1,.2.325l1.286,2.1c.693.925,1.187,1.775,1.781,2.725.592.925,1.187,1.85,1.68,2.751a25.176,25.176,0,0,0,1.78,2.7h3.66v-18h-3.759v10.876c-.593-.625-5.934-9.777-6.825-10.852l-3.759-.024v18Z" transform="translate(-1404.236 -548.641)" fill="#393185" fill-rule="evenodd"/><path d="M3082.07,566.793l3.759-.025v-10.8c.3.2.3.374.494.674l5.935,9.552c.2.225.3.624.593.624l3.562-.05v-17.9a26.832,26.832,0,0,0-3.759-.025v10.827a28.312,28.312,0,0,1-1.781-2.7c-1.385-2.451-3.166-5.1-4.65-7.526-.1-.15-.1-.175-.2-.325-.2-.276-.1-.2-.3-.3h-3.659v17.977Z" transform="translate(-2955.955 -548.257)" fill="#393185" fill-rule="evenodd"/><path d="M4043.054,541.518c-5.144.7-7.32,6.1-6.925,10.651.5,4.8,3.758,9.152,9.1,8.4,4.551-.651,7.32-5.476,6.827-10.7-.4-4.75-3.66-9.076-9-8.35Zm.592,4.525c2.572-.324,4.352,2.1,4.55,4.5.1,2.526-1.187,5.251-3.66,5.5C4039,556.645,4038.4,546.719,4043.646,546.043Z" transform="translate(-3841.864 -541.434)" fill="#393185" fill-rule="evenodd"/><path d="M2831.658,541.458a7.517,7.517,0,0,0-3.167,1.224,8.853,8.853,0,0,0-2.076,2.3,11.427,11.427,0,0,0-1.583,7.151c.4,4.8,3.759,9.152,9.1,8.377,4.45-.651,7.22-5.426,6.726-10.651-.4-4.752-3.66-9.152-9-8.4Zm.593,4.55c2.572-.425,4.353,1.975,4.551,4.325.3,2.725-1.187,5.226-3.364,5.625-2.77.475-4.451-1.975-4.749-4.325-.3-2.776,1.287-5.251,3.562-5.627Z" transform="translate(-2717.017 -541.374)" fill="#393185" fill-rule="evenodd"/><path d="M4653.3,566.717l3.858.025v-6.726l3.462,6.726,4.648.025c-.494-1.175-3.66-5.926-4.352-7.326.3-.225.79-.3,1.286-.675a3.733,3.733,0,0,0,.891-1.05c1.582-2.576.99-7.576-2.078-8.677a11.316,11.316,0,0,0-3.66-.275,36.306,36.306,0,0,0-4.055.049v17.9Zm3.858-14.378c1.78,0,2.868.3,2.868,2.2,0,2-1.286,2.276-2.868,2.276Z" transform="translate(-4415.017 -548.205)" fill="#393185" fill-rule="evenodd"/><path d="M1945.9,548.694v17.928h3.759v-6.776l3.562,6.751,4.648-.025-4.45-7.276s.1-.05.1-.025v-.05c.2-.1,0,0,.2-.076a3.522,3.522,0,0,0,1.979-1.6c1.484-2.476,1.088-7.3-2.077-8.6-1.286-.55-5.935-.324-7.716-.324v.074Zm3.759,3.5a3.213,3.213,0,0,1,2.177.426,2.578,2.578,0,0,1,0,3.625,3.528,3.528,0,0,1-2.177.426Z" transform="translate(-1900.895 -548.061)" fill="#393185" fill-rule="evenodd"/><path d="M3306.52,567.212h3.858c.4-.125.792-3,1.286-3.125h4.847c.3.076.99,2.726,1.089,3.125h4.055l-5.44-18h-4.155l-5.539,18Zm7.517-12.327a52.424,52.424,0,0,1,1.583,5.625l-3.066-.025Z" transform="translate(-3164.382 -548.651)" fill="#393185" fill-rule="evenodd"/><path d="M2361.561,567.162l3.956.05.99-3.125h5.144l.891,3.1,4.055.025-5.44-17.978-4.055-.024-5.54,17.952Zm7.517-12.2a43.34,43.34,0,0,1,1.485,5.55l-3.067-.025Z" transform="translate(-2286.881 -548.651)" fill="#393185" fill-rule="evenodd"/><path d="M4278.313,566.7c3.462.025,2.868.326,3.364-1l2.67-7.926c.494-1.5,2.77-7.978,3.066-9.051-4.846,0-3.957-.376-4.45,1.25-.2.45-.3.85-.5,1.349l-2.573,8.028c-.1.225,0,.1-.1.2l-3.362-10.8-4.154-.024,6.033,17.977Z" transform="translate(-4061.198 -548.163)" fill="#393185" fill-rule="evenodd"/><path d="M4836.392,556.524l-1.582,3.7a8.014,8.014,0,0,0,3.065,1.8c4.057,1.177,7.915-1.075,7.617-6.6a4.733,4.733,0,0,0-1.484-3.375c-1.978-1.55-4.154-1.426-4.648-2.725a1.49,1.49,0,0,1,.593-1.7c1.483-1.05,3.166.675,3.561.85l1.385-3.577c-1.286-1.274-5.242-2.274-7.32-.624a7.021,7.021,0,0,0-1.879,7.376c.989,3.076,4.648,2.451,5.638,4.1,1.286,2.2-1.879,3.85-4.252,1.4a7.488,7.488,0,0,0-.693-.625Z" transform="translate(-4583.57 -543.263)" fill="#393185" fill-rule="evenodd"/><path d="M4505.03,567.212h8.31v-3.9h-4.45v-3.2l4.153-.026v-3.9h-4.153V553.16l4.45-.025V549.21h-8.31Z" transform="translate(-4277.332 -548.651)" fill="#393185" fill-rule="evenodd"/><path d="M1797.65,567.187l8.209-.025v-3.825l-4.45-.025v-3.226a39.226,39.226,0,0,0,4.253-.05v-3.825l-4.253-.025v-3.051l4.45-.025v-3.851l-8.209-.049v17.977Z" transform="translate(-1763.228 -548.651)" fill="#393185" fill-rule="evenodd"/><path d="M2576.33,553.085l3.067.05v14.077h3.759V553.135h2.769l.395-.025v-3.876l-9.99-.024Z" transform="translate(-2486.319 -548.651)" fill="#393185" fill-rule="evenodd"/><path d="M1635.52,553.085l3.067.05v14.077h3.759V553.135h2.769l.3-.025v-3.876l-9.891-.024Z" transform="translate(-1612.672 -548.651)" fill="#393185" fill-rule="evenodd"/><path d="M3540.68,567.162l.4.05h7.913v-3.9h-4.452V549.234l-3.857-.024Z" transform="translate(-3381.826 -548.651)" fill="#393185" fill-rule="evenodd"/><path d="M2738.44,567.212h3.759v-18h-3.759Z" transform="translate(-2636.856 -548.651)" fill="#393185" fill-rule="evenodd"/><path d="M1315.47,549.293v17.929h3.759v-18h-3.759Z" transform="translate(-1315.47 -548.66)" fill="#393185" fill-rule="evenodd"/></g><path d="M2052.112,947.366a9.249,9.249,0,0,1-6,2.006,6.608,6.608,0,0,1-4.125-1.229,3.8,3.8,0,0,1-1.608-3.156,6.429,6.429,0,0,1,1.164-3.652,8.612,8.612,0,0,1,3.047-2.768,7.619,7.619,0,0,1,3.7-1.037,4.053,4.053,0,0,1,2.478.71,2.2,2.2,0,0,1,.96,1.849,3.392,3.392,0,0,1-1.16,2.562,3.843,3.843,0,0,1-2.711,1.085,2.492,2.492,0,0,1-1.342-.329.972.972,0,0,1-.523-.842,1.073,1.073,0,0,1,.45-.82,1.072,1.072,0,0,0,.924.485,2.083,2.083,0,0,0,1.559-.817,2.656,2.656,0,0,0,.72-1.787,1.384,1.384,0,0,0-1.479-1.479,3.291,3.291,0,0,0-2.081.948,7.581,7.581,0,0,0-1.848,2.434,6.367,6.367,0,0,0-.739,2.826,3.565,3.565,0,0,0,1.243,2.8,4.6,4.6,0,0,0,3.159,1.1,5.277,5.277,0,0,0,2.191-.44,8.1,8.1,0,0,0,2.024-1.383Zm143.242-4.785q.726-.147,1.461-.24c.488-.063.781-.094.88-.094.069,0,.1.023.1.064a.462.462,0,0,1-.086.254,1.744,1.744,0,0,0-.171.717,2.181,2.181,0,0,0,.637,1.159,2.182,2.182,0,0,1,.631,1.366,3.154,3.154,0,0,1-1.54,2.406,5.244,5.244,0,0,1-3.189,1.159,2.888,2.888,0,0,1-1.3-.292c-.39-.2-.587-.4-.587-.628,0-.131.192-.379.583-.741s.666-.548.834-.548c.222,0,.423.223.6.67a.922.922,0,0,0,.9.669,1.85,1.85,0,0,0,1.2-.463,1.3,1.3,0,0,0,.563-1,2.385,2.385,0,0,0-.706-1.368,5.743,5.743,0,0,1-.949-1.436,23.716,23.716,0,0,1-3.087,3.128h-.028v.016a14.865,14.865,0,0,1-2.284,1.5,4.1,4.1,0,0,1-1.838.485,1.914,1.914,0,0,1-1.461-.594,2.058,2.058,0,0,1-.545-1.231,3.43,3.43,0,0,1-.79.367,2.468,2.468,0,0,1-2.292-.3,4.478,4.478,0,0,1-3.463,1.763,2.752,2.752,0,0,1-1.974-.713,2.32,2.32,0,0,1-.679-1.187,16.45,16.45,0,0,1-2.187,1.488,3.074,3.074,0,0,1-1.4.413,1.412,1.412,0,0,1-1.177-.565,2.718,2.718,0,0,1-.448-1.653,6.4,6.4,0,0,1-1.869,1.653,3.842,3.842,0,0,1-1.83.565,2.192,2.192,0,0,1-1.573-.66,2.086,2.086,0,0,1-.68-1.544,4.577,4.577,0,0,1,1.7-3.394,5.347,5.347,0,0,1,3.664-1.561,2.328,2.328,0,0,1,.853.126,2.674,2.674,0,0,1,.678.429l1.5-4.921a18.033,18.033,0,0,1,2.468-.317c.139,0,.208.044.208.131q0,.088-.52,1.7-2.086,6.423-2.085,7.764a.746.746,0,0,0,.168.507.556.556,0,0,0,.437.189,4.054,4.054,0,0,0,2.016-1.2,4,4,0,0,1,1.7-3.058,6.347,6.347,0,0,1,4.062-1.341,4.031,4.031,0,0,1,1.3.153.855.855,0,0,1,.512.358,1.319,1.319,0,0,1,.094.521,9.2,9.2,0,0,1-1.071,3.786,1.886,1.886,0,0,0,1.12.385,2.779,2.779,0,0,0,1.588-.791,8.7,8.7,0,0,1,.484-1.658l.456-1.248-.82.034.337-1.289,1-.034.987-2.546,2.815-.448-1.091,2.841,1.475-.064-.348,1.254-1.623.1-.7,1.849a4.623,4.623,0,0,0-.363,1.525.843.843,0,0,0,.881.875,2.324,2.324,0,0,0,1.061-.265,9.761,9.761,0,0,0,1.542-1.107v0a12.038,12.038,0,0,0,3.248-3.868Zm-12.583.2a1.6,1.6,0,0,0-.45-.05,2.455,2.455,0,0,0-2.138,1.123,4.533,4.533,0,0,0-.77,2.624,2.153,2.153,0,0,0,.337,1.294,1.081,1.081,0,0,0,.934.463,2.316,2.316,0,0,0,1.615-1.073,2.918,2.918,0,0,1-1-2.1,2.733,2.733,0,0,1,1.468-2.28Zm-13.452,5.034a2.429,2.429,0,0,0,1.916-1.366,4.731,4.731,0,0,0,.892-2.556,1.065,1.065,0,0,0-.28-.775.959.959,0,0,0-.728-.287q-.972,0-1.887,1.426a4.947,4.947,0,0,0-.909,2.58.96.96,0,0,0,.269.717.983.983,0,0,0,.726.261Zm-10.4-.434a12.829,12.829,0,0,1-2.392,1.5,5.54,5.54,0,0,1-2.339.485,3.535,3.535,0,0,1-2.3-.71,2.315,2.315,0,0,1-.732-1.005,6.772,6.772,0,0,1-3.739,1.716,1.811,1.811,0,0,1-1.181-.379,1.179,1.179,0,0,1-.466-.959,6.479,6.479,0,0,1,.966-2.76,3.83,3.83,0,0,0,.513-1.255c0-.223-.137-.335-.408-.335a2.879,2.879,0,0,0-1.217.443,10.338,10.338,0,0,0-1.676,1.214,15.191,15.191,0,0,0-.369,3.607l-2.335.423a12,12,0,0,1-.136-1.827,14.177,14.177,0,0,1-2.071,1.341,4.1,4.1,0,0,1-1.838.485,1.915,1.915,0,0,1-1.461-.594,2.175,2.175,0,0,1-.562-1.564,6.681,6.681,0,0,1,.538-2.247l.456-1.248-.821.034.337-1.289,1-.034.989-2.546,2.815-.448-1.092,2.841,1.475-.064-.347,1.254-1.623.1-.7,1.849a4.621,4.621,0,0,0-.361,1.525.841.841,0,0,0,.88.875,2.329,2.329,0,0,0,1.061-.265,8.751,8.751,0,0,0,1.361-.958,11.624,11.624,0,0,1,.83-3.626,19.039,19.039,0,0,1,2.708-4.457c.917-.29,1.712-.525,2.392-.708a9.309,9.309,0,0,1,1.171-.273.542.542,0,0,1,.458.342,1.787,1.787,0,0,1,.189.862,3.616,3.616,0,0,1-.68,1.925,17.7,17.7,0,0,1-2.141,2.543c.934-.418,1.558-.68,1.865-.79a2.864,2.864,0,0,1,.954-.164,1.264,1.264,0,0,1,.87.3,1.025,1.025,0,0,1,.329.792,5.934,5.934,0,0,1-.759,2.278,6.647,6.647,0,0,0-.76,1.937.482.482,0,0,0,.468.466,4.263,4.263,0,0,0,1.981-1.154v-.076a4.183,4.183,0,0,1,1.542-3.14,4.972,4.972,0,0,1,3.421-1.4,2.773,2.773,0,0,1,1.562.392,1.192,1.192,0,0,1,.587,1.03q0,1.688-4.6,2.743a2.022,2.022,0,0,0,2.189,1.606,3.132,3.132,0,0,0,1.318-.29,11.215,11.215,0,0,0,1.891-1.283v.937Zm-5.479-1.523q2.664-.587,2.664-2.163c0-.523-.243-.781-.728-.781a1.722,1.722,0,0,0-1.314.817A3.425,3.425,0,0,0,2153.441,945.86Zm-9.2-1.843q3.744-3.4,3.743-5.011c0-.325-.115-.49-.347-.49q-.574,0-1.644,1.61a14.393,14.393,0,0,0-1.752,3.89Zm-15.669,3.349a8.6,8.6,0,0,1-3.185,1.6,8.388,8.388,0,0,1-2.209,3.259,4.31,4.31,0,0,1-2.836,1.144,2.045,2.045,0,0,1-1.322-.4,1.27,1.27,0,0,1-.5-1.05,1.936,1.936,0,0,1,1-1.57,11.691,11.691,0,0,1,3.4-1.339l.452-1.611a10.885,10.885,0,0,1-1.74,1.294,2.993,2.993,0,0,1-1.479.413,1.808,1.808,0,0,1-1.425-.638,2.2,2.2,0,0,1-.481-.968,6.909,6.909,0,0,1-4.011,1.873,1.638,1.638,0,0,1-1.131-.384,1.319,1.319,0,0,1-.43-1.031,6.854,6.854,0,0,1,.924-2.688,4.105,4.105,0,0,0,.495-1.237.233.233,0,0,0-.265-.263.973.973,0,0,0-.387.115,5.118,5.118,0,0,0-.516.321c-.176.125-.368.278-.587.457-.186.153-.39.329-.61.525l-.587.533a1.613,1.613,0,0,0-.483.78,9.879,9.879,0,0,0-.207,1.276q-.033.435-.034,1.172l-2.313.425c-.075-.735-.115-1.281-.115-1.642,0-.049,0-.1,0-.147-1.511,1.192-2.649,1.789-3.421,1.789a1.437,1.437,0,0,1-1.131-.534,1.949,1.949,0,0,1-.462-1.256,14.019,14.019,0,0,1-2.022,1.305,4.109,4.109,0,0,1-1.838.485,1.913,1.913,0,0,1-1.461-.594,2.068,2.068,0,0,1-.548-1.261,11.511,11.511,0,0,1-2.282,1.374,5.844,5.844,0,0,1-2.332.482,3.545,3.545,0,0,1-2.252-.694,2.182,2.182,0,0,1-.812-1.177,12.419,12.419,0,0,1-2.234,1.386,5.542,5.542,0,0,1-2.339.485,3.536,3.536,0,0,1-2.3-.71,2.287,2.287,0,0,1-.8-1.24,7.036,7.036,0,0,1-4.106,1.951,1.634,1.634,0,0,1-1.131-.384,1.314,1.314,0,0,1-.43-1.031,6.83,6.83,0,0,1,.924-2.688,4.123,4.123,0,0,0,.493-1.237.233.233,0,0,0-.264-.263.979.979,0,0,0-.387.115,5.174,5.174,0,0,0-.517.321c-.175.125-.368.278-.587.457-.186.154-.39.329-.609.525l-.587.532a1.6,1.6,0,0,0-.483.78,10.016,10.016,0,0,0-.208,1.276q-.032.435-.032,1.172l-2.314.426c-.075-.735-.115-1.281-.115-1.642v-.115a6.711,6.711,0,0,1-3.864,1.756,1.638,1.638,0,0,1-1.132-.384,1.318,1.318,0,0,1-.43-1.031,6.839,6.839,0,0,1,.925-2.688,4.123,4.123,0,0,0,.493-1.237.233.233,0,0,0-.266-.263.98.98,0,0,0-.386.115,5.118,5.118,0,0,0-.516.321c-.175.125-.368.278-.587.457-.186.154-.39.329-.609.525l-.588.532a1.614,1.614,0,0,0-.483.78,10.43,10.43,0,0,0-.208,1.276c-.021.29-.032.68-.032,1.172l-2.314.426c-.075-.735-.115-1.281-.115-1.642,0-.064,0-.129,0-.192a3.462,3.462,0,0,1-.8.376,2.893,2.893,0,0,1-.794.153,2.84,2.84,0,0,1-1.5-.458,4.477,4.477,0,0,1-3.463,1.762,2.757,2.757,0,0,1-1.974-.713,2.482,2.482,0,0,1-.755-1.893,3.976,3.976,0,0,1,1.7-3.212,6.345,6.345,0,0,1,4.061-1.341,4.036,4.036,0,0,1,1.3.153.86.86,0,0,1,.512.358,1.294,1.294,0,0,1,.093.521,9.2,9.2,0,0,1-1.071,3.786,1.884,1.884,0,0,0,1.12.385,2.869,2.869,0,0,0,1.646-.839,7.486,7.486,0,0,1,.314-1.336,13.986,13.986,0,0,1,1.261-2.643l2.557-.386a15.818,15.818,0,0,0-1.061,2.646,18.667,18.667,0,0,1,2.733-2.068,3.737,3.737,0,0,1,1.8-.578,1.316,1.316,0,0,1,.892.315,1,1,0,0,1,.354.785,6.987,6.987,0,0,1-.906,2.594,5.094,5.094,0,0,0-.623,1.614c0,.331.171.5.516.5a4.467,4.467,0,0,0,2.261-1.374,7.549,7.549,0,0,1,.324-1.4,14,14,0,0,1,1.259-2.643l2.559-.385a15.723,15.723,0,0,0-1.061,2.646,18.686,18.686,0,0,1,2.732-2.068,3.741,3.741,0,0,1,1.8-.578,1.316,1.316,0,0,1,.892.315,1,1,0,0,1,.354.785,6.976,6.976,0,0,1-.906,2.594,5.1,5.1,0,0,0-.624,1.614q0,.5.517.5.742,0,2.367-1.47a4.258,4.258,0,0,1,1.536-2.9,4.972,4.972,0,0,1,3.42-1.4,2.773,2.773,0,0,1,1.562.392,1.189,1.189,0,0,1,.587,1.03q0,1.688-4.6,2.743a2.021,2.021,0,0,0,2.188,1.606,3.133,3.133,0,0,0,1.318-.29,10.155,10.155,0,0,0,1.673-1.114,4.458,4.458,0,0,1,1.617-2.92,5.161,5.161,0,0,1,3.529-1.481,2.617,2.617,0,0,1,1.519.4,1.228,1.228,0,0,1,.587,1.052.473.473,0,0,1-.111.342,1.188,1.188,0,0,1-.413.228l-1.217.448a1.074,1.074,0,0,1-.325.081c-.1,0-.147-.053-.147-.164a4.3,4.3,0,0,1,.064-.426,3.775,3.775,0,0,0,.065-.447.846.846,0,0,0-.194-.58.654.654,0,0,0-.519-.221,1.768,1.768,0,0,0-1.4.887,3.4,3.4,0,0,0-.635,2.02,2.091,2.091,0,0,0,.6,1.562,2.193,2.193,0,0,0,1.6.583,3.5,3.5,0,0,0,1.6-.379,9.383,9.383,0,0,0,1.578-1.058,8.993,8.993,0,0,1,.47-1.58l.455-1.248-.82.034.336-1.289,1-.034.987-2.546,2.815-.448-1.092,2.841,1.476-.064-.348,1.254-1.622.1-.7,1.849a4.62,4.62,0,0,0-.362,1.525.843.843,0,0,0,.882.875,2.322,2.322,0,0,0,1.059-.265,8.739,8.739,0,0,0,1.366-.962,15.417,15.417,0,0,1,1.419-3.911l2.668-.432h.126l-1.05,2.554a7.07,7.07,0,0,0-.648,2.262.627.627,0,0,0,.151.438.5.5,0,0,0,.384.167,1.677,1.677,0,0,0,.823-.229,8.427,8.427,0,0,0,1.133-.844,7.533,7.533,0,0,1,.316-1.351,14,14,0,0,1,1.26-2.643l2.557-.385a15.743,15.743,0,0,0-1.061,2.646,18.654,18.654,0,0,1,2.733-2.068,3.735,3.735,0,0,1,1.8-.578,1.316,1.316,0,0,1,.893.315,1,1,0,0,1,.354.785,6.987,6.987,0,0,1-.906,2.594,5.072,5.072,0,0,0-.623,1.614c0,.331.17.5.515.5a4.486,4.486,0,0,0,2.268-1.379,4.281,4.281,0,0,1,1.629-2.965,5.143,5.143,0,0,1,3.473-1.461,2.718,2.718,0,0,1,1.805.669c.315-.089.727-.224,1.227-.4l.749-.268h.24a11.858,11.858,0,0,0-.634,1.89l-.992,4.115a7.577,7.577,0,0,0,2.9-1.79v.937Zm-6.751.268a1.7,1.7,0,0,0,1.321-.688,4.844,4.844,0,0,0,.9-1.746,5.958,5.958,0,0,0,.319-1.466.85.85,0,0,0-.243-.631.823.823,0,0,0-.616-.251,2.371,2.371,0,0,0-1.941,1.171,4.1,4.1,0,0,0-.826,2.384,1.3,1.3,0,0,0,.3.9,1.023,1.023,0,0,0,.794.332Zm.88,2.1q-3.389.944-3.392,2.189a.73.73,0,0,0,.283.6,1.1,1.1,0,0,0,.723.235,1.615,1.615,0,0,0,1.314-.745,8.423,8.423,0,0,0,1.071-2.277Zm-14.676-10.677q0,1.956-1.855,1.956a2.735,2.735,0,0,1-1.541-.423,5.465,5.465,0,0,0,.946-1.617,3.279,3.279,0,0,0,1.328.4,2.245,2.245,0,0,0,1.122-.317Zm-23.918,6.808q2.664-.587,2.666-2.163c0-.523-.244-.781-.728-.781a1.723,1.723,0,0,0-1.314.817A3.416,3.416,0,0,0,2084.108,945.861Zm-26.037-3.078a1.6,1.6,0,0,0-.45-.05,2.456,2.456,0,0,0-2.139,1.123,4.533,4.533,0,0,0-.77,2.624,2.148,2.148,0,0,0,.337,1.294,1.082,1.082,0,0,0,.934.463,2.319,2.319,0,0,0,1.615-1.073,2.914,2.914,0,0,1-1-2.1A2.733,2.733,0,0,1,2058.071,942.783Z" transform="translate(-1894.72 -870.601)" fill="#434242"/><path d="M1315.47,891.766H1577.4V890.42H1315.47Z" transform="translate(-1221.561 -826.854)" fill="#434242"/><path d="M400.2,388.85l11.506,11.506L400.356,411.71,388.85,400.2Z" transform="translate(-361.091 -361.091)" fill="#393185"/><path d="M216.472,612.074l-11.721-11.721-13.3-13.3,11.721-11.72,13.3,13.3,13.454-13.454,11.72,11.72-13.454,13.454Z" transform="translate(-177.783 -534.119)" fill="#00a0e3"/><path d="M781.564,389.51,769.42,401.654l-11.72-11.72,12.144-12.144Z" transform="translate(-703.609 -350.82)" fill="#00a0e3"/><path d="M64.287,25.022,52.144,37.166l-13.3-13.3L11.72,50.986,0,39.266,27.122,12.144,39.266,0h0l11.72,11.72Z" fill="#00a0e3"/><path d="M442.638,503.439h-1.483l-.2,1.041H439.62l1.585-6.3h1.42l1.583,6.3h-1.363Zm-.273-1.362-.465-2.265-.462,2.265Zm2.1-3.9h1.3v4.748H447.8v1.552h-3.335Zm3.82,0h1.3v6.3h-1.3Zm2.067,0h1.711l.663,3.832.657-3.832h1.707v6.3h-1.063v-4.805l-.824,4.805h-.964l-.82-4.805v4.805h-1.066Z" transform="translate(-408.236 -462.616)" fill="#fefefe"/></svg>