<svg xmlns="http://www.w3.org/2000/svg" width="38.333" height="38.333" viewBox="0 0 38.333 38.333"><path d="M1,2.742A1.742,1.742,0,0,1,2.742,1H4.51a12.2,12.2,0,0,1,8.625,3.572l4.846,4.846,12.5-4.862a5.227,5.227,0,0,1,5.591,1.176L38.823,8.48a1.742,1.742,0,0,1-.378,2.751L26.375,18.02l4.064,4.644,3.943-.563a4.207,4.207,0,0,1,3.569,7.139L29.24,37.952A4.207,4.207,0,0,1,22.1,34.382l.563-3.943L18.02,26.375l-6.789,12.07a1.742,1.742,0,0,1-2.751.378L5.732,36.075a5.227,5.227,0,0,1-1.176-5.591l4.862-12.5L4.572,13.135A12.2,12.2,0,0,1,1,4.51ZM4.485,4.485V4.51a8.712,8.712,0,0,0,2.552,6.16l5.65,5.65a1.742,1.742,0,0,1,.392,1.864L7.8,31.747A1.743,1.743,0,0,0,8.2,33.611L9.32,34.734,16.034,22.8A1.742,1.742,0,0,1,18.7,22.34l6.97,6.1A1.742,1.742,0,0,1,26.248,30l-.7,4.879a.722.722,0,0,0,1.225.612l8.712-8.712a.722.722,0,0,0-.612-1.225l-4.879.7a1.742,1.742,0,0,1-1.558-.577l-6.1-6.97a1.743,1.743,0,0,1,.457-2.666L34.734,9.32,33.611,8.2A1.743,1.743,0,0,0,31.747,7.8L18.184,13.078a1.742,1.742,0,0,1-1.864-.392l-5.65-5.65A8.712,8.712,0,0,0,4.51,4.485Z" transform="translate(-1 -1)" fill="#393185" fill-rule="evenodd"/></svg>