<svg xmlns="http://www.w3.org/2000/svg" width="68.171" height="42.3" viewBox="0 0 68.171 42.3"><g transform="translate(0 414.632)"><path d="M22-412.9c-2.663.985-4.954,1.891-5.1,2.024a2.1,2.1,0,0,0-.4,2.517,53.537,53.537,0,0,0,5.247,4c2.743,1.984,4.954,3.636,4.914,3.676s-3,1.132-6.552,2.424-6.552,2.37-6.672,2.424c-.146.053-.985-.546-2.743-1.971-2.7-2.2-3.13-2.49-3.742-2.49a38.759,38.759,0,0,0-6.272,2.3A2.34,2.34,0,0,0,0-396.517c0,.28,2.53,7.458,3.436,9.735a11.514,11.514,0,0,0,6.033,6.033,11.644,11.644,0,0,0,6.459.626c.546-.12,3.782-1.225,7.2-2.477s6.232-2.237,6.259-2.2-.506,2.344-1.212,5.114-1.278,5.247-1.278,5.5a1.988,1.988,0,0,0,1.9,1.851c.506,0,9.855-3.3,10.454-3.7.413-.266.333-.093,3.769-7.937,1.665-3.8,3.063-6.925,3.09-6.952s4.182-1.558,9.229-3.4,9.522-3.529,9.948-3.742a5.687,5.687,0,0,0,2.7-6.312,6.036,6.036,0,0,0-3.01-3.715,20.86,20.86,0,0,0-13.277-1.478c-.8.173-2.877.839-4.634,1.478s-3.249,1.172-3.329,1.172-3.609-1.731-7.857-3.835c-6.472-3.209-7.83-3.835-8.39-3.875C26.914-414.668,26.235-414.455,22-412.9Zm10.907,5.127a57.256,57.256,0,0,1,5.447,2.863c-.107.04-1.691.613-3.516,1.278s-3.369,1.2-3.436,1.2-1.824-1.212-3.875-2.69c-4.594-3.289-5.021-3.609-4.967-3.662.027-.027,1.092-.439,2.357-.906s2.317-.852,2.33-.866S29.8-409.3,32.907-407.77Zm26.528,2.024a15.808,15.808,0,0,1,3.929,1.318,1.776,1.776,0,0,1,.772,1.718c-.16.985-.093.959-10.68,4.821-7.777,2.837-9.908,3.662-10.2,3.955a75.46,75.46,0,0,0-3.5,7.484c-1.7,3.915-3.2,7.165-3.289,7.231-.36.213-4.554,1.691-4.608,1.625-.04-.04.506-2.331,1.212-5.114s1.292-5.247,1.292-5.487a1.983,1.983,0,0,0-1.931-1.851c-.373,0-3.05.919-8.523,2.9-4.395,1.6-8.27,2.983-8.616,3.063a7.288,7.288,0,0,1-7.764-3.436c-.213-.4-.972-2.317-1.678-4.261L4.568-395.3l.985-.36.985-.373,2.49,2.024c2.623,2.144,3.183,2.5,3.8,2.5.213,0,8.949-3.116,19.43-6.925s19.563-7.058,20.2-7.218A17.075,17.075,0,0,1,59.434-405.745Z" fill="#0797ce"/></g></svg>