<svg xmlns="http://www.w3.org/2000/svg" width="54.558" height="41.144" viewBox="0 0 54.558 41.144"><path d="M26.621.119c-.02.03-.054.044-.074.035a13.937,13.937,0,0,0-1.66.114,21.745,21.745,0,0,0-2.273.455c-.287.074-.573.143-.731.178a.316.316,0,0,0-.163.069.244.244,0,0,1-.168.044c-.079,0-.158.02-.173.049a.2.2,0,0,1-.143.049.3.3,0,0,0-.153.04,1.347,1.347,0,0,1-.247.1c-.109.035-.242.079-.3.1s-.311.124-.568.227c-.445.173-1.4.6-1.606.721-.054.03-.252.138-.445.237a16.357,16.357,0,0,0-1.581.954c-.509.341-1.467,1.038-1.635,1.2-.03.025-.173.148-.321.272a20.186,20.186,0,0,0-1.8,1.739c-.262.272-.983,1.122-1.206,1.423-.069.089-.168.222-.227.292a14.383,14.383,0,0,0-.86,1.285.05.05,0,0,1-.044.054c-.025,0-.054.04-.074.084a3.19,3.19,0,0,1-.306.558A20.391,20.391,0,0,0,8.8,12.5c-.025.054-.084.2-.143.331a1.3,1.3,0,0,0-.1.287.4.4,0,0,1-.044.138,14.97,14.97,0,0,0-.7,2.095c-.025.1-.064.272-.089.371a19.27,19.27,0,0,0-.489,3.029l-.035.469-3.261.03c-1.794.015-3.32.044-3.394.064a.974.974,0,0,0-.534.791,1.8,1.8,0,0,0,.153.534.5.5,0,0,1,.044.183.173.173,0,0,0,.049.128.156.156,0,0,1,.049.128.5.5,0,0,0,.044.183c.025.044.173.484.326.973s.351,1.1.43,1.359.168.509.193.553a.45.45,0,0,1,.044.163.451.451,0,0,0,.044.163,2.115,2.115,0,0,1,.1.306,2.112,2.112,0,0,0,.1.306.45.45,0,0,1,.044.163.382.382,0,0,0,.049.163c.025.044.193.548.371,1.122s.351,1.077.376,1.122a.45.45,0,0,1,.044.163.451.451,0,0,0,.044.163,2.115,2.115,0,0,1,.1.306,2.112,2.112,0,0,0,.1.306.45.45,0,0,1,.044.163.451.451,0,0,0,.044.163c.025.044.193.548.376,1.122s.351,1.077.376,1.122a.45.45,0,0,1,.044.163.451.451,0,0,0,.044.163,2.112,2.112,0,0,1,.1.306,2.1,2.1,0,0,0,.1.306.45.45,0,0,1,.044.163.45.45,0,0,0,.044.163,5.879,5.879,0,0,1,.2.6c.42,1.354.544,1.556,1.018,1.665.306.074.42.044,1.255-.316a5.771,5.771,0,0,1,.544-.212c.094-.035.242-.089.321-.124s.262-.1.4-.148.292-.1.346-.124c.124-.054,2.1-.682,2.372-.751l.321-.089c.341-.114.385-.1.5.059a10.581,10.581,0,0,0,.657.83,18.256,18.256,0,0,0,1.235,1.354c.351.361.879.855,1.255,1.166.148.124.292.247.321.272s.277.217.548.425a21.84,21.84,0,0,0,2.668,1.724c.193.1.39.208.445.237.227.133,1.181.558,1.729.771.326.128.632.257.677.282a.5.5,0,0,0,.183.044.156.156,0,0,1,.128.049.209.209,0,0,0,.148.049c.064,0,.133.02.148.049a.255.255,0,0,0,.173.049.244.244,0,0,1,.168.044.316.316,0,0,0,.163.069c.188.04.479.109.805.2.242.064.435.109,1.26.282a16.6,16.6,0,0,0,2.149.267,3.1,3.1,0,0,1,.553.054c.109.044,2.174-.01,2.93-.069a19.6,19.6,0,0,0,3.335-.578c.148-.04.361-.1.469-.128a4.655,4.655,0,0,0,.628-.193A.5.5,0,0,1,34.2,40.2a.156.156,0,0,0,.128-.049.173.173,0,0,1,.128-.049.5.5,0,0,0,.183-.044c.044-.025.272-.119.5-.208a15.634,15.634,0,0,0,2.055-.939.155.155,0,0,1,.119-.044c.049,0,.1-.015.109-.04a1.942,1.942,0,0,1,.336-.2c.178-.094.5-.287.731-.435a3.175,3.175,0,0,1,.455-.262.045.045,0,0,0,.049-.04c0-.025.059-.074.138-.114a1.964,1.964,0,0,0,.306-.2l.568-.415c.356-.262.934-.731,1.408-1.136a21.362,21.362,0,0,0,2.416-2.569c.4-.509.376-.484.479-.43a3.862,3.862,0,0,0,.464.158c.613.183,1.7.544,1.789.593a.382.382,0,0,0,.163.049.442.442,0,0,1,.173.049c.054.025.143.069.2.1a.548.548,0,0,0,.173.049.451.451,0,0,1,.163.044,1.734,1.734,0,0,0,.208.089c.351.138.543.217.914.376.588.252.889.247,1.255-.01.2-.143.227-.212.672-1.586.208-.637.4-1.2.425-1.245a.555.555,0,0,0,.044-.208A.214.214,0,0,1,51,31.326c.03-.015.049-.084.049-.148a.209.209,0,0,1,.049-.148.156.156,0,0,0,.049-.128.5.5,0,0,1,.044-.183c.025-.044.217-.618.425-1.27s.4-1.23.415-1.285.094-.267.153-.469.128-.415.148-.469c.04-.1.81-2.475,1-3.088.054-.178.119-.366.138-.42s.109-.331.2-.618.326-1.018.529-1.63a4.784,4.784,0,0,0,.366-1.433c0-.183-.025-.326-.054-.336a.079.079,0,0,1-.054-.069c0-.094-.262-.277-.474-.331-.138-.035-1.166-.054-2.979-.054H48.243l-.035-.385a19.216,19.216,0,0,0-.548-3.246c-.109-.425-.168-.672-.2-.83a.316.316,0,0,0-.069-.163.16.16,0,0,1-.044-.124.5.5,0,0,0-.044-.183c-.025-.044-.1-.262-.168-.479a9.246,9.246,0,0,0-.455-1.186c-.074-.163-.168-.376-.208-.469-.193-.45-.692-1.413-.978-1.9A5.184,5.184,0,0,1,45.17,9.7a.045.045,0,0,0-.049-.04.054.054,0,0,1-.049-.054A19.1,19.1,0,0,0,43.1,6.993a20.473,20.473,0,0,0-1.695-1.7c-.435-.38-1.042-.87-1.4-1.136l-.568-.415a1.957,1.957,0,0,0-.306-.2c-.079-.04-.138-.089-.138-.114a.045.045,0,0,0-.049-.04,3.173,3.173,0,0,1-.455-.262c-.227-.148-.553-.341-.731-.435a1.566,1.566,0,0,1-.336-.208c-.01-.02-.059-.035-.109-.035a.156.156,0,0,1-.119-.044,7.776,7.776,0,0,0-1.166-.568c-.712-.316-.682-.3-1.013-.425-.163-.059-.336-.128-.38-.153a.5.5,0,0,0-.183-.044.173.173,0,0,1-.128-.049.156.156,0,0,0-.128-.049.5.5,0,0,1-.183-.044,1.638,1.638,0,0,0-.306-.1l-.346-.1A19.512,19.512,0,0,0,30.5.268,23.154,23.154,0,0,0,26.621.12h0ZM35.866,35.2a13.394,13.394,0,0,1-1.344,1.6A11.261,11.261,0,0,1,32.773,38.3c-.01.01,0,.03.01.049a.2.2,0,0,0,.148-.025c.059-.03.356-.138.652-.232s.588-.193.642-.217.158-.064.237-.1.193-.079.272-.109.178-.074.232-.094c.222-.084,1.507-.726,1.8-.9a3.394,3.394,0,0,1,.331-.188,2.521,2.521,0,0,0,.282-.168c.138-.089.376-.237.519-.331.237-.148.257-.168.178-.227a.357.357,0,0,0-.168-.064.2.2,0,0,1-.124-.044A12.05,12.05,0,0,0,36.6,35.2a1.126,1.126,0,0,1-.242-.1.548.548,0,0,0-.227-.04.245.245,0,0,0-.262.143h0ZM11.087,12.733a.194.194,0,0,0-.059.119,1.116,1.116,0,0,1-.094.252,10.027,10.027,0,0,0-.445,1.028c-.064.163-.128.341-.153.4s-.089.267-.148.469-.128.415-.148.469a1.307,1.307,0,0,0-.069.222c-.01.069-.044.212-.074.321a17.517,17.517,0,0,0-.558,3.681l-.015.469,3,.01,3,.015.01-.608c0-.331.015-.682.02-.776.049-.672.074-.939.1-1.112.015-.109.049-.4.074-.642a20.12,20.12,0,0,1,.469-2.7c.015-.02-.074-.059-.188-.089-.292-.074-.7-.193-1.028-.3-.148-.044-.371-.114-.494-.148s-.267-.079-.321-.1-.321-.109-.593-.193-.539-.178-.593-.2-.178-.069-.272-.1l-.272-.1c-.054-.025-.242-.1-.42-.168s-.4-.158-.5-.2c-.133-.054-.193-.059-.232-.02h0Zm13.607,3.123c-.04.2-.138,4.185-.1,4.264s6.226.089,6.275.015c.025-.04-.114-4.412-.138-4.427,0,0-.553.015-1.22.04-1.023.04-3.459.02-4.5-.03-.287-.015-.287-.015-.316.138ZM38.2,14.611c-.094.025-.227.054-.3.069s-.2.044-.3.069-.306.069-.469.1-.385.074-.494.1-.366.069-.568.1-.469.074-.593.1c-.361.064-1.472.227-1.853.272-.109.01-.519.059-.914.1s-.781.079-.855.079-.148.025-.163.064,0,.652.03,1.369.069,1.71.079,2.213l.02.914,3.656.01,3.656.015,0-.336a29.082,29.082,0,0,0-.242-3.123c-.025-.2-.064-.494-.079-.642a1.707,1.707,0,0,0-.069-.371,1.457,1.457,0,0,1-.069-.321,4.155,4.155,0,0,0-.153-.791c-.035-.059-.084-.054-.321.01Zm5.9-1.858c-.079.035-.361.143-.618.242s-.514.2-.568.227-.321.109-.593.2-.539.173-.593.2-.188.064-.3.1-.242.074-.3.094-.2.064-.321.1-.311.089-.42.124-.371.1-.583.153c-.371.089-.385.1-.366.217.084.435.143.746.188.963.03.133.069.38.094.544s.069.474.1.692c.089.6.138,1.1.2,2.05.03.474.069,1.008.089,1.186l.035.321,2.984.01,2.984.015-.035-.484a20.225,20.225,0,0,0-.376-2.925c-.049-.277-.252-1.047-.371-1.408-.03-.109-.089-.3-.124-.42a1.1,1.1,0,0,0-.109-.267.315.315,0,0,1-.04-.153.316.316,0,0,0-.04-.153.929.929,0,0,1-.109-.267,2.455,2.455,0,0,0-.1-.272,1.512,1.512,0,0,1-.1-.222,5.466,5.466,0,0,0-.43-.9.349.349,0,0,0-.188.044h0ZM32.768,2.985c0,.025.074.089.163.138A14.773,14.773,0,0,1,35.8,6c.257.371.371.474.44.405A.266.266,0,0,1,36.4,6.35a.2.2,0,0,0,.143-.049.141.141,0,0,1,.119-.049,3.5,3.5,0,0,0,.771-.272c.084-.035.282-.109.445-.173.479-.183.479-.193,0-.509a4.774,4.774,0,0,0-.45-.282.543.543,0,0,1-.158-.094,17.831,17.831,0,0,0-1.64-.9c-.178-.079-.405-.193-.509-.247a1.331,1.331,0,0,0-.237-.094,1.215,1.215,0,0,1-.257-.094c-.114-.049-.287-.119-.38-.153s-.217-.079-.272-.1c-.124-.049-1.146-.39-1.186-.39-.015,0-.025.02-.025.044ZM39.043,6.3c-.04.025-.173.089-.3.143s-.331.138-.459.2-.331.143-.445.183a5.809,5.809,0,0,0-.539.222.5.5,0,0,1-.183.044A.16.16,0,0,0,37,7.135a.391.391,0,0,1-.178.069c-.163.035-.193.133-.074.232a.784.784,0,0,1,.158.242,1.088,1.088,0,0,0,.114.2c.02.015.232.435.479.939.469.954.6,1.245.761,1.665.084.217.153.385.2.469a.472.472,0,0,1,.044.178.251.251,0,0,0,.04.133,2.28,2.28,0,0,1,.153.42c.064.2.133.415.153.469.049.133.277.9.316,1.072s.035.163.489.035c.193-.054.425-.124.5-.143.455-.133.8-.232.865-.257.04-.015.385-.128.766-.252.7-.227,1.038-.351,1.695-.608.346-.138.425-.227.311-.346a1.372,1.372,0,0,1-.148-.232c-.059-.1-.153-.267-.208-.371-.109-.188-.83-1.25-.884-1.295-.015-.015-.128-.163-.257-.336a19.682,19.682,0,0,0-3-3.088c-.119-.094-.143-.1-.252-.035h0ZM29.235,2.446a.49.49,0,0,0,.1.212.9.9,0,0,1,.124.217,1.914,1.914,0,0,0,.148.336,1.921,1.921,0,0,1,.148.361.347.347,0,0,0,.049.148,9.607,9.607,0,0,1,.346,1.023c.282,1.052.529,2.08.628,2.658.03.158.1.217.178.138a.565.565,0,0,1,.282-.054,3.662,3.662,0,0,0,.5-.044c.148-.03.435-.074.637-.1s.469-.074.593-.1c.494-.1,1.616-.356,1.779-.4.094-.025.232-.059.311-.074.119-.025.193-.114.094-.114-.02,0-.074-.059-.119-.138A13.148,13.148,0,0,0,33.7,4.966,10.6,10.6,0,0,0,32.279,3.78c-.03,0-.054-.02-.054-.04s-.059-.074-.133-.114a1.034,1.034,0,0,1-.163-.094,12.19,12.19,0,0,0-1.7-.84,2.27,2.27,0,0,1-.282-.1.555.555,0,0,0-.207-.044.2.2,0,0,1-.148-.044c-.035-.054-.321-.1-.351-.054h0Zm6.028,5.223c-.133.04-.331.094-.43.119-.731.178-1.2.287-1.472.336-.766.148-1.581.277-2.095.331l-.292.03.035.326c.02.183.054.464.079.628.168,1.087.351,2.91.489,4.793.03.435.03.445.153.435.153-.015,1.487-.158,1.754-.188.924-.1,1.739-.232,3.039-.479.44-.079.756-.143.939-.188.094-.025.306-.069.469-.1.366-.074.4-.1.331-.277-.03-.074-.109-.341-.183-.583s-.153-.524-.183-.618a1.991,1.991,0,0,0-.094-.257.5.5,0,0,1-.044-.188c0-.054-.02-.1-.049-.1s-.049-.069-.049-.148-.02-.148-.049-.148-.049-.044-.049-.1a.5.5,0,0,0-.044-.188c-.025-.044-.069-.153-.1-.232s-.079-.188-.1-.232a.4.4,0,0,1-.044-.138,21.189,21.189,0,0,0-1.023-2.125c-.069-.124-.168-.3-.222-.385-.252-.45-.277-.459-.756-.321h0ZM27.372,2.407a2.881,2.881,0,0,0-.519.731,7.689,7.689,0,0,0-.459,1.186c-.089.287-.178.563-.2.618s-.049.163-.069.247-.049.232-.074.331-.069.272-.1.371-.059.252-.074.336-.049.227-.074.321a5.473,5.473,0,0,0-.178,1.077,10.348,10.348,0,0,0,2.08.054c2.134,0,2.228,0,2.1-.232a.664.664,0,0,1-.054-.262,1.108,1.108,0,0,0-.049-.311c-.025-.084-.1-.41-.178-.721-.133-.588-.143-.618-.316-1.235-.484-1.675-1.038-2.668-1.5-2.668a.472.472,0,0,0-.341.158h0ZM25.361,8.959c-.035.208-.074.445-.084.529-.079.415-.252,1.957-.366,3.187-.025.287-.054.608-.069.716s-.035.41-.049.667a3.026,3.026,0,0,1-.054.548.11.11,0,0,0,.03.124,47.454,47.454,0,0,0,5.87-.01,1.98,1.98,0,0,0,0-.514c-.025-.257-.064-.761-.094-1.112-.114-1.344-.247-2.535-.4-3.557-.03-.217-.074-.519-.089-.667L30.026,8.6l-.766.025c-.889.03-2.856.02-3.439-.02l-.4-.025-.059.38Zm.613-6.5c-.109.025-.257.054-.336.074a.316.316,0,0,0-.163.069.2.2,0,0,1-.143.044c-.064,0-.133.02-.148.049a.142.142,0,0,1-.109.049,8.953,8.953,0,0,0-1.719.889A9.146,9.146,0,0,0,21.8,4.892a12.912,12.912,0,0,0-1.537,1.789c0,.044.094.074.815.257A17.4,17.4,0,0,0,24.62,7.5a1.566,1.566,0,0,0,.094-.356c.084-.459.138-.731.2-.988.03-.124.074-.311.1-.42s.089-.376.148-.593.119-.455.133-.534a.316.316,0,0,1,.069-.163.2.2,0,0,0,.044-.143.209.209,0,0,1,.049-.148.156.156,0,0,0,.049-.128.584.584,0,0,1,.049-.193c.03-.054.074-.143.1-.2a.4.4,0,0,0,.049-.148,4.2,4.2,0,0,1,.247-.553,4.971,4.971,0,0,0,.232-.509,1.731,1.731,0,0,0-.208.035ZM19.585,7.669c-.054.079-.193.316-.311.534s-.257.459-.3.544c-.094.163-.3.578-.44.9-.049.119-.138.306-.188.42-.247.558-.3.692-.469,1.136a3.937,3.937,0,0,0-.178.548.127.127,0,0,1-.049.109.209.209,0,0,0-.049.148c0,.064-.02.133-.049.148a.209.209,0,0,0-.049.148c0,.064-.02.133-.049.148a.25.25,0,0,0-.049.168.363.363,0,0,1-.04.178,1.336,1.336,0,0,0-.109.346,1.275,1.275,0,0,1-.114.356c-.064.089,0,.148.173.178.089.015.267.054.4.079.736.168,1.186.257,2.036.4.306.054.494.084,1.458.217,1.136.163,1.27.178,1.828.232.311.03.583.064.6.074a.161.161,0,0,0,.1-.01c.054-.02.084-.143.1-.479.054-.776.074-1.038.1-1.334.015-.153.035-.4.049-.543.094-.983.168-1.675.222-2.06.025-.178.059-.445.074-.593.04-.331.109-.805.153-1.028a.423.423,0,0,0,.015-.158c-.435-.035-1.354-.153-1.848-.247-.736-.133-.741-.133-1.655-.346-.232-.054-.875-.227-1.087-.292-.094-.03-.178-.054-.183-.054a1.238,1.238,0,0,0-.1.133h0ZM16.9,14.562c-.015.054-.232,1.181-.292,1.5-.025.133-.069.435-.094.667a26.725,26.725,0,0,0-.232,2.777l-.035.682h3.666A30.4,30.4,0,0,0,23.6,20.12c.01-.03.044-.993.074-2.134s.059-2.139.064-2.218c.01-.138,0-.148-.188-.158s-.746-.074-1.952-.222c-.2-.025-.514-.064-.692-.094s-.42-.059-.543-.074-.346-.049-.494-.079-.38-.069-.519-.094c-.321-.059-.791-.148-1.038-.2-.109-.025-.331-.069-.494-.1s-.376-.074-.469-.1a1.783,1.783,0,0,0-.45-.089h0Zm5.583-11.6c-.015.01-.292.114-.618.222s-.632.222-.687.247-.2.079-.321.124-.3.119-.4.158c-.459.2-.825.371-.9.41s-.509.277-1,.544c-.133.069-.336.188-.445.257-.781.489-1.013.652-.978.687a14.8,14.8,0,0,0,1.522.613,4.748,4.748,0,0,1,.514.188c.1.049.128.044.2-.064a16.373,16.373,0,0,1,2.885-3.058,5.315,5.315,0,0,0,.43-.331c0-.03-.178-.025-.2,0h0Zm-6.329,3.32a2.25,2.25,0,0,1-.311.287,22.241,22.241,0,0,0-3.137,3.409,1.5,1.5,0,0,1-.208.262.108.108,0,0,0-.04.089c0,.04-.02.069-.049.069a.053.053,0,0,0-.049.049,2.463,2.463,0,0,1-.237.41c-.133.2-.321.494-.42.662l-.178.311.158.064c.089.04.38.153.652.252s.534.208.578.232a.45.45,0,0,0,.163.044.442.442,0,0,1,.173.049c.054.025.143.069.2.1a.584.584,0,0,0,.193.049.156.156,0,0,1,.128.049.214.214,0,0,0,.153.049.556.556,0,0,1,.208.044c.079.04.425.148,1.023.321.138.04.405.119.6.173.455.133.509.133.509-.02a.773.773,0,0,1,.044-.232c.025-.064.069-.212.1-.336s.079-.267.1-.321.064-.2.1-.321a3.157,3.157,0,0,1,.2-.553.428.428,0,0,0,.044-.158,6.066,6.066,0,0,1,.39-1.028,1.817,1.817,0,0,0,.1-.257c0-.059.707-1.542.865-1.808a8.422,8.422,0,0,0,.519-.944c0-.025-.069-.059-.148-.079a.391.391,0,0,1-.178-.069.16.16,0,0,0-.124-.044.5.5,0,0,1-.183-.044,6.161,6.161,0,0,0-.6-.252c-.306-.124-.647-.272-.86-.376a.643.643,0,0,0-.212-.069.061.061,0,0,1-.064-.049c0-.059-.183-.069-.208-.015ZM8.913,23.159a1.346,1.346,0,0,0-.109.287c-.089.351-.45,1.551-.618,2.05-.035.109-.138.43-.227.716-.133.445-.183.544-.356.7l-.2.188h.548a1.4,1.4,0,0,0,.553-.049c0-.03-.035-.049-.074-.049a.341.341,0,0,1-.178-.1c-.084-.084-.1-.138-.069-.331a3.062,3.062,0,0,1,.119-.5l.089-.272.529-.015a2.741,2.741,0,0,1,.524.015c0,.01.054.217.124.455.148.5.133.628-.074.7-.346.124-.143.158.9.158.934,0,1.038-.01.954-.074a.382.382,0,0,0-.153-.074c-.074,0-.208-.331-.425-1.062-.109-.356-.237-.766-.287-.914s-.138-.45-.2-.667-.124-.43-.138-.469-.074-.217-.133-.4l-.109-.321-.469-.015c-.336-.01-.484,0-.524.049h0Zm34.231-.02c0,.03.044.069.1.084a.516.516,0,0,1,.2.138c.094.1.1.178.1,1.739,0,1.4-.01,1.65-.079,1.744a.238.238,0,0,1-.138.109.205.205,0,0,0-.128.074c-.054.064.059.074.959.074.988,0,1.2-.035.9-.143a.36.36,0,0,1-.173-.188,5.03,5.03,0,0,1-.025-1.532c.074-.025.124.069.306.6.084.247.227.623.326.84l.168.4.776.015.771.015-.163-.2a2.087,2.087,0,0,1-.287-.484,5.778,5.778,0,0,0-.583-1.186c-.183-.237-.193-.262-.094-.262.119,0,.336-.208.43-.415a1.313,1.313,0,0,0,.025-.889,1.025,1.025,0,0,0-.573-.474,17.783,17.783,0,0,0-2.816-.059Zm1.986.42a.846.846,0,0,1-.02,1.25.706.706,0,0,1-.212.138c-.094.03-.1.01-.089-.751,0-.425.01-.781.01-.791.015-.054.163.02.311.153h0Zm-6.552-.415c-.025.035-.188.588-.277.919-.02.079-.114.39-.212.692s-.252.81-.351,1.136c-.217.712-.356,1.008-.509,1.067-.232.089-.1.138.41.153.539.015.672-.02.43-.114a.416.416,0,0,1-.173-.109,1.013,1.013,0,0,1,0-.558c.025-.079.069-.237.1-.356l.064-.208h.464a4.42,4.42,0,0,0,.5-.015,3.17,3.17,0,0,1,.306.909.3.3,0,0,1-.222.311.148.148,0,0,0-.114.069c-.015.044.252.059,1.023.059a4.636,4.636,0,0,0,1.043-.049c0-.03-.035-.049-.074-.049a.308.308,0,0,1-.168-.094,13.953,13.953,0,0,1-.707-2.055c-.059-.193-.188-.613-.292-.939s-.2-.642-.217-.7c-.03-.1-.054-.109-.519-.109a1.918,1.918,0,0,0-.514.04h0Zm.119,1.235a3.345,3.345,0,0,0,.148.524c.079.247.148.464.148.494a1.924,1.924,0,0,1-.791,0c-.04-.025-.04-.054,0-.1a5.632,5.632,0,0,0,.282-.914c.049-.262.064-.282.143-.178a.372.372,0,0,1,.069.173Zm-7.313-1.225c0,.02.059.069.133.1a1.218,1.218,0,0,1,.321.311l.188.247v1.423c0,1.25-.01,1.443-.084,1.566a.408.408,0,0,1-.2.173c-.064.015-.114.049-.114.074a1.389,1.389,0,0,0,.544.049c.509,0,.692-.049.425-.119a.432.432,0,0,1-.2-.158c-.074-.114-.084-.277-.079-1.295a5.917,5.917,0,0,1,.049-1.186c.03-.01.054.01.054.044s.4.657.879,1.383l.875,1.329H34.9l-.03-1.769c-.03-1.887-.02-1.957.212-2.06s.109-.153-.385-.158-.657.044-.425.133a.558.558,0,0,1,.227.208c.089.143.1.252.1.964a3.378,3.378,0,0,1-.049.83c-.025.015-.049.01-.049-.02s-.311-.519-.692-1.092l-.7-1.043-.86.01a4.462,4.462,0,0,0-.865.049h0Zm-4.447.054c-.044.109-.217.677-.445,1.472-.173.6-.44,1.428-.583,1.828-.1.287-.163.385-.272.435-.242.119-.143.158.385.158a1.631,1.631,0,0,0,.519-.04c0-.02-.069-.064-.153-.1-.148-.064-.153-.074-.128-.346a2.411,2.411,0,0,1,.148-.712c.059-.133.059-.133.563-.133h.5l.128.4a2.737,2.737,0,0,1,.124.519.367.367,0,0,1-.272.316c-.04,0-.074.02-.074.049a4.606,4.606,0,0,0,1.038.049c.573,0,1.038-.01,1.038-.02a.626.626,0,0,0-.163-.114c-.128-.079-.183-.163-.272-.44-.351-1.1-.425-1.329-.558-1.8-.084-.287-.208-.682-.272-.879s-.138-.45-.168-.558L27.97,23.1h-.494c-.464,0-.494,0-.539.109h0Zm.1,1.038a4,4,0,0,0,.173.623c.094.277.173.524.173.543a1.21,1.21,0,0,1-.405.025c-.306-.01-.405-.03-.39-.074s.035-.133.059-.212c.1-.371.252-.894.267-.954.035-.1.124-.064.124.049h0Zm-8.35-1.1c0,.03.054.074.119.1a.471.471,0,0,1,.2.168c.084.124.064.45-.079,1.413-.025.178-.064.519-.094.766-.109,1.013-.183,1.24-.43,1.359-.089.04-.163.089-.163.109a2.3,2.3,0,0,0,.618.04,5.085,5.085,0,0,0,.618-.02.686.686,0,0,0-.168-.119c-.247-.148-.306-.385-.237-.914a12.5,12.5,0,0,0,.158-1.571c0-.287.01-.306.074-.222a.762.762,0,0,1,.1.272.9.9,0,0,0,.069.227c.02.025.163.45.321.939.464,1.458.43,1.374.578,1.413.084.02.153.015.183-.02a7.152,7.152,0,0,0,.252-.726c.114-.366.272-.87.351-1.112s.168-.548.2-.682.074-.232.094-.232a1.751,1.751,0,0,1,.064.43c.02.242.054.613.084.83s.059.578.074.8c.03.425.01.474-.257.642-.074.044.119.059.934.059a6.641,6.641,0,0,0,1.023-.035c0-.025-.054-.069-.128-.1-.163-.079-.272-.346-.321-.8-.059-.608-.188-1.724-.247-2.189-.059-.489-.01-.647.227-.707.069-.015.124-.059.124-.094s-.163-.064-.746-.059l-.741.01-.128.4c-.069.217-.188.583-.267.81a2.671,2.671,0,0,0-.143.558c0,.193-.1.158-.183-.064-.03-.094-.153-.469-.267-.835-.311-1-.173-.884-1.087-.884a2.547,2.547,0,0,0-.786.044h0Zm-5.227.01a.177.177,0,0,0,.128.079.418.418,0,0,1,.208.143c.094.124.1.2.1,1.69,0,1.467,0,1.571-.1,1.719-.054.089-.119.168-.148.168s-.074.01-.109.015-.064.035-.079.069.262.059,1.334.049l1.349-.015.015-.346a3.44,3.44,0,0,1,.059-.519c.049-.173,0-.287-.089-.227a.333.333,0,0,0-.074.168c-.04.193-.44.6-.588.6-.306,0-.336-.163-.331-1.813,0-1.4.025-1.556.257-1.675.074-.04.133-.089.133-.114a6.452,6.452,0,0,0-1.042-.049c-.835-.01-1.038,0-1.023.054h0ZM9.046,24.517c.128.42.227.741.272.855.03.064-.03.074-.376.069-.45,0-.484-.035-.371-.282a3.89,3.89,0,0,0,.188-.593,2.049,2.049,0,0,1,.143-.43,1.308,1.308,0,0,1,.143.38h0Zm7.565,6.147c-.252.044-.38.064-1.161.188-.163.025-.351.054-.42.069-.143.03-.593.119-.988.188-.148.03-.361.069-.469.094s-.331.069-.494.1-.306.069-.311.074a8.357,8.357,0,0,0,.642.87c.035.035.183.212.331.385a18.909,18.909,0,0,0,2.668,2.52.419.419,0,0,0,.143-.044c.089-.044.4-.183.751-.336.124-.054.39-.158.593-.232s.415-.153.469-.178.183-.069.287-.1c.158-.054.262-.193.138-.193-.025,0-.054-.04-.069-.089s-.128-.252-.252-.455c-.212-.351-.761-1.438-.939-1.843-.109-.252-.2-.469-.3-.7-.168-.4-.163-.39-.623-.316h0Zm2.52,4.422c-.2.069-1.082.4-1.616.608-.287.114-.3.133-.1.232.089.044.287.168.44.272A19.937,19.937,0,0,0,20.7,37.68c.059.025.158.064.222.089s.188.069.282.1.217.079.272.1.3.109.544.188.484.158.534.178c.2.084.049-.074-.385-.4A16.9,16.9,0,0,1,20.163,36c-.119-.148-.227-.282-.242-.3s-.133-.173-.272-.356a2.158,2.158,0,0,0-.272-.331c-.015,0-.124.035-.247.074h0Zm4.748-5.124a2.96,2.96,0,0,1-.672.049c-.331,0-.766.025-.968.054s-.509.044-.687.049-.544.025-.815.049-.692.074-.939.1-.578.064-.736.079a2.12,2.12,0,0,0-.326.044,2.6,2.6,0,0,1-.361.035c-.376.01-.38.025-.227.376.1.227.188.42.4.884a15.916,15.916,0,0,0,1.176,2.139c.084.109.109.114.2.059a.572.572,0,0,1,.222-.059.2.2,0,0,0,.148-.044.366.366,0,0,1,.188-.069c.089-.015.277-.054.41-.084a29.026,29.026,0,0,1,2.915-.548,4.46,4.46,0,0,0,.7-.089.984.984,0,0,0-.04-.212c-.069-.326-.158-.983-.287-2.189-.064-.628-.119-.731-.292-.623h0Zm.529,3.982a2.108,2.108,0,0,1-.44.074,22.938,22.938,0,0,0-2.54.455l-.4.089c-.539.119-.667.163-.667.222a.093.093,0,0,0,.04.084,3.373,3.373,0,0,1,.326.385,15.468,15.468,0,0,0,1.69,1.729c.217.183.637.494.939.692a8.953,8.953,0,0,0,1.714.889.142.142,0,0,1,.109.049c.015.03.084.049.148.049a.2.2,0,0,1,.143.044.316.316,0,0,0,.163.069c.079.015.232.049.351.074a1.159,1.159,0,0,0,.208.035s-.109-.232-.247-.509a5.112,5.112,0,0,1-.247-.553.471.471,0,0,0-.059-.163c-.119-.237-.138-.282-.138-.376a.156.156,0,0,0-.049-.128.209.209,0,0,1-.049-.148.2.2,0,0,0-.044-.143.316.316,0,0,1-.069-.163c-.015-.079-.074-.316-.133-.534s-.128-.494-.158-.618-.069-.3-.094-.4-.054-.242-.069-.321-.049-.272-.079-.42-.064-.321-.074-.385a.121.121,0,0,0-.138-.109.284.284,0,0,0-.138.025h0Zm.628-3.918a4.883,4.883,0,0,1,.074.509c.054.469.124,1,.2,1.507.03.2.069.479.089.613l.035.242.692-.01a3.107,3.107,0,0,0,.751-.064c.035-.025.079-.04.1-.025s.712.04,1.527.059l1.492.035.035-.267c.015-.143.049-.385.074-.534s.069-.44.094-.642.079-.548.109-.766a3.414,3.414,0,0,0,.04-.568l-.02-.173-2.663-.015L25,29.913l.04.114h0Zm1.458,3.78c-.42.01-.791.025-.825.035s-.04.079,0,.237c.025.119.069.321.094.459.074.366.138.657.292,1.245.025.1.059.252.074.336s.049.193.069.247.114.331.2.618a7.683,7.683,0,0,0,.459,1.186,2.882,2.882,0,0,0,.519.731.472.472,0,0,0,.341.158c.459,0,1.1-1.156,1.542-2.816.035-.124.079-.292.1-.371s.1-.405.168-.716.153-.647.178-.741a3.57,3.57,0,0,0,.074-.385l.025-.208h-.578c-.321,0-.894-.01-1.275-.02s-1.038,0-1.458,0h0Zm4.778-3.414c-.04.435-.1.954-.183,1.477-.03.188-.064.484-.084.657a.99.99,0,0,1-.069.336c-.109.064-.02.114.292.158.183.03.519.079.751.109.623.084,1.275.2,1.917.346.114.03.311.074.445.1a10.889,10.889,0,0,1,1.161.306.336.336,0,0,0,.153.03c.03-.035.277-.44.371-.6.049-.089.148-.257.217-.38a18.931,18.931,0,0,0,1.023-2.149.126.126,0,0,1,.054-.1c.1-.064.015-.133-.178-.153-.222-.02-1.69-.193-2.248-.267a5.285,5.285,0,0,0-.623-.049,3.807,3.807,0,0,1-.519-.044,7.191,7.191,0,0,0-.761-.074c-.272-.015-.761-.04-1.092-.059L31.3,30l-.03.39h0Zm-.5,3.582c-.01.04-.069.292-.119.563a21.474,21.474,0,0,1-.845,3.049.335.335,0,0,0-.049.138,3.693,3.693,0,0,1-.277.667,2.156,2.156,0,0,1-.163.292c-.124.183-.1.227.1.178a5.055,5.055,0,0,0,.509-.143,2.563,2.563,0,0,1,.3-.1,12.451,12.451,0,0,0,1.7-.845,1.028,1.028,0,0,1,.163-.094c.074-.04.133-.089.133-.114s.025-.04.054-.04a4.016,4.016,0,0,0,.558-.415A12.985,12.985,0,0,0,34.645,35.3c.094-.124.222-.277.282-.346.148-.163.143-.237-.02-.272-.079-.015-.217-.049-.311-.074a29.5,29.5,0,0,0-3.113-.6c-.232-.025-.479-.059-.553-.074-.094-.02-.143-.01-.163.035h0Zm7.5-3.157c-.03.064-.074.168-.1.237s-.074.178-.1.247c-.119.287-1.028,2.1-1.062,2.115a.071.071,0,0,0-.04.064,2.367,2.367,0,0,1-.2.376,2.791,2.791,0,0,0-.188.336,1.552,1.552,0,0,0,.237.089c.539.183,1.581.6,1.942.781a1.2,1.2,0,0,0,.242.094,2.776,2.776,0,0,0,.484-.346c.015-.015.227-.2.469-.42a17.464,17.464,0,0,0,2.075-2.174c.109-.138.232-.287.277-.336.109-.119.212-.326.183-.356a1.107,1.107,0,0,0-.267-.079c-.133-.025-.341-.074-.464-.1-.425-.094-1.038-.212-1.359-.267-.109-.015-.277-.049-.371-.074s-.341-.069-.544-.1l-.593-.1c-.563-.109-.573-.109-.628.01ZM29.8,1.4a18.471,18.471,0,0,1,3.928.85,6.043,6.043,0,0,1,.924.346.5.5,0,0,0,.188.044c.054,0,.1.02.1.049s.035.049.074.049a.45.45,0,0,1,.163.044c.044.025.138.064.208.094.212.084,1.344.642,1.655.815.563.316.692.4.889.524.109.069.237.148.282.178A22.914,22.914,0,0,1,40.278,5.95a29.269,29.269,0,0,1,2.278,2.3A18.915,18.915,0,0,1,45.3,12.6c.094.217.227.519.292.662a1.912,1.912,0,0,1,.119.306.512.512,0,0,0,.049.148c.03.054.074.143.1.2a.442.442,0,0,1,.049.173.382.382,0,0,0,.049.163A17.772,17.772,0,0,1,46.7,16.9c.03.163.079.376.1.474a1.746,1.746,0,0,1,.044.346,1.613,1.613,0,0,0,.044.341,4.884,4.884,0,0,1,.079.568c.015.217.035.45.044.519s.02.331.02.583l.01.455,2.955,0c1.808,0,3,.02,3.078.049a.534.534,0,0,1,.262.534c-.049.208-.321,1.067-.371,1.161a.45.45,0,0,0-.044.163.451.451,0,0,1-.044.163c-.025.044-.173.484-.326.973s-.3.929-.326.973a.45.45,0,0,0-.044.163.451.451,0,0,1-.044.163,4.061,4.061,0,0,0-.153.455,4.06,4.06,0,0,1-.153.455.5.5,0,0,0-.044.183.156.156,0,0,1-.049.128.173.173,0,0,0-.049.128.5.5,0,0,1-.044.183c-.04.079-.311.9-.791,2.431-.119.366-.232.707-.257.751a.45.45,0,0,0-.044.163.45.45,0,0,1-.044.163c-.04.079-.534,1.581-.86,2.629-.079.257-.163.509-.188.553a.5.5,0,0,0-.044.183.156.156,0,0,1-.049.128.169.169,0,0,0-.049.124c0,.114-.292.346-.44.346a.5.5,0,0,1-.193-.044c-.044-.025-.143-.069-.217-.1s-.188-.074-.247-.1c-.376-.153-1.23-.464-1.719-.623-.588-.193-.672-.222-.9-.316a.806.806,0,0,0-.237-.054.5.5,0,0,1-.183-.044,4.27,4.27,0,0,0-.652-.2c-.124-.035-.272-.079-.336-.1a.772.772,0,0,0-.232-.044.209.209,0,0,1-.148-.049c-.064-.1-.173-.04-.326.183a2.178,2.178,0,0,1-.193.262,2.369,2.369,0,0,0-.148.2,2.372,2.372,0,0,1-.148.2,1.163,1.163,0,0,0-.1.133c-.04.059-.2.247-.351.42s-.336.39-.415.484a22.524,22.524,0,0,1-2.7,2.51c-.548.41-1.393,1-1.443,1a.49.49,0,0,0-.163.094c-.074.049-.212.138-.306.193-.825.469-1.146.642-1.344.736-.3.143-.677.311-.805.361-.054.025-.2.084-.321.138-.351.148-.875.341-1.408.5-.272.089-.539.173-.593.2a1.665,1.665,0,0,1-.247.074c-.079.015-.232.049-.331.074a16.254,16.254,0,0,1-2.041.4,21.477,21.477,0,0,1-5.46,0,19.437,19.437,0,0,1-2.2-.445c-.217-.059-.459-.124-.543-.143-.212-.054-1.206-.4-1.408-.484l-.282-.119c-.064-.025-.168-.069-.237-.094s-.173-.069-.232-.094a20.948,20.948,0,0,1-2.238-1.156,1.918,1.918,0,0,0-.232-.114c-.049-.02-.089-.049-.089-.069s-.04-.049-.084-.059c-.089-.025-1.211-.825-1.774-1.26a21.136,21.136,0,0,1-2.945-2.93c-.38-.474-.879-1.131-.879-1.161a.471.471,0,0,0-.094-.128l-.094-.1-.415.109c-.222.059-.489.128-.583.158-.237.064-.539.138-.707.173a.316.316,0,0,0-.163.069.164.164,0,0,1-.128.044,2.137,2.137,0,0,0-.405.1c-.163.054-.6.2-.968.316s-.726.242-.791.267-.311.124-.544.208-.469.178-.529.2c-.311.124-.39.158-.469.2-.311.158-.563-.064-.756-.672-.212-.687-.469-1.472-.514-1.581a3.13,3.13,0,0,1-.1-.321,1.638,1.638,0,0,0-.1-.306.5.5,0,0,1-.044-.183.156.156,0,0,0-.049-.128.173.173,0,0,1-.049-.128.5.5,0,0,0-.044-.183c-.025-.044-.119-.316-.208-.6-.321-1.043-.7-2.2-.741-2.283a.45.45,0,0,1-.044-.163.451.451,0,0,0-.044-.163c-.025-.044-.114-.306-.2-.578-.3-.983-.805-2.52-.85-2.6a.45.45,0,0,1-.044-.163.451.451,0,0,0-.044-.163c-.025-.044-.114-.316-.2-.6s-.178-.563-.2-.618-.133-.39-.242-.746c-.158-.5-.2-.672-.163-.766a.551.551,0,0,1,.336-.311c.059-.02,1.6-.04,3.409-.044l3.305-.01.03-.371c.02-.2.049-.558.064-.791a17.827,17.827,0,0,1,.529-3.128c.03-.114.064-.282.079-.371a.366.366,0,0,1,.069-.188.2.2,0,0,0,.044-.148.556.556,0,0,1,.044-.208c.025-.044.089-.242.148-.43s.128-.39.148-.445.138-.331.252-.618a22.042,22.042,0,0,1,1.186-2.47,24.247,24.247,0,0,1,2.13-2.979c.346-.4,1.655-1.71,2.095-2.085a24.139,24.139,0,0,1,2.559-1.848c.094-.049.222-.124.287-.163a.97.97,0,0,0,.143-.089c.03-.03.825-.445,1.235-.647.43-.208.781-.366,1.127-.494.1-.044.272-.114.479-.2.183-.079,1.482-.484,1.853-.583a17.7,17.7,0,0,1,2.693-.479c.193-.02.435-.049.543-.069.277-.054,3.221-.02,3.73.044h0Z" transform="translate(-0.01 -0.08)" fill="#0060bf"/></svg>