<svg xmlns="http://www.w3.org/2000/svg" viewBox="0 0 156.12 59.16"><defs><style>.cls-1{fill:#bcbec0;}.cls-2{fill:#0b3b74;}.cls-3,.cls-4{fill:#16325c;}.cls-4{font-size:9.69px;}.cls-4,.cls-7{font-family:Arial-BoldMT, Arial;font-weight:700;}.cls-5{letter-spacing:-0.07em;}.cls-6{letter-spacing:-0.02em;}.cls-7{font-size:5.43px;fill:#818181;letter-spacing:0.23em;}.cls-8{letter-spacing:0.19em;}.cls-9{letter-spacing:-0.29em;}.cls-10{letter-spacing:0.54em;}.cls-11{letter-spacing:0.25em;}.cls-12{letter-spacing:0.25em;}.cls-13{letter-spacing:-0.25em;}.cls-14{letter-spacing:0.23em;}.cls-15{letter-spacing:-0.26em;}.cls-16{letter-spacing:0.54em;}.cls-17{letter-spacing:0.26em;}.cls-18{letter-spacing:-0.23em;}.cls-19{letter-spacing:0.21em;}.cls-20{letter-spacing:-0.29em;}.cls-21{letter-spacing:0.23em;}.cls-22{letter-spacing:-0.26em;}</style></defs><g id="Layer_2" data-name="Layer 2"><g id="Layer_1-2" data-name="Layer 1"><path class="cls-1" d="M51.62,44.22H30.37c-.29-.21-.59-.42-.91-.63-.56-.35-1.15-.7-1.79-1.06a48.28,48.28,0,0,1-10.06-6.79c3.58-1.53,8.17-3,11-3h0c5.27,0,6,2.79,10.23,5.52l.46.28c.91.55,2,1.12,3.08,1.67,4.24,2.09,9.19,4,9.19,4"/><path class="cls-2" d="M42.43,16.11V40.26c-1.11-.55-2.17-1.12-3.08-1.67V17.08c0-2-.57-3.35-6.49-6.09S26,5.57,26,5.57,25.13,8.24,19.22,11s-6.48,4.11-6.48,6.09V29.65a29.29,29.29,0,0,1-2.59-7l-.5-1.92V16.11a6,6,0,0,1,2.56-5c2.74-1.8,8.41-4.62,9.87-5.91A12.37,12.37,0,0,0,26,0a12.46,12.46,0,0,0,4,5.15c1.45,1.29,7.13,4.11,9.87,5.91a6,6,0,0,1,2.55,5"/><path class="cls-2" d="M18.82,44.22H0c4.26-1,9.11-3.73,12.32-5.64a26.09,26.09,0,0,0,6.5,5.64"/><path class="cls-2" d="M29.46,43.59c-.56-.35-1.15-.7-1.79-1.06a48.28,48.28,0,0,1-10.06-6.79c3.58-1.53,8.17-3,11-3h0c.16,0,1.81.4,1.81,1.73s-3,1.54-2.48,3.07c.42,1.18,5.19.68,5.82,2.46.27.77-.1,2.58-4.35,3.54"/><path class="cls-3" d="M9.06,22.91s1.2,5.5,3.64,8.71,4,6.2,14.44,11.89,8,12.09,7.16,15.65A10.94,10.94,0,0,0,27.91,47.8c-7.92-4-20-8.64-18.85-24.89"/><path class="cls-3" d="M30.33,21.34l-.87-.42,1.68.3-.62-.47,1.73.38-.61-.71a10,10,0,0,1,1.58.78l-.53-.61,1.66.9-.45-.63,1.1.81-.49-.81L35.92,22l-.37-.71,1.36.91c-1.85-3.05-4.32-3.21-6.69-2.29L29,19.75l1.71-.26L30,19.21l1.76-.09L31,18.59a10.51,10.51,0,0,1,1.72.33l-.67-.44,1.84.42-.6-.48,1.28.48-.69-.65,1.66.72L35,18.39l1.56.51c-2.77-2.61-5.35-1.87-7.46-.11l.26-.27-1.27.42,1.47-1-.78,0,1.65-.65-.9-.25a9.62,9.62,0,0,1,1.74-.24l-.78-.2,1.88-.18-.72-.27,1.36.05-.86-.4,1.81.15-.71-.37H34.9C31.48,14,29,15.41,27.57,18.13c-.15.29-.54.85-.72.59s.93-1.26.93-1.26l-.61.3,1-1.19-.78.19a8.39,8.39,0,0,1,1.21-.92L27.9,16l1.34-.94-.66.1,1.06-.54-.82.07,1.43-.65h-.7l1.24-.7a4.35,4.35,0,0,0-4.22,3.49,4.34,4.34,0,0,0-4.17-3.33l1.23.7h-.69l1.43.65-.82-.07,1.06.55-.67-.1,1.35.93L24.61,16a8.94,8.94,0,0,1,1.22.91L25,16.73l1,1.19-.61-.3s1,.82.82,1.1-.57-.3-.72-.59c-1.44-2.72-3.91-4.14-7.33-2.57h1.64l-.7.37,1.8-.15-.86.4,1.37-.05-.73.27,1.88.18-.78.2a9.62,9.62,0,0,1,1.74.24l-.9.25,1.65.65-.78,0,1.43,1-1.23-.49.26.27c-2.11-1.76-4.69-2.5-7.46.11l1.56-.51-.55.58,1.66-.72-.69.65,1.28-.48-.6.48L21,18.48l-.67.44a10.51,10.51,0,0,1,1.72-.33l-.77.53,1.76.09-.72.28,1.72.35-1.19.06c-2.36-.92-4.84-.76-6.69,2.29l1.36-.91-.37.71,1.41-1.13-.49.81,1.1-.81-.44.63,1.65-.9-.53.61a10,10,0,0,1,1.58-.78l-.6.71,1.72-.38-.62.47,2-.22-1.18.34c-2.85,0-5.41,1.15-5.74,5.05L17.82,25l0,.8.76-1.64-.09.94.64-1.21-.12.76,1.08-1.54-.2.78a9.34,9.34,0,0,1,1.07-1.39l-.23.9,1.37-1.11-.34.7,1.86-1-1.16.92c-2.41,1.19-4.09,3.21-2.9,6.75L19.73,28l.3.74,0-1.81.3.9.1-1.37.19.75.39-1.84.12.79a9.76,9.76,0,0,1,.42-1.7l.15.92.82-1.57,0,.78,1.26-2L23.15,24a4.94,4.94,0,0,0,0,6.82l-.41-1.52.53.55-.61-1.62.59.69-.4-1.26.44.6L23,26.46l.39.66a8.78,8.78,0,0,1-.23-1.66l.46.76.17-1.69.24.71.2-1.35.26,1,0-1a.44.44,0,0,1,.53-.44h0a.43.43,0,0,1,.24.64,1.7,1.7,0,0,0-.21.5,1.47,1.47,0,0,0,.46,1.7c.23.22.17.58.08.56s-.14.31,0,.32.11.43,0,.42-.17.34,0,.34.24.5,0,.49-.16.36,0,.36.16.43,0,.41-.13.46,0,.44,0,.4-.09.4-.2.37,0,.39.16.46,0,.46-.19.4,0,.46.15.3,0,.33a.16.16,0,0,0-.16.15.15.15,0,0,0,.12.15c.1,0,.15.36,0,.31H25.5c-.2,0-.05.27,0,.33s-.29.23-.27.48c0,0-.31.48.13.48a9.89,9.89,0,0,1,1.12-.14h1.11c.43,0,.3-.37.05-.48v0c0-.09-.09-.1-.15-.15s-.11-.1-.06-.17.14-.07.14-.15v0a.15.15,0,0,0-.15-.15h-.07c-.06,0-.07-.24,0-.24s.16-.07.16-.16a.16.16,0,0,0-.16-.15h0c-.07,0,0-.46.08-.48a.17.17,0,0,0,0-.33c-.13,0-.16-.52,0-.54s.12-.4,0-.4-.19-.35-.05-.34.2-.45,0-.44-.19-.41,0-.41.1-.37,0-.36-.15-.49,0-.49.15-.34,0-.34-.15-.41,0-.42.1-.34,0-.32-.11-.18,0-.37a.84.84,0,0,0,.6-.74,1.81,1.81,0,0,0-.31-1.67.22.22,0,0,1,0-.29h0A.22.22,0,0,1,28,24v.38l.22-.88h.06l.17,1.21L28.7,24l.16,1.69.47-.76a9.83,9.83,0,0,1-.23,1.67l.39-.67-.32,1.79.44-.6-.4,1.25.59-.69-.62,1.63.54-.56-.42,1.52A4.82,4.82,0,0,0,30,24.36l-.59-1.45,1.17,1.67,0-.78.82,1.57.15-.92a9.76,9.76,0,0,1,.42,1.7l.12-.79.39,1.84.19-.75.1,1.37.3-.9,0,1.81.3-.74.19,1.62c1.19-3.54-.48-5.56-2.9-6.75L29.57,22l1.77,1-.35-.7,1.37,1.11-.22-.9a9.87,9.87,0,0,1,1.06,1.39l-.2-.78,1.08,1.54L34,23.87l.64,1.21-.08-.94.75,1.64,0-.8.82,1.41c-.33-3.9-2.89-5-5.74-5.05"/><path class="cls-3" d="M84.1,7.56C83,9.88,76.28,24,76.28,24L68,6.91s-.67-1.52-1.61-1.52h-6V6.55s2.37-.43,2.37,2.37V27s-.29,2.47-1.18,2.47h3.64v-18l8.88,18H76l9-18v18h6.86v-.55a2.7,2.7,0,0,1-2.44-2.58V8.65a2.29,2.29,0,0,1,2.44-2.36v-.9H86.32s-1.13-.16-2.22,2.17"/><path class="cls-3" d="M154.25,6.29v-.9H148.8s-1.14-.16-2.22,2.17S138.75,24,138.75,24L130.43,6.91s-.67-1.52-1.61-1.52h-6V6.55s2.37-.43,2.37,2.37V27s-.29,2.47-1.19,2.47h3.64v-18l8.88,18h1.95l9-18v18h6.85v-.55a2.69,2.69,0,0,1-2.43-2.58V8.65a2.29,2.29,0,0,1,2.43-2.36"/><path class="cls-3" d="M119,25.74C117.66,22.9,110.19,8,110.19,8s-1.14-2.64-3.31-2.64h-5.23v1a3.78,3.78,0,0,1,3.55,1.87C106.43,10.4,111.59,21,111.59,21l.6,1.24a8.89,8.89,0,0,0-3.7-1.35c-1.47-.12-4.36,0-4.36,0s.89,2,4.56,2.76a10.43,10.43,0,0,1,6.48,4c.85,1.21,2.22,1.84,4.46,1.84h2.45v-.71s-1.76-.2-3.09-3"/><path class="cls-3" d="M102.07,19.08s2.87-5.86,3.29-6.68a4.84,4.84,0,0,0,.4-1.08c-.47-.94-.91-1.81-1.31-2.63,0,0-7.35,14.45-8.54,17.31s-3.12,2.82-3.19,2.82v.66h8.66v-.74A2.55,2.55,0,0,1,99,27.08c-.48-1.51,1.63-5,1.63-5s.77,3,5.13,4.38S112,26,112,26a27.12,27.12,0,0,1-6.24-2.35c-3.72-1.85-3.73-4.57-3.73-4.57"/><text class="cls-4" transform="translate(61.18 41.46)">TR<tspan class="cls-5" x="12.92" y="0">A</tspan><tspan x="19.2" y="0">VE</tspan><tspan class="cls-6" x="32.13" y="0">L</tspan><tspan x="37.87" y="0" xml:space="preserve"> &amp; </tspan><tspan class="cls-6" x="50.26" y="0">T</tspan><tspan x="56" y="0">OURISM</tspan></text><text class="cls-7" transform="translate(61.18 51.29)">Y<tspan class="cls-8" x="4.85" y="0">O</tspan><tspan class="cls-9" x="10.12" y="0">U</tspan><tspan class="cls-10" x="12.47" y="0"> </tspan><tspan class="cls-11" x="16.91" y="0">DR</tspan><tspan x="27.45" y="0">E</tspan><tspan class="cls-12" x="32.3" y="0">A</tspan><tspan class="cls-13" x="37.57" y="0">M</tspan><tspan class="cls-10" x="40.75" y="0"> </tspan><tspan class="cls-14" x="45.19" y="0">I</tspan><tspan class="cls-15" x="47.95" y="0">T</tspan><tspan class="cls-16" x="49.88" y="0"> </tspan><tspan class="cls-17" x="54.32" y="0">W</tspan><tspan class="cls-18" x="60.84" y="0">E</tspan><tspan class="cls-16" x="63.19" y="0"> </tspan><tspan x="67.62" y="0">P</tspan><tspan class="cls-19" x="72.47" y="0">L</tspan><tspan class="cls-11" x="76.91" y="0">A</tspan><tspan class="cls-20" x="82.18" y="0">N</tspan><tspan class="cls-16" x="84.54" y="0"> </tspan><tspan class="cls-21" x="88.97" y="0">I</tspan><tspan class="cls-22" x="91.74" y="0">T</tspan></text></g></g></svg>