<svg xmlns="http://www.w3.org/2000/svg" viewBox="0 0 95.81 47.95"><defs><style>.cls-1,.cls-2{fill:#16325c;}.cls-2{font-size:9.69px;}.cls-2,.cls-5{font-family:Arial-BoldMT, Arial;font-weight:700;}.cls-3{letter-spacing:-0.07em;}.cls-4{letter-spacing:-0.02em;}.cls-5{font-size:5.43px;fill:#818181;letter-spacing:0.23em;}.cls-6{letter-spacing:0.19em;}.cls-7{letter-spacing:-0.29em;}.cls-8{letter-spacing:0.54em;}.cls-9{letter-spacing:0.25em;}.cls-10{letter-spacing:0.25em;}.cls-11{letter-spacing:-0.25em;}.cls-12{letter-spacing:0.23em;}.cls-13{letter-spacing:-0.26em;}.cls-14{letter-spacing:0.54em;}.cls-15{letter-spacing:0.26em;}.cls-16{letter-spacing:-0.23em;}.cls-17{letter-spacing:0.21em;}.cls-18{letter-spacing:-0.29em;}.cls-19{letter-spacing:0.23em;}.cls-20{letter-spacing:-0.26em;}</style></defs><g id="Layer_2" data-name="Layer 2"><g id="Layer_1-2" data-name="Layer 1"><path class="cls-1" d="M23.79,2.17C22.7,4.49,16,18.65,16,18.65L7.64,1.52S7,0,6,0H0V1.17S2.37.73,2.37,3.53V21.62S2.08,24.1,1.18,24.1H4.83v-18l8.88,18h1.94l9-18v18h6.86v-.56A2.68,2.68,0,0,1,29,21V3.27A2.3,2.3,0,0,1,31.47.9V0H26s-1.14-.16-2.22,2.17"/><path class="cls-1" d="M93.94.9V0H88.48s-1.13-.16-2.22,2.17-7.82,16.48-7.82,16.48L70.12,1.52S69.44,0,68.5,0h-6V1.17s2.37-.44,2.37,2.36V21.62s-.29,2.48-1.18,2.48H67.3v-18l8.88,18h1.94l9-18v18h6.86v-.56A2.68,2.68,0,0,1,91.5,21V3.27A2.3,2.3,0,0,1,93.94.9"/><path class="cls-1" d="M58.68,20.35c-1.33-2.83-8.81-17.7-8.81-17.7S48.74,0,46.57,0H41.34V1a3.74,3.74,0,0,1,3.54,1.86C46.11,5,51.27,15.65,51.27,15.65l.61,1.23a9,9,0,0,0-3.71-1.34c-1.46-.13-4.36,0-4.36,0s.9,2,4.56,2.75a10.44,10.44,0,0,1,6.48,4c.86,1.21,2.22,1.85,4.46,1.85h2.46v-.72s-1.76-.19-3.09-3"/><path class="cls-1" d="M41.76,13.69S44.63,7.84,45.05,7a4,4,0,0,0,.39-1.08c-.46-.94-.9-1.81-1.3-2.62,0,0-7.35,14.44-8.54,17.3s-3.13,2.83-3.19,2.83v.66h8.66v-.74a2.58,2.58,0,0,1-2.43-1.66c-.48-1.52,1.63-5,1.63-5s.78,3,5.13,4.38,6.32-.43,6.32-.43a27.51,27.51,0,0,1-6.24-2.34c-3.71-1.86-3.72-4.58-3.72-4.58"/><text class="cls-2" transform="translate(0.87 36.08)">TR<tspan class="cls-3" x="12.92" y="0">A</tspan><tspan x="19.2" y="0">VE</tspan><tspan class="cls-4" x="32.13" y="0">L</tspan><tspan x="37.87" y="0" xml:space="preserve"> &amp; </tspan><tspan class="cls-4" x="50.26" y="0">T</tspan><tspan x="56" y="0">OURISM</tspan></text><text class="cls-5" transform="translate(0.87 45.91)">Y<tspan class="cls-6" x="4.85" y="0">O</tspan><tspan class="cls-7" x="10.12" y="0">U</tspan><tspan class="cls-8" x="12.47" y="0"> </tspan><tspan class="cls-9" x="16.91" y="0">DR</tspan><tspan x="27.45" y="0">E</tspan><tspan class="cls-10" x="32.3" y="0">A</tspan><tspan class="cls-11" x="37.57" y="0">M</tspan><tspan class="cls-8" x="40.75" y="0"> </tspan><tspan class="cls-12" x="45.19" y="0">I</tspan><tspan class="cls-13" x="47.95" y="0">T</tspan><tspan class="cls-14" x="49.88" y="0"> </tspan><tspan class="cls-15" x="54.32" y="0">W</tspan><tspan class="cls-16" x="60.84" y="0">E</tspan><tspan class="cls-14" x="63.19" y="0"> </tspan><tspan x="67.62" y="0">P</tspan><tspan class="cls-17" x="72.47" y="0">L</tspan><tspan class="cls-9" x="76.91" y="0">A</tspan><tspan class="cls-18" x="82.18" y="0">N</tspan><tspan class="cls-14" x="84.54" y="0"> </tspan><tspan class="cls-19" x="88.97" y="0">I</tspan><tspan class="cls-20" x="91.74" y="0">T</tspan></text></g></g></svg>