<svg xmlns="http://www.w3.org/2000/svg" width="296.923" height="77" viewBox="0 0 296.923 77"><path d="M408.288,397.14l11.3,11.3-11.148,11.148-11.3-11.3Z" transform="translate(-369.885 -369.885)" fill="#393185"/><path d="M220.107,623.665,208.6,612.157,195.54,599.1l11.507-11.507,13.06,13.06,13.21-13.21,11.508,11.508-13.21,13.209-11.507,11.508Z" transform="translate(-182.12 -547.124)" fill="#00a0e3"/><path d="M797.291,397.348l-11.924,11.923L773.86,397.764l11.923-11.924Z" transform="translate(-720.751 -359.36)" fill="#00a0e3"/><path d="M63.12,24.568,51.2,36.492,38.137,23.431,11.507,50.06,0,38.552,26.63,11.924,38.552,0h0L50.06,11.508Z" fill="#00a0e3"/><path d="M451.953,513.954H450.5l-.2,1.021H448.99l1.556-6.186h1.394l1.554,6.186h-1.338Zm-.268-1.338-.457-2.224-.454,2.224Zm2.063-3.827h1.279v4.662h2v1.524h-3.274Zm3.75,0h1.281v6.186H457.5Zm2.03,0h1.68l.651,3.763.645-3.763h1.675v6.186h-1.043v-4.718l-.809,4.718h-.946l-.806-4.718v4.718h-1.047Z" transform="translate(-418.176 -473.872)" fill="#fefefe"/><path d="M1325.319,194.77h5.283l7.011,19.27h-5.16l-1.209-3.348h-6.665l-1.284,3.348h-5.135l7.159-19.27Zm.593,12.088h4.024l-1.975-6.133h-.049l-2,6.133Z" transform="translate(-1227.696 -181.403)" fill="#393185"/><path d="M1655.35,214.04V194.77h4.838V209.8h5.8v4.243Z" transform="translate(-1541.745 -181.403)" fill="#393185"/><path d="M1865.2,214.04V194.77h4.838v19.27Z" transform="translate(-1737.193 -181.403)" fill="#393185"/><path d="M2000.51,194.77h4.764l3.777,10.3,4-10.3h4.814l2.814,19.27h-4.839l-1.358-11.091h-.05l-4.468,11.091h-1.926l-4.271-11.091h-.05l-1.555,11.091h-4.814Z" transform="translate(-1860.273 -181.403)" fill="#393185"/><path d="M2505.018,194.77h5.283l7.011,19.27h-5.16l-1.209-3.348h-6.665l-1.284,3.348h-5.135l7.159-19.27Zm.593,12.088h4.024l-1.975-6.133h-.049l-2,6.133Z" transform="translate(-2326.433 -181.403)" fill="#393185"/><path d="M2835.04,214.04V194.77h4.839V209.8h5.8v4.243Z" transform="translate(-2640.473 -181.403)" fill="#393185"/><path d="M3040.94,331.924V328.09H3048v3.834Z" transform="translate(-2832.243 -305.573)" fill="#393185"/><path d="M3200.4,194.77h5.283l7.011,19.27h-5.159l-1.209-3.348h-6.665l-1.284,3.348h-5.135l7.159-19.27Zm.593,12.088h4.024l-1.975-6.133h-.049l-2,6.133Z" transform="translate(-2974.09 -181.403)" fill="#393185"/><path d="M3530.42,214.04V194.77h7.308a8.528,8.528,0,0,1,2.58.371,5.731,5.731,0,0,1,2.024,1.1,4.857,4.857,0,0,1,1.32,1.84,6.7,6.7,0,0,1,.469,2.62,6.629,6.629,0,0,1-.284,1.968,5.393,5.393,0,0,1-.814,1.636,4.692,4.692,0,0,1-1.284,1.188,4.861,4.861,0,0,1-1.691.652l5.851,7.9h-6.024l-4.567-7.411h-.05v7.411Zm4.838-10.631h.42a4.491,4.491,0,0,0,2.592-.588,2.441,2.441,0,0,0,.012-3.629,4.482,4.482,0,0,0-2.6-.588h-.42v4.8Z" transform="translate(-3288.13 -181.403)" fill="#393185"/><path d="M3789.528,194.77h5.283l7.011,19.27h-5.16l-1.209-3.348h-6.665l-1.284,3.348h-5.135l7.159-19.27Zm.593,12.088h4.024l-1.975-6.133h-.049l-2,6.133Z" transform="translate(-3522.789 -181.403)" fill="#393185"/><path d="M4119.54,214.04V194.77h6.987A5.963,5.963,0,0,1,4130.6,196a4.8,4.8,0,0,1,1.383,3.783,4.038,4.038,0,0,1-2.049,3.936v.051a4.057,4.057,0,0,1,2.864,1.508,5.549,5.549,0,0,1,.938,3.4,5.332,5.332,0,0,1-.47,2.3,4.685,4.685,0,0,1-1.333,1.687,5.836,5.836,0,0,1-2.1,1.035,10.272,10.272,0,0,1-2.765.345h-7.53Zm5.456-3.834q.667,0,1.357-.038a4.587,4.587,0,0,0,1.247-.23,1.965,1.965,0,0,0,.9-.614,1.784,1.784,0,0,0,.346-1.163,1.92,1.92,0,0,0-.334-1.214,1.946,1.946,0,0,0-.814-.614,3.362,3.362,0,0,0-1-.23c-.346-.025-.649-.038-.914-.038h-1.407v4.14H4125Zm-.1-7.871a3.434,3.434,0,0,0,2.049-.46,1.668,1.668,0,0,0,.592-1.406,1.686,1.686,0,0,0-.58-1.406,3.533,3.533,0,0,0-2.11-.46h-.469v3.731h.519Z" transform="translate(-3836.819 -181.403)" fill="#393185"/><path d="M1318.15,551.51h10.778v4.054h-3.358v14.36h-4.062v-14.36h-3.358Z" transform="translate(-1227.686 -513.66)" fill="#393185"/><path d="M1490.75,552.306a10.719,10.719,0,0,1,.684-3.9,9.647,9.647,0,0,1,1.865-3.065,8.476,8.476,0,0,1,2.757-2.015,8.01,8.01,0,0,1,6.56-.036,8.587,8.587,0,0,1,2.767,1.929,9.489,9.489,0,0,1,1.927,2.992,9.992,9.992,0,0,1,.725,3.871,12.13,12.13,0,0,1-.715,4.311,9.807,9.807,0,0,1-1.9,3.187,8.149,8.149,0,0,1-2.715,1.979,7.759,7.759,0,0,1-3.192.684,8.081,8.081,0,0,1-3.752-.843,8.452,8.452,0,0,1-2.756-2.234,9.724,9.724,0,0,1-1.689-3.187,12.068,12.068,0,0,1-.57-3.676Zm4.228-.2a6.794,6.794,0,0,0,.342,2.186,5.486,5.486,0,0,0,.943,1.747,4.445,4.445,0,0,0,1.41,1.148,3.713,3.713,0,0,0,1.72.415,3.671,3.671,0,0,0,1.741-.428,4.394,4.394,0,0,0,1.4-1.172,5.792,5.792,0,0,0,.932-1.746,6.615,6.615,0,0,0,.343-2.149,4.819,4.819,0,0,0-.362-1.856,5.384,5.384,0,0,0-.964-1.551,4.52,4.52,0,0,0-1.41-1.062,3.854,3.854,0,0,0-1.7-.391,3.708,3.708,0,0,0-1.648.391,4.765,4.765,0,0,0-1.41,1.05,5.1,5.1,0,0,0-.974,1.539,4.889,4.889,0,0,0-.362,1.88Z" transform="translate(-1388.441 -505.371)" fill="#393185"/><path d="M1783.54,551.51h4.062v9.866q0,.879.073,1.746a5.253,5.253,0,0,0,.352,1.551,2.649,2.649,0,0,0,.829,1.111,2.853,2.853,0,0,0,2.985.012,2.574,2.574,0,0,0,.829-1.086,5.281,5.281,0,0,0,.362-1.539q.082-.867.083-1.771v-9.89h4.062v10.574a21.689,21.689,0,0,1-.145,2.723,7.8,7.8,0,0,1-.539,2.039,5.569,5.569,0,0,1-2.249,2.589,7.209,7.209,0,0,1-3.886.977,10.677,10.677,0,0,1-1.306-.085,6.887,6.887,0,0,1-1.368-.318,6.324,6.324,0,0,1-1.327-.635,5.407,5.407,0,0,1-1.181-1.014,6.334,6.334,0,0,1-.778-1.148,6,6,0,0,1-.508-1.368,11.259,11.259,0,0,1-.269-1.673q-.082-.916-.082-2.088V551.511Z" transform="translate(-1661.137 -513.66)" fill="#393185"/><path d="M2034.36,569.924V551.51h6.135a6.357,6.357,0,0,1,2.166.354,4.522,4.522,0,0,1,2.809,2.808,7.872,7.872,0,0,1,.156,4.383,5.462,5.462,0,0,1-.684,1.563,4.2,4.2,0,0,1-1.078,1.136,3.8,3.8,0,0,1-1.42.622l4.912,7.547H2042.3l-3.834-7.083h-.041v7.083h-4.062Zm4.062-10.159h.353a3.419,3.419,0,0,0,2.176-.561,2.553,2.553,0,0,0,.01-3.468,3.406,3.406,0,0,0-2.186-.562h-.353v4.591Z" transform="translate(-1894.744 -513.66)" fill="#393185"/><path d="M2244.1,561.709l1.741-3.858a7.379,7.379,0,0,0,1.855,1.465,3.769,3.769,0,0,0,1.731.44,2.064,2.064,0,0,0,1.43-.5,1.727,1.727,0,0,0,.559-1.355,1.379,1.379,0,0,0-.259-.854,2.279,2.279,0,0,0-.643-.574,4.822,4.822,0,0,0-.808-.391l-.757-.281-1.534-.586a4.371,4.371,0,0,1-1.357-.818,3.854,3.854,0,0,1-.964-1.417,6.288,6.288,0,0,1-.373-2.381,7.571,7.571,0,0,1,.4-2.552,5.833,5.833,0,0,1,1.119-1.942,4.945,4.945,0,0,1,1.7-1.246,5.2,5.2,0,0,1,2.145-.44,8.443,8.443,0,0,1,2.487.4,10.073,10.073,0,0,1,2.425,1.111l-1.617,3.712a4.761,4.761,0,0,0-1.274-.892,3.272,3.272,0,0,0-1.42-.329,1.876,1.876,0,0,0-1.212.428,1.363,1.363,0,0,0-.529,1.111,1.343,1.343,0,0,0,.5,1.062,5.156,5.156,0,0,0,1.637.818,15.937,15.937,0,0,1,1.71.671,5.531,5.531,0,0,1,1.451.965,4.329,4.329,0,0,1,1.016,1.465,5.432,5.432,0,0,1,.384,2.173,9.383,9.383,0,0,1-.415,2.954,4.835,4.835,0,0,1-1.2,2,6.139,6.139,0,0,1-2.125,1.331,6.876,6.876,0,0,1-2.332.4,7.809,7.809,0,0,1-2.86-.55,9.394,9.394,0,0,1-2.611-1.55Z" transform="translate(-2090.089 -507.057)" fill="#393185"/><path d="M2550.79,558.5a6.2,6.2,0,0,1,.248-1.832,4.533,4.533,0,0,1,.726-1.429,5.547,5.547,0,0,1,1.171-1.123,11.166,11.166,0,0,1,1.585-.94l-.767-1.246a4.822,4.822,0,0,1-.5-1.148,4.753,4.753,0,0,1-.187-1.343,5.4,5.4,0,0,1,.384-2.076,4.777,4.777,0,0,1,4.466-2.98,4.929,4.929,0,0,1,1.855.354,4.746,4.746,0,0,1,2.632,2.576,5.145,5.145,0,0,1,.4,2.076,4.541,4.541,0,0,1-.663,2.455,6.18,6.18,0,0,1-2.239,1.966l1.969,2.443q.56-.586,1.078-1.221a12.056,12.056,0,0,0,.975-1.392l2.3,2.589-2.156,2.711,3.5,4.347H2562.5l-1.347-1.71a10.943,10.943,0,0,1-2.725,1.648,6.969,6.969,0,0,1-2.622.55,5.311,5.311,0,0,1-1.979-.366,4.519,4.519,0,0,1-1.6-1.062,5,5,0,0,1-1.057-1.673,5.894,5.894,0,0,1-.384-2.173Zm5.99.977a3.127,3.127,0,0,0,1.109-.207,4.913,4.913,0,0,0,1.046-.55l-2.467-3.126a4.947,4.947,0,0,0-1.1,1.062,1.923,1.923,0,0,0-.374,1.136,1.57,1.57,0,0,0,.518,1.209,1.8,1.8,0,0,0,1.264.476Zm.145-10.33a2.328,2.328,0,0,0,.259,1,8.79,8.79,0,0,0,.964,1.44,2.745,2.745,0,0,0,1.451-2.247,1.917,1.917,0,0,0-.384-1.221,1.218,1.218,0,0,0-1.005-.489,1.169,1.169,0,0,0-.912.428,1.592,1.592,0,0,0-.373,1.087Z" transform="translate(-2375.731 -507.02)" fill="#393185"/><path d="M2915.46,551.51h10.777v4.054h-3.357v14.36h-4.062v-14.36h-3.358Z" transform="translate(-2715.374 -513.66)" fill="#393185"/><path d="M3108.59,569.924V551.51h6.135a6.361,6.361,0,0,1,2.166.354,4.521,4.521,0,0,1,2.809,2.808,7.875,7.875,0,0,1,.156,4.383,5.459,5.459,0,0,1-.684,1.563,4.2,4.2,0,0,1-1.077,1.136,3.8,3.8,0,0,1-1.42.622l4.912,7.547h-5.057l-3.834-7.083h-.041v7.083h-4.062Zm4.062-10.159h.353a3.418,3.418,0,0,0,2.176-.561,2.553,2.553,0,0,0,.01-3.468,3.4,3.4,0,0,0-2.186-.562h-.353Z" transform="translate(-2895.25 -513.66)" fill="#393185"/><path d="M3314.09,551.51h4.435l5.886,18.414h-4.332l-1.015-3.2h-5.6l-1.078,3.2h-4.311l6.011-18.414Zm.5,11.551h3.378l-1.658-5.861h-.041Z" transform="translate(-3081.049 -513.66)" fill="#393185"/><path d="M3555.26,551.51h4.415l3.772,11.185,3.792-11.185h4.415l-6.674,18.414h-3.15Z" transform="translate(-3311.265 -513.66)" fill="#393185"/><path d="M3832.482,551.51v4.054h-4.83v3.077h4.581V562.7h-4.581v3.175h4.83v4.054h-8.892V551.51Z" transform="translate(-3561.18 -513.66)" fill="#393185"/><path d="M4004.35,569.924V551.51h4.062v14.36h4.871v4.054Z" transform="translate(-3729.535 -513.66)" fill="#393185"/><path d="M4158.22,561.709l1.741-3.858a7.379,7.379,0,0,0,1.855,1.465,3.769,3.769,0,0,0,1.731.44,2.064,2.064,0,0,0,1.43-.5,1.727,1.727,0,0,0,.559-1.355,1.376,1.376,0,0,0-.259-.854,2.267,2.267,0,0,0-.642-.574,4.822,4.822,0,0,0-.808-.391l-.757-.281-1.534-.586a4.374,4.374,0,0,1-1.357-.818,3.857,3.857,0,0,1-.963-1.417,6.282,6.282,0,0,1-.374-2.381,7.558,7.558,0,0,1,.4-2.552,5.808,5.808,0,0,1,1.119-1.942,4.937,4.937,0,0,1,1.7-1.246,5.2,5.2,0,0,1,2.145-.44,8.443,8.443,0,0,1,2.487.4,10.073,10.073,0,0,1,2.425,1.111l-1.617,3.712a4.769,4.769,0,0,0-1.274-.892,3.273,3.273,0,0,0-1.42-.329,1.877,1.877,0,0,0-1.212.428,1.363,1.363,0,0,0-.529,1.111,1.344,1.344,0,0,0,.5,1.062,5.158,5.158,0,0,0,1.637.818,15.937,15.937,0,0,1,1.71.671,5.531,5.531,0,0,1,1.451.965,4.333,4.333,0,0,1,1.016,1.465,5.436,5.436,0,0,1,.383,2.173,9.383,9.383,0,0,1-.415,2.954,4.84,4.84,0,0,1-1.2,2,6.142,6.142,0,0,1-2.125,1.331,6.875,6.875,0,0,1-2.332.4,7.808,7.808,0,0,1-2.859-.55,9.4,9.4,0,0,1-2.612-1.55Z" transform="translate(-3872.844 -507.057)" fill="#393185"/><path d="M1318.15,908.541h206.456V907.13H1318.15Z" transform="translate(-1227.686 -844.874)" fill="#898989"/><path d="M1320.523,1033.391V1030.7l-2.373-3.707h1.533l1.53,2.534,1.491-2.534h1.5l-2.373,3.716v2.685Z" transform="translate(-1227.686 -956.508)" fill="#898989"/><path d="M1473.421,1028.665a4.053,4.053,0,0,1,.3-1.645,2.992,2.992,0,0,1,.6-.879,2.536,2.536,0,0,1,.836-.578,3.607,3.607,0,0,1,1.4-.253,3.061,3.061,0,0,1,2.292.879,3.9,3.9,0,0,1,.005,4.877,3.032,3.032,0,0,1-2.279.878,3.063,3.063,0,0,1-2.3-.874,3.293,3.293,0,0,1-.852-2.4Zm1.346-.043a2.388,2.388,0,0,0,.509,1.651,1.765,1.765,0,0,0,2.578,0,2.433,2.433,0,0,0,.5-1.673,2.387,2.387,0,0,0-.489-1.644,1.826,1.826,0,0,0-2.6.005,2.4,2.4,0,0,0-.5,1.655Z" transform="translate(-1372.3 -954.944)" fill="#898989"/><path d="M1641.38,1026.99h1.311v3.469a7.221,7.221,0,0,0,.048,1.07,1.039,1.039,0,0,0,.395.632,1.381,1.381,0,0,0,.856.239,1.3,1.3,0,0,0,.83-.225.885.885,0,0,0,.336-.552,7.188,7.188,0,0,0,.058-1.088v-3.543h1.311v3.366a8.549,8.549,0,0,1-.106,1.63,1.8,1.8,0,0,1-.39.8,1.953,1.953,0,0,1-.758.522,3.327,3.327,0,0,1-1.241.195,3.586,3.586,0,0,1-1.4-.211,2.012,2.012,0,0,1-.755-.551,1.759,1.759,0,0,1-.365-.711,7.671,7.671,0,0,1-.128-1.625v-3.418Z" transform="translate(-1528.733 -956.508)" fill="#898989"/><path d="M1876.291,1026.99h2.383a4.682,4.682,0,0,1,1.229.122,2.152,2.152,0,0,1,.973.59,2.773,2.773,0,0,1,.618,1.037,4.709,4.709,0,0,1,.211,1.512,4.178,4.178,0,0,1-.2,1.362,2.805,2.805,0,0,1-.692,1.131,2.287,2.287,0,0,1-.916.511,3.959,3.959,0,0,1-1.154.136h-2.454v-6.4Zm1.311,1.082v4.237h.972a3.581,3.581,0,0,0,.786-.061,1.191,1.191,0,0,0,.526-.267,1.338,1.338,0,0,0,.34-.617,4.105,4.105,0,0,0,.132-1.173,3.753,3.753,0,0,0-.132-1.138,1.458,1.458,0,0,0-.369-.62,1.245,1.245,0,0,0-.6-.3,5.954,5.954,0,0,0-1.068-.061h-.585Z" transform="translate(-1747.522 -956.508)" fill="#898989"/><path d="M2032.961,1033.391v-6.4h2.753a4.763,4.763,0,0,1,1.508.173,1.476,1.476,0,0,1,.754.612,1.834,1.834,0,0,1,.283,1.009,1.7,1.7,0,0,1-.427,1.191,2.06,2.06,0,0,1-1.276.592,2.96,2.96,0,0,1,.7.537,7.218,7.218,0,0,1,.741,1.04l.789,1.248h-1.562l-.938-1.4a8.9,8.9,0,0,0-.692-.939,1.013,1.013,0,0,0-.393-.266,2.239,2.239,0,0,0-.662-.071h-.266v2.673h-1.311Zm1.311-3.692h.967a5.04,5.04,0,0,0,1.173-.079.7.7,0,0,0,.366-.271.823.823,0,0,0,.133-.481.769.769,0,0,0-.175-.523.8.8,0,0,0-.491-.25q-.16-.022-.954-.022h-1.02v1.627Z" transform="translate(-1893.439 -956.508)" fill="#898989"/><path d="M2189.65,1033.391v-6.4h4.791v1.082h-3.48v1.421h3.236v1.082h-3.236v1.734h3.607v1.082Z" transform="translate(-2039.376 -956.508)" fill="#898989"/><path d="M2335.922,1033.391h-1.412l-.56-1.457h-2.6l-.538,1.457h-1.386l2.513-6.4h1.385l2.593,6.4Zm-2.4-2.539-.9-2.369-.874,2.369Z" transform="translate(-2169.563 -956.508)" fill="#898989"/><path d="M2495.47,1033.391v-6.4h1.963l1.161,4.366,1.146-4.366h1.969v6.4H2500.5l0-5.039-1.276,5.039h-1.26l-1.27-5.039,0,5.039Z" transform="translate(-2324.208 -956.508)" fill="#898989"/><path d="M2744.59,1033.391v-6.4h1.311v6.4Z" transform="translate(-2556.231 -956.508)" fill="#898989"/><path d="M2838.6,1033.391v-5.319h-1.916v-1.082h5.134v1.082h-1.907v5.319Z" transform="translate(-2642.001 -956.508)" fill="#898989"/><path d="M3055.952,1033.391l-1.522-6.4h1.347l.963,4.4,1.18-4.4h1.558l1.13,4.472.986-4.472h1.315l-1.559,6.4h-1.4l-1.277-4.786-1.285,4.786Z" transform="translate(-2844.807 -956.508)" fill="#898989"/><path d="M3249.52,1033.391v-6.4h4.791v1.082h-3.48v1.421h3.236v1.082h-3.236v1.734h3.607v1.082Z" transform="translate(-3026.508 -956.508)" fill="#898989"/><path d="M3477.18,1033.391v-6.4h2.1a7.7,7.7,0,0,1,1.552.1,1.7,1.7,0,0,1,.931.627,1.97,1.97,0,0,1,.376,1.247,2.081,2.081,0,0,1-.215.991,1.784,1.784,0,0,1-.548.632,1.921,1.921,0,0,1-.677.3,7.53,7.53,0,0,1-1.354.092h-.85v2.414h-1.311Zm1.311-5.319v1.824h.713a3.369,3.369,0,0,0,1.029-.1.841.841,0,0,0,.407-.316.856.856,0,0,0,.148-.5.829.829,0,0,0-.207-.578.909.909,0,0,0-.525-.286,6.458,6.458,0,0,0-.937-.043h-.628Z" transform="translate(-3238.543 -956.508)" fill="#898989"/><path d="M3627.11,1034.127v-6.347h1.311v5.265h3.245v1.082Z" transform="translate(-3378.185 -957.244)" fill="#898989"/><path d="M3765.452,1033.391h-1.412l-.559-1.457h-2.6l-.538,1.457h-1.386l2.513-6.4h1.384l2.593,6.4Zm-2.4-2.539-.9-2.369-.874,2.369Z" transform="translate(-3500.985 -956.508)" fill="#898989"/><path d="M3925.27,1033.391v-6.4h1.268l2.664,4.29v-4.29h1.211v6.4H3929.1l-2.623-4.208v4.208Z" transform="translate(-3655.882 -956.508)" fill="#898989"/><path d="M4159.54,1033.391v-6.4h1.31v6.4Z" transform="translate(-3874.074 -956.508)" fill="#898989"/><path d="M4253.536,1033.391v-5.319h-1.916v-1.082h5.134v1.082h-1.907v5.319Z" transform="translate(-3959.835 -956.508)" fill="#898989"/></svg>