<svg xmlns="http://www.w3.org/2000/svg" width="36.302" height="36.358" viewBox="0 0 36.302 36.358"><g transform="translate(0 0)"><path d="M140.23-491.84A18.411,18.411,0,0,0,125.4-479.6a15.55,15.55,0,0,0-.9,5.823,16.326,16.326,0,0,0,.993,6.127,18.56,18.56,0,0,0,10.928,10.984,16.244,16.244,0,0,0,6.223,1.035,16.509,16.509,0,0,0,8.431-2.028,18.132,18.132,0,0,0,9.383-12.4,21.534,21.534,0,0,0,.083-7.161A18.31,18.31,0,0,0,140.23-491.84Zm6.071,3.629a15.385,15.385,0,0,1,8.224,5.45,17.559,17.559,0,0,1,2.539,5.326,14.882,14.882,0,0,1-3.615,13.881,14.94,14.94,0,0,1-14.461,4.195,17.406,17.406,0,0,1-5.326-2.539,15.566,15.566,0,0,1-5.464-8.224,11.219,11.219,0,0,1-.359-3.657,11.22,11.22,0,0,1,.359-3.657,18.491,18.491,0,0,1,2.567-5.326,15.438,15.438,0,0,1,9.756-5.782A18.744,18.744,0,0,1,146.3-488.211Z" transform="translate(-124.5 491.99)" fill="#1d86ef"/><path d="M215.96-444v1.1l-.58.166a5.193,5.193,0,0,0-3.256,2.539,3.363,3.363,0,0,0-.373,2.07,4.07,4.07,0,0,0,.3,2.028c.621,1.352,1.835,2.194,4.94,3.422a7.793,7.793,0,0,1,3.063,1.89,2.722,2.722,0,0,1,.152,2.732,2.678,2.678,0,0,1-2.525,1.242c-1.49,0-2.525-.676-3.657-2.4l-.207-.317-1.3.483c-.7.276-1.311.524-1.352.566-.179.179.856,1.89,1.587,2.622a7.025,7.025,0,0,0,2.939,1.739c.235,0,.262.124.262,1.173v1.173H219v-2.194l.593-.166a5.234,5.234,0,0,0,4.057-4.83c.207-2.911-1.173-4.733-4.719-6.182-2.291-.938-3.408-1.559-3.753-2.07a2.138,2.138,0,0,1-.1-2.07,3.231,3.231,0,0,1,3.27-.676,3.787,3.787,0,0,1,1.711,1.407c.138.248.179.248,1.421-.124a4.246,4.246,0,0,0,1.338-.579,3.777,3.777,0,0,0-1.007-1.946,5.5,5.5,0,0,0-2.235-1.49l-.511-.166-.069-1.09-.069-1.076-1.476-.041-1.49-.041Z" transform="translate(-199.195 451.57)" fill="#1d86ef"/></g></svg>