<?xml version="1.0" standalone="no"?>
<!DOCTYPE svg PUBLIC "-//W3C//DTD SVG 20010904//EN"
 "http://www.w3.org/TR/2001/REC-SVG-20010904/DTD/svg10.dtd">
<svg version="1.0" xmlns="http://www.w3.org/2000/svg"
 width="512.000000pt" height="512.000000pt" viewBox="0 0 512.000000 512.000000"
 preserveAspectRatio="xMidYMid meet">

<g transform="translate(0.000000,512.000000) scale(0.100000,-0.100000)"
fill="#000000" stroke="none">
<path d="M2491 5103 c-25 -13 -64 -62 -163 -212 -72 -108 -134 -199 -137 -204
-4 -4 -108 -36 -232 -71 -124 -35 -238 -71 -253 -81 -30 -20 -50 -54 -60 -102
-12 -51 20 -104 174 -288 l141 -170 -5 -65 c-3 -36 -8 -149 -12 -251 -7 -183
-7 -187 16 -224 29 -46 97 -80 144 -71 18 3 128 44 244 90 l212 84 212 -84
c117 -46 227 -87 244 -90 47 -9 116 25 144 71 23 37 23 41 16 224 -4 102 -9
215 -12 251 l-5 65 141 170 c78 94 148 184 157 200 35 65 11 157 -52 195 -16
10 -130 46 -251 80 l-222 62 -135 202 c-108 162 -142 206 -170 219 -44 21 -92
21 -136 0z m156 -543 c43 -63 92 -124 108 -135 17 -11 87 -35 155 -54 69 -18
129 -37 134 -41 4 -5 -29 -52 -74 -107 -119 -142 -121 -148 -111 -324 5 -79 7
-146 5 -148 -1 -1 -61 20 -132 48 -81 32 -145 51 -171 51 -25 0 -89 -19 -171
-52 -71 -28 -132 -50 -134 -47 -2 2 0 69 5 148 10 176 8 182 -111 324 -45 55
-78 102 -74 106 5 4 65 23 133 41 68 19 138 43 155 55 17 11 67 73 110 138 44
64 83 116 88 115 4 -2 42 -55 85 -118z"/>
<path d="M4205 4470 c-16 -4 -39 -12 -50 -18 -11 -6 -158 -149 -327 -319 -329
-331 -330 -332 -314 -417 17 -92 131 -146 214 -102 15 8 165 153 334 323 260
261 308 314 317 349 16 61 -7 127 -56 159 -35 23 -81 33 -118 25z"/>
<path d="M839 4447 c-63 -42 -86 -124 -53 -190 22 -44 591 -614 636 -638 78
-40 165 -14 205 61 52 98 40 117 -280 439 -338 340 -352 351 -421 351 -38 0
-62 -6 -87 -23z"/>
<path d="M1030 3296 c-132 -37 -238 -127 -298 -253 l-37 -78 0 -325 c0 -301 2
-334 23 -440 84 -414 307 -805 607 -1062 l85 -73 0 -473 c0 -535 -2 -523 75
-567 l42 -25 1024 0 c978 0 1026 1 1059 19 19 10 45 33 58 51 l22 33 0 477 0
478 54 41 c66 51 226 216 287 296 169 220 284 460 348 722 43 179 53 295 49
588 l-3 260 -37 78 c-157 329 -613 362 -807 58 -68 -105 -73 -137 -81 -451 -9
-324 -16 -364 -95 -525 -118 -238 -347 -428 -600 -495 -102 -28 -288 -37 -391
-20 -302 48 -564 241 -699 515 -79 161 -86 201 -95 525 -6 254 -9 291 -28 343
-56 156 -182 272 -333 306 -59 14 -174 12 -229 -3z m190 -308 c84 -43 84 -44
91 -341 7 -286 18 -366 71 -515 63 -179 157 -330 287 -462 187 -188 389 -298
656 -356 110 -24 360 -24 470 0 261 56 466 166 645 346 139 139 233 288 298
472 53 149 64 229 71 515 7 297 7 297 92 341 79 42 169 10 210 -74 21 -44 21
-53 16 -287 -5 -271 -17 -356 -73 -537 -98 -316 -281 -579 -552 -793 -116 -93
-106 -45 -112 -552 l-5 -440 -835 0 -835 0 -5 450 c-6 513 2 469 -99 541 -30
21 -100 84 -156 140 -208 208 -350 461 -419 744 -35 146 -46 267 -46 497 0
186 1 202 23 243 15 31 35 51 66 67 55 29 85 29 141 1z"/>
<path d="M2382 3190 c-224 -60 -408 -232 -483 -450 -31 -90 -38 -278 -15 -370
49 -195 186 -369 356 -455 261 -132 586 -81 790 124 139 140 201 287 204 476
1 132 -12 190 -69 310 -78 164 -229 296 -399 351 -112 37 -278 43 -384 14z
m236 -290 c119 -22 221 -99 274 -208 31 -62 33 -74 33 -167 0 -90 -3 -106 -29
-160 -38 -76 -110 -149 -184 -183 -50 -24 -69 -27 -162 -27 -94 0 -111 3 -161
27 -76 38 -146 109 -183 188 -27 58 -31 75 -31 156 0 84 2 95 38 166 54 109
135 175 252 204 63 16 90 16 153 4z"/>
</g>
</svg>
