<svg xmlns="http://www.w3.org/2000/svg" width="30.258" height="45.447" viewBox="0 0 30.258 45.447"><path d="M99.63-511.634a15.659,15.659,0,0,0-5.721,1.643,15.221,15.221,0,0,0-8.1,11.318,21.822,21.822,0,0,0,0,4.309,15.127,15.127,0,0,0,4.309,8.582l.808.817-.284,6.69c-.435,10.465-.435,10.314-.258,10.776a2.309,2.309,0,0,0,1.341,1.208,1.93,1.93,0,0,0,1.484-.2c.178-.107,1.954-1.6,3.936-3.3s3.642-3.109,3.687-3.109,1.7,1.395,3.678,3.109,3.811,3.216,4.06,3.349a1.656,1.656,0,0,0,1.43.142,2.3,2.3,0,0,0,1.279-1.19c.178-.462.178-.311-.258-10.776l-.284-6.69.808-.817a15.127,15.127,0,0,0,4.309-8.582,21.822,21.822,0,0,0,0-4.309,15.221,15.221,0,0,0-8.1-11.318,15.258,15.258,0,0,0-4.477-1.484A22.952,22.952,0,0,0,99.63-511.634Zm3.687,3.189a12.281,12.281,0,0,1,8.049,5.846,12.16,12.16,0,0,1-.382,12.81,13.927,13.927,0,0,1-3.447,3.438,12.118,12.118,0,0,1-13.414,0,13.928,13.928,0,0,1-3.447-3.438,12.16,12.16,0,0,1-.382-12.81,12.293,12.293,0,0,1,8.759-5.979A20.229,20.229,0,0,1,103.317-508.445Zm-8.608,25.807a14.652,14.652,0,0,0,6.121,1.27,14.692,14.692,0,0,0,6.13-1.27c.453-.2.835-.346.844-.338.027.035.56,12.455.533,12.491-.009.009-1.43-1.2-3.163-2.7s-3.3-2.79-3.491-2.9a2.112,2.112,0,0,0-1.706,0c-.187.107-1.759,1.4-3.491,2.9s-3.154,2.71-3.163,2.692.1-2.594.231-5.748.249-5.961.249-6.245a1.573,1.573,0,0,1,.053-.506C93.873-482.993,94.255-482.833,94.708-482.637Z" transform="translate(-85.7 511.657)" fill="#1d86ef"/><path d="M183.639-396.63c-.142.08-1.768,1.643-3.607,3.474l-3.331,3.322-1.528-1.564c-.844-.853-1.661-1.635-1.821-1.732a1.51,1.51,0,0,0-1.954.462,1.611,1.611,0,0,0-.089,1.466c.089.16,1.164,1.306,2.4,2.541,1.963,1.981,2.283,2.274,2.621,2.354a1.562,1.562,0,0,0,1.288-.231c.133-.1,1.99-1.937,4.122-4.078,3.456-3.474,3.882-3.935,3.971-4.273a1.542,1.542,0,0,0-.631-1.652A1.7,1.7,0,0,0,183.639-396.63Z" transform="translate(-163.58 406.958)" fill="#1d86ef"/></svg>