<svg xmlns="http://www.w3.org/2000/svg" width="21.602" height="17.531" viewBox="0 0 21.602 17.531"><path d="M2.073,60.224q.41.3,2.471,1.774T7.7,64.27q.121.087.512.38t.651.473q.259.18.627.4a3.585,3.585,0,0,0,.693.336,1.856,1.856,0,0,0,.6.112h.024a1.857,1.857,0,0,0,.6-.112,3.589,3.589,0,0,0,.693-.336q.368-.224.627-.4t.651-.473q.392-.293.512-.38l5.642-4.047a5.827,5.827,0,0,0,1.47-1.531,3.362,3.362,0,0,0,.591-1.88,1.94,1.94,0,0,0-.573-1.407,1.834,1.834,0,0,0-1.356-.585H1.929A1.7,1.7,0,0,0,.5,55.467,2.569,2.569,0,0,0,0,57.086a2.963,2.963,0,0,0,.663,1.7A6.08,6.08,0,0,0,2.073,60.224Z" transform="translate(0 -54.82)" fill="#fff"/><path d="M20.4,185.52q-3.954,2.764-6,4.3-.687.523-1.115.815a6.8,6.8,0,0,1-1.139.6,3.376,3.376,0,0,1-1.326.305h-.024a3.377,3.377,0,0,1-1.326-.305,6.807,6.807,0,0,1-1.139-.6q-.428-.292-1.115-.815-1.627-1.233-5.991-4.3A6.449,6.449,0,0,1,0,184.437v9.886a1.95,1.95,0,0,0,.567,1.407,1.828,1.828,0,0,0,1.362.585H19.674a1.828,1.828,0,0,0,1.362-.585,1.95,1.95,0,0,0,.567-1.407v-9.886A6.718,6.718,0,0,1,20.4,185.52Z" transform="translate(0 -178.784)" fill="#fff"/></svg>