<svg xmlns="http://www.w3.org/2000/svg" width="173.706" height="50.218" viewBox="0 0 173.706 50.218"><g transform="translate(0 0)"><path d="M95.339,4.132a6.228,6.228,0,0,0-1.294,3.715c0,.449,0,11.272,0,11.663a4.336,4.336,0,0,1-.932,2.41c-.293.293-2.088,1.921-2.243,2.093h1.012c.334-.316,3.79-3.382,4.152-3.8a5.958,5.958,0,0,0,1.593-4.026c0-.5,0-10.754,0-11.209a4.336,4.336,0,0,1,1.185-3.065c.414-.46,1.777-1.6,2.019-1.852L99.773.06C99.514.319,95.7,3.764,95.339,4.132Z" transform="translate(-69.494 -0.025)" fill="#e03a3e" fill-rule="evenodd"/><path d="M83.76,68.674l4.233,3.7h2.835A10.421,10.421,0,0,0,98.086,69.4a8.73,8.73,0,0,0,2.381-6.263V57.074A4.911,4.911,0,0,0,98.851,53.5c-.19-.2-1.426-1.357-1.426-1.357v4.653s1.357,1.4,1.628,1.691c1.254,1.334,1.242,3.761-2.732,7.637A8.062,8.062,0,0,1,90.9,68.674Z" transform="translate(-66.473 -22.154)" fill="#e03a3e" fill-rule="evenodd"/><path d="M84.057,32.459a4.6,4.6,0,0,0-.926,2.795v2.3H85.46a3.554,3.554,0,0,0,2.358-1.259c0-.035,0-2.3,0-2.3A6.211,6.211,0,0,0,89.06,35.3c.242-.3,2.364-2.875,4.135-2.875,2.968,0,2.3,3.715,1.087,4.911-.4.385-2.145,1.99-2.686,2.5-1.4,1.334-3.8.7-3.8-2.749,0,0-2.571,2.444-2.956,2.766S83.12,41.58,83.12,41.58v6.044a6,6,0,0,1-1.725,4.75c-.3.339-3.571,3.318-4.026,3.64H76.3s1.915-1.725,2.3-2.134a4.112,4.112,0,0,0,.943-2.875c0-.385-.046-9.506-.046-9.506H64.636c-5.176,0-6.274-5.751-6.326-7.269V28.479a3.746,3.746,0,0,0-1.57-3.019H58.2c.167.069,1.081.437,1.081,3.957,0,0-.058,4.089-.058,4.307,0,1.783,1.415,3.83,3.451,3.83H79.5a6.533,6.533,0,0,1,1.271-3.077c.46-.506,4.066-3.807,4.48-4.129h1.07c-.161.15-1.909,1.725-2.3,2.128Zm5.521,3.451a14.378,14.378,0,0,0,1.438,1.662c1.812,1.455,2.668-.109,1.455-1.777-.483-.661-2.346-.472-2.875.115Z" transform="translate(-54.992 -10.818)" fill="#e03a3e" fill-rule="evenodd"/><path d="M78.4,59.877c0,.811-2.594,2.967-2.743,3.117-.19-.874-.845-1.84-2.778-3.773l2.841-2.841c1.9,1.9,2.68,2.3,2.68,3.5Z" transform="translate(-61.85 -23.956)" fill="#e03a3e" fill-rule="evenodd"/><path d="M79.817,3.382c.575.575,1.794,2.111,1.058,2.875-.627.644-1.633,1.651-1.633,1.651-.052-.368-.995-1.265-.995-1.265V9.725c0,1.236-.495,1.593-.495,1.593a8.209,8.209,0,0,1,2.3,5.176v3a2.088,2.088,0,0,1-.575,1.518c-.207.224-2.3,2.358-2.651,2.645a2.461,2.461,0,0,1-1.725.65H67.2c-1.242,0-2.519-.972-2.519-1.938V19.438a2.111,2.111,0,0,0,1.806,1,3.186,3.186,0,0,0,1.829-.828l5.964-6.228a48.368,48.368,0,0,0-4.457-3.675,1.526,1.526,0,0,0-2.185.914,20.076,20.076,0,0,0,0,5.964l-2.2-2.174a3.028,3.028,0,0,1,.2-3.9A5.79,5.79,0,0,1,69.419,8.54h3.146c2.116,0,4.423,2.1,4.423,2.1a1.34,1.34,0,0,0,.339-.73c0-1.081-.04-4.026-.04-4.026C75.7,4.3,75.48,2.663,76.245,1.9,77.683.5,78.2,0,78.2,0a5.176,5.176,0,0,0,1.616,3.382ZM69.948,19.22A6.326,6.326,0,0,1,68.315,20.7h8.874c2.41,0,1.927-1.5,1.5-2.249a34.261,34.261,0,0,0-3.675-4.417s-4.9,5.038-5.061,5.21Z" transform="translate(-58.365 0)" fill="#e03a3e" fill-rule="evenodd"/><path d="M55.161,47.47H53.7a3.5,3.5,0,0,1,1.57,3.083v7.085c0,4.6,3.8,8.874,8.425,8.874h3.859a5.637,5.637,0,0,0,4.532-1.806c.512-.454,1.15-1.2,1.426-1.478A4.917,4.917,0,0,0,75.18,59.2V56.9a4.21,4.21,0,0,0-1.725-3.4C73.1,53.14,72.109,52.2,72.109,52.2v4.779s.972,1.035,1.4,1.374c2,1.582.408,4.33-1.449,4.33H63.586a7.509,7.509,0,0,1-7.344-7.39V51.438c0-3.957-1.081-3.957-1.081-3.957Z" transform="translate(-53.7 -20.17)" fill="#e03a3e" fill-rule="evenodd"/><path d="M68.311,59.9c0,.811-2.594,2.968-2.743,3.117-.19-.874-.845-1.84-2.778-3.773L65.631,56.4C67.535,58.3,68.311,58.7,68.311,59.9Z" transform="translate(-57.562 -23.965)" fill="#e03a3e" fill-rule="evenodd"/><path d="M14.935,108.836H9.264c-1.79,0-1.653-1.488-1.811-2.76V97.933h2.652c1.567,0,3.529-.23,5.433.848a5.872,5.872,0,0,0-5.477-3.342H7.453V92.823s0-2.271-.553-2.94h3.745c3.249,0,5.75-.05,8.366,1.689,0,0-.5-4.312-6.77-4.312H0a7.273,7.273,0,0,1,2.063,5.563l.093,14.834c0,3.723,1.437,3.852,1.437,3.852H15.682c2.731,0,3.687-1.955,3.687-3.011l.036-1.437s-.862,1.79-4.47,1.79Z" transform="translate(47.391 -74.013)" fill="#e03a3e" fill-rule="evenodd"/><path d="M54.93,109.474V99.1c0-4.025-3.292-5.1-5.75-5.1-3.213,0-4.2,2.71-4.65,3.644A5.357,5.357,0,0,0,39.234,94a5.156,5.156,0,0,0-4.909,3.73s-.093-3.594-3.241-3.594H28s1.79.719,1.79,3.845v11.5c0,3.8,1.531,3.867,1.531,3.867H36.4a4.938,4.938,0,0,1-1.933-3.9V99.225a2.893,2.893,0,0,1,3.026-2,2.825,2.825,0,0,1,2.573,2.753v9.494c0,3.859,1.516,3.874,1.516,3.874h5.1a5.031,5.031,0,0,1-1.955-3.9V99.218a2.875,2.875,0,0,1,5.577.791v9.473c0,3.888,1.516,3.852,1.516,3.852h5.1a4.974,4.974,0,0,1-1.948-3.874Z" transform="translate(39.514 -75.909)" fill="#e03a3e" fill-rule="evenodd"/><path d="M75.354,109.513a4.887,4.887,0,0,0,1.955,3.874H72.228s-1.56,0-1.56-3.831V97.971c0-3.047-1.768-3.831-1.768-3.831h3.09c1.085,0,3.349,0,3.349,4.312v11.039h0Z" transform="translate(28.01 -75.949)" fill="#e03a3e" fill-rule="evenodd"/><path d="M94.583,95.581s-.474-1.387-2.631-1.387c-3.191,0-3.967,3.795-3.967,3.795-.23-3-1.064-3.888-3.292-3.888H81.61s1.79.719,1.79,3.845v11.5c0,3.809,1.538,3.867,1.538,3.867h5.074a4.894,4.894,0,0,1-1.955-3.9v-9.4a2.745,2.745,0,0,1,1.251-1.948,4,4,0,0,1,5.268.769V95.581Z" transform="translate(24.435 -75.937)" fill="#e03a3e" fill-rule="evenodd"/><path d="M129.072,94.562a6.569,6.569,0,0,1,3.011.719V92.406h-4.312V88a15.813,15.813,0,0,1-3.421,3.831,29.014,29.014,0,0,1-4.42,2.638l3.227.058v13.39c0,3.716,1.552,3.716,1.552,3.716h5.081a4.8,4.8,0,0,1-1.969-3.759V94.555h1.251Z" transform="translate(13.657 -74.222)" fill="#e03a3e" fill-rule="evenodd"/><path d="M149.354,102.064c-2.875,2.983-5.089,2.515-6.878,4.7,0,0,.287,2.961,2.551,4a4.392,4.392,0,0,0,5.944-2.02v3.1s-1.315,1.552-5.462,1.552c-4.988,0-8.409-3.924-8.409-9.25S139.9,94,145.15,94,153.106,98.14,149.354,102.064Zm-3.119-1.222c.848-1.56,1.509-5.52-1.373-5.3-3.342.252-2.71,9.135-2.71,9.135,1.121-1.215,2.8-1.437,4.082-3.831Z" transform="translate(8.826 -75.909)" fill="#e03a3e" fill-rule="evenodd"/><path d="M73.662,90.183a2.321,2.321,0,1,0-2.372-2.321,2.35,2.35,0,0,0,2.372,2.321Z" transform="translate(27.337 -73.53)" fill="#e03a3e" fill-rule="evenodd"/><path d="M104.605,111.2a2.279,2.279,0,0,1-1.991-2.444c0-4.8,3.931-5.469,4.988-6.749v8.1a3.489,3.489,0,0,1-3,1.092Zm3-11.047c-1.186,2.07-10.378,2.508-8.97,9.624.553,2.817,2.436,3.644,4.8,3.644a4.607,4.607,0,0,0,4.255-2.314c.338,2.156,1.437,2.264,1.437,2.264h5.081a4.866,4.866,0,0,1-1.976-3.859V98.73c0-2.587-2.875-4.6-5.915-4.6a8.38,8.38,0,0,0-4.772,1.437v3.356a4.264,4.264,0,0,1,3.694-2.659c2.652,0,2.781,1.286,2.767,1.933a2.731,2.731,0,0,1-.388,2Z" transform="translate(19.688 -75.946)" fill="#e03a3e" fill-rule="evenodd"/><path d="M166.879,108.1c0,1.366-1.193,3.148-3.78,3.148s-3.709-2.71-3.709-2.71v3.414a8.948,8.948,0,0,0,4.844,1.366c3.479,0,6.993-2.645,6.914-6.325a5.749,5.749,0,0,0-1.193-3.349c-1.179-1.574-3.32-2.674-4.981-3.694a3.241,3.241,0,0,1-1.437-1.991c0-.647.287-1.948,2.875-1.948s3.594,2.659,3.594,2.659v-3.2a8.416,8.416,0,0,0-4.866-1.531c-3.047,0-5.814,2.012-5.75,4.6a6.079,6.079,0,0,0,2.875,5.124,24.548,24.548,0,0,0,2.631,1.646,3.315,3.315,0,0,1,2.034,2.789Z" transform="translate(2.557 -75.892)" fill="#e03a3e" fill-rule="evenodd"/></g></svg>