<svg xmlns="http://www.w3.org/2000/svg" width="45" height="27.997" viewBox="0 0 45 27.997"><g transform="translate(-0.25)"><path d="M15.662,18.581a3.755,3.755,0,1,1-3.753-3.929,3.746,3.746,0,0,1,2.67,1.167,3.942,3.942,0,0,1,1.083,2.762Z" transform="translate(6.382 4.147)" fill="none" stroke="#1d86ef" stroke-linecap="round" stroke-linejoin="round" stroke-width="3" fill-rule="evenodd"/><path d="M25.554,18.581A3.755,3.755,0,1,1,21.8,14.652a3.746,3.746,0,0,1,2.67,1.167,3.942,3.942,0,0,1,1.083,2.762Z" transform="translate(14.367 4.147)" fill="none" stroke="#1d86ef" stroke-linecap="round" stroke-linejoin="round" stroke-width="3" fill-rule="evenodd"/><path d="M31.972,28.333a1.355,1.355,0,1,0,0-2.711Zm-9.927-2.711a1.355,1.355,0,0,0,0,2.711Zm8.579,1.355a1.355,1.355,0,1,0,2.711,0Zm2.711-9.519a1.355,1.355,0,1,0-2.711,0Zm-1.355,8.163a1.355,1.355,0,0,0,0,2.711Zm.442,2.711a1.355,1.355,0,0,0,0-2.711Zm7.477-2.71a1.355,1.355,0,0,0,.059,2.71Zm4-2.876,1.355-.024a1.365,1.365,0,0,0-.02-.208Zm.416-5.52a1.355,1.355,0,0,0-2.671.464ZM31.972,7.642a1.355,1.355,0,0,0,0,2.711ZM38.264,9v1.355h.009Zm2.871,1.241-.988.928h0Zm1.1,2.989-1.354-.058a1.357,1.357,0,0,0,.019.29Zm-.6,4.463a1.355,1.355,0,1,0,2.67-.465ZM33.327,9a1.355,1.355,0,1,0-2.711,0Zm-2.711,8.461a1.355,1.355,0,1,0,2.711,0Zm0-8.461a1.355,1.355,0,1,0,2.711,0Zm1.355-1.446-1.355-.009v.009ZM30.1,5.605,30.1,4.25H30.1Zm-16.889,0V4.25H13.2Zm-1.331.573L10.9,5.237h0Zm-.546,1.37h1.355V7.542Zm0,17.485,1.355.006v-.006Zm.546,1.37-.975.942h0Zm1.331.573L13.2,28.331h.006Zm1.323,1.355a1.355,1.355,0,1,0,0-2.711ZM31.976,16.1a1.355,1.355,0,0,0,0,2.711Zm11,2.711a1.355,1.355,0,0,0,0-2.711ZM1.605,7.864a1.355,1.355,0,0,0,0,2.711Zm5.515,2.711a1.355,1.355,0,0,0,0-2.711ZM3.367,13.286a1.355,1.355,0,1,0,0,2.711ZM6.891,16a1.355,1.355,0,1,0,0-2.711ZM4.442,18.708a1.355,1.355,0,0,0,0,2.711Zm2.449,2.711a1.355,1.355,0,0,0,0-2.711Zm25.081,4.2H22.045v2.711h9.927Zm1.362,1.355V17.459H30.624v9.519Zm-1.355,1.355h.442V25.622h-.442Zm7.978,0a5.466,5.466,0,0,0,5.292-5.61l-2.71.048A2.756,2.756,0,0,1,39.9,25.622Zm5.272-5.818-.92-5.288-2.671.464.92,5.288ZM31.972,10.353h6.292V7.642H31.972Zm6.3,0a2.549,2.549,0,0,1,1.875.814l1.976-1.856a5.26,5.26,0,0,0-3.868-1.669Zm1.875.814a2.757,2.757,0,0,1,.736,2l2.708.116a5.468,5.468,0,0,0-1.468-3.975Zm.755,2.294.737,4.231,2.67-.465L43.573,13ZM30.617,9v8.461h2.711V9Zm2.711,0V7.552H30.617V9Zm0-1.437A3.314,3.314,0,0,0,32.4,5.24L30.452,7.12a.605.605,0,0,1,.165.423ZM32.4,5.24a3.217,3.217,0,0,0-2.3-.99L30.09,6.961a.507.507,0,0,1,.362.16ZM30.1,4.25H13.208V6.961H30.1Zm-16.9,0a3.218,3.218,0,0,0-2.3.986l1.95,1.883a.507.507,0,0,1,.362-.159Zm-2.3.986a3.315,3.315,0,0,0-.926,2.318l2.711-.012a.6.6,0,0,1,.165-.422ZM9.976,7.548V25.033h2.711V7.548Zm0,17.479a3.315,3.315,0,0,0,.926,2.318l1.95-1.883a.6.6,0,0,1-.165-.422Zm.926,2.318a3.217,3.217,0,0,0,2.3.987l.013-2.711a.507.507,0,0,1-.362-.159Zm2.305.987h1.323V25.62H13.208Zm18.767-9.519h11V16.1h-11ZM1.605,10.575H7.121V7.864H1.605ZM3.367,16H6.891V13.286H3.367Zm1.075,5.422H6.891V18.708H4.442Z" transform="translate(0 -4.25)" fill="#1d86ef"/></g></svg>