<svg xmlns="http://www.w3.org/2000/svg" width="139.577" height="68.218" viewBox="0 0 139.577 68.218"><g transform="translate(-26.993 -178.9)"><path d="M347.2,191.684l1.861-1.884,1.7,1.721.163.14-1.861,1.884Z" transform="translate(-245.731 -8.365)" fill="#c89801"/><path d="M363.3,191.684l1.861-1.884,1.7,1.721.163.163-1.861,1.861Z" transform="translate(-258.086 -8.365)" fill="#c89801"/><path d="M289.242,202.287a1.762,1.762,0,0,1-.884-.209,2.129,2.129,0,0,1-1.116-2.186,1.447,1.447,0,0,1,.023-.372v-.3H271.449V184.982c0-.6-.4-.768-.721-.954a.959.959,0,0,1-.628-.7V183.1a20.662,20.662,0,0,0,3.768-3.7v17.4h13.42v-.674c-.023-.6-.07-1.837-3-1.861,0,0-1.372.023-2.745.023-.768,0-1.535,0-2.047-.023-.837-.07-1.3-1-1.326-1.837a1.53,1.53,0,0,1,.6-1.3l.209-.14.116.209c.256.512,1.372.744,3.466.744h.209c.837,0,1.791-.023,2.884-.047h.186c3.559,0,3.954,3.093,3.977,4.419v.512h3.512v-5.256s.047-.4-.674-.791a1.375,1.375,0,0,1-.6-.837,11.077,11.077,0,0,0,3.628-3.814v13.095h-5.908v.186c0,.791.14,1.814.6,2.163l.256.209-.279.163a2.033,2.033,0,0,1-1.116.349" transform="translate(-186.563 -0.384)" fill="#c89801"/><path d="M204.017,222.911v-1.977H195.9v-2.442h10.327v3.21s-.116,1,1.837,1a1.186,1.186,0,0,0,1.233-1.233v-5.722a.809.809,0,0,0-.907-.907H195.923V207.7a13.068,13.068,0,0,0,2.884,2.628c.233.14.116.535-.6,1-.14.093-.326.163-.326.372v.884h12.35c1.442.023,1.582,1.535,1.582,2v8.187c0,.023-.116,2.21-3.652,2.21-4.4.023-4.14-2.07-4.14-2.07" transform="translate(-129.621 -22.101)" fill="#c89801"/><path d="M441.7,198.909V179l.419.674a8.154,8.154,0,0,0,1.582,1.6,6.3,6.3,0,0,0,1.372,1c.209.093.4.163.4.4v.209a.915.915,0,0,1-.628.721,1.014,1.014,0,0,0-.674.954c-.047.465,0,14.351,0,14.351Z" transform="translate(-318.252 -0.077)" fill="#c89801"/><path d="M389.935,201.414l2.489-2.512-3.024-2.977v-17a12.606,12.606,0,0,0,3.093,3.768v.186a.908.908,0,0,1-.488.7,1.015,1.015,0,0,0-.558.977c-.023.442,0,9.931,0,10.094l2.512,2.6,2.512-2.6s.023-9.629,0-10.094a1.015,1.015,0,0,0-.558-.977.815.815,0,0,1-.488-.7v-.14a9.9,9.9,0,0,0,3.093-3.838V195.67l-3.024,3.186,2.512,2.512-4.024,4.047Zm4.047,1.675,1.675-1.7-1.675-1.675-1.7,1.675Z" transform="translate(-278.116 0)" fill="#c89801"/><path d="M301.756,325.883l4.256-4.582v-9.048c0-.07.093-.14.093-.14l.628-.3V311.3h-5.722v.512l.581.372c.163.093.186.163.186.233V317.6H290.336l-2.582,3.279V312.44l.023-.163a.574.574,0,0,1,.14-.093l.535-.349.047-.023V311.3h-5.7v.512l.558.372c.093.047.116.093.14.093h0v15.537l-.023.209a.232.232,0,0,1-.116.093l-.558.372V329h5.7v-.512l-.6-.372-.14-.07h0v-7.117l.6.186.791-.465a1.425,1.425,0,0,1,.349-.163.773.773,0,0,1,.326-.047h11.932Z" transform="translate(-196.31 -101.605)" fill="#c89801"/><path d="M528.906,318.131a9.127,9.127,0,0,0-4.559-5.163c-2.117-1.186-5.14-1.768-9.21-1.768H499.6v.512s.651.442.674.442h0v1.837h14.839c3,0,5.187.4,6.536,1.186,2.117,1.233,3.163,2.838,3.163,4.908A5.108,5.108,0,0,1,524,322.9a6.394,6.394,0,0,1-2.465,2.117,14.761,14.761,0,0,1-6.512,1.116h-7.745V315.27h-4.233v12.467l-.023.186-.116.116-.512.326-.047.023v.512h12.7a29.828,29.828,0,0,0,5.7-.419,13.4,13.4,0,0,0,4.861-2,8.4,8.4,0,0,0,3-3.256,6.523,6.523,0,0,0,.651-2.931,9.549,9.549,0,0,0-.349-2.163" transform="translate(-362.685 -101.529)" fill="#c89801"/><path d="M366.338,338.969a.943.943,0,0,1-.233-.07l10.652-11.071-2.465-2.628L360.5,339.62h6.35v-.6h-.233c-.093-.023-.186-.023-.279-.047" transform="translate(-255.938 -112.273)" fill="#c89801"/><path d="M418.714,313.758l2.721,2.884,2.814,2.838h-4.745l-2.6,2.721.558.4.6-.326a.592.592,0,0,1,.163-.047h8.582l5.605,6s-.093.093-.582.093h-.209v.6h6.35L421.156,311.2Z" transform="translate(-299.22 -101.529)" fill="#c89801"/><path d="M249.423,311.735l.558.372c.14.093.209.163.209.233V327.69l-.047.209a.707.707,0,0,1-.163.116l-.581.372v.512h5.675v-.512l-.512-.372a.839.839,0,0,1-.116-.093h-.023V312.34l.023-.163.14-.116.512-.349V311.2h-5.675Z" transform="translate(-170.678 -101.529)" fill="#c89801"/><path d="M54.975,325.5l-.744.419a1.7,1.7,0,0,1-.326.163l-12.676.023a14.991,14.991,0,0,1-6.559-1.116,5.3,5.3,0,0,1-3.256-4.954,5.088,5.088,0,0,1,.837-2.791,7.276,7.276,0,0,1,4.931-3.117,8.486,8.486,0,0,1,1.558-.14h6.536c.4-.023.326.07.349.116l-.07.465h.535l2.791-3.372H41.09a37.363,37.363,0,0,0-4.187.186c-.512.07-1,.163-1.489.256a13.873,13.873,0,0,0-3.7,1.442,9.737,9.737,0,0,0-4.07,4.117,6.839,6.839,0,0,0-.651,3.093c0,2.861,1.535,5.14,4.559,6.768a14.018,14.018,0,0,0,4.582,1.535,32.715,32.715,0,0,0,5.094.3H53.021l2.814-3.419H55.6Z" transform="translate(0 -101.529)" fill="#c89801"/><path d="M65.007,343.042l2.745-3.442H49.261L47.4,342.368H64.076c.3.023.419.116.442.163l-.07.488h.558Z" transform="translate(-15.66 -123.323)" fill="#c89801"/><path d="M118.2,314.686l.535.186.07.023.814-.4a1.27,1.27,0,0,1,.674-.209h10.187v13.7l-.047.186c-.047.047-.093.093-.116.093l-.581.4v.512h5.7v-.512l-.581-.372-.14-.14V314.291h9.071c.349.047.4.116.4.14v.488h.512l2.814-3.419H120.782Z" transform="translate(-69.993 -101.759)" fill="#c89801"/><path d="M137.6,435.262l4.3-10.862h1.4l4.256,10.862h-2.21l-.861-2.256H141.67l-.6-1.535H143.9l-1.116-3-.3-.93-.3.93-2.558,6.792Z" transform="translate(-84.881 -188.4)" fill="#c89801"/><rect width="2.117" height="10.862" transform="translate(68.023 236)" fill="#c89801"/><path d="M245.915,435.262l-2.489-3.559h-1.209v3.559H240.1V424.4h3.489a4.365,4.365,0,0,1,2.931.861,3.216,3.216,0,0,1,1,2.582,3.937,3.937,0,0,1-.581,2.186,3.217,3.217,0,0,1-1.628,1.349l2.954,3.838h-2.349Zm-3.675-5.047h1.372c1.186,0,1.791-.721,1.791-2.14a2.316,2.316,0,0,0-.419-1.489,1.682,1.682,0,0,0-1.4-.512H242.24Z" transform="translate(-163.541 -188.4)" fill="#c89801"/><path d="M296.51,435.262,293.3,424.4h2.186l2,7.745h.093l1.93-6-.558-1.744h2.07l2.512,7.745h.047L305.6,424.4h2.07l-3.279,10.862H302.6l-2.186-6.722-2.186,6.722Z" transform="translate(-204.367 -188.4)" fill="#c89801"/><path d="M370.1,435.262l4.3-10.862h1.4l4.256,10.862h-2.186l-.861-2.256H374.17l-.6-1.535h2.861l-1.14-3-.3-.93-.3.93-2.558,6.792Z" transform="translate(-263.305 -188.4)" fill="#c89801"/><path d="M429.559,435.262v-4.442L426,424.4h2.349l2.349,4.582,2.442-4.582h2.07l-3.559,6.419v4.442Z" transform="translate(-306.203 -188.4)" fill="#c89801"/><path d="M488.407,434.673a4.75,4.75,0,0,1-2.768-.721v-2.21a4.116,4.116,0,0,0,2.814,1.116c1.3,0,1.954-.512,1.954-1.512a1.112,1.112,0,0,0-.4-.907,3.728,3.728,0,0,0-1.372-.558l-.4-.093c-1.837-.442-2.745-1.489-2.745-3.117a3.143,3.143,0,0,1,1-2.489,4.252,4.252,0,0,1,2.861-.884,4.726,4.726,0,0,1,2.768.7v2.21a4.37,4.37,0,0,0-2.861-1.07,2.251,2.251,0,0,0-1.349.326,1.159,1.159,0,0,0-.419,1,1.125,1.125,0,0,0,.349.907,3.277,3.277,0,0,0,1.326.558l.4.093a4.294,4.294,0,0,1,2.163,1.07,2.71,2.71,0,0,1,.674,2,3.468,3.468,0,0,1-1.023,2.628,4.084,4.084,0,0,1-2.977.954" transform="translate(-351.864 -187.556)" fill="#c89801"/></g></svg>