<svg xmlns="http://www.w3.org/2000/svg" width="53.204" height="46.5" viewBox="0 0 53.204 46.5"><g transform="translate(0 478.89)"><path d="M37.578-478.787c-.146.062-1.426,1.27-2.863,2.7-2.155,2.134-2.675,2.6-3.019,2.7-.583.156-9.837.156-10.409,0-.344-.094-.874-.573-3.019-2.7-2.79-2.769-2.873-2.831-3.716-2.654-.416.094-.968.635-8.838,8.6L0-464.349v1.405l2.321,2.353c2.706,2.748,2.831,2.956,3,4.549a9.5,9.5,0,0,0,.76,3.216l.354.718-.2.291a4.945,4.945,0,0,0-.094,5.309,4.932,4.932,0,0,0,3.081,2.071l.635.115.115.635a4.79,4.79,0,0,0,3.206,3.654,3.1,3.1,0,0,0,.781.167c.354,0,.385.042.51.749A4.853,4.853,0,0,0,18.1-435.39a6.681,6.681,0,0,0,2.311-.052c.239-.062.291-.01.573.52a4.739,4.739,0,0,0,6.725,1.79,9.9,9.9,0,0,0,2.238-2.311l.2-.375.25.2a4.846,4.846,0,0,0,5.194.364,4.74,4.74,0,0,0,2.259-3.06,6.7,6.7,0,0,1,.208-.812,2.7,2.7,0,0,1,.583-.125,4.885,4.885,0,0,0,3.779-3.883l.073-.552.635-.115a4.7,4.7,0,0,0,3.362-2.571,4.637,4.637,0,0,0-.062-4.278L46-451.5l.312-.51a9.759,9.759,0,0,0,1.322-4.3,6.076,6.076,0,0,1,.187-1.166c.062-.146,1.27-1.468,2.686-2.925,2.811-2.9,2.883-3,2.571-3.841-.1-.291-1.895-2.155-7.068-7.38-4.216-4.257-7.047-7.047-7.255-7.141A1.586,1.586,0,0,0,37.578-478.787Zm6.266,9.41,5.579,5.621-2,2.03c-2.561,2.6-2.7,2.852-2.967,5.413a6.256,6.256,0,0,1-.729,2.5c-.031,0-1.759-1.7-3.841-3.779l-3.779-3.779.739-.5a8.925,8.925,0,0,0,3.081-3.789,1.74,1.74,0,0,0-.6-1.489,1.65,1.65,0,0,0-1.582-.146,2.819,2.819,0,0,0-.958,1.051,5.911,5.911,0,0,1-2.488,2.238,5.347,5.347,0,0,1-3.019.583,5.829,5.829,0,0,1-2.134-.5,4.521,4.521,0,0,0-2.238-.458c-1.728,0-2.519.354-4.028,1.832a4.59,4.59,0,0,1-3.248,1.52,4.429,4.429,0,0,1-1.405-.094l-.448-.135,3.55-4.268c1.947-2.353,3.675-4.341,3.831-4.424.229-.125.968-.167,3.622-.219,4.591-.094,4.414-.021,7.3-2.915a25.045,25.045,0,0,1,2.071-1.947C38.213-475.009,40.763-472.469,43.845-469.377Zm-26.836-3.6c1.676,1.645,2.092,2.009,2.665,2.28a5.724,5.724,0,0,0,1.072.385,1.175,1.175,0,0,1,.385.115c0,.021-1.593,1.957-3.539,4.289a47.852,47.852,0,0,0-3.654,4.622c-.281.9.229,1.645,1.624,2.425a7.283,7.283,0,0,0,3.393.958,7.57,7.57,0,0,0,6.079-2.353,6.871,6.871,0,0,1,1.124-.926,2.467,2.467,0,0,1,1.874.177,8.582,8.582,0,0,0,3.435.708l1.437.062,5.33,5.392c2.925,2.967,5.392,5.527,5.475,5.684a1.761,1.761,0,0,1-.052,1.5,1.6,1.6,0,0,1-1.988.708,18.48,18.48,0,0,1-2.061-1.853c-1.863-1.853-2.061-1.978-2.811-1.842a1.591,1.591,0,0,0-1.041.791,1.878,1.878,0,0,0-.042,1.384,23.683,23.683,0,0,0,1.707,1.842,18.769,18.769,0,0,1,1.759,1.947,1.636,1.636,0,0,1-1.884,2.321,9.345,9.345,0,0,1-2.113-1.822A26.126,26.126,0,0,0,33.237-446a1.892,1.892,0,0,0-.677-.115,1.5,1.5,0,0,0-1.426,1.915c.094.344.427.75,1.759,2.092a18.482,18.482,0,0,1,1.822,2.019,1.8,1.8,0,0,1-.135,1.645,1.618,1.618,0,0,1-2.124.416,17.817,17.817,0,0,1-1.78-1.686,19.71,19.71,0,0,0-1.978-1.853,5.3,5.3,0,0,0-2.1-.906c-.448,0-.531-.094-.614-.677a5.024,5.024,0,0,0-2.269-3.258c-.354-.2-.479-.323-.437-.437a6.853,6.853,0,0,0,.531-1.967,4.816,4.816,0,0,0-2.727-4.591,3.536,3.536,0,0,0-1.77-.4,3.618,3.618,0,0,0-1.666.187c-.344.125-.708.25-.8.281-.125.031-.239-.073-.4-.4a5.619,5.619,0,0,0-1.811-1.79,4.755,4.755,0,0,0-5.392.573c-.26.219-.51.354-.552.3a8.1,8.1,0,0,1-.167-1.02c-.344-3.123-.718-3.852-3.31-6.423l-1.561-1.561,5.59-5.642c3.071-3.1,5.632-5.642,5.684-5.652A23.611,23.611,0,0,1,17.009-472.979Zm-3.893,20.194a1.716,1.716,0,0,1,.718,2.061,18.934,18.934,0,0,1-3.081,3.112,1.564,1.564,0,0,1-2.217-1.436,2.063,2.063,0,0,1,.146-.791,29.622,29.622,0,0,1,3.029-3.019A1.757,1.757,0,0,1,13.116-452.785Zm6.839,2.311a1.656,1.656,0,0,1,.614,2.019,57.96,57.96,0,0,1-5.142,5.278,1.621,1.621,0,0,1-2.248-2.134,67.991,67.991,0,0,1,5.09-5.184A1.823,1.823,0,0,1,19.955-450.474Zm2.3,6.829a1.735,1.735,0,0,1,.531,2.03,25.067,25.067,0,0,1-2.9,2.967,1.547,1.547,0,0,1-2.186-.645,1.544,1.544,0,0,1-.01-1.489,19.378,19.378,0,0,1,3.029-3.029A2.027,2.027,0,0,1,22.255-443.645Zm4.247,4.393a1.63,1.63,0,0,1,.864,1.915,3.55,3.55,0,0,1-1.8,1.79,1.626,1.626,0,0,1-1.915-1.114c-.2-.708-.01-1.187.729-1.926a2.166,2.166,0,0,1,1.541-.854A2.327,2.327,0,0,1,26.5-439.252Z" fill="#fff"/></g></svg>