<svg xmlns="http://www.w3.org/2000/svg" width="53.886" height="39.343" viewBox="0 0 53.886 39.343"><g transform="translate(0 442.933)"><path d="M4.64-442.73a6.245,6.245,0,0,0-4.43,4.472c-.21.8-.21,1.178-.21,14.993s0,14.194.21,14.993A6.178,6.178,0,0,0,4.682-403.8c.81.21,1.178.21,22.253.21,21,0,21.443,0,22.243-.21a5.779,5.779,0,0,0,2.851-1.631,6.081,6.081,0,0,0,1.683-3.051c.231-1.1.231-28.461,0-29.566a6.081,6.081,0,0,0-1.683-3.051,5.778,5.778,0,0,0-2.851-1.631c-.8-.21-1.231-.21-22.285-.2C6.008-442.93,5.4-442.919,4.64-442.73Zm43.58,4.009a2.5,2.5,0,0,1,.821.484c.558.505.747,1.157.7,2.515l-.032,1.042H4.156l-.032-1.042a3.057,3.057,0,0,1,.642-2.462c.7-.684-.842-.642,22.116-.652C41.329-438.837,47.947-438.805,48.22-438.721Zm1.547,18.592c0,11.668.032,11.153-.737,11.847a2.487,2.487,0,0,1-.7.452c-.389.105-42.391.105-42.781,0a2.487,2.487,0,0,1-.7-.452c-.768-.694-.737-.179-.737-11.847v-10.4H49.767Z" fill="#00a0e3"/><path d="M117.3-275.672c-.116.021-.473.095-.789.158a6.319,6.319,0,0,0-4.114,3.22l-.358.768H101.27c-10.774,0-10.785,0-11.248.221a2.073,2.073,0,0,0-.621,3.114c.547.621.989.768,2.42.768h1.231v1.231c0,1.378.147,1.852.694,2.367a2.072,2.072,0,0,0,3.146-.484c.242-.421.263-.547.263-1.778v-1.336h2.1v1.231c0,1.378.147,1.852.694,2.367a2.169,2.169,0,0,0,2.82-.011c.463-.41.589-.884.589-2.273v-1.315h8.712l.116.337a7.006,7.006,0,0,0,1.568,2.188,6.794,6.794,0,0,0,2.609,1.41,7.69,7.69,0,0,0,2.9.053,7.426,7.426,0,0,0,2.62-1.294,7.039,7.039,0,0,0,1.883-2.7,7.573,7.573,0,0,0,.168-3.5,6.22,6.22,0,0,0-4.072-4.43A7.3,7.3,0,0,0,117.3-275.672Zm1.81,4.524a2.081,2.081,0,0,1,.673,2.515,2.041,2.041,0,0,1-3.451.442,2.075,2.075,0,0,1,.621-3.114A2.131,2.131,0,0,1,119.115-271.147Z" transform="translate(-79.585 -149.634)" fill="#00a0e3"/></g></svg>