<?xml version="1.0" encoding="UTF-8"?>
<!DOCTYPE svg PUBLIC "-//W3C//DTD SVG 1.1//EN" "http://www.w3.org/Graphics/SVG/1.1/DTD/svg11.dtd">
<!-- Creator: CorelDRAW -->
<svg xmlns="http://www.w3.org/2000/svg" xml:space="preserve" width="170px" height="70px" style="shape-rendering:geometricPrecision; text-rendering:geometricPrecision; image-rendering:optimizeQuality; fill-rule:evenodd; clip-rule:evenodd"
viewBox="0 0 14.6626 6.03758"
 xmlns:xlink="http://www.w3.org/1999/xlink">
 <defs>
  <style type="text/css">
   <![CDATA[
    .fil0 {fill:#6B809B}
    .fil1 {fill:#FEFEFE;fill-rule:nonzero}
   ]]>
  </style>
 </defs>
 <g id="Layer_x0020_1">
  <metadata id="CorelCorpID_0Corel-Layer"/>
  <rect class="fil0" x="1.80133e-005" y="1.73655e-005" width="14.6626" height="6.03758"/>
  <path class="fil1" d="M1.89103 3.5232l0.624163 -0.0952492c0.0264864,0.120921 0.0800705,0.213114 0.161669,0.275866 0.0808854,0.0626506 0.194268,0.0944343 0.34086,0.0944343 0.160956,0 0.281775,-0.0294407 0.36266,-0.0892388 0.0551121,-0.0407483 0.0824135,-0.0966754 0.0824135,-0.165438 0,-0.0475737 -0.0151788,-0.0868958 -0.0446194,-0.117865 -0.0309687,-0.0295425 -0.100547,-0.0566402 -0.207816,-0.0815985 -0.501714,-0.110326 -0.819856,-0.211586 -0.954428,-0.303066 -0.185812,-0.126931 -0.27882,-0.303779 -0.27882,-0.529728 0,-0.203232 0.0801723,-0.374783 0.241128,-0.513021 0.160956,-0.139054 0.410336,-0.20853 0.748037,-0.20853 0.321912,0 0.561512,0.052871 0.717884,0.157187 0.156372,0.105029 0.263744,0.259872 0.322625,0.465448l-0.586368 0.107983c-0.0249584,-0.0913781 -0.072532,-0.161669 -0.142823,-0.209956 -0.0702909,-0.0492036 -0.170022,-0.073347 -0.299908,-0.073347 -0.164012,0 -0.281163,0.0227172 -0.352167,0.0687628 -0.0468606,0.0324968 -0.0702909,0.0748751 -0.0702909,0.126218 0,0.0446194 0.0203742,0.0815985 0.0619375,0.112567 0.0559271,0.0415633 0.24938,0.0997315 0.581071,0.17532 0.330978,0.0747732 0.562225,0.166966 0.69374,0.276477 0.129987,0.111141 0.194981,0.265272 0.194981,0.462494 0,0.215355 -0.0899519,0.401269 -0.270569,0.556215 -0.179802,0.154844 -0.445889,0.23196 -0.798667,0.23196 -0.320486,0 -0.573635,-0.0649936 -0.760975,-0.194981 -0.186627,-0.129274 -0.308363,-0.30602 -0.365716,-0.528913zm2.44419 -1.67985l0.580358 0 0 0.345342c0.0747732,-0.11868 0.176746,-0.214642 0.305307,-0.287887 0.128459,-0.0740601 0.27118,-0.111039 0.427654,-0.111039 0.27281,0 0.50477,0.10727 0.694453,0.321097 0.190397,0.213929 0.285646,0.51241 0.285646,0.894731 0,0.392203 -0.0959623,0.697408 -0.287174,0.915106 -0.191925,0.217596 -0.424699,0.326394 -0.69751,0.326394 -0.129885,0 -0.247852,-0.0257733 -0.353594,-0.0771162 -0.105029,-0.052056 -0.216068,-0.140582 -0.333219,-0.265883l0 1.18476 -0.621921 0 0 -3.2455zm0.615809 1.13576c0,0.263744 0.0521579,0.459437 0.157289,0.58484 0.104214,0.126218 0.231858,0.189683 0.383034,0.189683 0.144351,0 0.264559,-0.0581682 0.360419,-0.173792 0.0959623,-0.115623 0.144351,-0.30602 0.144351,-0.569764 0,-0.247139 -0.0499167,-0.429997 -0.148833,-0.549389 -0.0990184,-0.119291 -0.221365,-0.178987 -0.367244,-0.178987 -0.151889,0 -0.278107,0.0581682 -0.378654,0.176033 -0.100445,0.117151 -0.150361,0.290841 -0.150361,0.521375zm2.48881 1.21512l-0.62182 0 0 -2.35087 0.577302 0 0 0.334034c0.0990184,-0.158002 0.188155,-0.262216 0.266698,-0.31203 0.0793574,-0.0499167 0.168494,-0.0755882 0.269041,-0.0755882 0.142008,0 0.278107,0.0393221 0.409521,0.117865l-0.192638 0.541749c-0.104316,-0.0672347 -0.201806,-0.10126 -0.291758,-0.10126 -0.0876089,0 -0.160854,0.0234303 -0.221263,0.0718189 -0.0613262,0.0475737 -0.108187,0.134469 -0.142925,0.259974 -0.034738,0.125403 -0.0521579,0.388332 -0.0521579,0.788073l0 0.726237zm0.890657 -2.66973l0 -0.575774 0.621921 0 0 0.575774 -0.621921 0zm0 2.66973l0 -2.35087 0.621921 0 0 2.35087 -0.621921 0zm3.11979 0l-0.62182 0 0 -1.20004c0,-0.253862 -0.0136507,-0.417874 -0.0401371,-0.492647 -0.0263845,-0.0740601 -0.0702909,-0.132228 -0.129987,-0.173792 -0.0595944,-0.0408502 -0.131413,-0.0619375 -0.215253,-0.0619375 -0.108085,0 -0.204862,0.0294407 -0.29023,0.088322 -0.0853678,0.0597982 -0.144351,0.137627 -0.176033,0.235118 -0.0316818,0.0973885 -0.0476755,0.277292 -0.0476755,0.540221l0 1.06475 -0.62182 0 0 -2.35087 0.577302 0 0 0.345342c0.205473,-0.265985 0.46392,-0.398926 0.775339,-0.398926 0.136711,0 0.262929,0.0249584 0.376209,0.0739582 0.113382,0.0499167 0.199565,0.112669 0.257733,0.189683 0.0581682,0.0771162 0.0990184,0.164012 0.121634,0.261502 0.0234303,0.0974904 0.034738,0.236442 0.034738,0.417874l0 1.46144zm1.43016 -2.35087l0 0.495703 -0.424699 0 0 0.947602c0,0.191925 0.00376922,0.303779 0.0121226,0.335563 0.00825154,0.0316818 0.0264864,0.0573533 0.055214,0.0785424 0.0286257,0.020476 0.0641786,0.0309687 0.104927,0.0309687 0.0582701,0 0.141295,-0.0203742 0.250908,-0.0596963l0.052871 0.482053c-0.145064,0.0620393 -0.308261,0.0930081 -0.491934,0.0930081 -0.111752,0 -0.213012,-0.0188461 -0.302964,-0.0559271 -0.0898501,-0.0377941 -0.155659,-0.0868958 -0.197935,-0.146592 -0.0423783,-0.0596963 -0.0711058,-0.14048 -0.0877108,-0.242554 -0.0128357,-0.0718189 -0.0196611,-0.218411 -0.0196611,-0.438248l0 -1.02472 -0.285544 0 0 -0.495703 0.285544 0 0 -0.467689 0.624163 -0.362762 0 0.830451 0.424699 0z"/>
 </g>
</svg>
