<svg xmlns="http://www.w3.org/2000/svg" xmlns:xlink="http://www.w3.org/1999/xlink" width="182" height="32.057" viewBox="0 0 182 32.057"><defs><clipPath id="a"><path d="M0-585.825H182v32.057H0Z"/></clipPath></defs><g transform="translate(0 585.825)" clip-path="url(#a)"><path d="M30.974-563.95c-.118,0-.217,0-.273.009-.065.118-.161.276-.3.5a35.416,35.416,0,0,1,6.467.583l-.63.608a31.139,31.139,0,0,0-5.816-.5c-.31,0-.375,0-.45,0-.074.112-.242.329-.409.53.189-.012.555-.019,1.061-.019a31.767,31.767,0,0,1,5.168.416l-.63.611a30.735,30.735,0,0,0-4.488-.332c-.527,0-1.126.019-1.663.05-.121.14-.437.481-.533.586a23.178,23.178,0,0,1,2.423-.109,25.96,25.96,0,0,1,3.787.264l-.63.6a24.166,24.166,0,0,0-2.8-.167,11.065,11.065,0,0,0-6.145,1.687,10.927,10.927,0,0,0,7.745,3.21h.273l-1.017.984A33.767,33.767,0,0,1,19.761-559.6a40.264,40.264,0,0,0-7.646-4.377l-.019-.72,1.9.813.645-.512,6.188,2.835-.4.323-3.176-1.38-.313.245,1.65.921a7.14,7.14,0,0,0,3.434,1.123c2.143,0,4.067-1.52,5.307-4.191a24.02,24.02,0,0,1,3.127-.177,40.017,40.017,0,0,1,7.544.741l-.658.636a37.6,37.6,0,0,0-6.362-.636m-6.015,17.665a14.584,14.584,0,0,1-14.581-14.581,14.584,14.584,0,0,1,14.581-14.581A14.584,14.584,0,0,1,39.54-560.866a14.584,14.584,0,0,1-14.581,14.581m0-30.092A15.5,15.5,0,0,0,9.448-560.866a15.5,15.5,0,0,0,15.511,15.511,15.5,15.5,0,0,0,15.511-15.511,15.5,15.5,0,0,0-15.511-15.511m40.979,21.686h8.893v4.166H61.153v-20.682h4.786Zm19.648-10.725h4.461v14.891h-4.2v-1.714c-.621,1.152-1.891,2.157-4.225,2.157-3.811,0-5.791-1.714-5.791-6.618v-8.716H80.3v8.509c0,1.98.857,2.866,2.659,2.866,1.625,0,2.63-.886,2.63-2.866Zm7.889-.561c0-3.6,2.275-5.525,5.85-5.525a8.912,8.912,0,0,1,1.891.177v3.6s-.62-.059-1.152-.059c-1.389,0-2.127.473-2.127,1.773v.591h3.28v3.634h-3.28v11.257H93.475v-11.257H91.23v-3.634h2.245v-.561m15.6.561h3.4v3.634h-3.4v5.791c0,1.6.827,2.009,2.127,2.009.532,0,1.27-.089,1.27-.089v3.575a10.85,10.85,0,0,1-2.127.236c-3.575,0-5.732-1.625-5.732-5.229v-6.293h-2.246v-3.634h2.246v-4.343h4.461Zm13.275-.443c3.782,0,5.761,1.714,5.761,6.618v8.716H123.65v-8.509c0-1.979-.857-2.866-2.718-2.866-1.684,0-2.689.886-2.689,2.866v8.509h-4.461v-20.652h4.491v7.209a4.573,4.573,0,0,1,4.077-1.891m17.136,9.543c0,1.625-1.536,2.837-3.9,2.837-1.152,0-1.832-.532-1.832-1.536,0-.768.473-1.418,1.98-1.625L138.3-557a7.533,7.533,0,0,0,1.182-.236ZM137-565.859c-4.4,0-6.53,1.684-6.707,4.845h4.343c.059-.827.532-1.448,2.364-1.448,1.625,0,2.393.532,2.393,1.329,0,.709-.443.975-1.536,1.093l-2.836.3c-3.841.413-5.584,2.009-5.584,4.9,0,2.689,1.655,4.757,5.17,4.757a5.816,5.816,0,0,0,5.052-2.3v1.861h4.077V-560.3c0-4.107-2.393-5.554-6.736-5.554m17.052,0c3.871,0,5.85,1.713,5.85,6.618v8.716h-4.462v-8.509c0-1.979-.857-2.866-2.718-2.866-1.684,0-2.689.886-2.689,2.866v8.509h-4.461v-14.891h4.2v1.714c.62-1.152,1.891-2.157,4.284-2.157m15.261,6c3.782.5,5.673,1.684,5.673,4.786,0,3.132-2.216,4.993-6.914,4.993-5.111,0-6.914-2.038-7-5.023h4.4c.118,1.093.886,1.625,2.6,1.625,1.743,0,2.452-.414,2.452-1.241,0-.768-.591-1.123-2.127-1.33l-1.566-.207c-3.279-.443-5.17-1.714-5.17-4.668,0-2.836,2.1-4.934,6.5-4.934,4.077,0,6.264,1.625,6.47,4.846h-4.343c-.148-.857-.62-1.389-2.127-1.389-1.477,0-2.039.5-2.039,1.152s.355,1,1.625,1.182l1.566.207m16.841,3.546c0,1.625-1.537,2.836-3.9,2.836-1.152,0-1.832-.532-1.832-1.536,0-.768.473-1.418,1.98-1.625l2.571-.355a7.511,7.511,0,0,0,1.182-.236Zm-2.482-9.543c-4.4,0-6.529,1.684-6.707,4.845h4.343c.059-.827.532-1.448,2.363-1.448,1.625,0,2.393.532,2.393,1.329,0,.709-.443.975-1.536,1.093l-2.836.3c-3.841.414-5.584,2.009-5.584,4.9,0,2.689,1.655,4.757,5.171,4.757a5.815,5.815,0,0,0,5.052-2.3v1.862h4.077V-560.3c0-4.107-2.393-5.554-6.736-5.554" transform="translate(-8.931 -8.931)" fill="#0a1d3d"/></g></svg>