<svg xmlns="http://www.w3.org/2000/svg" width="179.388" height="52.753" viewBox="0 0 179.388 52.753"><g transform="translate(0 0)"><g transform="translate(0 0)"><path d="M2899.645,138.577l13.559-.811c-7.161-.24-11.41-.24-12.747-.1l-2,.43C2898.212,138.338,2898.642,138.482,2899.645,138.577Z" transform="translate(-2760.667 -131.036)" fill="#898989" fill-rule="evenodd"/><path d="M2780.6,203.725l22.295-.479-21.579-.764c-2.865-.191-4.441,0-4.679.525C2776.209,203.725,2777.594,203.963,2780.6,203.725Z" transform="translate(-2644.631 -192.794)" fill="#898989" fill-rule="evenodd"/><path d="M2692.894,288.925l33.659-1.194-30.317-.382c-2.291,0-3.485.238-3.485.716l.144.86Z" transform="translate(-2564.801 -273.697)" fill="#898989" fill-rule="evenodd"/><path d="M2654.772,372.8l33.8-1.527-36.618-.574c-.955.1-1.479.334-1.575.813C2650.237,372.563,2651.669,372.945,2654.772,372.8Z" transform="translate(-2524.434 -353.087)" fill="#898989" fill-rule="evenodd"/><path d="M2624.146,455.163l40.008-1-37-1.051c-2.389,0-3.628.383-3.821,1.29-.046.383.24.716.813.764Z" transform="translate(-2498.679 -431.581)" fill="#898989" fill-rule="evenodd"/><path d="M2617.391,538.649l12.651-.143,1.766-2.006h-12.651c-1.91,0-2.77.429-2.53,1.289A.837.837,0,0,0,2617.391,538.649Z" transform="translate(-2492.258 -511.008)" fill="#898989" fill-rule="evenodd"/><path d="M2631.515,623.306l8.021-.573,1.05-1.813-9.4.143c-1.813,0-2.722.382-2.722,1.1,0,.573.24.908.668.956l2.387.19Z" transform="translate(-2503.566 -591.417)" fill="#898989" fill-rule="evenodd"/><path d="M2657.861,706.563l20.386-.812-1.432-1.431-19.669.143-2.052.238a.824.824,0,0,0-.241.907c.144.86,1.194,1.194,3.009.956Z" transform="translate(-2528.67 -670.854)" fill="#898989" fill-rule="evenodd"/><path d="M2727.622,801.895l-20.291-.144c-2.484,0-3.582.286-3.533,1,.239.908,1.623,1.147,4.248.908l20.815-.478Z" transform="translate(-2575.323 -763.655)" fill="#898989" fill-rule="evenodd"/><path d="M2806.753,888.352l-21.818-.192c-.477,0-.716.192-.716.573,0,.717,1.527,1.05,4.535.86l20.146-.716Z" transform="translate(-2651.925 -845.959)" fill="#a0a2a3" fill-rule="evenodd"/><path d="M2906.853,961.162l11.936-.383-12.509-.477c-1.67-.238-2.53-.1-2.53.477Z" transform="translate(-2765.775 -914.567)" fill="#a0a2a3" fill-rule="evenodd"/><path d="M2831.719,1.876c-4.344,1.863-12.793,6.779-25.3,14.9a126.249,126.249,0,0,1,17.854-8.355l9.789-3.247,1.908.143c.382.239-.19.573-1.527.955a129.187,129.187,0,0,0-12.747,5.346c-7.161,3.249-11.268,5.54-12.461,6.971l8.261.192a5.85,5.85,0,0,1-4.3,2.388l-1.575.048c1.816,2.96,4.775,4.63,8.832,4.869l2.77.143.144,2.15-11.6,1.145,11.219.716c.146,1.671.1,2.53-.142,2.53h-11.315l10.407,1.528-.62,2.673-9.405.717,8.355.905-1.958,2.674-5.109.669,3.963.859-4.346,3.007a79.838,79.838,0,0,1-6.922-7.686l-3.055-4.249-4.2.907c3.677-2.625,5.634-4.63,5.968-5.825a24.2,24.2,0,0,0-.478-4.677l-1.527,1.574a11.441,11.441,0,0,0-1-4.3l-.574,1.767-2.529,2.2,1.812-.143c-1.1,6.112-3.58,10.025-7.495,11.6l-2.292-2.386,1.576-1.433-2.387.716-.477-.716a58.132,58.132,0,0,1,5.584-8.164l6.923-6.3a108.364,108.364,0,0,1,10.885-8.116c8.833-5.347,15.231-8.737,19.1-10.169,1.529-.573,2.148-.478,1.767.143l-1.767,1.338Z" transform="translate(-2656.697 -0.015)" fill="#7d1c42" fill-rule="evenodd"/><path d="M1736.4,890.632v7.975h-1.488v-6.413c-.144.048-.241,0-.266-.121l.121-.361Zm-13.636,6.654h-8.176v-1.4a1.174,1.174,0,0,1,1.106-.617h6c.576,0,.89.12,1.009.408l.073.673-.016.937Zm6.622-6.966c.575,0,.84.24.84.671,0,.362-.265.553-.84.553-.433,0-.673-.191-.673-.553A.607.607,0,0,1,1729.383,890.32Zm-1.946,0c.6,0,.863.24.863.671,0,.362-.265.553-.863.553-.459,0-.7-.191-.7-.553A.614.614,0,0,1,1727.437,890.32Zm-21.98,8.767c.554,0,.842.24.842.673,0,.36-.288.551-.842.551-.479,0-.72-.191-.72-.551C1704.737,899.327,1704.978,899.087,1705.457,899.087Zm-1.969,0c.552,0,.841.24.841.673,0,.36-.288.551-.841.551-.481,0-.721-.191-.721-.551C1702.767,899.327,1703.008,899.087,1703.489,899.087Zm-2.883-8.648c.6,0,.888.24.888.672,0,.361-.288.553-.888.553-.433,0-.673-.192-.673-.553A.608.608,0,0,1,1700.606,890.439Zm-1.874,0c.6,0,.866.24.866.672,0,.361-.264.553-.866.553-.456,0-.7-.192-.7-.553A.615.615,0,0,1,1698.731,890.439Zm.385,6.847h1.537v-1.9l-1.177.6A1.173,1.173,0,0,0,1699.116,897.286ZM1729,894.524c-.648.192-.963.431-.963.792H1729Zm-26.9-3.22v5.982h4.4V895.6c-.48-.119-.528-.36-.121-.721l1.515-1.056v4.78H1697.65l.193-2.258c0-.433.432-.985,1.321-1.586a9.506,9.506,0,0,1,1.442-.841l.072-.576c-.36-.121-.481-.24-.36-.36l1.777-1.682Zm24.884,5.021v-1.25c0-.649.842-1.321,2.5-1.994l.914-.457v4.661h1.969v-5.092l-.288-.121a.329.329,0,0,1,.12-.361c.193-.168.721-.527,1.61-1.129v8.023h-22.579a2,2,0,0,1-.889,1.754l-1.273.409a1.955,1.955,0,0,1-1.249-.6c-.24-.217-.192-.337.073-.361a1.362,1.362,0,0,0,1.44-.216,1.1,1.1,0,0,0,.528-.985l.073-3.94-.385-.143c-.1-.1-.048-.218.144-.337l1.562-1.153.047,4.252h1.8v-4.973c-.432-.192-.432-.48,0-.793l1.489-1.057v3.994a2.332,2.332,0,0,1,1.681-.584h5.477a2.683,2.683,0,0,1,1.682.6,2.2,2.2,0,0,1,.792,1.8l-.015,1.009h4.8v-.961h-2.02Z" transform="translate(-1616.984 -848.016)" fill="#7d1c42" fill-rule="evenodd"/><path d="M645.107,267.832l3.546-8.691,3.545,8.691Zm11.177,10.015h5.564L650.72,252.94h-2.066L637.79,277.847h3.232l3.157-7.737h8.949l3.157,7.737Z" transform="translate(-607.485 -240.922)" fill="#7d1c42" fill-rule="evenodd"/><path d="M1508.368,267.832l3.546-8.691,3.545,8.691Zm11.175,10.015h5.565L1513.98,252.94h-2.066l-10.864,24.907h3.232l3.156-7.737h8.95l3.156,7.737Z" transform="translate(-1429.726 -240.922)" fill="#7d1c42" fill-rule="evenodd"/><path d="M1126.54,252.95h18.852v3.02h-6.731v21.886h-5.352V255.97h-6.77Z" transform="translate(-1073.011 -240.932)" fill="#7d1c42" fill-rule="evenodd"/><path d="M14.016,264.132c-5.141,0-9.307-4.932-9.307-11.015S8.876,242.1,14.016,242.1s9.307,4.932,9.307,11.015-4.166,11.015-9.307,11.015Zm14.016-11.015c0-7.4-6.275-13.408-14.016-13.408S0,245.713,0,253.118s6.275,13.407,14.016,13.407a14.727,14.727,0,0,0,2.052-.159l7.454,6.723,3.974-3.18L19.621,265.4a13.4,13.4,0,0,0,8.411-12.284Z" transform="translate(0 -228.321)" fill="#7d1c42" fill-rule="evenodd"/><path d="M2099.726,264.7v-10.44h5.618s3.02,1.7,3.02,4.823-1.324,5.617-3.232,5.617Zm6.148,1.537a7.938,7.938,0,0,0,6.333-7.87c0-4.9-5.789-5.432-5.789-5.432H2095.38v24.907h4.346V266.772h1.484l7.154,10.81h6.148l-8.638-11.34Z" transform="translate(-1995.816 -240.922)" fill="#7d1c42" fill-rule="evenodd"/><path d="M608.588,885.11h2.755l-1.355-3.792h-.023Zm.809-4.77h1.2l3.176,8.13h-1.2l-.888-2.448h-3.439l-.911,2.448H606.22Z" transform="translate(-577.415 -838.51)" fill="#898989"/><path d="M782.82,888.46H783.9v-8.13H782.82Z" transform="translate(-745.623 -838.501)" fill="#898989"/><path d="M847.237,884.076c1.013,0,1.878-.262,1.878-1.445a1.286,1.286,0,0,0-1.445-1.389h-2.687v2.835h2.254ZM843.9,880.33h3.827c1.525,0,2.47.831,2.47,2.129a1.949,1.949,0,0,1-1.411,2.061v.023c.945.182,1.138.877,1.217,1.673a4.162,4.162,0,0,0,.479,2.243h-1.206c-.308-.329-.136-1.207-.3-2-.114-.8-.307-1.469-1.355-1.469h-2.642v3.473H843.9v-8.13Z" transform="translate(-803.801 -838.501)" fill="#898989"/><path d="M996.026,888.46H994.9l-1.857-6.832h-.022l-1.879,6.832h-1.127l-2.083-8.13h1.1l1.594,6.764h.023l1.822-6.764h1.172l1.8,6.764h.023l1.651-6.764H998.2Z" transform="translate(-940.987 -838.501)" fill="#898989"/><path d="M1201.9,885.11h2.755l-1.355-3.792h-.023l-1.377,3.792Zm.809-4.77h1.2l3.177,8.13h-1.2l-.888-2.448h-3.439l-.911,2.448h-1.115Z" transform="translate(-1142.533 -838.51)" fill="#898989"/><path d="M1343.464,885.135v3.325h-1.081v-3.325l-3.142-4.8h1.286l2.437,3.871,2.379-3.871h1.23Z" transform="translate(-1275.604 -838.501)" fill="#898989"/><path d="M1508.06,878.833a1.778,1.778,0,0,0-2.016-1.663c-.911,0-1.822.331-1.822,1.389,0,1,1.3,1.15,2.607,1.446s2.6.752,2.6,2.346c0,1.731-1.7,2.425-3.177,2.425-1.822,0-3.359-.888-3.359-2.87h1.025c0,1.367,1.139,1.959,2.368,1.959.979,0,2.061-.308,2.061-1.481,0-1.116-1.3-1.309-2.6-1.594s-2.608-.66-2.608-2.152c0-1.651,1.469-2.38,2.949-2.38,1.663,0,2.926.786,2.995,2.573Z" transform="translate(-1431.478 -834.624)" fill="#898989"/></g></g></svg>