<svg xmlns="http://www.w3.org/2000/svg" width="64.827" height="57.229" viewBox="0 0 64.827 57.229"><g transform="translate(-93.189 -140.7)"><path d="M305.512,195.925a24.443,24.443,0,0,1-4.66-4.125,24.64,24.64,0,0,1-4.675,4.125,26.237,26.237,0,0,1-13.677,4.489v18.058a11.306,11.306,0,0,0,.264,2.28s2.21,13.91,18.089,21.1a31.979,31.979,0,0,0,16.592-16.592,18.168,18.168,0,0,0,1.737-6.784V200.414A26.188,26.188,0,0,1,305.512,195.925Z" transform="translate(-174.633 -47.138)" fill="#fff"/><path d="M126.218,194.711a32.218,32.218,0,0,1-13.739-11.436c-1.62-.543-3.179-1.124-4.668-1.721A35.93,35.93,0,0,0,125.574,197.8a1.683,1.683,0,0,0,1.287.008,34.857,34.857,0,0,0,12.879-9.227c-1.295-.062-2.628-.163-3.985-.295A31.418,31.418,0,0,1,126.218,194.711Zm28.859-22.028a19.963,19.963,0,0,0-1.977-1.543,40.156,40.156,0,0,0-5.451-3.148V151.927a1.7,1.7,0,0,0-1.69-1.714,23.4,23.4,0,0,1-13.328-3.985,19.783,19.783,0,0,1-5.017-4.792,1.7,1.7,0,0,0-2.791-.008,19.874,19.874,0,0,1-5.024,4.792,23.46,23.46,0,0,1-13.336,3.985,1.714,1.714,0,0,0-1.69,1.714v7.18c-.961.062-1.869.147-2.721.264a21.627,21.627,0,0,0-4.869,1.155c-2.249.876-3.559,2.1-3.9,3.644-.326,1.473.279,3.055,1.783,4.714l.008.008c.031.031.054.062.085.093a25.363,25.363,0,0,0,6.319,4.567c.186.1.38.209.574.31,1.039.55,2.155,1.093,3.326,1.613a27.429,27.429,0,0,0,1.419,3.985q2.07.9,4.365,1.721a30.444,30.444,0,0,1-2-4.148,102.8,102.8,0,0,0,14.251,4.21,98.823,98.823,0,0,0,16.368,2.287,33.106,33.106,0,0,1-2.644,3.326c1.326.109,2.621.186,3.869.225.558-.706,1.054-1.388,1.5-2.031.326-.473.636-.954.938-1.442,1.078-.008,2.109-.039,3.109-.109a28.689,28.689,0,0,0,6.559-1.085c.388-.124.752-.248,1.093-.388a9.557,9.557,0,0,0,1.76-.915,7.845,7.845,0,0,0-.938-1.248,8.486,8.486,0,0,1-1.915.907,25.923,25.923,0,0,1-6.66,1.179q-1.012.07-2.093.093c2.078-3.784,3.3-7.684,3.3-10.708v-1.6a34.683,34.683,0,0,1,5.451,3.342c.341.264.651.52.946.783,1.264,1.124,2.7,2.776,2.373,4.264a2.262,2.262,0,0,1-.279.667,8.753,8.753,0,0,1,.992,1.272,3.819,3.819,0,0,0,.8-1.6c.388-1.783-.574-3.722-2.861-5.761Zm-52.856-.512c-.054-.031-.116-.062-.171-.093a23.022,23.022,0,0,1-5.854-4.288c-.008,0-.008.008-.016.008a5.967,5.967,0,0,1-.923-1.248,2.886,2.886,0,0,1-.465-2.062c.372-1.7,3.024-2.97,7.257-3.567.845-.116,1.752-.209,2.721-.271v10.684a14.415,14.415,0,0,0,.194,2.233C104,173.11,103.081,172.644,102.221,172.171Zm42.334-.837c0,2.458-1.2,6.505-3.784,10.677a95.46,95.46,0,0,1-17.019-2.3,98.865,98.865,0,0,1-15.243-4.613,13.957,13.957,0,0,1-.636-3.768V153.276a26.237,26.237,0,0,0,13.677-4.489,24.617,24.617,0,0,0,4.675-4.125,24.711,24.711,0,0,0,4.66,4.125,26.187,26.187,0,0,0,13.669,4.489Z" transform="translate(-0.006 0)" fill="#00a0e3"/><path d="M129.29,443.2a25.773,25.773,0,0,0-7.567,1.419,9.47,9.47,0,0,0-1.923.985,7.708,7.708,0,0,0,.938,1.248c1.644-1.085,4.613-1.822,8.552-2.086Z" transform="translate(-24.548 -279.046)" fill="#06f3ff"/><path d="M95.244,474.1a6.275,6.275,0,0,0,.923,1.248c.008,0,.008-.008.016-.008a8.289,8.289,0,0,1-.938-1.241Zm61.881,13.5a9.979,9.979,0,0,0-.992-1.272c-.318-.341-.667-.69-1.062-1.039a33.83,33.83,0,0,0-7.521-4.737c-.031.209-.171,1.14-.264,1.6a31.6,31.6,0,0,1,6.753,4.3,12.444,12.444,0,0,1,.969.954,7.509,7.509,0,0,1,.938,1.248,2.909,2.909,0,0,1,.465,2.062c-.45,2.024-4.179,3.458-9.971,3.838-1.69.109-3.52.132-5.443.07-1.248-.039-2.543-.116-3.869-.225a100.644,100.644,0,0,1-13.383-2.078,103.285,103.285,0,0,1-12.584-3.605q-2.291-.826-4.365-1.721c-1.644-.713-3.179-1.458-4.575-2.217-5.094-2.784-7.87-5.66-7.428-7.684a2.179,2.179,0,0,1,.279-.667l-.008-.008a8.01,8.01,0,0,1-.992-1.264,3.819,3.819,0,0,0-.8,1.6c-.333,1.5.3,3.125,1.884,4.815a25.363,25.363,0,0,0,6.319,4.567,60.058,60.058,0,0,0,6.342,2.962q2.221.9,4.668,1.721a106.3,106.3,0,0,0,10.925,3.016,104.665,104.665,0,0,0,12.344,1.993c1.365.132,2.7.233,3.985.295,1.14.054,2.241.085,3.311.085,1.21,0,2.38-.039,3.489-.109a25.566,25.566,0,0,0,7.653-1.473c2.148-.868,3.4-2.07,3.737-3.574A4.511,4.511,0,0,0,157.125,487.6Z" transform="translate(0 -307.55)" fill="#06f3ff"/><path d="M117.308,504.008A.008.008,0,0,1,117.3,504,.008.008,0,0,1,117.308,504.008Z" transform="translate(-22.242 -335.132)" fill="#06f3ff"/></g></svg>