<svg xmlns="http://www.w3.org/2000/svg" width="183.122" height="41.606" viewBox="0 0 183.122 41.606"><g transform="translate(0)"><path d="M344.439,29.319h0A15.094,15.094,0,0,1,324.36,51.833h0a15.1,15.1,0,1,0,20.1-22.543" transform="translate(-166.393 -15.029)" fill="#202d5c"/><path d="M309.656,63.238c-.487.268-.584.667-.341,1.29s.579.813.974.657c.3-.117.355-.385.229-1.057l-.054-.268a2.713,2.713,0,0,1-.063-1.251.852.852,0,0,1,.55-.648c.682-.278,1.324.151,1.709,1.11.414,1.037.195,1.816-.618,2.157l-.2-.511c.565-.239.711-.769.4-1.519-.243-.618-.638-.891-1.047-.725-.336.131-.409.433-.287,1.134l.049.3.044.258a2.253,2.253,0,0,1,.049.925.808.808,0,0,1-.526.589c-.638.258-1.261-.117-1.607-.974-.375-.945-.17-1.641.545-1.948Z" transform="translate(-158.374 -31.751)" fill="#202d5c"/><path d="M308.067,51.423l2.293-1.933.015.711-1.943,1.612.628.691,1.368-.029.01.56-3.89.088-.015-.56,1.529-.034h.409l-.131-.141-.131-.136-1.724-1.865-.015-.74Z" transform="translate(-157.213 -25.394)" fill="#202d5c"/><path d="M310.268,38.618l1.5.526-.185.531-1.5-.531-2.688.813.224-.643,1.67-.487.2-.054.278-.068c-.127-.161-.156-.19-.292-.385l-1.032-1.393.214-.618Z" transform="translate(-157.691 -18.631)" fill="#202d5c"/><path d="M315.77,25.863l-.823,1.013,2.454,2.011-.589.721L314.353,27.6l-.818,1-.555-.458,2.23-2.731Z" transform="translate(-160.554 -13.038)" fill="#202d5c"/><path d="M326.206,18.1l-1.967,1.154.419.721,1.8-1.057.341.575-1.806,1.052.482.833,2-1.178.37.623-2.814,1.646-1.962-3.364,2.77-1.626Z" transform="translate(-165.731 -8.969)" fill="#202d5c"/><path d="M338.255,15.954a5.585,5.585,0,0,1-.419-.794,6.573,6.573,0,0,1-.166.886l-.161.745,1.134-.18Zm2.235,2.011-1.008.063-.511-.842-1.568.253-.219.974-.974.248,1.022-4.255.974-.156Z" transform="translate(-172.473 -7.312)" fill="#202d5c"/><path d="M353.171,19.175l-.818-.312.312-1.159c.029-.136.083-.321.151-.56s.127-.433.161-.575.1-.316.156-.487l.088-.278c-.229.394-.321.531-.531.852-.083.141-.166.253-.239.355l-1.105,1.553-.711-.19-.219-1.85c0-.1-.024-.229-.039-.419s-.024-.428-.034-.56v-.482l-.1.487c-.112.516-.165.735-.321,1.349l-.321,1.256-.862-.17.974-3.807,1.315.258.185,1.8a8.283,8.283,0,0,1,.039,1.276,4.87,4.87,0,0,1,.365-.643c.112-.18.209-.331.3-.458l1.027-1.461,1.242.424Z" transform="translate(-178.903 -7.276)" fill="#202d5c"/><path d="M338.608,42.744a5.36,5.36,0,0,1,2.639-1.144c.341,0,.755.117.755.54s-.419.8-1.232,1.1a7.109,7.109,0,0,1-3,.185,7.83,7.83,0,0,1,.842-.677M322.8,44.126c-.691-.049-1.032-.326-1.032-.867,0-.068.044-1.782,3.949-1.972a9.1,9.1,0,0,1,1.7.044l-.438.385-.248.219c-.94.862-2.517,2.288-3.929,2.191m8.452-6.456c-.487.414-1.407,1.315-2.313,2.181l-1.027.974A14.87,14.87,0,0,0,325.4,40.6a6.624,6.624,0,0,0-4.436,1.344,1.378,1.378,0,0,0-.438,1c0,.92,1.066,1.378,1.392,1.5a4.557,4.557,0,0,0,4.582-.6,24.748,24.748,0,0,0,2.581-2.24c.6.141,1.276.321,2.011.531l.677.2c-.876.862-1.777,1.767-2.61,2.5l-.063.058a7.306,7.306,0,0,1-3.2,2.025,2.478,2.478,0,0,1-1.655-.112l-.044.039a3.072,3.072,0,0,0,2.5.8,6.493,6.493,0,0,0,3.622-1.977l1.728-1.7,1.212-1.2,2.434.716h.039l-1.514,1.461-1.29,1.334a23.858,23.858,0,0,1-2.843,2.522,6.869,6.869,0,0,1-3.36,1.461,3.291,3.291,0,0,1-1.836-.351l-.063.029a3.973,3.973,0,0,0,2.853,1.2c1.573-.054,2.96-.808,5.132-2.8.974-.906,1.948-1.948,2.834-2.819L337.26,43.9a12.581,12.581,0,0,0,3.053.312c1.524-.034,2.834-.764,2.843-1.6a1.363,1.363,0,0,0-.794-1.144,3.5,3.5,0,0,0-1.879-.545,5.561,5.561,0,0,0-3.545,1.5l-.808.711-.3-.078-2.24-.633c.662-.618,1.227-1.149,1.733-1.6a6.091,6.091,0,0,1,3.374-1.587,3.836,3.836,0,0,1,2,.3l.044-.044A4.056,4.056,0,0,0,337.9,38.42a5.866,5.866,0,0,0-3.545,1.427,28.027,28.027,0,0,0-2.274,2.147l-1.1-.36-.273-.088-1.188-.355.677-.643c.8-.784,1.563-1.529,2.152-2.035,2.152-1.806,3.506-2.04,4.445-2.05a4.07,4.07,0,0,1,2.434.633l.044-.039A4.655,4.655,0,0,0,335.7,35.6a7.183,7.183,0,0,0-4.426,2.069" transform="translate(-164.428 -18.263)" fill="#202d5c"/><path d="M361.685,17.725c.073.039.2.127.253.034s-.044-.122-.107-.161l-.165-.088-.083.156Zm.083.526-.107-.058-.024-.38-.107-.058-.156.282-.083-.049.336-.613.268.151c.112.058.2.146.131.278a.195.195,0,0,1-.287.063Zm.375-.19a.552.552,0,1,0-.755.214.54.54,0,0,0,.735-.214m-1.066-.511a.643.643,0,1,1,.375.762.643.643,0,0,1-.375-.762" transform="translate(-185.211 -8.761)" fill="#202d5c"/><path d="M124,42.383l1.5,1.582,1.519-1.582L125.5,40.81Z" transform="translate(-63.586 -20.94)" fill="#26285d"/><path d="M107.653,1.582,106.139,0,104.62,1.582l1.519,1.573Z" transform="translate(-53.642)" fill="#26285d"/><path d="M115.82,42.383l1.534,1.582,1.514-1.582-1.514-1.573Z" transform="translate(-59.389 -20.94)" fill="#26285d"/><path d="M115.813,1.582,114.279,0,112.76,1.582l1.519,1.573Z" transform="translate(-57.819)" fill="#26285d"/><path d="M177.749,17.491h-5.356v-.38a8.386,8.386,0,0,1,5.356-7.824Zm40.767-11.1V17.525a3.121,3.121,0,0,1-.287,1.548,1.772,1.772,0,0,1-1.68.837,1.8,1.8,0,0,1-1.7-.837,3.121,3.121,0,0,1-.292-1.548V9.491h-2.615v8h-3.277V9.5h-2.581v7.99h-3.272v-8h-2.6v8H190.17c-2.892-.2-3.569-1.748-3.569-3.184,0-2.021,1.787-2.8,3.744-2.8h4.26V9.491h-3.783c-3.072,0-5.648,1.261-5.648,4.465a3.784,3.784,0,0,0,1.748,3.535h-6.588V7.573c-5.7.706-10.225,4.961-10.225,11.948h7.639v2.434c0,.974.107,2.761-1.276,3.019V26.06a4.562,4.562,0,0,0,3.209-1.913c.536-.906.652-1.728.652-3.632v-.993H212.28a4.23,4.23,0,0,0,.414.764,4.553,4.553,0,0,0,3.856,1.6,4.481,4.481,0,0,0,3.827-1.6,4.735,4.735,0,0,0,.735-2.985V6.39Z" transform="translate(-87.246 -3.279)" fill="#26285d"/><rect width="2.581" height="13.127" transform="translate(137.508 3.111)" fill="#26285d"/><path d="M145.665,12.66H141.93V14.7h3.131c2.434,0,4.869.117,4.869,2.921,0,2.493-1.826,3.053-5.088,3.053H138.59V22.7h6.739c4.061,0,6.052-1.242,6.052-5.069s-2.361-4.966-5.716-4.966" transform="translate(-71.073 -6.496)" fill="#26285d"/><path d="M105.605,18.728H100.3v-.341a8.47,8.47,0,0,1,5.307-7.878Zm6.558,0a3.126,3.126,0,0,1-.3,1.563,1.758,1.758,0,0,1-1.694.828,1.792,1.792,0,0,1-1.68-.828,3.121,3.121,0,0,1-.3-1.563V8.8C102.017,9.384,98,14.278,98,20.758h7.917a4.134,4.134,0,0,0,.414.735,4.527,4.527,0,0,0,3.837,1.6,4.481,4.481,0,0,0,3.827-1.6,4.594,4.594,0,0,0,.76-2.985V9.871h-2.6Z" transform="translate(-50.245 -4.515)" fill="#26285d"/><path d="M170.561,68.81c-2.561,0-4.484-.536-5.667-1.67-1.052-.974-1.534-2.084-1.534-4.3V53.59h2.775v9.64a3.875,3.875,0,0,0,.9,2.96,4.918,4.918,0,0,0,3.53,1.227,4.717,4.717,0,0,0,3.51-1.217,3.73,3.73,0,0,0,.891-2.96V53.58h2.795v9.251c0,2.215-.487,3.325-1.534,4.3-1.188,1.134-3.126,1.67-5.663,1.67" transform="translate(-83.782 -27.492)" fill="#26285d"/><path d="M207.262,66.9a4.333,4.333,0,0,1-2.284-.487c-.424-.365-.433-.974-.433-1.85V54.225c4.275-.38,9.007.886,9.007,6.51,0,4.5-2.921,6.164-6.291,6.164m-.54-13.9a32.45,32.45,0,0,0-7.191.891l.229,1.105a17.788,17.788,0,0,1,2.006-.438V68.194a53.819,53.819,0,0,0,7.683-.175c3.613-.438,7.026-3.155,7.026-7.3,0-5.877-5.254-7.79-9.738-7.717" transform="translate(-102.341 -27.193)" fill="#26285d"/><rect width="2.795" height="14.909" transform="translate(117.974 26.092)" fill="#26285d"/><path d="M130.8,61.762a9.873,9.873,0,0,1,5.969,1.694L133.359,56.5Zm11.418,6.481h-3.165a9.21,9.21,0,0,0-8.857-5.224l-2.546,5.224H125.7l7.79-15.152h.974Z" transform="translate(-64.459 -27.241)" fill="#26285d"/><path d="M258.932,61.762a9.851,9.851,0,0,1,5.964,1.7L261.488,56.5Zm11.418,6.481h-3.165a9.228,9.228,0,0,0-8.861-5.224l-2.542,5.224H253.81L261.6,53.09h1Z" transform="translate(-130.193 -27.241)" fill="#26285d"/><path d="M109.128,53.571a11.408,11.408,0,0,0-4.869-1c-3.647.093-6.072,1.578-6.1,4.26A3.569,3.569,0,0,0,98.6,58.62c1.763,3.019,9.061,2.522,9.061,5.755,0,.925-.881,2.434-3.408,2.434a9.6,9.6,0,0,1-5.8-2.04l-.716,2.186a14.816,14.816,0,0,0,6.393,1.266A7.226,7.226,0,0,0,108.49,66.9a4.168,4.168,0,0,0,1.714-3.481c0-5.356-9.334-4.007-9.334-7.367a1.8,1.8,0,0,1,.419-1.1A3.8,3.8,0,0,1,104.3,53.9a6.427,6.427,0,0,1,4.041,1.524Z" transform="translate(-50.107 -26.973)" fill="#26285d"/><path d="M37.474,41.369l-.054.088A19.574,19.574,0,0,1,3.459,21.981l.044-.058V21.85l-.073.029-.063.044c-.292.419-.565.867-.823,1.315A19.747,19.747,0,1,0,36.8,42.895c.261-.454.485-.917.723-1.384l.039-.093v-.073Z" transform="translate(0.081 -11.211)" fill="#b09256"/><path d="M23.02,5.847c-2.78.594-7.459,3.457-8.452,8.209,3-3.545,6.125-5.4,8.516-5.843-2.434,1.831-4.747,6.1-4.031,9.1,1.3-3.184,3.564-6.3,5.643-7.435-1.178,1.948-1.563,6.636-.438,8.706.268-2.683,1.115-6.179,2.434-7.9l.394,3.369h-.458l.487,3.408h-.38l.4,3.408h-.326l.487,3.408-1.621.828V25.3H29.9v-.117l-1.592-.857-.487.38.487-.38.487-3.408h-.326l.4-3.408h-.385l.487-3.408h-.458l.4-3.408c1.339,1.724,2.186,5.219,2.434,7.9,1.13-2.069.74-6.763-.433-8.706C33,11.023,35.26,14.139,36.56,17.323c.711-3-1.587-7.269-4.031-9.1,2.391.433,5.512,2.293,8.511,5.843-.974-4.752-5.663-7.615-8.452-8.209a16.572,16.572,0,0,1,8.764,2A12.574,12.574,0,0,0,31.034,3.559a3.515,3.515,0,0,1,1.724-1.022,3.754,3.754,0,0,0-3.9.565A3.408,3.408,0,0,0,27.826.91,3.37,3.37,0,0,0,26.784,3.1a3.774,3.774,0,0,0-3.9-.565,3.549,3.549,0,0,1,1.728,1.022A12.675,12.675,0,0,0,14.29,7.853a16.6,16.6,0,0,1,8.764-2" transform="translate(-7.293 -0.467)" fill="#b09256"/><path d="M24.826,51.089l-.837.565-.837-.565C21.909,50.257,11.388,43.216,6.84,48.2c4.2-1.665,10.415,1.461,15.537,4.562l-3.983,2.712c-1.948-1.909-2.7-1.6-2.873-1.529a.536.536,0,0,0-.336.487.512.512,0,1,0,1.022.068v-.117a13.633,13.633,0,0,1,2.313,2.064A11.489,11.489,0,0,0,20.7,58.393a1.237,1.237,0,0,0,.691.175.55.55,0,0,0,.545-.487.487.487,0,0,0-.487-.545.516.516,0,0,0-.526.521v.049a14.27,14.27,0,0,1-1.461-1.524c1.232-.706,2.8-1.719,4.552-2.814,1.753,1.1,3.321,2.108,4.552,2.814A13.351,13.351,0,0,1,27.1,58.105v-.049a.516.516,0,0,0-.565-.54.487.487,0,0,0-.487.545.54.54,0,0,0,.54.487,1.266,1.266,0,0,0,.691-.156,10.676,10.676,0,0,0,2.176-1.948,13.462,13.462,0,0,1,2.322-2.113v.117a.521.521,0,0,0,.521.487.531.531,0,0,0,.487-.54.545.545,0,0,0-.336-.487c-.18-.073-.91-.38-2.878,1.524-1.237-.789-2.7-1.8-3.973-2.673,5.122-3.087,11.34-6.227,15.537-4.562-4.552-4.981-15.069,2.06-16.316,2.892" transform="translate(-3.47 -23.823)" fill="#b09256"/><path d="M19.047,67.833a2.356,2.356,0,0,0-.414-.175.166.166,0,0,0-.151.044.2.2,0,0,0,0,.2.881.881,0,0,0,.248.292c.687.6,2.069,1.134,5.721-.906l-.375-.351-.633-.667c-1.923,1.217-3.452,1.948-4.382,1.563" transform="translate(-9.431 -34.004)" fill="#b09256"/><path d="M58.8,67.833c-.945.385-2.473-.346-4.382-1.563-.19.19-.4.414-.652.667-.117.117-.229.239-.336.351,3.637,2.04,5.025,1.5,5.711.906a.823.823,0,0,0,.248-.292.175.175,0,0,0,0-.2.156.156,0,0,0-.146-.044,2.356,2.356,0,0,0-.414.175" transform="translate(-27.376 -34.004)" fill="#b09256"/></g></svg>