<svg xmlns="http://www.w3.org/2000/svg" width="44.334" height="36.001" viewBox="0 0 44.334 36.001"><g transform="translate(0 -22.328)"><g transform="translate(0 22.328)"><path d="M39.634,45.238H35.1V43.6c0-2.712-2.48-4.909-5.542-4.909H25.861V35.882l4.512-2.02a4.428,4.428,0,0,0,.387-8.128l-5.775-3.16-.075-.038-.023-.012a2.027,2.027,0,0,0-1.406-.125l-.026.007q-.071.02-.139.045l-.057.022-.082.035-.059.027c-.039.019-.077.04-.115.062l-.049.03q-.049.03-.1.063l-.025.017c-.043.031-.084.065-.123.1l-.005,0a1.559,1.559,0,0,0-.5.821c0,.006,0,.012,0,.018q-.012.058-.02.118c0,.019,0,.039-.007.058s0,.059-.005.089,0,.033,0,.051V38.693H18.472a2,2,0,0,0-1.154.359l-8.73,6.186H1.848A1.725,1.725,0,0,0,.01,47.044,14.023,14.023,0,0,0,.354,48.77a16.777,16.777,0,0,0,1.415,3.71,10.13,10.13,0,0,0,9.346,5.849H35.1a1.706,1.706,0,0,0,1.816-1.936c0-.005-.008-.048-.017-.121a3.472,3.472,0,0,1,.142-1.541c.308-.863.977-1.311,2.6-1.311,2.614,0,4.7-1.733,4.7-4.091S42.248,45.238,39.634,45.238ZM25.862,26.9l2.956,1.618a1.324,1.324,0,0,1-.112,2.423l-2.845,1.274ZM19.12,41.965H29.556A1.75,1.75,0,0,1,31.4,43.6v1.636H14.5Zm20.514,8.182c-3.254,0-5.331,1.393-6.118,3.6a5.9,5.9,0,0,0-.3,1.311h-22.1c-2.723,0-4.65-1.42-6-3.969A13.514,13.514,0,0,1,4.083,48.51H39.634c.625,0,1,.316,1,.818S40.259,50.147,39.634,50.147Z" transform="translate(0 -22.328)" fill="#393185"/></g></g></svg>