<svg xmlns="http://www.w3.org/2000/svg" width="32.505" height="36.358" viewBox="0 0 32.505 36.358"><path d="M39.613-511.813a1.427,1.427,0,0,0,.014,2.621,3.277,3.277,0,0,0,1.051.107h.781v2.621l-.4.043a15.619,15.619,0,0,0-10.194,5.6,15.6,15.6,0,0,0-3.3,7.324,22.548,22.548,0,0,0,0,4.894,15.591,15.591,0,0,0,8.261,11.344,15.423,15.423,0,0,0,13.845.1,14.117,14.117,0,0,0,4.042-2.863,15.4,15.4,0,0,0,4.482-8.858,19.8,19.8,0,0,0,.043-4.049,15.613,15.613,0,0,0-3.019-7.444,4.14,4.14,0,0,1-.4-.59,9.888,9.888,0,0,1,.881-.945l.888-.888.575.554c.625.6.9.753,1.35.753a1.418,1.418,0,0,0,1.286-2.025,23.8,23.8,0,0,0-2.252-2.387c-2.032-2.01-2.138-2.11-2.486-2.188a1.38,1.38,0,0,0-1.733,1.328c0,.533.142.81.746,1.428l.526.547-.909.909-.909.909-.675-.5a15.231,15.231,0,0,0-6.095-2.735c-.49-.1-1.073-.2-1.293-.227l-.412-.043v-2.621h.767c.881,0,1.193-.107,1.556-.519a1.62,1.62,0,0,0,.376-.9,1.58,1.58,0,0,0-.888-1.286c-.263-.121-.533-.135-3.268-.128A14.9,14.9,0,0,0,39.613-511.813Zm4.532,8.2a12.568,12.568,0,0,1,9.192,5.527A12.55,12.55,0,0,1,53.33-484a12.578,12.578,0,0,1-13.113,5.313,13.6,13.6,0,0,1-4.646-2.032,12.632,12.632,0,0,1-5.335-10.321,12.192,12.192,0,0,1,3.694-8.879,11.181,11.181,0,0,1,3.3-2.415A12.287,12.287,0,0,1,44.145-503.609Z" transform="translate(-27.425 511.921)" fill="#1d86ef"/><path d="M225.966-355.791a1.259,1.259,0,0,0-.8.675l-.163.305v4.539c0,4.319.007,4.553.135,4.8a1.385,1.385,0,0,0,.732.689,49.042,49.042,0,0,0,7-.007,1.362,1.362,0,0,0,.888-1.307,1.25,1.25,0,0,0-.426-1.009c-.419-.4-.519-.412-3.111-.412h-2.38V-351a37.58,37.58,0,0,0-.085-3.815,1.485,1.485,0,0,0-.995-.994A.936.936,0,0,0,225.966-355.791Z" transform="translate(-210.965 366.974)" fill="#1d86ef"/></svg>