<svg xmlns="http://www.w3.org/2000/svg" width="40" height="44.759" viewBox="0 0 40 44.759"><g transform="translate(-27.311)"><path d="M46.226-511.746a4.8,4.8,0,0,0-3.358,3.315l-.061.324-1.268.42a14.294,14.294,0,0,0-2.816,1.146,17.85,17.85,0,0,0-4.443,3.1l-.761.735L33-502.835a4.6,4.6,0,0,0-5.676,4.075,4.752,4.752,0,0,0,1.189,3.437l.429.472-.219.9a16.825,16.825,0,0,0-.455,4.889,16.041,16.041,0,0,0,.507,4.18l.175.726-.437.481a4.752,4.752,0,0,0-1.189,3.437,4.668,4.668,0,0,0,3.428,4.075,5.286,5.286,0,0,0,2.283,0l.455-.14.682.665a19.256,19.256,0,0,0,7.32,4.32l1.312.42.061.332a4.39,4.39,0,0,0,1.2,2.055,4.484,4.484,0,0,0,5.361.866,4.827,4.827,0,0,0,2.326-2.93l.07-.332.91-.271a18.965,18.965,0,0,0,7.617-4.39l.752-.726.516.131a4.594,4.594,0,0,0,5.676-4.067,4.722,4.722,0,0,0-1.189-3.446l-.437-.481.175-.682a15.017,15.017,0,0,0,.49-4.661,14.681,14.681,0,0,0-.49-4.618l-.175-.726.437-.481a4.576,4.576,0,0,0-3.358-7.644,5.459,5.459,0,0,0-1.119.131l-.507.131-.63-.612a18.842,18.842,0,0,0-4.478-3.175,17.188,17.188,0,0,0-3.061-1.242l-1.128-.367-.07-.332a4.5,4.5,0,0,0-1.2-2.064A4.539,4.539,0,0,0,46.226-511.746Zm1.968,2.729a2.062,2.062,0,0,1,.735.621c.245.341.262.437.262,1.1s-.017.761-.262,1.1a2.2,2.2,0,0,1-1.618.866,2.2,2.2,0,0,1-1.618-.866c-.245-.341-.262-.437-.262-1.1s.017-.761.262-1.1a2.2,2.2,0,0,1,1.618-.866A1.878,1.878,0,0,1,48.194-509.018ZM43.41-504.9a4.735,4.735,0,0,0,3.9,2.2,4.735,4.735,0,0,0,3.9-2.2,2.2,2.2,0,0,1,.385-.516c.035,0,.525.157,1.093.35A16.776,16.776,0,0,1,58.5-501.6l.525.49-.219.35a5.079,5.079,0,0,0-.568,3.315,4.626,4.626,0,0,0,1.907,2.816,4.81,4.81,0,0,0,2.37.813c.813.07.726-.044.988,1.233a21.038,21.038,0,0,1,.131,5.361c-.087.551-.21,1.242-.28,1.53l-.131.525-.682.017a4.584,4.584,0,0,0-4.3,3.586,5.035,5.035,0,0,0,.586,3.367l.21.324-.638.568a16.324,16.324,0,0,1-4.014,2.676,17.373,17.373,0,0,1-2.772,1.049,1.9,1.9,0,0,1-.394-.516,4.735,4.735,0,0,0-3.9-2.2,4.735,4.735,0,0,0-3.9,2.2,2.639,2.639,0,0,1-.376.516c-.035,0-.464-.14-.962-.306a17.124,17.124,0,0,1-5.929-3.489l-.542-.5.254-.411a4.755,4.755,0,0,0,.166-4.329,4.7,4.7,0,0,0-3.909-2.562c-.813-.07-.726.044-.988-1.233a15.181,15.181,0,0,1-.227-2.536,14.77,14.77,0,0,1,.332-4.137l.175-.743.682-.017a4.342,4.342,0,0,0,3.07-1.338,4.624,4.624,0,0,0,.7-5.527l-.254-.411.542-.5a17.563,17.563,0,0,1,5.877-3.489c.481-.157.918-.3.971-.3S43.235-505.178,43.41-504.9Zm-10.634,4.766a1.542,1.542,0,0,1,.883.927,1.949,1.949,0,0,1-2.825,2.449,1.962,1.962,0,0,1-.254-3.078A1.946,1.946,0,0,1,32.776-500.132Zm30.7-.07a1.958,1.958,0,0,1,.35,3.411,1.894,1.894,0,0,1-2.353-.122,1.923,1.923,0,0,1-.507-2.291,1.474,1.474,0,0,1,.91-.927A2.01,2.01,0,0,1,63.472-500.2ZM32.4-482.493a2.215,2.215,0,0,1,1.277,1.076,2.1,2.1,0,0,1-.017,1.627,1.474,1.474,0,0,1-.91.927,1.913,1.913,0,0,1-2.79-1.767,1.9,1.9,0,0,1,1.338-1.837A1.577,1.577,0,0,1,32.4-482.493Zm30.906.044a1.928,1.928,0,0,1,1.146,2.746,1.913,1.913,0,0,1-2.58.84,1.474,1.474,0,0,1-.91-.927,1.963,1.963,0,0,1,1.3-2.72A1.562,1.562,0,0,1,63.306-482.449Zm-15.112,9.025a2.062,2.062,0,0,1,.735.621c.245.341.262.437.262,1.1s-.017.761-.262,1.1a2.2,2.2,0,0,1-1.618.866,2.2,2.2,0,0,1-1.618-.866c-.245-.341-.262-.437-.262-1.1s.017-.761.262-1.1a2.2,2.2,0,0,1,1.618-.866A1.878,1.878,0,0,1,48.194-473.424Z" transform="translate(0 511.875)" fill="#1d86ef"/><path d="M155.333-375.211l-4.833,2.79v11.305l4.741,2.743c2.605,1.51,4.806,2.762,4.889,2.79s2.136-1.1,4.971-2.743l4.824-2.78V-372.43l-4.824-2.78c-2.661-1.537-4.852-2.789-4.889-2.789S157.985-376.748,155.333-375.211Zm7.494,1.878c1.372.792,2.605,1.51,2.743,1.593l.239.147-2.743,1.583c-1.51.875-2.789,1.583-2.845,1.583s-1.344-.718-2.863-1.593c-2.513-1.445-2.734-1.593-2.55-1.694.11-.064,1.344-.773,2.734-1.583s2.587-1.473,2.661-1.473S161.446-374.124,162.827-373.332Zm-6.721,5.782,2.725,1.565v6.509l-.2-.129c-.12-.074-1.381-.81-2.808-1.639l-2.605-1.491v-3.222a26.956,26.956,0,0,1,.083-3.185C153.354-369.134,154.615-368.416,156.107-367.551Zm11.1,1.6v3.213l-2.6,1.5c-1.436.819-2.7,1.556-2.808,1.629l-.212.129v-3.25l.009-3.259,2.734-1.583c1.5-.865,2.762-1.583,2.808-1.583S167.209-367.717,167.209-365.949Z" transform="translate(-112.902 389.148)" fill="#1d86ef"/></g></svg>