<svg xmlns="http://www.w3.org/2000/svg" width="59.318" height="59.299" viewBox="0 0 59.318 59.299"><g transform="translate(0 511.835)"><path d="M22.939-511.669a7.056,7.056,0,0,0-5.271,5.318,6.845,6.845,0,0,0,1.216,5.573l.452.591-.313.3-.313.3L18.189-500a7.209,7.209,0,0,0-4.171-1.425,7.063,7.063,0,0,0-6.778,5.5c-.139.672-.174,2.259-.174,9.106,0,5.167.046,8.539.116,8.921a5.275,5.275,0,0,0,4.229,4.171,39.674,39.674,0,0,0,5.77-.07l.313-.081v3.9l-3.128,4.808c-1.726,2.642-3.232,5.017-3.348,5.271a5.517,5.517,0,0,0-.29,3.5l.081.382H6.094c-4.5,0-4.739.012-5.167.232A1.829,1.829,0,0,0,0-454.273a1.829,1.829,0,0,0,.927,1.506c.452.232.614.232,28.732.232s28.28,0,28.732-.232a1.829,1.829,0,0,0,.927-1.506,1.829,1.829,0,0,0-.927-1.506c-.44-.22-.672-.232-6.778-.232H45.3v-28.327l.753-.394A5.153,5.153,0,0,0,48.683-490,5.236,5.236,0,0,0,44.5-494.36c-.359-.07-2.572-.116-5.214-.116H34.7L31.362-496.7c-3.256-2.167-3.337-2.236-3.082-2.4a9.989,9.989,0,0,0,2.282-2.526,6.84,6.84,0,0,0-1.24-8.156A6.79,6.79,0,0,0,22.939-511.669Zm2.92,3.615a3.875,3.875,0,0,1,1.749,1.749,3.9,3.9,0,0,1,0,2.8,3.925,3.925,0,0,1-1.761,1.761,3.9,3.9,0,0,1-2.8,0,3.523,3.523,0,0,1-1.958-3.962A3.479,3.479,0,0,1,25.859-508.054ZM15.432-497.627a3.955,3.955,0,0,1,1.761,1.749c.22.475.243.776.278,2.7L17.517-491H10.543v-1.946c0-2.143.1-2.734.637-3.51A3.5,3.5,0,0,1,15.432-497.627Zm8.006-.139c.2.1,2.468,1.6,5.051,3.325s4.854,3.2,5.063,3.279c.313.127,1.4.162,5.376.162,4.773,0,5.017.012,5.445.232a1.829,1.829,0,0,1,.927,1.506,1.829,1.829,0,0,1-.927,1.506c-.44.22-.672.232-5.967.232-4.426,0-5.584-.035-5.9-.162-.209-.081-1.495-.9-2.85-1.807-2.5-1.668-3.035-1.97-3.5-1.97a2,2,0,0,0-1.46.915c-.255.44-.255.521-.255,5.341,0,4.773.012,4.9.243,5.329.209.359,1.1,1.008,4.993,3.6,4,2.665,4.785,3.244,4.97,3.6.209.405.22.788.22,7.855,0,7.206-.012,7.438-.232,7.878a1.829,1.829,0,0,1-1.506.927,1.829,1.829,0,0,1-1.506-.927c-.22-.44-.232-.672-.232-6.963,0-6.407,0-6.511-.243-6.94-.209-.359-1.1-1.008-4.993-3.6-4-2.665-4.785-3.244-4.97-3.6-.209-.417-.22-.823-.22-9.5v-9.072l.278-.452A1.662,1.662,0,0,1,23.438-497.766Zm-5.943,14.76c0,4.31-.012,4.553-.232,4.982-.417.811-.811.927-3.244.927s-2.827-.116-3.244-.927c-.22-.429-.232-.672-.232-4.982v-4.518h6.951Zm13.961-1.321c.521.2,1.054.22,5.48.255l4.889.035v28.026H38.093l.093-.313c.151-.545.2-15.745.046-16.533a5.421,5.421,0,0,0-1.193-2.456,44.24,44.24,0,0,0-4.8-3.418l-4.321-2.885v-4.866l1.483.973A15.92,15.92,0,0,0,31.455-484.327ZM24.446-469.8a6.617,6.617,0,0,1-.162,2c-.139.359-6.673,10.45-7.16,11.087a1.683,1.683,0,0,1-2.178.452,1.694,1.694,0,0,1-.741-2.213c.1-.2,1.6-2.537,3.325-5.179s3.2-4.982,3.279-5.19a10.025,10.025,0,0,0,.162-2.642v-2.259l1.738,1.159,1.738,1.159ZM28.1-456.336l.081.324H20.854l.614-.962c.348-.521,1.761-2.688,3.14-4.808,2.665-4.078,3-4.669,3.163-5.41a45.4,45.4,0,0,1,.162,5.04C27.968-459.128,28.037-456.509,28.1-456.336Z" fill="#00a0e3"/></g></svg>