<svg xmlns="http://www.w3.org/2000/svg" width="15.693" height="15.702" viewBox="0 0 15.693 15.702"><path d="M15.375,13.964a2.956,2.956,0,0,1-1.362,1.168,4.289,4.289,0,0,1-2.076.568,8.63,8.63,0,0,1-2.927-.771,10.258,10.258,0,0,1-1.953-.946A18.917,18.917,0,0,1,1.7,8.662,10.556,10.556,0,0,1,.752,6.709,9.061,9.061,0,0,1,0,3.782,4.289,4.289,0,0,1,.568,1.706,2.956,2.956,0,0,1,1.755.344,5.018,5.018,0,0,1,3.31,0a.563.563,0,0,1,.232.033c.236.08.473.624.6.851.355.634.7,1.282,1.069,1.892.18.293.515.648.515.993,0,.681-2.024,1.674-2.024,2.279a2.365,2.365,0,0,0,.44.946A11.09,11.09,0,0,0,8.7,11.562,2.4,2.4,0,0,0,9.648,12c.605,0,1.6-2.024,2.279-2.024.345,0,.7.336.993.515.624.369,1.272.714,1.892,1.074.222.109.766.355.847.591a.563.563,0,0,1,.033.232,4.989,4.989,0,0,1-.317,1.58Z" transform="translate(0 0.003)" fill="#fff"/></svg>