<svg xmlns="http://www.w3.org/2000/svg" width="66.769" height="40.679" viewBox="0 0 66.769 40.679"><g transform="translate(-171.231 -6695.343)"><path d="M-6742.387,7033.92c3.845,6.536-25.87-1.351-22.011-25.044,1.484-9.4,7.767-13.047,14.449-13.406,7.607-.417,14.761,4.708,14.761,13.406.107,5.435-2.071,8.895-5.4,10.177-4.486,2.179-6.537.128-8.331,3.332C-6750.333,7026.359-6747.385,7029.819-6742.387,7033.92Z" transform="translate(6935.975 -300.104)" fill="#00a0e3"/><path d="M-6742.387,7033.92c3.845,6.536-25.87-1.351-22.011-25.044,1.484-9.4,7.767-13.047,14.449-13.406,7.607-.417,14.761,4.708,14.761,13.406.107,5.435-2.071,8.895-5.4,10.177-4.486,2.179-6.537.128-8.331,3.332C-6750.333,7026.359-6747.385,7029.819-6742.387,7033.92Z" transform="translate(6973.184 -300.104)" fill="#00a0e3"/></g></svg>