<?xml version="1.0" standalone="no"?>
<!DOCTYPE svg PUBLIC "-//W3C//DTD SVG 20010904//EN"
 "http://www.w3.org/TR/2001/REC-SVG-20010904/DTD/svg10.dtd">
<svg version="1.0" xmlns="http://www.w3.org/2000/svg"
 width="512.000000pt" height="512.000000pt" viewBox="0 0 512.000000 512.000000"
 preserveAspectRatio="xMidYMid meet">

<g transform="translate(0.000000,512.000000) scale(0.100000,-0.100000)"
fill="#ffffff" stroke="none">
<path d="M2438 4950 c-203 -37 -414 -161 -527 -309 -98 -130 -232 -208 -405
-236 -174 -28 -329 -105 -464 -230 -166 -153 -244 -340 -246 -585 0 -133 13
-203 60 -319 64 -154 64 -308 1 -462 -48 -116 -61 -185 -61 -319 2 -245 80
-432 246 -585 73 -68 174 -135 256 -172 31 -13 58 -26 60 -28 1 -1 -109 -195
-245 -430 -231 -401 -247 -431 -246 -476 1 -64 31 -112 89 -139 l45 -22 251
16 c138 9 252 15 254 13 2 -2 51 -100 108 -219 113 -231 142 -271 212 -284 48
-9 112 11 143 46 14 15 140 226 280 469 l253 441 58 0 58 0 253 -441 c140
-243 266 -454 280 -469 31 -35 95 -55 143 -46 69 13 98 52 211 284 58 119 107
217 109 219 2 2 116 -4 254 -13 l251 -16 45 22 c59 28 88 75 88 140 0 46 -15
77 -246 476 -136 235 -245 428 -244 429 2 2 29 15 60 28 82 37 183 104 256
172 166 153 244 340 246 585 0 133 -13 203 -60 319 -42 102 -57 203 -44 305 5
42 24 110 44 157 47 116 60 186 60 319 -2 245 -80 432 -246 585 -135 126 -291
203 -465 230 -172 28 -305 106 -408 240 -31 41 -88 99 -128 129 -82 63 -231
136 -327 161 -76 19 -245 28 -312 15z m227 -325 c136 -36 220 -95 347 -247
122 -144 341 -260 543 -287 142 -19 299 -115 374 -228 50 -75 73 -162 74 -278
0 -68 -5 -113 -16 -140 -86 -221 -107 -340 -88 -502 11 -88 33 -167 88 -308
11 -27 16 -72 16 -140 -1 -116 -24 -203 -74 -278 -75 -113 -232 -209 -374
-228 -202 -27 -421 -143 -543 -287 -90 -108 -156 -167 -222 -199 -167 -82
-293 -82 -460 0 -66 32 -132 91 -222 199 -122 144 -341 260 -543 287 -142 19
-299 115 -374 228 -50 75 -73 162 -74 278 0 68 5 113 16 140 56 143 77 220 87
308 19 166 -2 283 -87 502 -11 27 -16 72 -16 140 1 116 24 203 74 278 75 113
232 209 374 228 201 27 415 139 536 280 102 119 163 174 230 206 126 62 225
76 334 48z m-942 -3021 c62 -32 136 -96 188 -164 55 -72 141 -148 222 -194 26
-16 47 -32 47 -36 0 -4 -71 -131 -157 -280 l-157 -272 -72 144 c-99 197 -107
202 -325 187 -77 -6 -143 -8 -146 -5 -5 5 356 636 364 636 2 0 18 -7 36 -16z
m1897 -300 c100 -173 180 -318 177 -320 -3 -3 -69 -1 -146 5 -219 15 -226 11
-324 -185 l-73 -146 -157 272 c-86 149 -157 276 -157 281 0 5 15 16 33 25 69
35 178 128 232 198 30 40 74 88 96 105 39 32 118 81 130 81 4 0 88 -142 189
-316z"/>
<path d="M2980 3510 c-14 -6 -150 -135 -302 -288 l-278 -276 -122 121 c-132
130 -156 143 -235 128 -49 -9 -109 -69 -118 -118 -16 -85 -9 -97 203 -309 167
-167 203 -198 234 -203 91 -17 84 -22 465 358 251 250 356 361 364 385 22 68
-2 140 -63 185 -31 23 -111 32 -148 17z"/>
</g>
</svg>
