<svg xmlns="http://www.w3.org/2000/svg" width="37.651" height="47.022" viewBox="0 0 37.651 47.022"><g transform="translate(-63.775 496.138)"><path d="M67.333-495.968a4.811,4.811,0,0,0-3.389,3.438c-.225.842-.225,38.978,0,39.821a4.792,4.792,0,0,0,3.428,3.447c.509.127,2.39.147,15.229.147s14.72-.02,15.229-.147a4.792,4.792,0,0,0,3.428-3.447c.225-.842.225-38.978,0-39.821a4.792,4.792,0,0,0-3.428-3.447C96.978-496.193,68.155-496.193,67.333-495.968Zm30.213,3.232a2.67,2.67,0,0,1,.47.47l.206.264v38.743l-.284.362c-.529.7.607.646-15.474.627C67.95-452.3,67.92-452.3,67.656-452.5a2.67,2.67,0,0,1-.47-.47l-.206-.264-.029-19.117c-.01-10.518,0-19.254.029-19.43a1.7,1.7,0,0,1,.881-1.068c.245-.108,2.9-.127,14.857-.108C97.252-492.941,97.281-492.941,97.546-492.736Z" transform="translate(0)" fill="#00a0e3"/><path d="M139.571-431.7a12.438,12.438,0,0,0-7.453,3.653,12.288,12.288,0,0,0-3.477,6.376,15.79,15.79,0,0,0,0,4.9,12.282,12.282,0,0,0,3.477,6.376,12.282,12.282,0,0,0,6.376,3.477,15.79,15.79,0,0,0,4.9,0,12.288,12.288,0,0,0,6.376-3.477,12.282,12.282,0,0,0,3.477-6.376,15.791,15.791,0,0,0,0-4.9,12.282,12.282,0,0,0-3.477-6.376,12.072,12.072,0,0,0-6.18-3.428A19.21,19.21,0,0,0,139.571-431.7Zm1.831,3.261c.715.441,1.547,2.115,2.076,4.172a22.8,22.8,0,0,1,.5,3.173v.3h-6.072v-.3a20.354,20.354,0,0,1,.6-3.516c.588-2.223,1.675-4.015,2.439-4.015A1.473,1.473,0,0,1,141.4-428.438Zm-5.69,2.135a22,22,0,0,0-.94,5.073v.441h-1.518c-1.724,0-1.616.078-1.361-.921a10.363,10.363,0,0,1,2.076-3.8,9.438,9.438,0,0,1,1.949-1.606A3.1,3.1,0,0,1,135.712-426.3Zm11.018-.3a9.793,9.793,0,0,1,3.261,4.9c.255,1,.362.921-1.361.921h-1.518v-.441a22.806,22.806,0,0,0-.97-5.181C145.829-427.3,145.809-427.3,146.73-426.607Zm-11.958,9.392a22,22,0,0,0,.94,5.073,3.1,3.1,0,0,1,.206.813,9.438,9.438,0,0,1-1.949-1.606,10.363,10.363,0,0,1-2.076-3.8c-.255-1-.362-.921,1.361-.921h1.518Zm9.206-.137a22.807,22.807,0,0,1-.5,3.173c-.548,2.164-1.43,3.868-2.194,4.231a.559.559,0,0,1-.686,0c-.764-.362-1.645-2.066-2.194-4.231a22.807,22.807,0,0,1-.5-3.173v-.3h6.072Zm6.17-.147a7.842,7.842,0,0,1-.783,2.35,10.414,10.414,0,0,1-2.017,2.791,6.137,6.137,0,0,1-1.391,1.028,3.983,3.983,0,0,1,.215-.813,22,22,0,0,0,.94-5.073v-.441h1.518C149.962-417.656,150.148-417.636,150.148-417.5Z" transform="translate(-58.341 -58.098)" fill="#00a0e3"/><path d="M161.031-127.654a1.611,1.611,0,0,0-.891,1.773,1.676,1.676,0,0,0,1.019,1.126c.245.078,2.987.1,8.56.078,8.1-.029,8.2-.029,8.462-.235a1.383,1.383,0,0,0,.676-1.312,1.383,1.383,0,0,0-.676-1.312c-.264-.206-.353-.206-8.56-.225C162.872-127.781,161.266-127.762,161.031-127.654Z" transform="translate(-86.902 -332.293)" fill="#00a0e3"/></g></svg>